<svg xmlns="http://www.w3.org/2000/svg" viewBox="0 0 46.29 46.29"><defs><style>.cls-1{fill:#474747;}</style></defs><title>facebBook</title><g id="Layer_2" data-name="Layer 2"><g id="_main_info" data-name=" main info"><path class="cls-1" d="M37.63,0h-29A8.69,8.69,0,0,0,0,8.66v29a8.69,8.69,0,0,0,8.66,8.66H24.52V26.93H20.2V19.88h4.32V14.33c0-5.21,2.79-7.93,9-7.93h5.75v7.23H34.74c-1.59,0-1.92.65-1.92,2.29v4h6.41l-.62,7H32.82V46.29h4.8a8.69,8.69,0,0,0,8.66-8.66v-29A8.69,8.69,0,0,0,37.63,0Z"/></g></g></svg>