<?xml version="1.0" encoding="utf-8"?>
<!-- Generator: Adobe Illustrator 22.1.0, SVG Export Plug-In . SVG Version: 6.00 Build 0)  -->
<svg version="1.1" id="Layer_1" xmlns="http://www.w3.org/2000/svg" xmlns:xlink="http://www.w3.org/1999/xlink" x="0px" y="0px"
	 viewBox="0 0 46.3 46.3" style="enable-background:new 0 0 46.3 46.3;" xml:space="preserve">
<style type="text/css">
	.st0{fill:#474747;}
</style>
<title>facebBook</title>
<g>
	<path class="st0" d="M23.1,4.2c6.2,0,6.9,0,9.4,0.1c2.3,0.1,3.5,0.5,4.3,0.8c1.1,0.4,1.9,0.9,2.7,1.7s1.3,1.6,1.7,2.7
		c0.3,0.8,0.7,2,0.8,4.3c0.1,2.4,0.1,3.2,0.1,9.4s0,6.9-0.1,9.4c-0.1,2.3-0.5,3.5-0.8,4.3c-0.4,1.1-0.9,1.9-1.7,2.7
		s-1.6,1.3-2.7,1.7c-0.8,0.3-2,0.7-4.3,0.8c-2.4,0.1-3.2,0.1-9.4,0.1s-6.9,0-9.4-0.1c-2.3-0.1-3.5-0.5-4.3-0.8
		c-1.1-0.4-1.9-0.9-2.7-1.7S5.4,38,5,36.9c-0.3-0.8-0.7-2-0.8-4.3c-0.1-2.4-0.1-3.2-0.1-9.4s0-6.9,0.1-9.4c0.1-2.3,0.5-3.5,0.8-4.3
		c0.5-1.1,1-1.9,1.8-2.7s1.6-1.3,2.7-1.7c0.8-0.3,2-0.7,4.3-0.8C16.2,4.2,17,4.2,23.1,4.2 M23.1,0c-6.3,0-7.1,0-9.5,0.1
		C11.1,0.3,9.5,0.6,8,1.2S5.2,2.6,3.9,3.9S1.8,6.5,1.2,8s-1,3.2-1.1,5.6C0,16.1,0,16.9,0,23.1c0,6.3,0,7.1,0.1,9.5
		c0.1,2.5,0.5,4.1,1.1,5.6s1.4,2.8,2.7,4.1S6.5,44.4,8,45c1.5,0.6,3.2,1,5.6,1.1c2.5,0.1,3.3,0.1,9.5,0.1c6.3,0,7.1,0,9.5-0.1
		c2.5-0.1,4.1-0.5,5.6-1.1s2.8-1.4,4.1-2.7s2.1-2.6,2.7-4.1c0.6-1.5,1-3.2,1.1-5.6c0.1-2.5,0.1-3.3,0.1-9.5c0-6.3,0-7.1-0.1-9.5
		c-0.1-2.5-0.5-4.1-1-5.6c-0.6-1.5-1.4-2.8-2.7-4.1s-2.6-2.1-4.1-2.7s-3.2-1-5.6-1.1C30.2,0,29.4,0,23.1,0"/>
	<path class="st0" d="M23.1,11.3c-6.6,0-11.9,5.3-11.9,11.9s5.3,11.9,11.9,11.9S35,29.7,35,23.1C35,16.6,29.7,11.3,23.1,11.3
		 M23.1,30.9c-4.3,0-7.7-3.5-7.7-7.7s3.5-7.7,7.7-7.7s7.7,3.5,7.7,7.7S27.4,30.9,23.1,30.9"/>
	<path class="st0" d="M38.3,10.8c0,1.5-1.2,2.8-2.8,2.8c-1.5,0-2.8-1.2-2.8-2.8C32.7,9.3,34,8,35.5,8S38.3,9.3,38.3,10.8"/>
</g>
</svg>
