<?xml version="1.0" encoding="utf-8"?>
<!-- Generator: Adobe Illustrator 21.1.0, SVG Export Plug-In . SVG Version: 6.00 Build 0)  -->
<!DOCTYPE svg PUBLIC "-//W3C//DTD SVG 1.1//EN" "http://www.w3.org/Graphics/SVG/1.1/DTD/svg11.dtd">
<svg version="1.1" id="Layer_1" xmlns="http://www.w3.org/2000/svg" xmlns:xlink="http://www.w3.org/1999/xlink" x="0px" y="0px"
	 viewBox="0 0 64.9 32.4" style="enable-background:new 0 0 64.9 32.4;" xml:space="preserve">
<style type="text/css">
	.st0{fill:#777777;}
</style>
<title>sign</title>
<g id="Layer_2">
	<g id="menu_1">
		<path class="st0" d="M1.7,0h5.8c1,0,1.7,0.8,1.7,1.7v29c0,1-0.8,1.7-1.7,1.7H1.7c-1,0-1.7-0.8-1.7-1.7v-29C0,0.8,0.8,0,1.7,0z"/>
		<path class="st0" d="M38.8,9.3h5.8c1,0,1.7,0.8,1.7,1.7v19.7c0,1-0.8,1.7-1.7,1.7h-5.8c-1,0-1.7-0.8-1.7-1.7V11
			C37.1,10,37.9,9.3,38.8,9.3z"/>
		<path class="st0" d="M52.7,13.9c-1,0-1.7,0.8-1.7,1.7v5.8c0,1,0.8,1.7,1.7,1.7l0,0h1.2c1,0,1.7,0.8,1.7,1.7l0,0v5.8
			c0,1,0.8,1.7,1.7,1.7l0,0h5.8c1,0,1.7-0.8,1.7-1.7l0,0v-15c0-1-0.8-1.7-1.7-1.7l0,0L52.7,13.9z"/>
		<path class="st0" d="M20.3,0h5.8c1,0,1.7,0.8,1.7,1.7v5.8c0,1-0.8,1.7-1.7,1.7h-5.8c-1,0-1.7-0.8-1.7-1.7V1.7
			C18.5,0.8,19.3,0,20.3,0z"/>
		<path class="st0" d="M20.3,13.9h5.8c1,0,1.7,0.8,1.7,1.7v15.1c0,1-0.8,1.7-1.7,1.7h-5.8c-1,0-1.7-0.8-1.7-1.7V15.6
			C18.5,14.7,19.3,13.9,20.3,13.9z"/>
	</g>
</g>
</svg>
