<svg xmlns="http://www.w3.org/2000/svg" viewBox="0 0 1273.53 682.38"><defs><style>.cls-1,.cls-3{opacity:0.9;}.cls-2,.cls-3,.cls-4{fill:#fff;}.cls-4{font-size:15px;font-family:Arial-Black, Arial Black;letter-spacing:0.02em;}.cls-5{letter-spacing:-0.01em;}</style></defs><title>logos</title><g id="Layer_2" data-name="Layer 2"><g id="logo_part" data-name="logo part"><g class="cls-1"><path class="cls-2" d="M6.52,129.68l-.84-.25a3,3,0,0,1-1.53-1.07,2.89,2.89,0,0,1-.55-1.52,3.73,3.73,0,0,1,.19-1.38,2.78,2.78,0,0,1,.67-1.19,2.72,2.72,0,0,1,1.35-.85,3,3,0,0,1,1.89.13,1.93,1.93,0,0,0,1.37-.1,1.91,1.91,0,0,0,.83-2.4,1.79,1.79,0,0,0-1.06-.93A6.44,6.44,0,0,0,4.72,120a6.6,6.6,0,0,0-3,2,5.91,5.91,0,0,0-1.32,2.34A6.21,6.21,0,0,0,0,127a6.74,6.74,0,0,0,1.17,3.39,6.28,6.28,0,0,0,3.35,2.37l.83.31a2.94,2.94,0,0,1,1.55,1,3,3,0,0,1,.53,1.58A2.46,2.46,0,0,1,7.28,137a3.94,3.94,0,0,1-.69,1.19,2.58,2.58,0,0,1-1.3.86,3.06,3.06,0,0,1-1.89-.1,1.65,1.65,0,0,0-1.4.08,1.94,1.94,0,0,0-.87,1,1.63,1.63,0,0,0,.08,1.4,1.94,1.94,0,0,0,1,.88,7.63,7.63,0,0,0,2.4.42,5.42,5.42,0,0,0,1.71-.27,6.81,6.81,0,0,0,3-2,8.42,8.42,0,0,0,1.36-2.41A8.3,8.3,0,0,0,11,135.5a7,7,0,0,0-1.14-3.41A6.14,6.14,0,0,0,6.52,129.68Z"/><path class="cls-2" d="M26.79,119.81H14.41a1.78,1.78,0,1,0,0,3.55H18.8v17.73a1.78,1.78,0,1,0,3.55,0V123.36h4.44a1.78,1.78,0,1,0,0-3.55Z"/><path class="cls-2" d="M40.24,120.67a2.13,2.13,0,0,0-.76-.78l-.05,0a1.72,1.72,0,0,0-1.37-.1,1.77,1.77,0,0,0-1,.92l-9.19,19.7a1.7,1.7,0,0,0-.1,1.37,1.76,1.76,0,0,0,.91,1,1.65,1.65,0,0,0,1.39.07,1.88,1.88,0,0,0,1-.94l2.58-5.49h4.55a1.78,1.78,0,1,0,0-3.55H35.29l3.37-7.2,7.57,16.25a1.86,1.86,0,0,0,1,.93,1.67,1.67,0,0,0,.62.12,1.7,1.7,0,0,0,.77-.19,1.76,1.76,0,0,0,.91-1,1.7,1.7,0,0,0-.09-1.36Z"/><path class="cls-2" d="M66.67,119.81a1.76,1.76,0,0,0-1.78,1.78V135l-9-14.27a1.8,1.8,0,0,0-1.55-.92,1.76,1.76,0,0,0-1.78,1.78v19.51a1.78,1.78,0,1,0,3.55,0V127.72l9.06,14.33a1.85,1.85,0,0,0,1.52.82,1.63,1.63,0,0,0,.91-.28,1.65,1.65,0,0,0,.84-1.51V121.58a1.76,1.76,0,0,0-1.78-1.78Z"/><path class="cls-2" d="M103,120.67a2.13,2.13,0,0,0-.76-.78l0,0a1.72,1.72,0,0,0-1.37-.1,1.78,1.78,0,0,0-1,.92l-9.19,19.7a1.7,1.7,0,0,0-.1,1.37,1.76,1.76,0,0,0,.91,1,1.65,1.65,0,0,0,1.39.07,1.88,1.88,0,0,0,1-.94l2.58-5.49h4.42a1.78,1.78,0,1,0,0-3.55H98l3.37-7.2L109,141.9a1.86,1.86,0,0,0,1,.93,1.67,1.67,0,0,0,.62.12,1.7,1.7,0,0,0,.77-.19,1.77,1.77,0,0,0,.91-1,1.7,1.7,0,0,0-.09-1.36Z"/><path class="cls-2" d="M130.39,131.36l-.19-.17,0,0a6.72,6.72,0,0,0,1.44-2.14,6.77,6.77,0,0,0,0-5.19,6.82,6.82,0,0,0-1.44-2.11,7.19,7.19,0,0,0-2.11-1.46,6.29,6.29,0,0,0-2.62-.55h-7.93a1.76,1.76,0,0,0-1.78,1.78v19.71a1.78,1.78,0,1,0,3.55,0V123.26h6.16a3,3,0,0,1,2.2.93,3,3,0,0,1,.93,2.25,3.16,3.16,0,0,1-3.13,3.13h-2.34a1.77,1.77,0,0,0-1.53,1.78,1.71,1.71,0,0,0,1.53,1.78h2.89a2.56,2.56,0,0,1,1,.19,2.46,2.46,0,0,1,.81.53,2.5,2.5,0,0,1,.77,1.85v5.41a1.78,1.78,0,1,0,3.55,0v-5.41a5.89,5.89,0,0,0-.49-2.38A6.31,6.31,0,0,0,130.39,131.36Z"/><path class="cls-2" d="M86.65,123.18a12,12,0,0,0-3.68-2.5,11.12,11.12,0,0,0-4.48-.92H74.35a1.76,1.76,0,0,0-1.78,1.78,1.78,1.78,0,0,0,1.78,1.78h4.14a7.76,7.76,0,0,1,3.1.62,8.17,8.17,0,0,1,2.54,1.72,8.45,8.45,0,0,1,1.75,2.56,7.68,7.68,0,0,1,.64,3.12,7.94,7.94,0,0,1-.62,3.13A8.09,8.09,0,0,1,84.18,137a8.43,8.43,0,0,1-2.56,1.75,7.67,7.67,0,0,1-3.12.64H76.12V127.7a1.78,1.78,0,0,0-3.55-.11v13.6A1.76,1.76,0,0,0,74.35,143h4.14a11.32,11.32,0,0,0,8.16-3.42,12,12,0,0,0,2.5-3.68,11.23,11.23,0,0,0,.92-4.53,11.12,11.12,0,0,0-.92-4.48A12,12,0,0,0,86.65,123.18Z"/><path class="cls-2" d="M149.62,123.18a12,12,0,0,0-3.68-2.5,11.12,11.12,0,0,0-4.48-.92h-4.14a1.76,1.76,0,0,0-1.78,1.78,1.78,1.78,0,0,0,1.78,1.78h4.14a7.76,7.76,0,0,1,3.1.62,8.17,8.17,0,0,1,2.54,1.72,8.45,8.45,0,0,1,1.75,2.56,7.68,7.68,0,0,1,.64,3.12,7.94,7.94,0,0,1-.62,3.13,8.09,8.09,0,0,1-1.72,2.56,8.43,8.43,0,0,1-2.56,1.75,7.67,7.67,0,0,1-3.12.64h-2.37V127.7a1.78,1.78,0,0,0-3.55-.11v13.6a1.76,1.76,0,0,0,1.78,1.78h4.14a11.32,11.32,0,0,0,8.16-3.42,12,12,0,0,0,2.5-3.68,11.23,11.23,0,0,0,.92-4.53,11.12,11.12,0,0,0-.92-4.48A12,12,0,0,0,149.62,123.18Z"/><path class="cls-2" d="M98,15.93H47.13A17.59,17.59,0,0,0,29.59,33.48V84.35a17.59,17.59,0,0,0,17.54,17.54H98a17.59,17.59,0,0,0,17.54-17.54V33.48A17.59,17.59,0,0,0,98,15.93ZM70,52.71H68.15a2,2,0,0,0-1.79,1.82V69.93a4.82,4.82,0,0,1-9.63,0V54.33A2,2,0,0,0,55,52.71H52.33a2,2,0,0,0-1.8,1.86V65.11a9.63,9.63,0,0,1-9.63,9.63v-22a9.63,9.63,0,0,1,9.63-9.63h24.4A9.63,9.63,0,0,0,70,51.49Zm2.19,22h0v-22a9.63,9.63,0,0,1,9.63-9.63h0v22A9.63,9.63,0,0,1,72.18,74.74Zm24.28-.09H80.21a9.62,9.62,0,0,0,4-7.3H96.45a2.39,2.39,0,1,0,0-4.79,9.7,9.7,0,1,1,8.94-13.45c.07.17.13.34.2.51l.08.25V50a3.66,3.66,0,0,1-3.18,4.37h-.8a3.66,3.66,0,0,1-3-2.19L98.67,52a2.39,2.39,0,1,0-2.21,3.31,9.69,9.69,0,1,1,0,19.39Z"/></g><g class="cls-1"><rect class="cls-2" x="459.92" y="23.55" width="19.38" height="67.37"/><path class="cls-2" d="M370.6,108H356a2.1,2.1,0,1,0,0,4.2h5.19v21a2.1,2.1,0,1,0,4.2,0v-21h5.25a2.1,2.1,0,1,0,0-4.2Z"/><path class="cls-2" d="M417.71,108a2.08,2.08,0,0,0-2.1,2.1v15.85L405,109.08a2.12,2.12,0,0,0-1.83-1.09,2.08,2.08,0,0,0-2.1,2.1v23a2.1,2.1,0,1,0,4.2,0V117.35l10.7,16.93a2.18,2.18,0,0,0,1.8,1,1.93,1.93,0,0,0,1.08-.33,2,2,0,0,0,1-1.78v-23a2.07,2.07,0,0,0-2.1-2.1Z"/><path class="cls-2" d="M460.62,109a2.51,2.51,0,0,0-.9-.93l-.06,0a2,2,0,0,0-1.62-.12,2.1,2.1,0,0,0-1.21,1.09L446,132.3a2,2,0,0,0-.12,1.62,2.08,2.08,0,0,0,1.08,1.2,2,2,0,0,0,1.64.08,2.22,2.22,0,0,0,1.19-1.11l3-6.49H458a2.1,2.1,0,1,0,0-4.2h-3.25l4-8.5,8.95,19.2a2.2,2.2,0,0,0,1.18,1.1,2,2,0,0,0,.73.15,2,2,0,0,0,.91-.22,2.09,2.09,0,0,0,1.08-1.2,2,2,0,0,0-.11-1.6Z"/><path class="cls-2" d="M515.73,112a14.12,14.12,0,0,0-4.35-3,13.14,13.14,0,0,0-5.29-1.09h-4.9a2.08,2.08,0,0,0-2.1,2.1,2.1,2.1,0,0,0,2.1,2.1h4.9a9.16,9.16,0,0,1,3.66.73,9.65,9.65,0,0,1,3,2,10,10,0,0,1,2.07,3,9.07,9.07,0,0,1,.76,3.69,9.39,9.39,0,0,1-.73,3.7,9.55,9.55,0,0,1-2,3,10,10,0,0,1-3,2.07,9.06,9.06,0,0,1-3.69.76h-2.8V117.32a2.1,2.1,0,0,0-4.19-.13v16.07a2.08,2.08,0,0,0,2.1,2.1h4.9a13.37,13.37,0,0,0,9.64-4,14.12,14.12,0,0,0,3-4.35,13.27,13.27,0,0,0,1.09-5.35,13.14,13.14,0,0,0-1.09-5.29A14.13,14.13,0,0,0,515.73,112Z"/><polygon class="cls-2" points="376.86 23.55 342.44 90.92 361.83 90.92 396.24 23.55 376.86 23.55"/><polygon class="cls-2" points="411.27 23.55 376.86 90.92 396.24 90.92 430.65 23.55 411.27 23.55"/><polygon class="cls-2" points="430.65 52.97 411.27 90.92 430.5 90.92 430.65 90.92 449.88 90.92 430.65 72.09 430.65 52.97"/><path class="cls-2" d="M346.65,119.66l-1-.29a3.53,3.53,0,0,1-1.81-1.27,3.41,3.41,0,0,1-.66-1.8,4.4,4.4,0,0,1,.22-1.62,3.28,3.28,0,0,1,.79-1.41,3.21,3.21,0,0,1,1.6-1,3.59,3.59,0,0,1,2.23.15,2.28,2.28,0,0,0,1.61-.12,2.26,2.26,0,0,0,1-2.84,2.12,2.12,0,0,0-1.26-1.1,7.61,7.61,0,0,0-4.86-.18,7.8,7.8,0,0,0-3.54,2.37,7,7,0,0,0-1.56,2.76,7.33,7.33,0,0,0-.46,3.24,8,8,0,0,0,1.39,4,7.42,7.42,0,0,0,4,2.8l1,.37a3.47,3.47,0,0,1,1.83,1.23,3.52,3.52,0,0,1,.63,1.86,2.91,2.91,0,0,1-.21,1.55,4.65,4.65,0,0,1-.82,1.41,3,3,0,0,1-1.54,1,3.62,3.62,0,0,1-2.24-.11,2,2,0,0,0-1.66.1,2.29,2.29,0,0,0-1,1.19,1.93,1.93,0,0,0,.1,1.66,2.29,2.29,0,0,0,1.21,1,9,9,0,0,0,2.83.5,6.4,6.4,0,0,0,2-.32,8,8,0,0,0,3.56-2.34,10,10,0,0,0,1.61-2.85,9.81,9.81,0,0,0,.38-3.14,8.31,8.31,0,0,0-1.35-4A7.26,7.26,0,0,0,346.65,119.66Z"/><path class="cls-2" d="M386.49,109a2.52,2.52,0,0,0-.9-.93l-.06,0a2,2,0,0,0-1.62-.12A2.09,2.09,0,0,0,382.7,109L371.84,132.3a2,2,0,0,0-.12,1.62,2.08,2.08,0,0,0,1.08,1.2,1.94,1.94,0,0,0,1.64.08,2.22,2.22,0,0,0,1.19-1.11l3-6.49H384a2.1,2.1,0,1,0,0-4.2h-3.4l4-8.5,8.95,19.2a2.2,2.2,0,0,0,1.18,1.1,2,2,0,0,0,.73.15,2,2,0,0,0,.91-.22,2.08,2.08,0,0,0,1.08-1.2,2,2,0,0,0-.11-1.6Z"/><path class="cls-2" d="M493,121.64l-.22-.2,0,0a7.94,7.94,0,0,0,1.7-2.53,8,8,0,0,0,0-6.13,8.06,8.06,0,0,0-1.7-2.5,8.5,8.5,0,0,0-2.49-1.72,7.43,7.43,0,0,0-3.09-.65h-9.37a2.07,2.07,0,0,0-2.1,2.1v23.29a2.1,2.1,0,1,0,4.2,0V112.07h7.28a3.52,3.52,0,0,1,2.6,1.09,3.59,3.59,0,0,1,1.09,2.66,3.74,3.74,0,0,1-3.69,3.69h-2.76a2.09,2.09,0,0,0-1.81,2.1,2,2,0,0,0,1.81,2.1h3.42a3,3,0,0,1,1.17.23,2.9,2.9,0,0,1,1,.63,3,3,0,0,1,.91,2.18v6.39a2.1,2.1,0,1,0,4.2,0v-6.39a7,7,0,0,0-.58-2.82A7.46,7.46,0,0,0,493,121.64Z"/><path class="cls-2" d="M441.33,112a14.12,14.12,0,0,0-4.35-3,13.14,13.14,0,0,0-5.29-1.09h-4.9a2.08,2.08,0,0,0-2.1,2.1,2.1,2.1,0,0,0,2.1,2.1h4.9a9.16,9.16,0,0,1,3.66.73,9.65,9.65,0,0,1,3,2,10,10,0,0,1,2.07,3,9.07,9.07,0,0,1,.76,3.69,9.39,9.39,0,0,1-.73,3.7,9.56,9.56,0,0,1-2,3,10,10,0,0,1-3,2.07,9.06,9.06,0,0,1-3.69.76h-2.8V117.32a2.1,2.1,0,0,0-4.19-.13v16.07a2.07,2.07,0,0,0,2.1,2.1h4.9a13.37,13.37,0,0,0,9.64-4,14.12,14.12,0,0,0,3-4.35,13.27,13.27,0,0,0,1.09-5.35,13.14,13.14,0,0,0-1.09-5.29A14.14,14.14,0,0,0,441.33,112Z"/><polygon class="cls-2" points="495.39 61.5 514.77 23.55 495.39 23.55 495.39 61.5"/><polygon class="cls-2" points="514.77 90.92 514.77 52.97 495.39 90.92 514.77 90.92"/></g><g class="cls-1"><polygon class="cls-2" points="854.22 55.83 848.5 61.55 848.5 69.65 854.22 75.37 862.32 75.37 868.04 69.65 868.04 61.55 862.32 55.83 854.22 55.83"/><path class="cls-2" d="M875.79,33.35H769.61a9.92,9.92,0,0,0-9.89,9.89V87a9.92,9.92,0,0,0,9.89,9.89H875.79A9.92,9.92,0,0,0,885.68,87V43.24A9.92,9.92,0,0,0,875.79,33.35ZM803.72,65.16a2.7,2.7,0,0,1-2.7,2.7h-13.5a2.7,2.7,0,0,1,0-5.4h10.8v-.9l-5.72-5.72H784.5l-5.72,5.72v8.09l5.72,5.72h8.09l4.59-4.6A2.7,2.7,0,1,1,801,74.6L795.62,80a2.7,2.7,0,0,1-1.91.79H783.38a2.7,2.7,0,0,1-1.91-.79l-7.31-7.31a2.7,2.7,0,0,1-.79-1.91V60.44a2.7,2.7,0,0,1,.79-1.91l7.31-7.31a2.7,2.7,0,0,1,1.91-.79h10.33a2.7,2.7,0,0,1,1.91.79l7.31,7.31a2.7,2.7,0,0,1,.79,1.91Zm32.59-9.33h-6.81l-8.13,11.51V78.87a1.92,1.92,0,0,1-1.91,1.91h-1.57A1.92,1.92,0,0,1,816,78.87V52.35a1.92,1.92,0,0,1,1.91-1.91h1.57a1.92,1.92,0,0,1,1.91,1.91V58l4.52-6.4a2.7,2.7,0,0,1,2.21-1.14h8.21a2.7,2.7,0,1,1,0,5.4Zm37.14,14.94a2.7,2.7,0,0,1-.79,1.91L865.34,80a2.7,2.7,0,0,1-1.91.79H853.1a2.7,2.7,0,0,1-1.91-.79l-7.31-7.31a2.7,2.7,0,0,1-.79-1.91V60.44a2.7,2.7,0,0,1,.79-1.91l7.31-7.31a2.7,2.7,0,0,1,1.91-.79h10.33a2.7,2.7,0,0,1,1.91.79l7.31,7.31a2.7,2.7,0,0,1,.79,1.91Z"/><path class="cls-2" d="M744.83,37.87a3,3,0,0,0-1.73-.72,16.21,16.21,0,0,0-3.09.39l-12.12,3a17.82,17.82,0,0,0-2.35.74,11.76,11.76,0,0,0-2.29,2.37l-26.9,37a8.86,8.86,0,0,1-2.28,2.05l-15.76,9.15c-.75.43-.65.79.21.79h12.21a6.89,6.89,0,0,0,2.92-.79l5-2.9c.75-.43,1.55-.93,1.79-1.1a17.58,17.58,0,0,0,1.67-2l26.55-36.53a5,5,0,0,1,2.44-1.64l6-1.47a1.17,1.17,0,0,1,1.52,1.19V65.26A1.57,1.57,0,0,1,737,66.82H722.7a1.57,1.57,0,0,0-1.57,1.57v2.26a1.57,1.57,0,0,0,1.57,1.57H737a1.57,1.57,0,0,1,1.57,1.57V91.06a1.57,1.57,0,0,0,1.57,1.57h4.57a1.57,1.57,0,0,0,1.57-1.57V42.47a16.22,16.22,0,0,0-.36-3.09A3,3,0,0,0,744.83,37.87Z"/><path class="cls-2" d="M684.91,106.87c.21-.69.49-1.31,1.31-1.31s1.16.64,1.34,1.31l5,17.4c.18.62-.51,1.29-1.23,1.29a1.53,1.53,0,0,1-1.39-1.29l-1-3.08h-5.47l-1,3.08a1.53,1.53,0,0,1-1.39,1.29c-.72,0-1.41-.67-1.23-1.29Zm1.34,4.78h-.05l-2,7h4Z"/><path class="cls-2" d="M710.76,123.73c0,.57.1,1.82-1.21,1.82-1.05,0-1.23-.87-1.23-1.72v-.41l-2,1.31a4.06,4.06,0,0,1-2.13.82h-1.82a3.44,3.44,0,0,1-2.29-.9c-1.11-1-1.08-2-1.13-3.34l-.26-7.76c0-.9.1-1.85,1.23-1.85s1.18.9,1.21,1.7l.26,7.58a4.14,4.14,0,0,0,.26,1.59c.21.36.85.51,1.44.51h.82a1.36,1.36,0,0,0,.77-.23l3.62-2.29V113.4c0-.85.18-1.7,1.23-1.7s1.23.85,1.23,1.7Z"/><path class="cls-2" d="M721.4,114.17c-.51,0-1.39-.1-1.39.69,0,.41.31.57.67.72l6.17,2.8a3.51,3.51,0,0,1,2.42,3.5c0,2.49-1.7,3.68-4.06,3.68h-3.8a4.43,4.43,0,0,1-3.08-.77c-.46-.36-1.13-.82-1.13-1.44a1.26,1.26,0,0,1,1.29-1.23,1.19,1.19,0,0,1,1,.44,2.6,2.6,0,0,0,2,.54h3.34c.87,0,2.06.08,2.06-1.36,0-.59-.72-1-1.29-1.23l-5.81-2.65a3,3,0,0,1-2.16-3,3.15,3.15,0,0,1,3.39-3.14h4.22a3.57,3.57,0,0,1,2.85.85c.46.39,1,.69,1,1.39a1.26,1.26,0,0,1-1.26,1.23,1.31,1.31,0,0,1-1.05-.51,1.8,1.8,0,0,0-1.52-.49Z"/><path class="cls-2" d="M740.65,120.9c0,1.39-.05,2.18,1.64,2.18h1.26c1,0,1.47-.08,1.72-1.08a1.26,1.26,0,0,1,1.23-1,1.24,1.24,0,0,1,1.26,1.23,3.68,3.68,0,0,1-.85,2.06,4,4,0,0,1-3.39,1.26h-1.26a4,4,0,0,1-3.19-1.23c-1-1.05-.9-2.11-.9-3.44v-6.71h-.8c-.72,0-1.7-.15-1.7-1.23s.87-1.23,1.7-1.23h.8v-2.52c0-.85.18-1.7,1.23-1.7s1.23.85,1.23,1.7v2.52h4.14c.82,0,1.7.18,1.7,1.23s-1,1.23-1.7,1.23h-4.14Z"/><path class="cls-2" d="M754.2,113.53c0-.9.1-1.82,1.23-1.82,1,0,1.23.82,1.23,1.64v1l1.93-1.59a3.71,3.71,0,0,1,2.18-1.05h2a3.26,3.26,0,0,1,2.42,1,3.61,3.61,0,0,1,1.11,2.8c0,.85-.15,1.72-1.21,1.72-.9,0-1.26-.72-1.26-1.52a1.62,1.62,0,0,0-.26-1.08c-.31-.44-.9-.44-1.49-.44h-.72a1.91,1.91,0,0,0-1.23.59l-3.44,2.85v6.25c0,.85-.18,1.7-1.23,1.7s-1.23-.85-1.23-1.7Z"/><path class="cls-2" d="M776.84,114.17c-.72,0-1.7-.15-1.7-1.23s.87-1.23,1.7-1.23h3.39a3.9,3.9,0,0,1,3.19,1.11,3.56,3.56,0,0,1,1.11,2.93l.26,8.38c0,.72-.33,1.44-1.16,1.44a1.26,1.26,0,0,1-1.26-1.23l-1.7.87a2.23,2.23,0,0,1-1.52.36h-2.36a3.86,3.86,0,0,1-2.8-.87,3.45,3.45,0,0,1-1.29-3v-1.08a3.22,3.22,0,0,1,1.21-2.75,4.05,4.05,0,0,1,2.88-.93h5.29v-.57c0-1.85-.41-2.16-2.18-2.16Zm0,5.19c-.67,0-1.64.18-1.64,1.08v1.64c0,.82,1,1,1.59,1h2.72l2.72-1.41v-.54c0-1.36-.39-1.77-1.75-1.77Z"/><path class="cls-2" d="M798.53,123.09h1.85c.82,0,1.7.18,1.7,1.23s-1,1.23-1.7,1.23h-6.27c-.72,0-1.7-.15-1.7-1.23s.87-1.23,1.7-1.23h2v-14h-2c-.72,0-1.7-.15-1.7-1.23s.87-1.23,1.7-1.23h2.6c1.41,0,1.82.26,1.82,1.72Z"/><path class="cls-2" d="M813.85,114.17c-.72,0-1.7-.15-1.7-1.23s.87-1.23,1.7-1.23h3.39a3.9,3.9,0,0,1,3.19,1.11,3.56,3.56,0,0,1,1.11,2.93l.26,8.38c0,.72-.33,1.44-1.16,1.44a1.26,1.26,0,0,1-1.26-1.23l-1.7.87a2.23,2.23,0,0,1-1.52.36H813.8a3.86,3.86,0,0,1-2.8-.87,3.45,3.45,0,0,1-1.29-3v-1.08a3.22,3.22,0,0,1,1.21-2.75,4.05,4.05,0,0,1,2.88-.93h5.29v-.57c0-1.85-.41-2.16-2.18-2.16Zm0,5.19c-.67,0-1.64.18-1.64,1.08v1.64c0,.82,1,1,1.59,1h2.72l2.72-1.41v-.54c0-1.36-.39-1.77-1.75-1.77Z"/><path class="cls-2" d="M832.43,114.17c-.51,0-1.39-.1-1.39.69,0,.41.31.57.67.72l6.17,2.8a3.51,3.51,0,0,1,2.42,3.5c0,2.49-1.7,3.68-4.06,3.68h-3.8a4.43,4.43,0,0,1-3.08-.77c-.46-.36-1.13-.82-1.13-1.44a1.26,1.26,0,0,1,1.29-1.23,1.19,1.19,0,0,1,1,.44,2.6,2.6,0,0,0,2,.54h3.34c.87,0,2.06.08,2.06-1.36,0-.59-.72-1-1.29-1.23l-5.81-2.65a3,3,0,0,1-2.16-3A3.15,3.15,0,0,1,832,111.7h4.22a3.57,3.57,0,0,1,2.85.85c.46.39,1,.69,1,1.39a1.26,1.26,0,0,1-1.26,1.23,1.31,1.31,0,0,1-1.05-.51,1.8,1.8,0,0,0-1.52-.49Z"/><path class="cls-2" d="M854,123.09h1.85c.82,0,1.7.18,1.7,1.23s-1,1.23-1.7,1.23h-6.27c-.72,0-1.7-.15-1.7-1.23s.87-1.23,1.7-1.23h2v-8.92h-2c-.72,0-1.7-.15-1.7-1.23s.87-1.23,1.7-1.23h2.6c1.41,0,1.82.26,1.82,1.72Zm-3.73-16.37a1,1,0,0,1,1.16-1.16h1.41a1,1,0,0,1,1.16,1.16v1.18a1,1,0,0,1-1.16,1.16h-1.41a1,1,0,0,1-1.16-1.16Z"/><path class="cls-2" d="M869.36,114.17c-.72,0-1.7-.15-1.7-1.23s.87-1.23,1.7-1.23h3.39a3.9,3.9,0,0,1,3.19,1.11,3.56,3.56,0,0,1,1.11,2.93l.26,8.38c0,.72-.33,1.44-1.16,1.44a1.26,1.26,0,0,1-1.26-1.23l-1.7.87a2.23,2.23,0,0,1-1.52.36h-2.36a3.86,3.86,0,0,1-2.8-.87,3.45,3.45,0,0,1-1.29-3v-1.08a3.22,3.22,0,0,1,1.21-2.75,4.05,4.05,0,0,1,2.88-.93h5.29v-.57c0-1.85-.41-2.16-2.18-2.16Zm0,5.19c-.67,0-1.64.18-1.64,1.08v1.64c0,.82,1,1,1.59,1H872l2.72-1.41v-.54c0-1.36-.39-1.77-1.75-1.77Z"/></g><g class="cls-1"><g class="cls-1"><path class="cls-2" d="M303.42,665.7l1.47-1.58.36.08a11.44,11.44,0,0,0,1.32.26,3,3,0,0,0,1.27-1.4,14.25,14.25,0,0,0,.6-3.18l1-8.72a6.92,6.92,0,0,0-3.85,1.3,3.45,3.45,0,0,0-1.44,2.83,3.85,3.85,0,0,0,.51,1.92l-1.87,1.64a6.85,6.85,0,0,1-.24-1.81,6.14,6.14,0,0,1,2.67-5.13,11.1,11.1,0,0,1,6.84-2q5.37,0,5.37,3.08,0,2.63-3.73,4.2,3.65,1.32,3.65,4.06a4,4,0,0,1-2.26,3.55,11.94,11.94,0,0,1-6.05,1.32A42.63,42.63,0,0,1,303.42,665.7Zm7.08-7.56-.17,1.55-.1,1a5.53,5.53,0,0,1-.69,2.43,5.83,5.83,0,0,1-2.09,1.51A28,28,0,0,0,312,665q3.63,0,3.63-2.88a3.64,3.64,0,0,0-1-2.39,5,5,0,0,0-2.42-1.57h-.3l-.56,0-.51,0Zm.78-7.06-.68,6.12q.69.06,1.18.06a13.11,13.11,0,0,0,1.33-.08q2.47-1.42,2.47-3.42Q315.6,651.08,311.29,651.08Z"/><path class="cls-2" d="M322.2,666.24a2.61,2.61,0,0,1-2.12-1,4.06,4.06,0,0,1-.83-2.63,5.82,5.82,0,0,1,1.58-4.06,4.9,4.9,0,0,1,3.73-1.73,2.66,2.66,0,0,1,2.16,1,4,4,0,0,1,.83,2.64,5.8,5.8,0,0,1-1.59,4.08A5,5,0,0,1,322.2,666.24Zm.87-.54a2.73,2.73,0,0,0,2.3-1.32,5.55,5.55,0,0,0,.92-3.27,4.76,4.76,0,0,0-.72-2.71,2.13,2.13,0,0,0-1.82-1.08,2.75,2.75,0,0,0-2.31,1.31,5.54,5.54,0,0,0-.93,3.28,4.74,4.74,0,0,0,.72,2.71A2.15,2.15,0,0,0,323.07,665.7Z"/><path class="cls-2" d="M329.92,660.84l-1.08,1a3.62,3.62,0,0,1-.15-1A3.36,3.36,0,0,1,330,658.1a5.2,5.2,0,0,1,3.38-1h1a12,12,0,0,0-1,2.75,13,13,0,0,0-.38,3q0,2.74,1.67,2.74a2.08,2.08,0,0,0,1.82-1.09,7.4,7.4,0,0,0,.9-3.19q.09-1,.12-1.25l.28-2.5,1.31-.68a19.48,19.48,0,0,0-.46,2.7l-.24,2.12q0,.11-.07.75l-.09.92q-.05.52-.05.9,0,.66.5.66a1.73,1.73,0,0,0,.89-.31l0,.08a.81.81,0,0,1,0,.13q0,.19-.37.36l-.39.19-2,.93.25-2.21q-1.42,2.21-3.05,2.21-2.24,0-2.24-3.42a12.85,12.85,0,0,1,1.11-5h-.56q-2.76,0-2.76,1.82A2.4,2.4,0,0,0,329.92,660.84Z"/><path class="cls-2" d="M341.52,660.84l-1.07,1a3.57,3.57,0,0,1,1.08-3.75,4.5,4.5,0,0,1,3.09-1.09l.48,0,.32,0h.07a3.18,3.18,0,0,0,0,.33,6.08,6.08,0,0,0,1.77,3.47l.5.58.44.52a11.14,11.14,0,0,1,1.1,1.52l.44-3.6a9.14,9.14,0,0,1,1.53-4.62,3.67,3.67,0,0,1,2.82-1.51,3.23,3.23,0,0,1,1.14.21l-1,1a2.19,2.19,0,0,0-1.07-.35,1.7,1.7,0,0,0-1.56.94,9.76,9.76,0,0,0-.83,3.29l-.7,5.61-.84,1.72a8.24,8.24,0,0,0-.65-1.86,13.12,13.12,0,0,0-1.37-1.87l-.51-.62a11.27,11.27,0,0,1-1.66-2.54l-.33,3-.08.72a3.64,3.64,0,0,1-.34,1.3,3.43,3.43,0,0,1-.94.94l1.46.13-.79.77-2.88-.15.85-.82.74.07a2,2,0,0,0,.7-.79,5.13,5.13,0,0,0,.3-1.4l.06-.58.51-4.59H344q-2.75,0-2.75,1.82A2.4,2.4,0,0,0,341.52,660.84Z"/><path class="cls-2" d="M352.78,665.8l.92-1a5.21,5.21,0,0,0,.94.23,1.54,1.54,0,0,0,.67-.76,8.66,8.66,0,0,0,.33-1.81l.55-4.94q-3,.35-3,2.17a2.56,2.56,0,0,0,.29,1.14l-1.07,1a2.45,2.45,0,0,1-.15-1,3.45,3.45,0,0,1,1.55-3,7.93,7.93,0,0,1,4.46-1.05q4.81,0,4.81,3.35a5.78,5.78,0,0,1-1.35,3.69,6.6,6.6,0,0,1-5.47,2.23A25.27,25.27,0,0,1,352.78,665.8Zm4.49-8.42-.55,5-.07.62a2.9,2.9,0,0,1-.37,1.27,3.33,3.33,0,0,1-1.07.86,19.77,19.77,0,0,0,2.71.2,4,4,0,0,0,1.81-.33,3.57,3.57,0,0,0,1.25-1.24,5,5,0,0,0,.86-2.86q0-3.5-4.36-3.5Z"/><path class="cls-2" d="M365.35,660.86l-1,1a3.82,3.82,0,0,1-.27-1.37,3.1,3.1,0,0,1,1.42-2.65,7.31,7.31,0,0,1,4.08-.85l.86,0,1.05.07h.46a6.84,6.84,0,0,0-.52,3.27v.34l0,.76a12.24,12.24,0,0,0,.34,2.81,2.12,2.12,0,0,0,.26.71.53.53,0,0,0,.44.16,1.74,1.74,0,0,0,.77-.22.51.51,0,0,1,0,.19q0,.17-.26.28l-.31.15-1.63.71a14.16,14.16,0,0,1-.66-3.51l-.5.35H367.7A4.38,4.38,0,0,1,366,665.3l1.37.07-.72.76L364,666l.88-.8.66,0a2.69,2.69,0,0,0,.77-.93,21.9,21.9,0,0,0,.95-2.32l.2-.55a10.48,10.48,0,0,1,1.16-2.42,4.18,4.18,0,0,1,1.5-1.25,12.06,12.06,0,0,0-2.19-.19q-2.94,0-2.94,2A2.63,2.63,0,0,0,365.35,660.86Zm5.07,1.51q-.09-1.15-.09-1.87,0-.36,0-.6l.05-.77a8.57,8.57,0,0,1,.15-1.2,5.86,5.86,0,0,0-2.13,3.24l-.28.81-.15.38Z"/><path class="cls-2" d="M380.57,661.5l.19.38a29.78,29.78,0,0,0,1.5,2.68q.44.64.82.66.6,0,.93-.91.22.13.22.27a1.75,1.75,0,0,1-.56,1q-.56.62-.94.62-.55,0-1.43-1.21a17.22,17.22,0,0,1-1.75-3.15l-.62,0-.64,0,0,.44-.09.76a3.09,3.09,0,0,1-.4,1.36,2.88,2.88,0,0,1-1.13.81l1.56.1-.8.77-2.87-.15.85-.82.72.08a2.72,2.72,0,0,0,1-2.09l.07-.64.56-5q-3,.57-3,2.27A2.52,2.52,0,0,0,375,661l-1.07.94a3.91,3.91,0,0,1-.14-1,3.51,3.51,0,0,1,1.53-2.94,6.43,6.43,0,0,1,3.94-1.14q3.27,0,3.27,2.08Q382.52,660.4,380.57,661.5Zm-1.79-4.07-.43,3.85a6.11,6.11,0,0,0,1,.09,5.16,5.16,0,0,0,.9-.09,2.48,2.48,0,0,0,1.19-2.06Q381.41,657.44,378.78,657.44Z"/><path class="cls-2" d="M384.88,666l.93-.82.81.07a1.86,1.86,0,0,0,.73-.78,4.41,4.41,0,0,0,.33-1.4v-.14a5.28,5.28,0,0,0,0-.55,7.73,7.73,0,0,0-.68-3.17q-.68-1.53-1.41-1.53-.55,0-.91.83a.26.26,0,0,1-.21-.26,1.39,1.39,0,0,1,.54-.91,1.52,1.52,0,0,1,1-.51q.89,0,1.67,1.36a9.06,9.06,0,0,1,1,3.37,9,9,0,0,1,1.66-3.35,3,3,0,0,1,2.18-1.37,1.42,1.42,0,0,1,.81.27l-.75,1a1.14,1.14,0,0,0-.62-.18q-1,0-2,1.61a8.25,8.25,0,0,0-1.26,3.51v.14a2.64,2.64,0,0,1-.38,1.22,3.68,3.68,0,0,1-1.14.87l2.05.09-.78.77Z"/><path class="cls-2" d="M413.46,661.93a.4.4,0,0,1,.27.37q0,.77-1.4,2a7.89,7.89,0,0,1-5.4,2.12,4.79,4.79,0,0,1-3.9-1.77,7.24,7.24,0,0,1-1.46-4.75,10,10,0,0,1,2.73-7.13,8.94,8.94,0,0,1,6.76-2.88,12.77,12.77,0,0,1,4.26.78l-.78,1.7-.22.5q-.28.59-.68.59l-.24,0a1.51,1.51,0,0,0,.16-.59q0-.77-1-1.35a4.9,4.9,0,0,0-2.42-.58,5.6,5.6,0,0,0-4.6,2.24,9.09,9.09,0,0,0-1.77,5.82,7.15,7.15,0,0,0,1.24,4.41,4,4,0,0,0,3.32,1.65,5.75,5.75,0,0,0,3-.9A5.82,5.82,0,0,0,413.46,661.93Z"/><path class="cls-2" d="M418.62,666.24a2.61,2.61,0,0,1-2.12-1,4.06,4.06,0,0,1-.83-2.63,5.82,5.82,0,0,1,1.58-4.06A4.9,4.9,0,0,1,421,656.8a2.66,2.66,0,0,1,2.16,1,4,4,0,0,1,.83,2.64,5.8,5.8,0,0,1-1.59,4.08A5,5,0,0,1,418.62,666.24Zm.87-.54a2.73,2.73,0,0,0,2.3-1.32,5.55,5.55,0,0,0,.92-3.27,4.76,4.76,0,0,0-.72-2.71,2.13,2.13,0,0,0-1.82-1.08,2.75,2.75,0,0,0-2.31,1.31,5.54,5.54,0,0,0-.93,3.28,4.74,4.74,0,0,0,.72,2.71A2.15,2.15,0,0,0,419.49,665.7Z"/><path class="cls-2" d="M426.34,660.84l-1.08,1a3.62,3.62,0,0,1-.15-1,3.36,3.36,0,0,1,1.27-2.74,5.2,5.2,0,0,1,3.38-1h1a12,12,0,0,0-1,2.75,13,13,0,0,0-.38,3q0,2.74,1.67,2.74a2.08,2.08,0,0,0,1.82-1.09,7.4,7.4,0,0,0,.9-3.19q.09-1,.12-1.25l.28-2.5,1.31-.68a19.48,19.48,0,0,0-.46,2.7l-.24,2.12q0,.11-.07.75l-.09.92q-.05.52-.05.9,0,.66.5.66a1.73,1.73,0,0,0,.89-.31l0,.08a.81.81,0,0,1,0,.13q0,.19-.37.36l-.39.19-2,.93.25-2.21q-1.42,2.21-3.05,2.21-2.24,0-2.24-3.42a12.85,12.85,0,0,1,1.11-5h-.56q-2.76,0-2.76,1.82A2.4,2.4,0,0,0,426.34,660.84Z"/><path class="cls-2" d="M443.5,661.5l.19.38a29.78,29.78,0,0,0,1.5,2.68q.44.64.82.66.6,0,.93-.91.22.13.22.27a1.75,1.75,0,0,1-.56,1q-.56.62-.94.62-.55,0-1.43-1.21a17.22,17.22,0,0,1-1.75-3.15l-.62,0-.64,0,0,.44-.09.76a3.09,3.09,0,0,1-.4,1.36,2.88,2.88,0,0,1-1.13.81l1.56.1-.8.77-2.87-.15.85-.82.72.08a2.72,2.72,0,0,0,1-2.09l.07-.64.56-5q-3,.57-3,2.27a2.52,2.52,0,0,0,.28,1.21l-1.07.94a3.91,3.91,0,0,1-.14-1,3.51,3.51,0,0,1,1.53-2.94,6.43,6.43,0,0,1,3.94-1.14q3.27,0,3.27,2.08Q445.45,660.4,443.5,661.5Zm-1.79-4.07-.43,3.85a6.11,6.11,0,0,0,1,.09,5.16,5.16,0,0,0,.9-.09,2.48,2.48,0,0,0,1.19-2.06Q444.34,657.44,441.71,657.44Z"/><path class="cls-2" d="M448.62,660.84l-1.08,1a3.57,3.57,0,0,1-.15-1,3.51,3.51,0,0,1,1.52-2.95,5.14,5.14,0,0,1,3.12-.84h4q2.46,0,2.46-1.52a1.53,1.53,0,0,0-.36-1l.83-.8a1.68,1.68,0,0,1,.29,1A2.65,2.65,0,0,1,458,657a4.7,4.7,0,0,1-2.91.88h-1.84l-.5,4.48-.08.74a3.07,3.07,0,0,1-.41,1.36,2.89,2.89,0,0,1-1.13.82l1.93.1-.79.77-3.23-.15.85-.82.72.08a2.72,2.72,0,0,0,1-2.09l.07-.64.51-4.64h-1.13q-2.77,0-2.77,1.84A2.37,2.37,0,0,0,448.62,660.84Z"/><path class="cls-2" d="M468,657l-1.89,1.81a6.37,6.37,0,0,1-.27-1.81,6.07,6.07,0,0,1,2.17-4.77,8,8,0,0,1,5.46-1.9,8.79,8.79,0,0,1,1,0l.37,0H475q0,.34,0,.49a18.28,18.28,0,0,0,1.56,5.75l.52,1.32.34.92.43,1.21q.35,1,.61,1.89l.6-1q1-1.66,1.79-3l1.14-2,.88-1.62,1.07-1.95.59-1.09,2.25-1.4a43.19,43.19,0,0,0-.74,6.95l-.15,3.79,0,1.43a7.41,7.41,0,0,0,.24,2.37,1,1,0,0,0,1,.56,4.36,4.36,0,0,0,1.47-.23.43.43,0,0,1,.1.24q0,.38-.79.57l-.62.15-3.3.67q-.06-1.09-.06-2a93.42,93.42,0,0,1,.53-10.51q-1.6,2.27-2.41,3.69l-.7,1.19a33.65,33.65,0,0,0-2.31,4.74l-1.66,1.74a22.9,22.9,0,0,0-1.73-6.16l-.45-1.17q-.09-.21-.42-1a18.57,18.57,0,0,1-1-3.06l-.94,5.74a14.73,14.73,0,0,1-.86,3.52,3.46,3.46,0,0,1-1.59,1.54l2.9.21-1.47,1.37-4.95-.26,1.5-1.44,1.31.11a3.16,3.16,0,0,0,1.09-1.39,20.34,20.34,0,0,0,.75-3.33l1.39-8.15h-.55q-4.82,0-4.82,3.19A4.19,4.19,0,0,0,468,657Z"/><path class="cls-2" d="M491.94,666.24a2.61,2.61,0,0,1-2.12-1,4.06,4.06,0,0,1-.83-2.63,5.82,5.82,0,0,1,1.58-4.06,4.9,4.9,0,0,1,3.73-1.73,2.66,2.66,0,0,1,2.16,1,4,4,0,0,1,.83,2.64,5.8,5.8,0,0,1-1.59,4.08A5,5,0,0,1,491.94,666.24Zm.87-.54a2.73,2.73,0,0,0,2.3-1.32,5.55,5.55,0,0,0,.92-3.27,4.76,4.76,0,0,0-.72-2.71,2.13,2.13,0,0,0-1.82-1.08,2.75,2.75,0,0,0-2.31,1.31,5.54,5.54,0,0,0-.93,3.28,4.74,4.74,0,0,0,.72,2.71A2.15,2.15,0,0,0,492.81,665.7Z"/><path class="cls-2" d="M499.66,660.84l-1.08,1a3.57,3.57,0,0,1-.15-1,3.51,3.51,0,0,1,1.52-2.95,5.14,5.14,0,0,1,3.12-.84h4q2.46,0,2.46-1.52a1.53,1.53,0,0,0-.36-1l.83-.8a1.68,1.68,0,0,1,.29,1,2.65,2.65,0,0,1-1.18,2.19,4.7,4.7,0,0,1-2.91.88h-1.84l-.5,4.48-.08.74a3.07,3.07,0,0,1-.41,1.36,2.89,2.89,0,0,1-1.13.82l1.93.1-.79.77L500.1,666l.85-.82.72.08a2.72,2.72,0,0,0,1-2.09l.07-.64.51-4.64h-1.13q-2.77,0-2.77,1.84A2.37,2.37,0,0,0,499.66,660.84Z"/><path class="cls-2" d="M511.75,666.24a2.61,2.61,0,0,1-2.12-1,4.06,4.06,0,0,1-.83-2.63,5.82,5.82,0,0,1,1.58-4.06,4.9,4.9,0,0,1,3.73-1.73,2.66,2.66,0,0,1,2.16,1,4,4,0,0,1,.83,2.64,5.8,5.8,0,0,1-1.59,4.08A5,5,0,0,1,511.75,666.24Zm.87-.54a2.73,2.73,0,0,0,2.3-1.32,5.55,5.55,0,0,0,.92-3.27,4.76,4.76,0,0,0-.72-2.71,2.13,2.13,0,0,0-1.82-1.08,2.75,2.75,0,0,0-2.31,1.31,5.54,5.54,0,0,0-.93,3.28,4.74,4.74,0,0,0,.72,2.71A2.15,2.15,0,0,0,512.62,665.7Z"/><path class="cls-2" d="M525,661.5l.19.38a29.78,29.78,0,0,0,1.5,2.68q.44.64.82.66.6,0,.93-.91.22.13.22.27a1.75,1.75,0,0,1-.56,1q-.56.62-.94.62-.55,0-1.43-1.21a17.22,17.22,0,0,1-1.75-3.15l-.62,0-.64,0,0,.44-.09.76a3.09,3.09,0,0,1-.4,1.36,2.88,2.88,0,0,1-1.13.81l1.56.1-.8.77L519,666l.85-.82.72.08a2.72,2.72,0,0,0,1-2.09l.07-.64.56-5q-3,.57-3,2.27a2.52,2.52,0,0,0,.28,1.21l-1.07.94a3.91,3.91,0,0,1-.14-1,3.51,3.51,0,0,1,1.53-2.94,6.43,6.43,0,0,1,3.94-1.14q3.27,0,3.27,2.08Q527,660.4,525,661.5Zm-1.79-4.07-.43,3.85a6.11,6.11,0,0,0,1,.09,5.16,5.16,0,0,0,.9-.09,2.48,2.48,0,0,0,1.19-2.06Q525.88,657.44,523.25,657.44Z"/><path class="cls-2" d="M539.22,657l-1.89,1.81a6.33,6.33,0,0,1-.27-1.8,5.88,5.88,0,0,1,2.23-4.8,9.09,9.09,0,0,1,5.91-1.81h.92q-.52,2.66-.63,3.57l-.63,5.67-.15,1.29a5.36,5.36,0,0,1-.71,2.38,5.05,5.05,0,0,1-2,1.43l3.36.17L544,666.23l-5.65-.26,1.48-1.44,1.26.14q1.41-.89,1.74-3.65l.13-1.12.9-8.12h-.36q-4.83,0-4.83,3.19A4.19,4.19,0,0,0,539.22,657Z"/><path class="cls-2" d="M548.54,660.84l-1.07,1a3.57,3.57,0,0,1,1.08-3.75,4.5,4.5,0,0,1,3.09-1.09l.48,0,.32,0h.07a3.18,3.18,0,0,0,0,.33,6.08,6.08,0,0,0,1.77,3.47l.5.58.44.52a11.14,11.14,0,0,1,1.1,1.52l.44-3.6a9.14,9.14,0,0,1,1.53-4.62,3.67,3.67,0,0,1,2.82-1.51,3.23,3.23,0,0,1,1.14.21l-1,1a2.19,2.19,0,0,0-1.07-.35,1.7,1.7,0,0,0-1.56.94,9.76,9.76,0,0,0-.83,3.29l-.7,5.61-.84,1.72a8.24,8.24,0,0,0-.65-1.86,13.12,13.12,0,0,0-1.37-1.87l-.51-.62a11.27,11.27,0,0,1-1.66-2.54l-.33,3-.08.72a3.64,3.64,0,0,1-.34,1.3,3.43,3.43,0,0,1-.94.94l1.46.13-.79.77-2.88-.15.85-.82.74.07a2,2,0,0,0,.7-.79,5.13,5.13,0,0,0,.3-1.4l.06-.58.51-4.59H551q-2.75,0-2.75,1.82A2.4,2.4,0,0,0,548.54,660.84Z"/><path class="cls-2" d="M560.51,660.84l-1.07,1a3.57,3.57,0,0,1,1.08-3.75,4.5,4.5,0,0,1,3.09-1.09l.48,0,.32,0h.07a3.18,3.18,0,0,0,0,.33,6.08,6.08,0,0,0,1.77,3.47l.5.58.44.52a11.14,11.14,0,0,1,1.1,1.52l.44-3.6a9.14,9.14,0,0,1,1.53-4.62,3.67,3.67,0,0,1,2.82-1.51,3.23,3.23,0,0,1,1.14.21l-1,1a2.19,2.19,0,0,0-1.07-.35,1.7,1.7,0,0,0-1.56.94,9.76,9.76,0,0,0-.83,3.29l-.7,5.61-.84,1.72a8.24,8.24,0,0,0-.65-1.86,13.12,13.12,0,0,0-1.37-1.87l-.51-.62a11.27,11.27,0,0,1-1.66-2.54l-.33,3-.08.72a3.64,3.64,0,0,1-.34,1.3,3.43,3.43,0,0,1-.94.94l1.46.13-.79.77-2.88-.15.85-.82.74.07a2,2,0,0,0,.7-.79,5.13,5.13,0,0,0,.3-1.4l.06-.58.51-4.59H563q-2.75,0-2.75,1.82A2.4,2.4,0,0,0,560.51,660.84Z"/></g><g class="cls-1"><path class="cls-2" d="M352.31,681.69v-6.13h1.43v2.38h4.45v-2.38h1.44v6.13h-1.44V679h-4.45v2.64Z"/><path class="cls-2" d="M361.55,681.69l3-5h1.18l3,5h-1.37l-.63-1.1H363.4l-.63,1.1Zm2.38-2h2.3l-1.17-2.09Z"/><path class="cls-2" d="M370,681.69v-5h1l2.46,3,2.45-3h1v5h-1.14v-3.46l-2.24,2.85h-.24L371,678.31v3.37Z"/><path class="cls-2" d="M379.09,681.69v-5h1.22v5Z"/><path class="cls-2" d="M382.55,681.69v-5h1.24v4.08h3.94v.94Z"/><path class="cls-2" d="M390.79,677.56v4.12h-1.22v-4.12h-2.42v-.9h6.08v.9Z"/><path class="cls-2" d="M394.68,677.85a1.26,1.26,0,0,1,.27-.93,1.57,1.57,0,0,1,1-.25h3.88a1.56,1.56,0,0,1,1,.25,1.27,1.27,0,0,1,.26.93v2.65a1.27,1.27,0,0,1-.27.94,1.57,1.57,0,0,1-1,.25H396a1.57,1.57,0,0,1-1-.25,1.27,1.27,0,0,1-.27-.94Zm1.22,2.88h4v-3.14h-4Z"/><path class="cls-2" d="M403.29,681.69v-5h.84l4.26,3.33v-3.33h1.11v5h-.85l-4.25-3.39v3.39Z"/><path class="cls-2" d="M415.79,679.13v-1.22h2.77v1.22Z"/><path class="cls-2" d="M424.14,681.69l3.47-6.13H429l3.51,6.13h-1.6l-.74-1.34h-3.88l-.71,1.34Zm2.74-2.45h2.68l-1.32-2.49Z"/><path class="cls-2" d="M438.1,677.59h-3.3v3.14h3.3v-1.07l1.24.25v.59a1.26,1.26,0,0,1-.27.94,1.58,1.58,0,0,1-1,.25h-3.14a1.57,1.57,0,0,1-1-.25,1.26,1.26,0,0,1-.27-.94v-2.65a1.26,1.26,0,0,1,.27-.93,1.57,1.57,0,0,1,1-.25H438a1.59,1.59,0,0,1,1,.25,1.25,1.25,0,0,1,.27.93v.49l-1.24.18Z"/><path class="cls-2" d="M445.75,677.59h-3.3v3.14h3.3v-1.07l1.23.25v.59a1.26,1.26,0,0,1-.27.94,1.58,1.58,0,0,1-1,.25h-3.14a1.57,1.57,0,0,1-1-.25,1.26,1.26,0,0,1-.27-.94v-2.65a1.26,1.26,0,0,1,.27-.93,1.57,1.57,0,0,1,1-.25h3.14a1.59,1.59,0,0,1,1,.25,1.25,1.25,0,0,1,.27.93v.49l-1.23.18Z"/><path class="cls-2" d="M448.87,677.85a1.26,1.26,0,0,1,.27-.93,1.56,1.56,0,0,1,1-.25h3.89a1.56,1.56,0,0,1,1,.25,1.27,1.27,0,0,1,.26.93v2.65a1.27,1.27,0,0,1-.27.94,1.57,1.57,0,0,1-1,.25h-3.89a1.56,1.56,0,0,1-1-.25,1.27,1.27,0,0,1-.27-.94Zm1.22,2.88h4v-3.14h-4Z"/><path class="cls-2" d="M457.48,681.69v-5h1l2.46,3,2.45-3h1v5h-1.14v-3.46L461,681.08h-.24l-2.27-2.77v3.37Z"/><path class="cls-2" d="M466.59,681.69v-5h1l2.46,3,2.45-3h1v5h-1.14v-3.46l-2.24,2.85h-.24l-2.27-2.77v3.37Z"/><path class="cls-2" d="M475.58,677.85a1.26,1.26,0,0,1,.27-.93,1.56,1.56,0,0,1,1-.25h3.89a1.56,1.56,0,0,1,1,.25,1.27,1.27,0,0,1,.26.93v2.65a1.27,1.27,0,0,1-.27.94,1.57,1.57,0,0,1-1,.25h-3.89a1.56,1.56,0,0,1-1-.25,1.27,1.27,0,0,1-.27-.94Zm1.22,2.88h4v-3.14h-4Z"/><path class="cls-2" d="M484.19,681.69v-5h3.38a3.42,3.42,0,0,1,2.24.65,2.26,2.26,0,0,1,.78,1.85,2.24,2.24,0,0,1-.83,1.9,4.08,4.08,0,0,1-2.5.63Zm1.24-.94H487a3.2,3.2,0,0,0,1.81-.38,1.8,1.8,0,0,0,.09-2.43,1.94,1.94,0,0,0-1.32-.38h-2.16Z"/><path class="cls-2" d="M491.46,681.69l3-5h1.18l3,5h-1.37l-.63-1.1h-3.32l-.63,1.1Zm2.38-2h2.3L495,677.57Z"/><path class="cls-2" d="M502.24,677.56v4.12H501v-4.12h-2.42v-.9h6.08v.9Z"/><path class="cls-2" d="M506.25,681.69v-5h1.22v5Z"/><path class="cls-2" d="M509.58,677.85a1.26,1.26,0,0,1,.27-.93,1.56,1.56,0,0,1,1-.25h3.89a1.56,1.56,0,0,1,1,.25,1.27,1.27,0,0,1,.26.93v2.65a1.27,1.27,0,0,1-.27.94,1.57,1.57,0,0,1-1,.25h-3.89a1.56,1.56,0,0,1-1-.25,1.27,1.27,0,0,1-.27-.94Zm1.22,2.88h4v-3.14h-4Z"/><path class="cls-2" d="M518.19,681.69v-5H519L523.3,680v-3.33h1.11v5h-.85l-4.25-3.39v3.39Z"/></g><g class="cls-1"><path class="cls-2" d="M464.7,622.35H436a15.77,15.77,0,0,0,4.28-3.59,8.38,8.38,0,0,0,1.74-5.12v-56.2l-3.46-2.07a7.37,7.37,0,0,1-2.3-2.33H464.7a26.5,26.5,0,0,0-4.48,4,4.8,4.8,0,0,0-.9,1.44,7.1,7.1,0,0,0-.77,3.23v56.11l3.07,2A17.06,17.06,0,0,1,464.7,622.35Z"/></g><path class="cls-3" d="M406.08,588.87l-15.4-18.59v-1.67a8.09,8.09,0,0,1,.51-2.87,4.65,4.65,0,0,1,.59-1.27,20.65,20.65,0,0,1,3-3.58H375.92a6.07,6.07,0,0,0,1.53,2.07l2.29,1.83v49.84a9.18,9.18,0,0,1-1.15,4.54,11.9,11.9,0,0,1-2.83,3.19h19a12.78,12.78,0,0,0-2-2.23l-2-1.75V581l17.39,21h0l30-24.81V562.39Z"/><rect class="cls-3" x="359.45" y="630.65" width="153.12" height="3.44"/><rect class="cls-3" x="359.45" y="627.82" width="153.12" height="1.72"/><path class="cls-3" d="M464.5,572.15l1.17-1.25.28.07a9.08,9.08,0,0,0,1,.2,2.36,2.36,0,0,0,1-1.11,11.3,11.3,0,0,0,.47-2.52l.77-6.91a5.48,5.48,0,0,0-3,1,2.73,2.73,0,0,0-1.14,2.24,3,3,0,0,0,.4,1.52l-1.48,1.3a5.42,5.42,0,0,1-.19-1.43,4.87,4.87,0,0,1,2.12-4.06,8.79,8.79,0,0,1,5.41-1.58q4.25,0,4.25,2.44,0,2.08-3,3.33,2.89,1,2.89,3.22a3.16,3.16,0,0,1-1.79,2.81,9.46,9.46,0,0,1-4.79,1A33.76,33.76,0,0,1,464.5,572.15Zm5.61-6-.14,1.23-.08.77a4.38,4.38,0,0,1-.55,1.92,4.61,4.61,0,0,1-1.66,1.2,22.19,22.19,0,0,0,3.59.3q2.87,0,2.87-2.28a2.88,2.88,0,0,0-.79-1.9,4,4,0,0,0-1.92-1.24h-.24l-.44,0-.41,0Zm.62-5.59-.54,4.85q.54,0,.94,0a10.38,10.38,0,0,0,1.06-.06,3.21,3.21,0,0,0,2-2.71Q474.15,560.57,470.73,560.57Z"/><path class="cls-3" d="M474.12,585.47a.32.32,0,0,1,.21.29q0,.61-1.11,1.6a6.25,6.25,0,0,1-4.28,1.68,3.8,3.8,0,0,1-3.09-1.4,5.74,5.74,0,0,1-1.15-3.76,7.89,7.89,0,0,1,2.16-5.65,7.08,7.08,0,0,1,5.35-2.28,10.12,10.12,0,0,1,3.37.62l-.62,1.35-.17.39q-.22.47-.54.47l-.19,0a1.19,1.19,0,0,0,.13-.47q0-.61-.82-1.07a3.88,3.88,0,0,0-1.92-.46,4.43,4.43,0,0,0-3.65,1.77,7.2,7.2,0,0,0-1.4,4.61,5.66,5.66,0,0,0,1,3.5,3.13,3.13,0,0,0,2.63,1.3,4.55,4.55,0,0,0,2.37-.71A4.61,4.61,0,0,0,474.12,585.47Z"/></g><g class="cls-1"><path class="cls-3" d="M785.88,299.09a29.53,29.53,0,0,0-10-1.72h-.05a5,5,0,0,0-5,5v2.12a15,15,0,0,0,4.4,10.63c.21.21.43.42.66.62a15,15,0,0,0,2.58,1.84,5.77,5.77,0,0,0,.87.46h0c.29.14.58.27.88.39a9.71,9.71,0,1,1-14.05,8.69h0c0-.34,0-.67-.06-1h.06v-7.47a15,15,0,0,0-15-15,5,5,0,0,0-5,5V327.2h0a29.79,29.79,0,0,0,29.76,29.69h26.75a3,3,0,0,0,3-3V327.13A29.81,29.81,0,0,0,785.88,299.09Zm-34.72,8.14a11.41,11.41,0,0,1,11.3,10.07,15,15,0,0,0-11.3-5.14h0a5,5,0,0,0-1.41.23v-3.75A1.41,1.41,0,0,1,751.16,307.23Zm50.91,46.06h-12a30,30,0,0,0,12-12Z"/><g class="cls-1"><path class="cls-2" d="M704.94,401.95h-8.8l-4-9V385.7h.67c1.74,0,2.63-.75,2.63-2.29,0-1.29-1-2-3.06-2H690.9v20.5h-8.32V373.9h10.66a11.22,11.22,0,0,1,7.75,2.56,8.76,8.76,0,0,1,2.83,6.78,8.66,8.66,0,0,1-3.7,7.11Z"/><path class="cls-2" d="M715.85,376.7a3.7,3.7,0,1,1-7.4,0,3.46,3.46,0,0,1,1.09-2.58,3.72,3.72,0,0,1,5.22,0A3.46,3.46,0,0,1,715.85,376.7Z"/><rect class="cls-2" x="708.24" y="382.12" width="7.7" height="19.83"/><path class="cls-2" d="M739.77,391.16v10.78h-7.63V390.39c0-1.17-.5-1.74-1.49-1.74s-1.42.57-1.42,1.74v11.55h-7.7V390.57a9.4,9.4,0,0,1,2.66-6.73,8.56,8.56,0,0,1,6.46-2.78,8.65,8.65,0,0,1,6.66,2.66Q739.77,386.36,739.77,391.16Z"/><path class="cls-2" d="M765.49,392.41v6.71a13.1,13.1,0,0,1-3,8.85,9.74,9.74,0,0,1-7.7,3.45,13.59,13.59,0,0,1-4.32-.72v-7a7.15,7.15,0,0,0,3.16.84,3.81,3.81,0,0,0,3.08-1.39,6.11,6.11,0,0,0,1.14-3.93v-7.7c0-2.14-.87-3.23-2.61-3.23a2.58,2.58,0,0,0-1.94.84,2.72,2.72,0,0,0-.82,2,2.6,2.6,0,0,0,.77,2,2.72,2.72,0,0,0,1.94.77,3.51,3.51,0,0,0,1.54-.37v7a10,10,0,0,1-3.23.57,8.25,8.25,0,0,1-6.29-2.76,9.78,9.78,0,0,1-2.56-6.91,9.91,9.91,0,0,1,3.11-7.38,10.46,10.46,0,0,1,7.58-3c3.25,0,5.74,1,7.5,2.93S765.49,388.75,765.49,392.41Z"/><path class="cls-2" d="M805.57,401.95h-8.82l-4-9V385.7h.7c1.74,0,2.63-.75,2.63-2.29,0-1.29-1-2-3.06-2h-1.47v20.5H783.2V373.9h10.66a11.22,11.22,0,0,1,7.75,2.56,8.76,8.76,0,0,1,2.83,6.78,8.66,8.66,0,0,1-3.7,7.11Z"/><path class="cls-2" d="M826.31,384.26a10.5,10.5,0,0,0-15.11,0,10.48,10.48,0,0,0-3.18,7.63,10.73,10.73,0,0,0,21.47,0A10.48,10.48,0,0,0,826.31,384.26ZM821,394.07a3,3,0,0,1-2.21.89,3.06,3.06,0,0,1-2.21-.89,2.93,2.93,0,0,1-.92-2.19,3.13,3.13,0,1,1,6.26,0A2.93,2.93,0,0,1,821,394.07Z"/><path class="cls-2" d="M854.59,391.91v10h-7.7v-9.49a3.77,3.77,0,0,0-.82-2.56,2.61,2.61,0,0,0-2.09-1,2.86,2.86,0,0,0-2.09.89A2.93,2.93,0,0,0,841,392a2.71,2.71,0,0,0,.77,2,2.83,2.83,0,0,0,2.14.82,3.76,3.76,0,0,0,1.81-.5v7.9a8.48,8.48,0,0,1-1.74.2,10.47,10.47,0,0,1-7.7-3.08,10.16,10.16,0,0,1-3.11-7.58,10.69,10.69,0,0,1,10.68-10.68,10.58,10.58,0,0,1,7.88,2.91A10.93,10.93,0,0,1,854.59,391.91Z"/><path class="cls-2" d="M880.92,373.9v17.32a11.45,11.45,0,0,1-3,8.22,10,10,0,0,1-7.55,3.18,10.51,10.51,0,0,1-7.73-3.13,10.68,10.68,0,0,1,0-15.08,10.07,10.07,0,0,1,7.4-3.13c.47,0,1.17,0,2.06.12v8.5a3.69,3.69,0,0,0-2.11-.7,2.48,2.48,0,0,0-1.89.8,2.93,2.93,0,0,0-.8,2.11,2.84,2.84,0,0,0,.87,2.06,2.87,2.87,0,0,0,2.14.87c2,0,2.93-1.37,2.93-4.1v-17Z"/></g></g><g class="cls-1"><path class="cls-3" d="M1115.51,625.69l-13.37,6.69a2.44,2.44,0,0,1-3.54-2.19V563a2.44,2.44,0,0,1,1.35-2.19l13.37-6.69a2.44,2.44,0,0,1,3.54,2.19V623.5A2.44,2.44,0,0,1,1115.51,625.69Z"/><path class="cls-3" d="M1139.79,554.47V623a.54.54,0,0,0-.06.11,2.43,2.43,0,0,1-2.51,2c-4.41,0-8.81,0-13.22,0a2.86,2.86,0,0,1-1.32-.35,2.46,2.46,0,0,1-1.2-2.37q0-33.64,0-67.27c0-.14,0-.29,0-.43a2.41,2.41,0,0,1,1.85-2.23l.27-.08h14a2.51,2.51,0,0,1,1.66,1A8.4,8.4,0,0,1,1139.79,554.47Z"/><path class="cls-3" d="M1159,632.4l-13.46-6.73a2.4,2.4,0,0,1-1.33-2.15V556.2a2.4,2.4,0,0,1,3.48-2.15l13.46,6.73a2.4,2.4,0,0,1,1.33,2.15v67.33A2.4,2.4,0,0,1,1159,632.4Z"/><path class="cls-3" d="M1130.56,661.9h0a1.93,1.93,0,0,1-1.44-.73C1129,661,1105,645.92,1105,645.92a4.68,4.68,0,0,1-1.65-4.74c.33-1.28,11.64-5.75,11.64-5.75a45.45,45.45,0,0,1,31.32,0c5,1.85,11.18,4.44,11.51,5.72a4.68,4.68,0,0,1-1.65,4.74s-24,15.08-24.14,15.25A1.93,1.93,0,0,1,1130.56,661.9Z"/><g class="cls-1"><path class="cls-2" d="M1160.7,666.43h-60.27a2.34,2.34,0,0,1,0-4.57h60.27a2.34,2.34,0,0,1,0,4.57Z"/></g><path class="cls-3" d="M1102.72,675.74c-1.4-.54-1.82-.93-1.82-1.66,0-.55.42-1.2,1.59-1.2a3.72,3.72,0,0,1,1.79.45l.36.19.59-1.73-.25-.14a4.94,4.94,0,0,0-2.44-.55c-2.16,0-3.66,1.29-3.66,3.13,0,1.47,1,2.53,2.93,3.23,1.44.55,1.72,1,1.72,1.72,0,.88-.68,1.41-1.81,1.41a4.37,4.37,0,0,1-2.2-.62l-.38-.23-.54,1.78.21.14a5.62,5.62,0,0,0,2.81.71c2.72,0,3.93-1.66,3.93-3.3S1104.71,676.5,1102.72,675.74Z"/><path class="cls-3" d="M1108.9,671.94l-2,.53v1.69h-1.14v1.7h1.14v3.68a3,3,0,0,0,.6,2.14,2.18,2.18,0,0,0,1.7.68,3.61,3.61,0,0,0,1.32-.21l.22-.09-.1-1.66-.4.11a2.68,2.68,0,0,1-.69.08c-.34,0-.66-.08-.66-1.09v-3.63h1.92v-1.7h-1.92Z"/><path class="cls-3" d="M1117.5,680.1v-2.76c0-2.16-1.12-3.36-3.14-3.36a4.9,4.9,0,0,0-2.61.71l-.22.14.53,1.54.36-.24a3.32,3.32,0,0,1,1.73-.49c.85,0,1.27.38,1.33,1.18a5.26,5.26,0,0,0-3.66,1.17,2.59,2.59,0,0,0-.76,1.91,2.44,2.44,0,0,0,2.59,2.46,3.19,3.19,0,0,0,2-.71l.06.54h1.93l-.07-.4A9.93,9.93,0,0,1,1117.5,680.1Zm-2-1.66v.94a1.09,1.09,0,0,1-.06.32,1.51,1.51,0,0,1-1.46,1,.85.85,0,0,1-.92-.94,1,1,0,0,1,.29-.75A3.23,3.23,0,0,1,1115.53,678.45Z"/><path class="cls-3" d="M1120.79,674.84l0-.68h-1.87l0,.36c0,.63.06,1.33.06,2.28v5.41h2v-4.27a3.42,3.42,0,0,1,.06-.56,1.54,1.54,0,0,1,1.46-1.44,1.68,1.68,0,0,1,.38,0l.41.09v-2l-.26-.06A2.33,2.33,0,0,0,1120.79,674.84Z"/><path class="cls-3" d="M1127.11,671.94l-2,.53v1.69H1124v1.7h1.14v3.68a3,3,0,0,0,.6,2.14,2.18,2.18,0,0,0,1.7.68,3.61,3.61,0,0,0,1.32-.21l.22-.09-.1-1.66-.4.11a2.68,2.68,0,0,1-.69.08c-.34,0-.66-.08-.66-1.09v-3.63H1129v-1.7h-1.92Z"/><path class="cls-3" d="M1133.18,671.19a15.88,15.88,0,0,0-2.6.2l-.28,0v10.77h2v-4.05a7,7,0,0,0,.73,0,4.56,4.56,0,0,0,3.38-1.23,3.36,3.36,0,0,0,.89-2.43,3.1,3.1,0,0,0-1-2.4A4.53,4.53,0,0,0,1133.18,671.19Zm2.11,3.4c0,1.61-1.4,1.85-2.23,1.85a5.36,5.36,0,0,1-.76,0V673C1133,672.87,1135.29,672.64,1135.29,674.59Z"/><path class="cls-3" d="M1141.44,674a4,4,0,0,0-4,4.25,3.84,3.84,0,0,0,3.87,4.13,4,4,0,0,0,4-4.25A3.84,3.84,0,0,0,1141.44,674Zm1.84,4.18c0,1.46-.8,2.52-1.9,2.52s-1.9-1-1.9-2.49c0-1.26.6-2.52,1.93-2.52S1143.28,677.31,1143.28,678.17Z"/><rect class="cls-3" x="1146.34" y="674.16" width="2.02" height="8.05"/><path class="cls-3" d="M1147.36,671.25a1.17,1.17,0,0,0,0,2.34,1.21,1.21,0,0,0,.89-.35,1.11,1.11,0,0,0,.31-.82A1.13,1.13,0,0,0,1147.36,671.25Z"/><path class="cls-3" d="M1153.92,674a3.11,3.11,0,0,0-2.18.84l0-.67h-1.88l0,.37c0,.56.06,1.15.06,2v5.72h2v-4.77a1.61,1.61,0,0,1,.08-.52,1.58,1.58,0,0,1,1.47-1.13c.91,0,1.37.62,1.37,1.84v4.59h2v-4.74C1156.87,674.9,1155.28,674,1153.92,674Z"/><path class="cls-3" d="M1162.52,675.86v-1.7h-1.92v-2.22l-2,.53v1.69h-1.14v1.7h1.14v3.68a3,3,0,0,0,.6,2.14,2.18,2.18,0,0,0,1.7.68,3.61,3.61,0,0,0,1.32-.21l.22-.09-.1-1.66-.4.11a2.68,2.68,0,0,1-.69.08c-.34,0-.66-.08-.66-1.09v-3.63Z"/></g><g class="cls-1"><g class="cls-1"><path class="cls-2" d="M1128.22,7.41a4.91,4.91,0,0,1,2,0Z"/><path class="cls-2" d="M1099.4,58.11a5.53,5.53,0,0,1-2,0Z"/><path class="cls-2" d="M1098.89,11.49V10.07A2.64,2.64,0,0,1,1098.89,11.49Z"/><path class="cls-2" d="M1124.85,17.72h1.2A2,2,0,0,1,1124.85,17.72Z"/><path class="cls-2" d="M1172.08,28.39a3.71,3.71,0,0,1,.07-1.25A3.84,3.84,0,0,1,1172.08,28.39Z"/><path class="cls-2" d="M1127.75,48.17c-.39,0-.79.11-1.17-.07A3.85,3.85,0,0,1,1127.75,48.17Z"/><path class="cls-2" d="M1114.55,53h-.9A1.13,1.13,0,0,1,1114.55,53Z"/><path class="cls-2" d="M1155.54,106.44a1,1,0,0,1,0,.85Z"/><path class="cls-2" d="M1143.16,83.65a1.48,1.48,0,0,1,.07.75C1143.08,84.16,1143.18,83.9,1143.16,83.65Z"/><path class="cls-2" d="M1143.23,82.4c0,.25.07.51-.07.75C1143.18,82.9,1143.08,82.64,1143.23,82.4Z"/><path class="cls-2" d="M1099.9,31.51a1.48,1.48,0,0,1-.75.07C1099.39,31.42,1099.65,31.52,1099.9,31.51Z"/><path class="cls-2" d="M1103.1,18.08c.2-.14.43-.06.65-.07C1103.54,18.16,1103.31,18.07,1103.1,18.08Z"/><path class="cls-2" d="M1174.73,44.6a1.11,1.11,0,0,1-.06.65C1174.68,45,1174.59,44.8,1174.73,44.6Z"/><path class="cls-2" d="M1155.6,102.33c0,.22.08.45-.06.66C1155.55,102.76,1155.46,102.54,1155.6,102.33Z"/><path class="cls-2" d="M1172,31c0-.22-.06-.44.07-.65C1172,30.56,1172.13,30.79,1172,31Z"/><path class="cls-2" d="M1100.55,18c.22,0,.44-.07.65.07C1101,18.07,1100.75,18.16,1100.55,18Z"/><path class="cls-2" d="M1174.67,47.65c.13.21.06.43.07.65C1174.59,48.09,1174.68,47.86,1174.67,47.65Z"/><path class="cls-2" d="M1112.75,58.48c-.18,0-.38.06-.55-.07C1112.38,58.42,1112.58,58.34,1112.75,58.48Z"/><path class="cls-2" d="M1147.65,107.22a.92.92,0,0,1-.56.07C1147.26,107.14,1147.46,107.23,1147.65,107.22Z"/><path class="cls-2" d="M1071.3,50.25l-.11.29c-.09,0-.14,0-.1-.1s0-.25.1-.34Z"/><path class="cls-2" d="M1115.6,58.41c-.17.13-.36.06-.55.07C1115.22,58.34,1115.42,58.42,1115.6,58.41Z"/><path class="cls-2" d="M1123.84,7.62a.92.92,0,0,1,.56-.07C1124.23,7.69,1124,7.61,1123.84,7.62Z"/><path class="cls-2" d="M1167.76,18.19c-.08,0-.19-.11-.17-.14s.26-.06.38,0Z"/><path class="cls-2" d="M1131.78,106.71a.92.92,0,0,1-.56.07C1131.39,106.64,1131.59,106.72,1131.78,106.71Z"/><path class="cls-2" d="M1198.6,59.83a13.26,13.26,0,0,0-1.87-4.3,29.23,29.23,0,0,0-3.15-4.12,36.25,36.25,0,0,0-3.43-3.47c-.52-.44-1.2-.84-1.44-1.41-.65-1.5-1.21-3-1.9-4.51,0-.06-.08-.12,0-.18s.12,0,.2,0a17.67,17.67,0,0,0,2.2.83,9.63,9.63,0,0,0,3.92.18c.25,0,.43-.12.28-.49-.54-1.37-1.09-2.73-1.73-4.06a26.09,26.09,0,0,0-7.68-9.94,13.63,13.63,0,0,0-6.9-2.84,3.28,3.28,0,0,1-2.31-1.12,58,58,0,0,0-7-6.23c0-.24.12-.13.22-.11a4.09,4.09,0,0,1,.5,0l8.69,1.73a22.55,22.55,0,0,0,4.63.63.8.8,0,0,0,.76-.36c.16-.28,0-.54-.18-.77a35.6,35.6,0,0,0-6.92-7.14,29.25,29.25,0,0,0-8.17-4.45,28.16,28.16,0,0,0-8.12-1.5,13.11,13.11,0,0,0-1.8,0A34.72,34.72,0,0,0,1148,8a1.19,1.19,0,0,1-.73,0,52.35,52.35,0,0,0-6.14-1.39c-.18,0-.36-.08-.53-.12s-.51.05-.7-.19l.16-.14a22.49,22.49,0,0,1,7.59-3.2c.11,0,.27,0,.3-.12s-.17-.17-.26-.23A16.18,16.18,0,0,0,1140,.07c-.21-.07-.44,0-.65-.07a4.09,4.09,0,0,1-1.2,0c-.21.09-.44,0-.65.07-1,.09-2,.2-3.06.39a33.88,33.88,0,0,0-6.67,2,48.89,48.89,0,0,0-6.39,3.2,5.48,5.48,0,0,1-1.89,1,47.67,47.67,0,0,0-4.88,1.07,8.69,8.69,0,0,1-1.85.43,36.38,36.38,0,0,1,2-3.59,4.45,4.45,0,0,1,2.22-1.94c0-.13-.05-.14-.13-.14a14.35,14.35,0,0,0-1.54,0,13.47,13.47,0,0,0-7.85,3.63,18.15,18.15,0,0,0-4,5.42c-.06.13-.12.31-.22.36-1.31.63-2.6,1.31-3.9,2l.19-1.53a7.24,7.24,0,0,0,0-1.4c0-.24-.07-.49-.13-.73-.12-.52-.47-.66-1-.43a2.42,2.42,0,0,0-.91,1c-1.19,1.9-2.19,3.91-3.31,5.85a2.75,2.75,0,0,1-.61.92c-1.16.8-2.27,1.66-3.35,2.56-1.35,1.14-2.68,2.31-3.94,3.55s-2.37,2.31-3.48,3.55c-.84.94-1.72,1.84-2.51,2.83-1.07,1.34-2.15,2.67-3.11,4.1a54.06,54.06,0,0,0-6.4,12.69,55.36,55.36,0,0,0-1.64,5.83c-.37,1.61-.61,3.24-.85,4.87-.18,1.21-.17,2.45-.25,3.67-.05.83-.06,10.4.14,13.55a48.2,48.2,0,0,0,1.28,7.72,60.66,60.66,0,0,0,2,7c.69,1.89,1.43,3.75,2.28,5.57a62.72,62.72,0,0,0,5.67,9.71,59.85,59.85,0,0,0,4.67,5.83,43.52,43.52,0,0,0,3.08,3.14c1.36,1.21,2.7,2.45,4.12,3.59,1.23,1,2.51,1.9,3.79,2.81a49,49,0,0,0,5.51,3.36,62.27,62.27,0,0,0,8.09,3.63c2,.72,4,1.33,6.11,1.86,1.77.45,5.74,1.08,5.92,1.16,1,.08,5,.32,5.75.33q2.15.07,4.3,0c.75,0,8-.5,9.73-.72,2.06-.27,4.11-.61,6.15-1.05a62,62,0,0,0,7.79-2.25,53.86,53.86,0,0,0,9.75-4.6,48,48,0,0,0,10.76-8.85c.79-.87,1.54-1.77,2.27-2.7a40.21,40.21,0,0,0,5.16-8.75,39.15,39.15,0,0,0,3.42-13.81,12.92,12.92,0,0,0,0-1.9c0-.46-.09-.92-.12-1.39a16.61,16.61,0,0,0-1.66-6.18,25.42,25.42,0,0,0-7.17-8.94,19.73,19.73,0,0,0-21.16-2.19,32.69,32.69,0,0,0-4.47,2.58,19.22,19.22,0,0,0-2.78,2.22c-.56.58-1.15,1.13-1.68,1.75a15.14,15.14,0,0,0-2.26,3.55,17.75,17.75,0,0,0-1.25,5.1,18,18,0,0,0,0,3,23.54,23.54,0,0,0,1.09,4.43,10.64,10.64,0,0,0,2.41,3.9,5,5,0,0,0,3.84,1.59,3.78,3.78,0,0,0,3.56-2.23c.11-.24.24-.34.47-.1a9.28,9.28,0,0,1,.88,1.16.22.22,0,0,1,0,.27,2.05,2.05,0,0,0,.18,1.87,6,6,0,0,0,.7,1.21c.07.1.28.31,0,.45a2.25,2.25,0,0,0-1,1.65,11,11,0,0,0-.25,2.08c-.06.21,0,.44-.06.65a33.46,33.46,0,0,1,0,3.4,1.58,1.58,0,0,1,0,.83l-.78.34a7.46,7.46,0,0,0-2.4,1.35c-.29.28-.48.31-.79,0a8.44,8.44,0,0,0-2.29-1.5c-.48-.19-1-.14-1.49-.3-.18.08-.37,0-.55.07a10,10,0,0,0-2.53.69c-.91.4-1.81.92-2.73,0a20.58,20.58,0,0,0-6.85-1.29c-1,0-2,0-2.94,0-.18.08-.37,0-.55.07l-.94.12a23.21,23.21,0,0,0-6.61,1.58.79.79,0,0,1-.77,0,11.94,11.94,0,0,0-4.91-1.49,19.72,19.72,0,0,0-8.23.91.86.86,0,0,1-.69,0,9.5,9.5,0,0,0-4-.88,17.57,17.57,0,0,0-4.32.53c-.14,0-.33.16-.42,0-.31-.53-.77-1-.73-1.68.09-1.6.38-3.18.61-4.76.34-2.29.8-4.56,1.34-6.81a64.75,64.75,0,0,1,3.79-11.91,17.21,17.21,0,0,1,2.88-4.62,7.07,7.07,0,0,1,3-1.73,31.33,31.33,0,0,0,6.53-3.38,47.64,47.64,0,0,0,5.08-3.86,26.31,26.31,0,0,0,4.36-4.61.38.38,0,0,1,.31-.2l6.48-.69c1.35-.15,2.7-.27,4-.43l7.14-.87c1.65-.2,3.3-.39,4.95-.63,2.37-.34,4.73-.71,7.09-1.07,2.2-.34,4.39-.72,6.55-1.26a15.75,15.75,0,0,1,2.31-.63c1.78-.16,3.56-.28,5.43-.42-.21-.08-.33-.14-.45-.18-5.34-1.47-10.67-3-16.06-4.25-3.34-.79-6.69-1.56-10.05-2.26-2-.41-4-.77-6-1.12s-3.84-.62-5.77-.87-3.6-.38-5.4-.44c-.39-.08-.79.06-1.17-.08-.08-.1-.17-.2-.24-.31a49,49,0,0,0-7.55-8.62,32.92,32.92,0,0,0-8-5.36,23.46,23.46,0,0,0-9.19-2.31,12.4,12.4,0,0,1-1.69,0c-.24.09-.5,0-.75.07a36.14,36.14,0,0,0-6.71,1,17.91,17.91,0,0,0-5.11,2,1,1,0,0,0-.39.35c-.08.16,0,.34.14.59a24.43,24.43,0,0,0,4.73,5.45c1.08.92,2.18,1.8,3.33,2.63a54.17,54.17,0,0,0,6.14,3.75c1.18.64,2.4,1.2,3.6,1.77a3.41,3.41,0,0,0,2.18.52,18.8,18.8,0,0,1,6.5-.08,20.88,20.88,0,0,1,5.79,1.76,21.43,21.43,0,0,1,4.17,2.59c.45.35,1.13.64,1.05,1.44,0,.15,0,.25-.16.32-1.15.53-2.23,1.21-3.44,1.63a17.32,17.32,0,0,1-5.39,1.08c-.18.08-.37,0-.55.07a20.59,20.59,0,0,1-2.3,0c-.18-.06-.37,0-.55-.07a26.43,26.43,0,0,1-6.1-1,1.42,1.42,0,0,0-.77-.11,14.12,14.12,0,0,1-2,.44,18.59,18.59,0,0,1-3.9.35,10,10,0,0,1-2,0,20.44,20.44,0,0,1-3.12-.2,34.91,34.91,0,0,1-5.35-1A51.87,51.87,0,0,1,1073.8,50a1.15,1.15,0,0,0-.78-.27c-.16,0-.41-.35-.38-.44a66.81,66.81,0,0,1,2.72-7.94,50.7,50.7,0,0,1,4.83-8.27,45.44,45.44,0,0,1,4-5,66.33,66.33,0,0,1,7.06-6.59c1.73-1.34,3.47-2.66,5.32-3.83a.47.47,0,0,1,.36-.11,23.1,23.1,0,0,0,3.61.43c.21.07.44,0,.65.07a10.73,10.73,0,0,1,1.9,0c.21-.08.44,0,.65-.07a15.27,15.27,0,0,0,8.37-2.82c-4.43.72-7.53-.53-8.43-1.37q2.16-1,4.38-1.81a.72.72,0,0,1,.79.11,12.19,12.19,0,0,0,1.52.95,42,42,0,0,0,7.13,3,28.53,28.53,0,0,0,7.35,1.64,6,6,0,0,0,1.2,0,4.07,4.07,0,0,0,3.19-1.39c-.18-.11-.36-.22-.54-.34a21.89,21.89,0,0,1-3.8-3.37c-1-1.14-2-2.32-2.93-3.55-.16-.21-.23-.28.14-.32.63-.08,2.27-.18,2.45-.24.35,0,3.07-.21,3.75-.13a8.54,8.54,0,0,1,1.93,0c.49.81,1,1.61,1.49,2.42a80.2,80.2,0,0,0,5.76,8.24c1,1.22,2,2.38,3,3.53a36,36,0,0,0,3.7,3.5,28.8,28.8,0,0,0,3.42,2.46,16.4,16.4,0,0,0,7.67,2.63,13.87,13.87,0,0,0,2.47,0,2.31,2.31,0,0,0-.17-.21,8.28,8.28,0,0,1-2.67-5.09,20,20,0,0,0-.66-3.28,33.4,33.4,0,0,0-4.26-8.23c-.69-1-1.43-2-2.21-3.08.72.17,1.32.44,1.93.64a57.94,57.94,0,0,1,7.6,3.19,3,3,0,0,1,1.45,1.23,31,31,0,0,1,2.08,4.78c.69,2,1.37,4,1.92,6.07.6,2.24,1.31,4.45,1.92,6.69s1.19,4.22,1.87,6.3a42.19,42.19,0,0,0,2,5.28c0,.09,0,.26.18.26s.19-.17.26-.26a47.79,47.79,0,0,0,2.22-7.1A71.78,71.78,0,0,0,1172,31c.07-.21,0-.44.07-.65q0-1,0-2c.07-.41,0-.84.07-1.25a7.42,7.42,0,0,1,0-1.43c.18,0,.24.15.33.24.84.84,1.7,1.67,2.48,2.57s1.42,1.57,2.1,2.39c.49.59.48.62.22,1.32-.59,1.62-1,3.28-1.44,5-.37,1.42-.58,2.87-.85,4.31a29.57,29.57,0,0,0-.25,3.12c-.06.21.18,5.73.35,6.74A20.11,20.11,0,0,0,1178,59a6.1,6.1,0,0,0,1.09,1.43.82.82,0,0,0,.09-.46c.07-1,.1-2,.22-2.93.25-2.09.5-4.19.88-6.27a39.26,39.26,0,0,1,2.11-7.89,7.1,7.1,0,0,1,1.23-2.18,58.09,58.09,0,0,1,2.93,6.22c.53,1.3,1,2.64,1.47,4a1,1,0,0,1,0,.8,44,44,0,0,0-1.69,5.33q-.54,2-.9,4.06a30.73,30.73,0,0,0-.5,3.85,6.45,6.45,0,0,0,1.84-.89,10.59,10.59,0,0,0,3.07-3.69c.09-.16.14-.36.37-.38l.44,5.23c.06.76.13,1.52.19,2.28.07.93.07.93-.74,1.33-.43.21-.87.4-1.29.62a4.58,4.58,0,0,0-1.58,1.27,2.61,2.61,0,0,0-.11,2.47,23.77,23.77,0,0,0,1.16,2.74,3,3,0,0,1,.29,1.57c-.12.8-.28,1.6-.44,2.39a5.68,5.68,0,0,0-.07,2.77c0,.12.11.35.32.09a4.28,4.28,0,0,1,.33-.37,26.25,26.25,0,0,0,2.65-3.78,10.29,10.29,0,0,0,2.28-7.55c-.11-.78,0-1.69-.64-2.22s-.52-1.42-.64-2.15c0-.25,0-.5-.05-.75-.12-1.5-.24-3-.35-4.51s-.26-3.14-.47-4.7a8,8,0,0,1-.23-1.58c.6.42,1.12.85,1.64,1.27a35.76,35.76,0,0,0,5.48,3.68c.1.05.2.2.33.1S1198.63,59.94,1198.6,59.83ZM1152,58.59c-2.55.33-5.11.67-7.67,1s-4.89.56-7.34.83c-2.61.29-5.23.54-7.84.85-.46.05-.62-.08-.74-.46a31.2,31.2,0,0,1-.82-3.69c-.15-.75-.13-.74.66-.8a71.22,71.22,0,0,1,10.47,0c3.25.26,6.48.59,9.7,1.15,2,.35,4.12.52,6.21.75C1153.72,58.34,1152.84,58.48,1152,58.59Zm-24.7-7.95a.53.53,0,0,1,.61-.37,68.61,68.61,0,0,1,7.34.76c3.7.53,7.37,1.22,11,2q7,1.42,13.92,3.16a47,47,0,0,1-7.41-.31c-4.62-.55-9.22-1.25-13.89-1.38-3.78-.11-7.55-.26-11.33-.28-.26,0-.46,0-.51-.33A5.72,5.72,0,0,1,1127.26,50.64Zm-17.42,67.66c-1.4-1.63-2.82-3.24-4.23-4.86l-.24-.28c2.52-.07,4.93-.11,7.34,0a31.66,31.66,0,0,1,6.36.83,9.18,9.18,0,0,1,2.47,1,2.61,2.61,0,0,0,3.42-.79,3.48,3.48,0,0,0,.62-1c.22-.63.7-.73,1.25-.76a13.88,13.88,0,0,1,4.78.85,52.16,52.16,0,0,1,6.19,2.43,1,1,0,0,0,.85,0,7.86,7.86,0,0,0,2.35-1.17,4.83,4.83,0,0,1,4.06-.81c3,.47,6,1.25,9,2a.87.87,0,0,0,.83-.14,5.41,5.41,0,0,1,3.63-1.12c.87,0,1.75,0,2.76,0a34.2,34.2,0,0,1-3.51,2,74.84,74.84,0,0,1-8.8,3.66.87.87,0,0,1-.75-.09,31.13,31.13,0,0,0-6.53-2.61,7.5,7.5,0,0,0-5.49.35,7.88,7.88,0,0,0-1.91,1.43.42.42,0,0,1-.62.07,18.17,18.17,0,0,0-5.22-2.15,6,6,0,0,0-5.5,1.27c-.16.14-.3.27-.56.17a15.16,15.16,0,0,0-5.51-.69,41.76,41.76,0,0,0-6.2.57A.78.78,0,0,1,1109.84,118.3Zm46.62-34.13a5.22,5.22,0,0,0-3.41,3.44,12.44,12.44,0,0,0-.76,4,1.52,1.52,0,0,1-1.65,1.57,3.07,3.07,0,0,1-2.29-.93,8,8,0,0,1-2-3.38,14.79,14.79,0,0,1-.57-8.72,13.05,13.05,0,0,1,3.77-6.22,24.49,24.49,0,0,1,11.12-6.24,16.66,16.66,0,0,1,13.86,2.61,21.53,21.53,0,0,1,8.38,11,17.55,17.55,0,0,1,.71,7.4,38.68,38.68,0,0,1-7.42,19.47,44.54,44.54,0,0,1-15.61,13.33,57.93,57.93,0,0,1-16.22,5.52,87.85,87.85,0,0,1-10.49,1.27c-.35,0-.68,0-.83-.38s.15-.57.36-.8a2.74,2.74,0,0,1,1.49-.62,124.75,124.75,0,0,0,21.09-6.7,35.73,35.73,0,0,0,9.08-5.3,23,23,0,0,0,8-12.77c.18-.83.27-1.67.4-2.55a5.23,5.23,0,0,0-1.27.28c-.58.14-.69.06-.64-.53a8.3,8.3,0,0,1,.71-2.58,1,1,0,0,1,.75-.59,1.18,1.18,0,0,0,1-1.07,1.25,1.25,0,0,0-.67-1.24,4,4,0,0,1-2-3.13,4,4,0,0,1,.18-1.47.5.5,0,0,0-.17-.61,2.41,2.41,0,0,1-.67-2.81.87.87,0,0,0,0-.53,4.77,4.77,0,0,0-1.09-2.2,1.69,1.69,0,0,0-1.88-.54,1.1,1.1,0,0,1-.94-.21,1.35,1.35,0,0,0-2,.16,1.13,1.13,0,0,1-1.24.33,1.91,1.91,0,0,0-1.08-.13l.58,1.43c.25.63.16.93-.45,1.27a3.65,3.65,0,0,1-3.57,0,2.89,2.89,0,0,1-.92-.58A1.33,1.33,0,0,0,1156.47,84.17Zm-52.07,23.6a7.9,7.9,0,0,1,4.69,1.06c.23.15.41.05.61,0a18.62,18.62,0,0,1,6.74-1.15,13.09,13.09,0,0,1,5.13,1,3.82,3.82,0,0,1,1.18.74.48.48,0,0,0,.65.09,22.7,22.7,0,0,1,8.36-2,25.16,25.16,0,0,1,7.72.61,8.14,8.14,0,0,1,1.9.71,1.36,1.36,0,0,1,.56.39c.33.59.7.44,1.17.2a24.46,24.46,0,0,1,2.75-1.13,3.62,3.62,0,0,1,3.93.75c2.2,2,4.88,2.43,7.71,2.3a25.85,25.85,0,0,0,9.72-2.68l.36-.16a16.46,16.46,0,0,1-3.13,3.66,5.5,5.5,0,0,1-2.36.84,15.06,15.06,0,0,1-3.88.18,6.45,6.45,0,0,0-3.73,1.05.73.73,0,0,1-.65.09c-2.6-.66-5.2-1.34-7.86-1.78a10.2,10.2,0,0,0-3.47-.16,4.42,4.42,0,0,0-1.73.71,12,12,0,0,1-2,1.16,1,1,0,0,1-.84,0,45.38,45.38,0,0,0-7.7-2.78,9.17,9.17,0,0,0-4.34-.26,2,2,0,0,0-1.52,1.3,2.64,2.64,0,0,1-.64.94,1.12,1.12,0,0,1-1.6.22,13.17,13.17,0,0,0-4.62-1.46,51.49,51.49,0,0,0-8.86-.54,38,38,0,0,0-4,.13.76.76,0,0,1-.75-.34c-.86-1.06-1.74-2.1-2.58-3.23A13,13,0,0,1,1104.4,107.77ZM1087,87a17.42,17.42,0,0,1,13.51-10.17,19.41,19.41,0,0,1,4.52-.24c.41,0,.83,0,1.26,0-3.75,4.3-5.63,9.54-7.3,14.87a78.71,78.71,0,0,0-2.66,11.32,10.62,10.62,0,0,0-.26,3.36,6.91,6.91,0,0,0,1.12,2.58,51.73,51.73,0,0,0,5.46,6.93q3.15,3.52,6.55,6.79a.71.71,0,0,1,.11.95.92.92,0,0,1-1.16.27q-1-.48-2-1a51,51,0,0,1-12.69-9.31,29.23,29.23,0,0,1-6.92-10.25A20.18,20.18,0,0,1,1087,87Z"/><path class="cls-2" d="M1142,88a2.58,2.58,0,0,0-2-2.12h-.8a2.33,2.33,0,0,0-2,1.58,2.43,2.43,0,0,0,.49,2.6,2.3,2.3,0,0,0,2.45.68A2.45,2.45,0,0,0,1142,88.6,1.37,1.37,0,0,0,1142,88Zm-2.47,2.1a1.78,1.78,0,0,1-1.76-1.78,1.76,1.76,0,0,1,3.52.05A1.76,1.76,0,0,1,1139.51,90.1Z"/><path class="cls-2" d="M1152.6,96a2,2,0,0,0-2.13,2.07,2.07,2.07,0,0,0,2.08,2.16,2.11,2.11,0,1,0,0-4.23Zm0,3.51a1.42,1.42,0,0,1-1.38-1.44,1.39,1.39,0,0,1,2.78.06A1.41,1.41,0,0,1,1152.64,99.48Z"/><path class="cls-2" d="M1142.42,92.4a1.68,1.68,0,0,0,0,3.36,1.68,1.68,0,1,0,0-3.36Zm0,2.64a1,1,0,0,1-1-1,1,1,0,1,1,1.94,0A1,1,0,0,1,1142.44,95Z"/><path class="cls-2" d="M1137,96a1.23,1.23,0,0,0-1.6,1v.5a1.13,1.13,0,0,0,.78,1,1.41,1.41,0,0,0,1.75-.86A1.32,1.32,0,0,0,1137,96Zm-.33,1.82c-.36,0-.56-.22-.54-.6a.52.52,0,0,1,.55-.54.57.57,0,1,1,0,1.13Z"/><path class="cls-2" d="M1114.55,53a4,4,0,0,1,3,1.69c.4.55.34.72-.25,1a3,3,0,0,1-3.21-.06,13,13,0,0,0-3.47-1.52,6.13,6.13,0,0,1,3.08-1.14A3.08,3.08,0,0,1,1114.55,53Z"/></g><g class="cls-1"><path class="cls-2" d="M1055.21,51l-.42,2.91-5.51,1.91,4.73,3.39-.42,2.87-7.46-5.34-6.16-.9.4-2.73,6.16.9Z"/><path class="cls-2" d="M1053.6,64v7.85h-2.68V66.75h-2.6v5.13h-2.63V66.75h-3.78v5.13h-2.69V64Z"/><path class="cls-2" d="M1053.83,74.22l.33,2.72-11.69,1.43.48,4-2.59.32-.81-6.68Z"/><path class="cls-2" d="M1055,82.77l.63,2.66-11.45,2.72.92,3.88-2.54.6-1.55-6.55Z"/><path class="cls-2" d="M1059.87,97.18a7.13,7.13,0,0,1,0,5.69A7.67,7.67,0,0,1,1050,107a7.51,7.51,0,0,1-4-9.84,7.56,7.56,0,0,1,13.94,0Zm-2.48,1a4.52,4.52,0,0,0-2.57-2.57,4.83,4.83,0,0,0-3.78.1,4.59,4.59,0,0,0-2.82,3,4.7,4.7,0,0,0,.17,3.24,4.47,4.47,0,0,0,2.58,2.52,5.08,5.08,0,0,0,6.41-2.68A4.51,4.51,0,0,0,1057.39,98.18Z"/><path class="cls-2" d="M1062.87,105.26l1.56,2.2-6.28,7,9-3.22,1.32,1.85-6,7.44,8.68-3.64,1.56,2.2-13.6,5.69-1.52-2.14,6-7.54-9.09,3.26-1.5-2.12Z"/><path class="cls-2" d="M1068.79,125.79l3.52,3.51-1.75,1.76-3.52-3.51Z"/><path class="cls-2" d="M1080.17,125.89l6.18,4.84-1.65,2.11-4-3.17-1.6,2,4,3.17-1.62,2.07-4-3.17-2.33,3,4,3.17-1.66,2.12-6.18-4.85Z"/><path class="cls-2" d="M1087.35,131.51l2.55,1.46-.25,5.82,4.89-3.15,2.52,1.45-7.71,5-3.11,5.4-2.39-1.37,3.1-5.4Z"/><path class="cls-2" d="M1098.94,137.84l7.3,2.88-1,2.49-4.78-1.88-1,2.42,4.77,1.88-1,2.45-4.77-1.89-1.39,3.52,4.77,1.88-1,2.5-7.3-2.88Z"/><path class="cls-2" d="M1108.38,141.47l3.17.71a10.65,10.65,0,0,1,4.38,1.77,6.07,6.07,0,0,1,1.9,3,8.85,8.85,0,0,1-1.13,7.06,6.3,6.3,0,0,1-2,1.92,5.37,5.37,0,0,1-2.33.78,15.12,15.12,0,0,1-3.91-.51l-3.21-.72Zm2.08,3.17-2,8.85,1.24.28a6.37,6.37,0,0,0,2.75.17,3.28,3.28,0,0,0,1.67-1.11,5.28,5.28,0,0,0,1.07-2.33,4.76,4.76,0,0,0-.47-3.75,5.12,5.12,0,0,0-3.37-1.92Z"/><path class="cls-2" d="M1127.31,144.52l2.9,0a9.61,9.61,0,0,1,3.4.39,3.45,3.45,0,0,1,1.66,1.39,4.35,4.35,0,0,1,.63,2.32,3.92,3.92,0,0,1-.76,2.51,4.07,4.07,0,0,1-2.12,1.42,12.42,12.42,0,0,1-2.88.26l.08,6.09-2.74,0Zm2.81,5.59h.87a4.76,4.76,0,0,0,1.43-.16,1.27,1.27,0,0,0,.62-.49,1.44,1.44,0,0,0,.22-.82,1.3,1.3,0,0,0-.66-1.21,3.65,3.65,0,0,0-1.74-.26h-.77Z"/><path class="cls-2" d="M1138.27,144.15,1146,143l.4,2.65-5.08.76.38,2.57,5.08-.76.39,2.6-5.08.76.56,3.74,5.08-.76.4,2.66-7.76,1.17Z"/><path class="cls-2" d="M1148.29,142.58l2.5-.8,8.74,7.15-2.87-9,2.61-.83,4.37,13.7-2.51.8-8.72-7.12,2.86,9-2.61.83Z"/><path class="cls-2" d="M1174.74,133.57l-.75,2.61a5.69,5.69,0,0,0-4.67.39,4.87,4.87,0,0,0-2.42,3,4.62,4.62,0,0,0,.42,3.69,4.74,4.74,0,0,0,3,2.36,5.07,5.07,0,0,0,3.91-.53,4.53,4.53,0,0,0,1.8-1.69,4.21,4.21,0,0,0,.46-2.4l-3.63,2-1.25-2.24,6.31-3.53.31.52a7,7,0,0,1,.9,3.6,6.84,6.84,0,0,1-1,3.49,7.24,7.24,0,0,1-2.75,2.56,8.12,8.12,0,0,1-4,1.1,7.11,7.11,0,0,1-3.78-1.06,7.73,7.73,0,0,1-2.79-2.89,7.22,7.22,0,0,1-.78-5.25,7.45,7.45,0,0,1,3.86-5,8.87,8.87,0,0,1,3.4-1.11A8,8,0,0,1,1174.74,133.57Z"/><path class="cls-2" d="M1176.08,129.62l2.1-1.77,6,7.11a4.83,4.83,0,0,0,1.26,1.17,1.69,1.69,0,0,0,1,.16,2.2,2.2,0,0,0,1.09-.53,2.28,2.28,0,0,0,.74-1.06,1.75,1.75,0,0,0,0-1.11,6.26,6.26,0,0,0-1.11-1.63l-5.77-6.85,2.11-1.77,5.52,6.56a12.44,12.44,0,0,1,1.75,2.46,4.28,4.28,0,0,1,.33,1.84,4.35,4.35,0,0,1-.47,1.91,5.42,5.42,0,0,1-1.36,1.63,5.06,5.06,0,0,1-2.55,1.2,4.19,4.19,0,0,1-2.43-.31,9.51,9.51,0,0,1-2.73-2.47Z"/><path class="cls-2" d="M1185.42,121.27l1.86-2,10.49,9.84-1.86,2Z"/><path class="cls-2" d="M1189.19,117.29l1.57-2.11,11.26.71-7.59-5.65,1.63-2.2,11.54,8.58-1.57,2.11-11.24-.7,7.57,5.63-1.63,2.2Z"/><path class="cls-2" d="M1199.38,101.68l3.15-7.3,2.48,1.07-1,2.41,10.73,4.63-1.1,2.55-10.73-4.63-1,2.34Z"/><path class="cls-2" d="M1203.14,92.66l.8-2.79a9.61,9.61,0,0,1,1.34-3.14,3.46,3.46,0,0,1,1.8-1.17,4.31,4.31,0,0,1,2.42.05,4,4,0,0,1,2.09,1.31,4.11,4.11,0,0,1,.82,2.37l7.08-1.51-.82,2.88-6.75,1.43-.07.24,5.86,1.68-.75,2.63Zm6.16-1.08.24-.82a3.36,3.36,0,0,0,.17-1.82,1.29,1.29,0,0,0-1-.79,1.39,1.39,0,0,0-.85,0,1.35,1.35,0,0,0-.66.49,5,5,0,0,0-.56,1.4l-.21.72Z"/><path class="cls-2" d="M1206,82l.34-2.73,9.23,1.14a4.79,4.79,0,0,0,1.71,0,1.69,1.69,0,0,0,.88-.59,2.2,2.2,0,0,0,.44-1.12,2.29,2.29,0,0,0-.18-1.28,1.75,1.75,0,0,0-.75-.82,6.3,6.3,0,0,0-1.92-.44l-8.89-1.1.34-2.73,8.51,1.05a12.41,12.41,0,0,1,3,.61,4.61,4.61,0,0,1,2.45,2.85,5.38,5.38,0,0,1,.12,2.12,5.07,5.07,0,0,1-1,2.61,4.19,4.19,0,0,1-2,1.42,9.52,9.52,0,0,1-3.69,0Z"/><path class="cls-2" d="M1209,61.84l1.84,2a2.88,2.88,0,0,0-1.43,2.21,1.34,1.34,0,0,0,.31.87.85.85,0,0,0,.66.33,1.12,1.12,0,0,0,.68-.26,18.79,18.79,0,0,0,1.8-2q1.27-1.6,1.6-1.94a5.74,5.74,0,0,1,1.58-1.22,4,4,0,0,1,1.67-.39,3.85,3.85,0,0,1,3,1.15,4.45,4.45,0,0,1,1.23,3.16,4.76,4.76,0,0,1-.68,2.7,6,6,0,0,1-2.32,2l-1.44-2.27q1.88-1.08,1.85-2.43a1.76,1.76,0,0,0-.44-1.18,1.23,1.23,0,0,0-1-.46,1.64,1.64,0,0,0-1,.39,10.59,10.59,0,0,0-1.46,1.63,16,16,0,0,1-2.88,3.11,3.74,3.74,0,0,1-2.06.74,3.4,3.4,0,0,1-2.59-1.08,4,4,0,0,1-1.14-2.79,4.43,4.43,0,0,1,.45-2.06A7.48,7.48,0,0,1,1209,61.84Z"/><path class="cls-2" d="M1207,60.62l-1.14-7.86,2.67-.39.38,2.59,11.56-1.67.4,2.75-11.56,1.67.37,2.53Z"/></g></g><g class="cls-1"><path class="cls-3" d="M803,552.36a42,42,0,0,0-39,26.07h0v0c-.43,1.06-.83,2.15-1.17,3.25-2.59,5.1-5.81,0-5.81,0v0a21,21,0,1,0,0,24.44v0s3.55-4.38,5.88.15c.28.89.6,1.77.94,2.63v0h0A41.91,41.91,0,1,0,803,552.36Zm0,62.35a20.79,20.79,0,1,1,21-20.78A20.89,20.89,0,0,1,803,614.72Z"/><g class="cls-1"><path class="cls-2" d="M789.1,666.45q.53-3.3,1.06-6.61a.8.8,0,0,1,.2-.41c1.08-1.18,2.18-2.35,3.25-3.52.19-.21.38-.23.75-.14,1.28.32,2.45.73,2.71,1.52a3.16,3.16,0,0,1,0,1.47c-.28,1.82-.58,3.64-.89,5.46-.17,1-.36,2.05-.55,3.08a.39.39,0,0,1-.22.25c-.73.34-1.5.67-2.23,1a.52.52,0,0,1-.54,0c-1.11-.57-2.25-1.12-3.36-1.7-.16-.09-.17-.26-.25-.39Z"/><path class="cls-2" d="M820.48,668.68l-3-1.49-.1-.05c-.77-.22-.75-.59-.67-1,.21-1.07.38-2.15.55-3.23s.33-2.12.51-3.18a.79.79,0,0,1,.22-.35q1.63-1.77,3.29-3.54a.59.59,0,0,1,.35-.12c1.47.28,2.72.73,3,1.6a2.65,2.65,0,0,1,0,1.33c-.22,1.44-.47,2.87-.71,4.3s-.49,2.92-.74,4.38a.24.24,0,0,1-.13.18Z"/><path class="cls-2" d="M792.94,669.15c.66.37,1.3.73,1.92,1.1a.3.3,0,0,1,.16.27q-.39,2.57-.81,5.13c-.26,1.59-.58,3.17-.76,4.76-.09.78-.79,1.22-2.07,1.48-.51.1-1,.18-1.57.27-.23,0-.34,0-.42-.12-.71-1.16-1.47-2.3-2.12-3.47-.16-.3,0-.65,0-1,.24-1.59.49-3.19.75-4.78.08-.52.16-1,.27-1.55a.38.38,0,0,1,.22-.26Z"/><path class="cls-2" d="M820.5,669.17l2.06,1.15a.16.16,0,0,1,.08.16q-.49,3.13-1,6.26c-.22,1.33-.46,2.65-.67,4-.06.4-.39.71-1,.88-.81.22-1.68.37-2.52.55-.24.05-.36,0-.44-.13-.69-1.12-1.45-2.24-2.07-3.38a1.77,1.77,0,0,1,0-1.12c.21-1.39.44-2.77.66-4.16.11-.71.22-1.42.34-2.13a.37.37,0,0,1,.22-.23Z"/><path class="cls-2" d="M792.67,655.72,790.62,658c-.3.33-.61.66-.89,1a.63.63,0,0,1-.56.2l-9.21-.06a3.16,3.16,0,0,1-.59-.08l-6.19-1.24c-.32-.06-.42-.14-.37-.33.29-1.06,1.71-1.7,3.86-1.71l4.35,0,6.09,0Z"/><path class="cls-2" d="M820.32,655.67,819.14,657l-1.83,2a.62.62,0,0,1-.54.18c-3.07,0-6.14,0-9.21-.06a6.38,6.38,0,0,1-1.16-.19l-5.61-1.12c-.33-.07-.42-.15-.38-.33.19-.9,1.46-1.59,3.21-1.67,1.09-.05,2.2,0,3.3-.06l7.22-.05,5.57,0Z"/><path class="cls-2" d="M796.55,680.54c1.77-.38,3.4-.69,5-1.07a21.39,21.39,0,0,1,5.66-.58c2.22,0,4.44,0,6.66,0a.89.89,0,0,1,.48.12c.66,1.07,1.3,2.14,2,3.23l-1.54,0-7.65,0-5.66,0c-.52,0-1,0-1.56,0a3.5,3.5,0,0,1-1.9-.59C797.45,681.38,797,681,796.55,680.54Z"/><path class="cls-2" d="M769.06,680.52l3-.64,4.21-.9a3.49,3.49,0,0,1,.68-.08l9.25,0c.36,0,.52.06.63.24.57,1,1.16,2,1.74,2.92a1.52,1.52,0,0,1,.08.19l-1.51,0-7.27,0-6,0c-.52,0-1,0-1.55,0a3.86,3.86,0,0,1-.81-.12A4,4,0,0,1,769.06,680.52Z"/><path class="cls-2" d="M792.08,668.94l-3.82,1.65a1.5,1.5,0,0,1-.52.08l-9.26,0a1.55,1.55,0,0,1-.49-.05l-3.87-1.53,2.81-1.1.27-.1a6.29,6.29,0,0,1,3.38-.6l7.55-.09a1.7,1.7,0,0,1,.66.13C789.88,667.86,791,668.39,792.08,668.94Z"/><path class="cls-2" d="M756.06,666.45q.53-3.3,1.06-6.61a.8.8,0,0,1,.2-.41c1.08-1.18,2.18-2.35,3.25-3.52.19-.21.38-.23.75-.14,1.28.32,2.45.73,2.71,1.52a3.16,3.16,0,0,1,0,1.47c-.28,1.82-.58,3.64-.89,5.46-.17,1-.36,2.05-.55,3.08a.39.39,0,0,1-.22.25c-.73.34-1.5.67-2.23,1a.52.52,0,0,1-.54,0c-1.11-.57-2.25-1.12-3.36-1.7-.16-.09-.17-.26-.25-.39Z"/><path class="cls-2" d="M766.19,655.48q.35-2.19.71-4.38a.53.53,0,0,1,.13-.27c.71-.78,1.45-1.56,2.15-2.34.13-.14.25-.16.5-.09.85.21,1.62.49,1.8,1a2.1,2.1,0,0,1,0,1c-.18,1.21-.39,2.41-.59,3.62-.11.68-.24,1.36-.37,2a.26.26,0,0,1-.15.17l-1.48.67a.35.35,0,0,1-.36,0c-.74-.38-1.5-.74-2.23-1.13-.11-.06-.11-.17-.16-.26Z"/><path class="cls-2" d="M828.12,655.48q.35-2.19.71-4.38a.53.53,0,0,1,.13-.27c.71-.78,1.45-1.56,2.15-2.34.13-.14.25-.16.5-.09.85.21,1.62.49,1.8,1a2.1,2.1,0,0,1,0,1c-.18,1.21-.39,2.41-.59,3.62-.11.68-.24,1.36-.37,2a.26.26,0,0,1-.15.17l-1.48.67a.35.35,0,0,1-.36,0c-.74-.38-1.5-.74-2.23-1.13-.11-.06-.11-.17-.16-.26Z"/><path class="cls-2" d="M834.93,655.48q.35-2.19.71-4.38a.53.53,0,0,1,.13-.27c.71-.78,1.45-1.56,2.15-2.34.13-.14.25-.16.5-.09.85.21,1.62.49,1.8,1a2.1,2.1,0,0,1,0,1c-.18,1.21-.39,2.41-.59,3.62-.11.68-.24,1.36-.37,2a.26.26,0,0,1-.15.17l-1.48.67a.35.35,0,0,1-.36,0c-.74-.38-1.5-.74-2.23-1.13-.11-.06-.11-.17-.16-.26Z"/><path class="cls-2" d="M759.9,669.15c.66.37,1.3.73,1.92,1.1a.3.3,0,0,1,.16.27q-.39,2.57-.81,5.13c-.26,1.59-.58,3.17-.76,4.76-.09.78-.79,1.22-2.07,1.48-.51.1-1,.18-1.57.27-.23,0-.34,0-.42-.12-.71-1.16-1.47-2.3-2.12-3.47-.16-.3,0-.65,0-1,.24-1.59.49-3.19.75-4.78.08-.52.16-1,.27-1.55a.38.38,0,0,1,.22-.26Z"/><path class="cls-2" d="M759.63,655.72,757.58,658c-.3.33-.61.66-.89,1a.63.63,0,0,1-.56.2l-9.21-.06a3.16,3.16,0,0,1-.59-.08l-6.19-1.24c-.32-.06-.42-.14-.37-.33.29-1.06,1.71-1.7,3.86-1.71l4.35,0,6.09,0Z"/><path class="cls-2" d="M736,680.52l3-.64,4.21-.9a3.49,3.49,0,0,1,.68-.08l9.25,0c.36,0,.52.06.63.24.57,1,1.16,2,1.74,2.92a1.52,1.52,0,0,1,.08.19l-1.51,0-7.27,0-6,0c-.52,0-1,0-1.55,0a3.86,3.86,0,0,1-.81-.12A4,4,0,0,1,736,680.52Z"/><path class="cls-2" d="M759,668.94l-3.82,1.65a1.5,1.5,0,0,1-.52.08l-9.26,0a1.55,1.55,0,0,1-.49-.05l-3.87-1.53,2.81-1.1.27-.1a6.29,6.29,0,0,1,3.38-.6l7.55-.09a1.7,1.7,0,0,1,.66.13C756.84,667.86,757.92,668.39,759,668.94Z"/><path class="cls-2" d="M819.69,668.94l-3.85,1.67a1.25,1.25,0,0,1-.43.07l-9.35,0a1.49,1.49,0,0,1-.48-.06l-3.84-1.52,1.31-.51,3-1.16a1.72,1.72,0,0,1,.55-.11l6.65-.07,2.5,0a1.53,1.53,0,0,1,.56.08C817.41,667.83,818.52,668.37,819.69,668.94Z"/></g></g><g class="cls-1"><g class="cls-1"><path class="cls-2" d="M10.34,391.18a3,3,0,0,0,.75-.72,3.45,3.45,0,0,0,.47-.95,3.55,3.55,0,0,0,.17-1.1,3.32,3.32,0,0,0-.23-1.2,3.47,3.47,0,0,0-.64-1.06,3.34,3.34,0,0,0-1-.76,2.8,2.8,0,0,0-1.28-.3H4.25v10.17H5.83v-3.52H8.15l2.24,3.52h1.82l-2.42-3.81A2.62,2.62,0,0,0,10.34,391.18Zm-.63-1.45a1.49,1.49,0,0,1-.48.4,1.28,1.28,0,0,1-.61.14H5.83v-3.71H8.54a1.36,1.36,0,0,1,.6.14,1.67,1.67,0,0,1,.52.39,2,2,0,0,1,.49,1.3,2.19,2.19,0,0,1-.12.72A2.08,2.08,0,0,1,9.71,389.73Z"/><path class="cls-2" d="M20,388.7a3.85,3.85,0,0,0-1.2-.86,3.74,3.74,0,0,0-3,0,3.87,3.87,0,0,0-1.19.86,4,4,0,0,0-.79,1.25,4.08,4.08,0,0,0-.28,1.51,4.13,4.13,0,0,0,.28,1.5,3.91,3.91,0,0,0,.78,1.26,3.77,3.77,0,0,0,1.2.86,3.64,3.64,0,0,0,1.53.32,3.68,3.68,0,0,0,1.53-.32,3.75,3.75,0,0,0,1.2-.86,3.89,3.89,0,0,0,.78-1.26,4.12,4.12,0,0,0,.28-1.5,4.07,4.07,0,0,0-.28-1.51A4,4,0,0,0,20,388.7Zm-.49,2.75a2.64,2.64,0,0,1-.18,1,2.55,2.55,0,0,1-.49.8,2.3,2.3,0,0,1-.71.53,2,2,0,0,1-1.7,0,2.13,2.13,0,0,1-.7-.52,2.66,2.66,0,0,1-.48-.79,2.62,2.62,0,0,1-.18-1,2.73,2.73,0,0,1,.18-1,2.61,2.61,0,0,1,.49-.81,2.26,2.26,0,0,1,.71-.54,1.88,1.88,0,0,1,.84-.19,1.93,1.93,0,0,1,.85.19,2.29,2.29,0,0,1,.71.53,2.52,2.52,0,0,1,.49.8A2.65,2.65,0,0,1,19.5,391.46Z"/><path class="cls-2" d="M29.28,393.84a.22.22,0,0,1,0-.08v-3.15a3,3,0,0,0-.85-2.27,3.14,3.14,0,0,0-2.29-.83,5,5,0,0,0-2.81,1l-.24.16.63,1.18.3-.21a5,5,0,0,1,1.07-.58,2.78,2.78,0,0,1,1-.19,1.6,1.6,0,0,1,1.22.45,1.72,1.72,0,0,1,.43,1.25v.18a5.72,5.72,0,0,0-.61-.14,5.57,5.57,0,0,0-2.41.07,3.27,3.27,0,0,0-1,.48,2.37,2.37,0,0,0-.7.77,2,2,0,0,0-.25,1,2.4,2.4,0,0,0,.77,1.78,2.64,2.64,0,0,0,.84.53,2.8,2.8,0,0,0,1,.19,4.07,4.07,0,0,0,1.71-.36,3.54,3.54,0,0,0,.81-.51.93.93,0,0,0,.29.53,1.09,1.09,0,0,0,.76.26,2.55,2.55,0,0,0,.4,0l.26,0v-1.37Zm-1.56-1a.36.36,0,0,1,0,.13.75.75,0,0,1-.15.21,1.85,1.85,0,0,1-.78.6,2.85,2.85,0,0,1-1.18.24A1.48,1.48,0,0,1,25,394a1.35,1.35,0,0,1-.43-.26,1.23,1.23,0,0,1-.28-.39,1.11,1.11,0,0,1-.1-.47.9.9,0,0,1,.46-.79,2.49,2.49,0,0,1,1.39-.35,5,5,0,0,1,.94.09,5.32,5.32,0,0,1,.69.18Z"/><path class="cls-2" d="M38.87,393.76v-8.94H37.32v3.67a4.1,4.1,0,0,0-.57-.47,3.06,3.06,0,0,0-1.75-.52,3.19,3.19,0,0,0-1.42.32,3.47,3.47,0,0,0-1.11.86,4.09,4.09,0,0,0-.72,1.26,4.42,4.42,0,0,0-.26,1.51,4.11,4.11,0,0,0,.27,1.48,4,4,0,0,0,.75,1.25,3.74,3.74,0,0,0,1.16.87,3.35,3.35,0,0,0,1.48.33,3.29,3.29,0,0,0,1.63-.44,3.48,3.48,0,0,0,.67-.49,1,1,0,0,0,.33.56,1.16,1.16,0,0,0,.77.29,2.08,2.08,0,0,0,.38,0l.26-.05v-1.36h-.32A.23.23,0,0,1,38.87,393.76Zm-2.27-.25a2.62,2.62,0,0,1-.64.33,1.84,1.84,0,0,1-1.5-.08,2.33,2.33,0,0,1-.73-.54,2.51,2.51,0,0,1-.49-.79,2.59,2.59,0,0,1-.18-1,2.9,2.9,0,0,1,.16-.94,2.52,2.52,0,0,1,.45-.8,2.24,2.24,0,0,1,.69-.56,1.85,1.85,0,0,1,.87-.2,1.88,1.88,0,0,1,.63.12,2.45,2.45,0,0,1,.62.33,2.85,2.85,0,0,1,.52.5,2.09,2.09,0,0,1,.32.54v2.05a1.16,1.16,0,0,1-.23.53A2.17,2.17,0,0,1,36.59,393.51Z"/><polygon class="cls-2" points="48.23 393.18 47.24 390.81 48.57 387.65 47.1 387.65 46.4 389.39 45.7 387.65 44.24 387.65 45.57 390.81 44.59 393.18 42.25 387.63 40.67 387.63 43.95 395.26 45.12 395.26 46.4 392.2 47.69 395.26 48.87 395.26 52.15 387.63 50.55 387.63 48.23 393.18"/><path class="cls-2" d="M59.71,393.84a.22.22,0,0,1,0-.08v-3.15a3,3,0,0,0-.85-2.27,3.14,3.14,0,0,0-2.29-.83,5.06,5.06,0,0,0-2.81,1l-.24.16.63,1.18.3-.21a5.05,5.05,0,0,1,1.07-.58,2.78,2.78,0,0,1,1-.19,1.6,1.6,0,0,1,1.22.45,1.71,1.71,0,0,1,.44,1.25v.18a5.82,5.82,0,0,0-.61-.14,5.57,5.57,0,0,0-2.41.07,3.29,3.29,0,0,0-1,.48,2.38,2.38,0,0,0-.7.78,2.05,2.05,0,0,0-.25,1,2.41,2.41,0,0,0,.77,1.78,2.65,2.65,0,0,0,.84.53,2.8,2.8,0,0,0,1,.19,4.07,4.07,0,0,0,1.71-.36,3.55,3.55,0,0,0,.81-.51.92.92,0,0,0,.29.53,1.09,1.09,0,0,0,.76.26,2.53,2.53,0,0,0,.4,0l.26,0v-1.37Zm-1.56-1a.38.38,0,0,1,0,.14.72.72,0,0,1-.15.2,1.83,1.83,0,0,1-.77.6,2.85,2.85,0,0,1-1.18.24,1.48,1.48,0,0,1-.54-.1,1.31,1.31,0,0,1-.43-.27,1.19,1.19,0,0,1-.28-.39,1.11,1.11,0,0,1-.1-.47.91.91,0,0,1,.46-.79,2.49,2.49,0,0,1,1.39-.35,5,5,0,0,1,.94.09,5.4,5.4,0,0,1,.69.18Z"/><path class="cls-2" d="M65.23,393.25l-2.37-5.62H61.23l3.19,7.31c-.18.43-.32.77-.43,1a4.55,4.55,0,0,1-.28.61c-.08.14-.13.17-.14.17a1.16,1.16,0,0,1-.42,0l-.19,0-.36,0v1.44l.27,0,.33,0h.27a1.72,1.72,0,0,0,1.14-.36,2,2,0,0,0,.58-.8l3.8-9.46H67.43Z"/><polygon class="cls-2" points="78.83 386.57 82.23 386.57 82.23 395.26 83.81 395.26 83.81 386.57 87.2 386.57 87.2 385.1 78.83 385.1 78.83 386.57"/><path class="cls-2" d="M91.3,387.59a2.75,2.75,0,0,0-1.59.51,3.25,3.25,0,0,0-.54.48v-1h-1.5v7.63h1.55v-4.62a2.23,2.23,0,0,1,.83-1.12,2.54,2.54,0,0,1,1.44-.45h.31v-1.4l-.26-.05Z"/><path class="cls-2" d="M99.61,393.84a.22.22,0,0,1,0-.08v-3.15a3,3,0,0,0-.85-2.27,3.14,3.14,0,0,0-2.29-.83,5,5,0,0,0-2.81,1l-.24.16.62,1.18.3-.21a5,5,0,0,1,1.07-.58,2.75,2.75,0,0,1,1-.19,1.6,1.6,0,0,1,1.22.45,1.71,1.71,0,0,1,.44,1.25v.18a5.75,5.75,0,0,0-.61-.14,5.58,5.58,0,0,0-2.41.07,3.27,3.27,0,0,0-1,.48,2.4,2.4,0,0,0-.7.78,2.05,2.05,0,0,0-.25,1,2.4,2.4,0,0,0,.2,1,2.43,2.43,0,0,0,.56.8,2.65,2.65,0,0,0,.84.53,2.81,2.81,0,0,0,1,.19,4.07,4.07,0,0,0,1.71-.36,3.54,3.54,0,0,0,.81-.51.92.92,0,0,0,.29.53,1.1,1.1,0,0,0,.76.26,2.52,2.52,0,0,0,.4,0l.26,0v-1.37Zm-1.56-1a.36.36,0,0,1,0,.14.73.73,0,0,1-.15.21,1.83,1.83,0,0,1-.77.6,2.84,2.84,0,0,1-1.18.24,1.48,1.48,0,0,1-.54-.1,1.32,1.32,0,0,1-.43-.26,1.21,1.21,0,0,1-.28-.39,1.11,1.11,0,0,1-.1-.47A.9.9,0,0,1,95,392a2.49,2.49,0,0,1,1.39-.35,5,5,0,0,1,.94.09,5.43,5.43,0,0,1,.69.18Z"/><path class="cls-2" d="M108.29,388.48a2,2,0,0,0-.77-.72,2.39,2.39,0,0,0-1.13-.25,3.7,3.7,0,0,0-1.9.51,3.82,3.82,0,0,0-.75.57v-1h-1.47v7.63h1.55v-4.56a2.21,2.21,0,0,1,.33-.66,2.86,2.86,0,0,1,.55-.57,2.41,2.41,0,0,1,.66-.37,2,2,0,0,1,.7-.13.94.94,0,0,1,.87.42,3.14,3.14,0,0,1,.32,1.64v4.23h1.55v-4.41a7,7,0,0,0-.11-1.31A3.1,3.1,0,0,0,108.29,388.48Z"/><path class="cls-2" d="M116.29,391.44a4.08,4.08,0,0,0-.93-.41c-.34-.11-.75-.22-1.21-.33l-.78-.2a2.22,2.22,0,0,1-.47-.2.49.49,0,0,1-.19-.18.65.65,0,0,1-.06-.31.9.9,0,0,1,.1-.43.83.83,0,0,1,.27-.3,1.32,1.32,0,0,1,.44-.19,3,3,0,0,1,1.65.12,2.12,2.12,0,0,1,.83.53l.25.26.85-1-.19-.21a3.21,3.21,0,0,0-1.18-.77,4.39,4.39,0,0,0-2.68-.14,2.91,2.91,0,0,0-.94.45,2.23,2.23,0,0,0-.66.78,2.32,2.32,0,0,0-.24,1.07,1.82,1.82,0,0,0,.18.84,1.53,1.53,0,0,0,.54.59,3.53,3.53,0,0,0,.81.37c.3.1.66.2,1.08.3l.9.23a2.81,2.81,0,0,1,.59.23.86.86,0,0,1,.29.24.54.54,0,0,1,.08.31.79.79,0,0,1-.36.71,2.07,2.07,0,0,1-1.17.29,3.21,3.21,0,0,1-1.19-.22,4.24,4.24,0,0,1-1.12-.67l-.27-.22-.77,1.14.2.19a4.16,4.16,0,0,0,1.45.84,5.2,5.2,0,0,0,1.7.29,3.52,3.52,0,0,0,2.18-.63,2.14,2.14,0,0,0,.86-1.78,1.83,1.83,0,0,0-.22-.91A1.8,1.8,0,0,0,116.29,391.44Z"/><path class="cls-2" d="M125.68,388.73a3.74,3.74,0,0,0-1.14-.88,3.33,3.33,0,0,0-3.13.12,3.8,3.8,0,0,0-.63.47v-.8h-1.46v10.49h1.55v-3.71a4,4,0,0,0,.6.48,3.08,3.08,0,0,0,1.74.5,3.18,3.18,0,0,0,1.42-.32,3.47,3.47,0,0,0,1.11-.86,3.9,3.9,0,0,0,.71-1.26,4.58,4.58,0,0,0,.25-1.5,4.15,4.15,0,0,0-.27-1.47A4.1,4.1,0,0,0,125.68,388.73Zm-4.81,1.69a1.17,1.17,0,0,1,.23-.52,2.26,2.26,0,0,1,.49-.48,2.7,2.7,0,0,1,.64-.34,1.85,1.85,0,0,1,1.51.08,2.32,2.32,0,0,1,.73.54,2.69,2.69,0,0,1,.49.8,2.6,2.6,0,0,1,.18,1,2.84,2.84,0,0,1-.16.94,2.57,2.57,0,0,1-.45.8,2.26,2.26,0,0,1-.69.56,1.9,1.9,0,0,1-1.52.09,2.35,2.35,0,0,1-.6-.32,2.56,2.56,0,0,1-.5-.5,2.9,2.9,0,0,1-.34-.57Z"/><path class="cls-2" d="M135,388.7a3.84,3.84,0,0,0-1.2-.86,3.74,3.74,0,0,0-3,0,3.87,3.87,0,0,0-1.19.86,4,4,0,0,0-.79,1.25,4.18,4.18,0,0,0,0,3,3.88,3.88,0,0,0,.78,1.26,3.76,3.76,0,0,0,1.19.86,3.64,3.64,0,0,0,1.53.32,3.68,3.68,0,0,0,2.74-1.17,3.89,3.89,0,0,0,.78-1.26,4.15,4.15,0,0,0,.28-1.5,4.09,4.09,0,0,0-.28-1.51A4,4,0,0,0,135,388.7Zm-.49,2.75a2.66,2.66,0,0,1-.18,1,2.6,2.6,0,0,1-.49.8,2.33,2.33,0,0,1-.71.53,2,2,0,0,1-1.7,0,2.15,2.15,0,0,1-.7-.52,2.62,2.62,0,0,1-.66-1.77,2.74,2.74,0,0,1,.18-1,2.64,2.64,0,0,1,.49-.81,2.28,2.28,0,0,1,.71-.54,1.88,1.88,0,0,1,.84-.19,2,2,0,0,1,.85.19,2.31,2.31,0,0,1,.71.53,2.57,2.57,0,0,1,.49.8A2.69,2.69,0,0,1,134.48,391.46Z"/><path class="cls-2" d="M141.91,387.59a2.76,2.76,0,0,0-1.59.51,3.27,3.27,0,0,0-.54.48v-1h-1.5v7.63h1.55v-4.62a2.23,2.23,0,0,1,.83-1.12,2.54,2.54,0,0,1,1.44-.45h.31v-1.41l-.26-.05Z"/><path class="cls-2" d="M147.93,393.37l-.35.23-.32.15a1,1,0,0,1-.94,0,.37.37,0,0,1-.14-.31V389h1.61v-1.36h-1.61v-2.36h-1.55v2.36h-1V389h1v4.69a1.67,1.67,0,0,0,.15.73,1.53,1.53,0,0,0,.41.53,1.63,1.63,0,0,0,.58.31,2.29,2.29,0,0,0,.66.09,3,3,0,0,0,.6-.06,4.4,4.4,0,0,0,.49-.13l.38-.14.25-.11.25-.12Z"/></g><path class="cls-3" d="M56.26,311.62S41,315.7,35.07,329.34c-2.37,5.42-7.94,13-12.28,13.55-8.42,1-9.4,14.19-8,16.76.93,1.72,12,.53,12,.53s3.36-12,16.35-12a16.67,16.67,0,0,1,15.31,8.94S66,359.36,66,346.32V328c0-7,3.53-17.46,15.76-17.46l56.58,0s10.39-1.22,10.39,10.54v12.74c0,3-1.35,12-8.78,12-10.39,0-18.31-.53-20.24.48-1.47.76,1,10.32-1.12,11.84C116,360,94.51,347.12,94.51,342.08s19.74-18.68,22.83-17.88.35,11.25,2.5,12.18c2.7,1.17,14.47.65,15.44.56s4.27.06,4.27-8.35c0-5.36.46-9.53-7.18-9.53H86.52s-8.87,0-8.87,12.43v27.86c0,5.9-2.48,9.12-12.48,9.12H57.49c-.85,0-4.21-1.62-5.44-6-1-3.39-5-6.07-8.18-6.07s-8,1.88-9.63,6.3a8.94,8.94,0,0,1-8.4,5.72H13.63s-7,0-7-5.93c-.14-13.31-.14-18.82,7.25-23.55,3.36-2,5-.6,9.41-4.73s6.6-10.59,10-13.85a36.31,36.31,0,0,1,15.66-8.82C53.22,310.52,56.56,310.09,56.26,311.62Z"/><path class="cls-3" d="M133.36,361.54c5.2,0,6.11-2.45,6.11-2.45s.77-8.86,4.74-8.86c4.53,0,4.58,4.5,4.58,7.82,0,10.43,0,10.43-9.78,10.43H82.09c-1.22,0,.68-4,8.63-5.26S131.91,361.54,133.36,361.54Z"/><path class="cls-3" d="M43.36,360.18a8.3,8.3,0,0,0-8.3,8.3H51.66A8.3,8.3,0,0,0,43.36,360.18Z"/></g><g class="cls-1"><path class="cls-3" d="M97,629.38a18.61,18.61,0,0,0,18.59-18.59,38.39,38.39,0,0,0-38.35-38.35,8.71,8.71,0,0,0-1.08,17.35c.33,0,.72.07,1.08.07a11,11,0,0,1,1.2,22A18.61,18.61,0,0,0,97,629.38Z"/><path class="cls-3" d="M97,631.72a21,21,0,0,1-20.93-20.93,18.59,18.59,0,0,0-37.18,0,38.35,38.35,0,0,0,74.37,13.15A20.89,20.89,0,0,1,97,631.72Z"/><path class="cls-3" d="M85.95,561.4a8.72,8.72,0,0,0-8.71-8.71,18.58,18.58,0,0,0-9,34.82,11,11,0,0,1,9-17.4A8.72,8.72,0,0,0,85.95,561.4Z"/><g class="cls-1"><path class="cls-2" d="M31.42,673.92a5.29,5.29,0,0,0,1.77-4,5.38,5.38,0,0,0-1.73-4,5.61,5.61,0,0,0-4-1.68H26.22v17.4h1.22v-5l4.76,5h1.66L28,675.58A5.61,5.61,0,0,0,31.42,673.92Zm-4,.51v-9h0a4.47,4.47,0,0,1,3.16,7.64,4.15,4.15,0,0,1-3,1.32Z"/><path class="cls-2" d="M46.75,672.79a5.46,5.46,0,0,0-4.17-1.93,5.58,5.58,0,0,0-4.07,1.64,5.31,5.31,0,0,0-1.65,3.88,5.44,5.44,0,0,0,1.66,3.93A5.34,5.34,0,0,0,42.42,682h.2a5.31,5.31,0,0,0,4.06-1.84l.06-.07V678l-.46.68a5.11,5.11,0,0,1-1.69,1.58,4.51,4.51,0,0,1-2.3.59,4.16,4.16,0,0,1-2.44-.95l7-7Zm-4.37-.8a4.46,4.46,0,0,1,2.82,1L39,679.1a4.38,4.38,0,0,1-1-2.79A4.49,4.49,0,0,1,42.39,672Z"/><path class="cls-2" d="M60.1,672.93a5.07,5.07,0,0,0-1.53-1.32,5.61,5.61,0,0,0-2.82-.78,5.57,5.57,0,1,0,0,11.13,5.53,5.53,0,0,0,2.76-.77,5.37,5.37,0,0,0,1.59-1.35v1.87h1.22v-17.4H60.1Zm-4.37-1a4.22,4.22,0,0,1,3.1,1.33,4.33,4.33,0,0,1,1.31,3.13,4.48,4.48,0,0,1-4.42,4.41,4.11,4.11,0,0,1-3.08-1.31,4.43,4.43,0,0,1,0-6.24A4.17,4.17,0,0,1,55.74,672Z"/><path class="cls-2" d="M83.74,673.21a12.75,12.75,0,0,0-1.56-1.2c-.56-.37-1.13-.72-1.7-1a15.9,15.9,0,0,1-1.5-1,3.05,3.05,0,0,1-1.48-2.39v-.11a2.13,2.13,0,0,1,.69-1.69,2.48,2.48,0,0,1,1.72-.62,3.54,3.54,0,0,1,1.86.5,3.66,3.66,0,0,1,1.32,1.39l.47.86v-2.21l-.05-.07A4.24,4.24,0,0,0,80,664a4.07,4.07,0,0,0-2.66.89,3.19,3.19,0,0,0-1.1,2.6v.16a3.5,3.5,0,0,0,.63,2,5.35,5.35,0,0,0,1.54,1.49l1.92,1.22q1,.65,1.91,1.25a4.88,4.88,0,0,1,1.39,1.46,3.57,3.57,0,0,1,.55,1.93v.13a3.37,3.37,0,0,1-1.15,2.7,4.08,4.08,0,0,1-2.76,1,4.58,4.58,0,0,1-2.68-.75,4.85,4.85,0,0,1-1.64-2l-.48-1v2.44l0,.06A5.22,5.22,0,0,0,80.09,682a5.55,5.55,0,0,0,3.76-1.32,4.53,4.53,0,0,0,1.54-3.59v-.23a4.73,4.73,0,0,0-.46-2.09A5.2,5.2,0,0,0,83.74,673.21Z"/><path class="cls-2" d="M98.84,672.79a5.46,5.46,0,0,0-4.17-1.93,5.58,5.58,0,0,0-4.07,1.64,5.31,5.31,0,0,0-1.65,3.88,5.44,5.44,0,0,0,1.66,3.93A5.34,5.34,0,0,0,94.51,682h.2a5.31,5.31,0,0,0,4.06-1.84l.06-.07V678l-.46.68a5.11,5.11,0,0,1-1.69,1.58,4.51,4.51,0,0,1-2.3.59,4.16,4.16,0,0,1-2.44-.95l7-7Zm-4.37-.8a4.46,4.46,0,0,1,2.82,1l-6.17,6.13a4.38,4.38,0,0,1-1-2.79A4.49,4.49,0,0,1,94.48,672Z"/><path class="cls-2" d="M112.25,672.79a5.46,5.46,0,0,0-4.17-1.93A5.58,5.58,0,0,0,104,672.5a5.31,5.31,0,0,0-1.65,3.88,5.44,5.44,0,0,0,1.66,3.93,5.34,5.34,0,0,0,3.91,1.69h.2a5.31,5.31,0,0,0,4.06-1.84l.06-.07V678l-.46.68a5.11,5.11,0,0,1-1.69,1.58,4.51,4.51,0,0,1-2.3.59,4.16,4.16,0,0,1-2.44-.95l7-7Zm-4.37-.8a4.46,4.46,0,0,1,2.82,1l-6.17,6.13a4.38,4.38,0,0,1-1-2.79,4.49,4.49,0,0,1,4.31-4.32Z"/><path class="cls-2" d="M125.6,664.32v8.61a5.07,5.07,0,0,0-1.53-1.32,5.61,5.61,0,0,0-2.82-.78,5.57,5.57,0,1,0,0,11.13,5.53,5.53,0,0,0,2.76-.77,5.37,5.37,0,0,0,1.59-1.35v1.87h1.22v-17.4ZM121.23,672a4.22,4.22,0,0,1,3.1,1.33,4.33,4.33,0,0,1,1.31,3.13,4.48,4.48,0,0,1-4.42,4.41,4.11,4.11,0,0,1-3.08-1.31,4.43,4.43,0,0,1,0-6.24A4.17,4.17,0,0,1,121.23,672Z"/></g></g><g class="cls-1"><path class="cls-2" d="M1097.44,325.06a14.58,14.58,0,0,0,.31-2.12c0-6.52.08-13,0-19.56,0-2.37,1.83-4.26,4.81-4.19,1.91,0,3.81,0,5.72,0,2.84,0,4.65,1.61,4.66,4.08,0,1.27,0,2.54,0,3.82q0,21.15,0,42.3c0,2.75-1.75,4.29-4.89,4.28-2.21,0-4.43.09-6.62-.11a7,7,0,0,1-5.74-3.55q-5.85-10.22-11.68-20.45a8.27,8.27,0,0,0-1-1.42c-.44-.49-.81-.42-1,.17a3.54,3.54,0,0,0-.14,1.1q0,9.94,0,19.88c0,2.86-1.72,4.38-5,4.38-1.85,0-3.69,0-5.54,0-2.83,0-4.58-1.5-4.72-4,0-.16,0-.32,0-.48q0-22.82,0-45.64a4.11,4.11,0,0,1,.83-2.79,4.24,4.24,0,0,1,3.31-1.58c2.48,0,5-.11,7.43.09a6.88,6.88,0,0,1,5.67,3.5q5.93,10.35,11.85,20.72a17,17,0,0,0,1.19,1.61Z"/><path class="cls-2" d="M1151.09,299.19h18.07c3.26,0,5,1.5,5,4.36a64.19,64.19,0,0,1-.19,6.43,10.14,10.14,0,0,1-2.89,5.81q-10,10.67-19.92,21.35c-.62.66-1.47,1.34-1,2.31s1.74.91,2.77.92c5.51,0,11,0,16.53,0,2.91,0,4.69,1.56,4.69,4.11q0,2.46,0,4.93c0,2.7-1.75,4.25-4.82,4.25h-36.41c-3.2,0-4.94-1.52-4.91-4.33a63.27,63.27,0,0,1,.2-6.58,9.88,9.88,0,0,1,2.79-5.6q10.08-10.8,20.15-21.6c.59-.63,1.31-1.28.83-2.19s-1.51-.88-2.44-.88c-5.6,0-11.2,0-16.8,0-3,0-4.73-1.54-4.73-4.15q0-2.5,0-5c0-2.53,1.79-4.13,4.68-4.13Q1141.87,299.18,1151.09,299.19Z"/><path class="cls-2" d="M1197,299.19h27.1c2.9,0,4.67,1.56,4.67,4.13q0,2.54,0,5.09c0,2.48-1.8,4.08-4.64,4.08-7.23,0-7.94,0-15.17,0a4.36,4.36,0,0,0-4.14,2.11c-1.37,2.42.72,5.21,3.9,5.22h15.54c2.23,0,3.85,1,4.4,2.8a3.23,3.23,0,0,1,.13.94q0,2.9,0,5.8c0,2-1.7,3.57-4,3.7-.39,0-.79,0-1.18,0H1209c-2.75,0-4.56,1.57-4.56,4q0,6.24,0,12.48c0,2.59-1.79,4.14-4.76,4.14H1197Z"/><path class="cls-2" d="M1192.6,353.51a3.82,3.82,0,0,1-3.41-3.41c0-.16,0-.32,0-.48q0-23.12,0-46.25a3.92,3.92,0,0,1,3-4,3.21,3.21,0,0,1,.4-.05Z"/><path class="cls-2" d="M1044,322.85c1.66,0,3.32,0,5,0s2.52.73,2.53,2.25c0,1,0,1.91,0,2.86a2,2,0,0,1-2.12,2q-5.44.07-10.88,0a2,2,0,0,1-2.13-2q0-1.51,0-3c0-1.3.85-2.07,2.35-2.09C1040.52,322.83,1042.27,322.85,1044,322.85Z"/><path class="cls-2" d="M1043.93,317.74c-1.72,0-3.44,0-5.17,0-1.52,0-2.34-.74-2.35-2.07,0-1,0-2,0-3a2,2,0,0,1,2.14-2q5.44-.06,10.88,0a1.94,1.94,0,0,1,2.11,2q0,1.59,0,3.17c0,1.22-.85,2-2.26,2C1047.49,317.75,1045.71,317.74,1043.93,317.74Z"/><path class="cls-2" d="M1044,306.32h-5.17c-1.52,0-2.37-.73-2.38-2q0-1.51,0-3a1.94,1.94,0,0,1,2.11-2q5.48-.08,11,0a1.91,1.91,0,0,1,2.05,2q0,1.55,0,3.1c0,1.27-.85,2-2.32,2Z"/><path class="cls-2" d="M1043.94,341.64c-1.69,0-3.38,0-5.08,0s-2.45-.72-2.45-2.14q0-1.43,0-2.86c0-1.37.8-2.09,2.39-2.14,1.06,0,2.12,0,3.17,0h6.89c1.92,0,2.67.68,2.67,2.37,0,1,0,1.91,0,2.86a2,2,0,0,1-2.15,1.91c-1.81,0-3.63,0-5.44,0Z"/><path class="cls-2" d="M1043.67,353.73h-5c-1.41,0-2.25-.74-2.27-2,0-1,0-2,0-2.94a1.91,1.91,0,0,1,2.11-1.85q5.12,0,10.24,0a1.91,1.91,0,0,1,2.13,1.76,24.86,24.86,0,0,1,0,3.25c-.07,1.09-1,1.73-2.25,1.74Z"/><text class="cls-4" transform="translate(1030.59 385.68)">(In)visible New Zealand<tspan x="22.68" y="18">Film </tspan><tspan class="cls-5" x="64.18" y="18">F</tspan><tspan x="73.97" y="18">estival 2017</tspan></text></g><g class="cls-1"><path class="cls-3" d="M372.27,412.37a3.54,3.54,0,0,1-.4,2A3.22,3.22,0,0,1,368.8,416h-1.22a3.31,3.31,0,0,1-3-1.22,3.12,3.12,0,0,1-.65-2.13v-3.06a1.05,1.05,0,0,1,2.11,0v2.74c0,1.22.25,1.56,1.5,1.56h1.16c.89,0,1.43-.13,1.43-1.14v-12.1a1.05,1.05,0,0,1,2.11,0Z"/><path class="cls-3" d="M381.74,406.62c-.59,0-1.39-.13-1.39-1s.72-1,1.39-1h2.78a3.19,3.19,0,0,1,2.61.91,2.92,2.92,0,0,1,.91,2.4l.21,6.87c0,.59-.27,1.18-.95,1.18a1,1,0,0,1-1-1l-1.39.72a1.83,1.83,0,0,1-1.24.3h-1.94a3.16,3.16,0,0,1-2.3-.72,2.83,2.83,0,0,1-1.05-2.49v-.89a2.64,2.64,0,0,1,1-2.25,3.32,3.32,0,0,1,2.36-.76H386v-.46c0-1.52-.34-1.77-1.79-1.77Zm0,4.26c-.55,0-1.35.15-1.35.89v1.35c0,.67.82.82,1.31.82h2.23l2.23-1.16v-.44c0-1.12-.32-1.45-1.43-1.45Z"/><path class="cls-3" d="M400.18,405.42c.36-.32.86-.82,1.35-.82a1,1,0,0,1,1,1c0,.48-.32.72-.67,1l-3.92,3.25,4.76,4c.38.32.72.55.72,1.07a1,1,0,0,1-1,1,1.53,1.53,0,0,1-.95-.48l-5.08-4.24-.84.76v2.57c0,.7-.15,1.39-1,1.39s-1-.7-1-1.39V401.81c0-.7.15-1.39,1-1.39s1,.7,1,1.39v7.5Z"/><path class="cls-3" d="M416.45,399.56h9.36a1.05,1.05,0,0,1,0,2.11h-7.25v3.25h5.18a1.05,1.05,0,0,1,0,2.11h-5.18v7.88a1.05,1.05,0,0,1-2.11,0Z"/><path class="cls-3" d="M435.59,416a2.15,2.15,0,0,1-1.81-.55l-.86-.76a2.52,2.52,0,0,1-1-2.28v-3.9a2.67,2.67,0,0,1,1-2.42l.72-.61a2.72,2.72,0,0,1,2.23-.84h1.85a2.89,2.89,0,0,1,2.23.74l.82.65a2.87,2.87,0,0,1,1.05,2.63v1.62c0,1.16-.19,1.5-1.39,1.5H433.9v.67a1,1,0,0,0,.3.59l.51.55a1.7,1.7,0,0,0,1.35.38h4.34c.67,0,1.39.15,1.39,1s-.8,1-1.39,1Zm-1.69-6.24h5.86V408.5c0-.38,0-.7-.25-.95l-.78-.67a1.44,1.44,0,0,0-1-.25h-1.71a1.63,1.63,0,0,0-1,.23l-.7.51a.92.92,0,0,0-.42.93Z"/><path class="cls-3" d="M449.08,408.69v5.88c0,.7-.15,1.39-1,1.39s-1-.7-1-1.39v-8.47c0-.74.08-1.5,1-1.5s1,.76,1,1.48v.27l1.64-1.07a3.32,3.32,0,0,1,1.75-.67H454a2.56,2.56,0,0,1,1.88.74c.91.78.86,1.64.91,2.74l.21,6.36c0,.72-.08,1.52-1,1.52s-1-.7-1-1.37l-.21-6.24c0-1.24-.15-1.73-1.37-1.73h-.67a1.22,1.22,0,0,0-.63.19Z"/><path class="cls-3" d="M462.23,409.3a2.86,2.86,0,0,1,1.2-2.66l1.5-1.24a3.22,3.22,0,0,1,2.61-.8h3.2c.67,0,1.39.15,1.39,1s-.8,1-1.39,1h-3.56a1.91,1.91,0,0,0-1.16.51l-1.22,1c-.32.25-.55.46-.55.86v2.51c0,.4.23.61.55.86l1.22,1a1.91,1.91,0,0,0,1.16.51h3.56c.59,0,1.39.13,1.39,1s-.72,1-1.39,1h-3.2a3.21,3.21,0,0,1-2.61-.8l-1.5-1.24a2.86,2.86,0,0,1-1.2-2.66Z"/><path class="cls-3" d="M481.11,416a2.15,2.15,0,0,1-1.81-.55l-.86-.76a2.52,2.52,0,0,1-1-2.28v-3.9a2.67,2.67,0,0,1,1-2.42l.72-.61a2.72,2.72,0,0,1,2.23-.84h1.85a2.89,2.89,0,0,1,2.23.74l.82.65a2.87,2.87,0,0,1,1.05,2.63v1.62c0,1.16-.19,1.5-1.39,1.5h-6.49v.67a1,1,0,0,0,.3.59l.51.55a1.7,1.7,0,0,0,1.35.38h4.34c.67,0,1.39.15,1.39,1s-.8,1-1.39,1Zm-1.69-6.24h5.86V408.5c0-.38,0-.7-.25-.95l-.78-.67a1.44,1.44,0,0,0-1-.25h-1.71a1.63,1.63,0,0,0-1,.23l-.7.51a.92.92,0,0,0-.42.93Z"/><path class="cls-3" d="M406.9,419.66H361.07a.95.95,0,1,0,0,1.89h44.86Z"/><path class="cls-3" d="M488.32,419.66H411.07l-.94,1.89h78.19a.94.94,0,1,0,0-1.89Z"/><path class="cls-2" d="M483.44,376.82a4.73,4.73,0,0,1-4.72,4.72h-6.81a4.73,4.73,0,0,1-4.72-4.72V359a56,56,0,0,1-7.49,3v14.84a4.73,4.73,0,0,1-4.72,4.72h-4.75c-2.59,0-4.72,0-4.71,0s0-2.16,0-4.76v-12c-2.08.18-4.23.29-6.49.29-.9,0-1.78,0-2.66-.05v11.77c0,2.59,0,4.73,0,4.74s-2.12,0-4.71,0h-3.58c-2.59,0-4.69-.17-4.66-.38s.06-2.9.06-5.5V363.42a71.9,71.9,0,0,1-11.65-3.55v15.79c0,2.59,0,4.89,0,5.11s-2,.77-4.62.77h-4.41c-2.59,0-4.66-.27-4.58-.61s.13-3.37.13-6V352.81a80.76,80.76,0,0,1-13.31-11v28.07a6,6,0,0,1-6,5.61h-4c-3.3,0-8-.7-8-4v-5c0-3.3-.47-9-3.5-9a5.78,5.78,0,0,0-5.5,6v11c0,5,7,12,10,12h24.08c1.07,0,2.69.06,4.27.06h85.19a35.17,35.17,0,0,0,5.67-.31c.52-.17,1.48-1.44,1.65-1.75a37.34,37.34,0,0,0,.31-5.94V338.67a50.7,50.7,0,0,1-5.82,8Z"/><path class="cls-2" d="M488,319.58h-3.22c-.72,1.6-1.3,3-1.3,3.07a35.85,35.85,0,0,1-4.72.16h-6.81c-2.59,0-4.72-.56-4.72-1.24a20.19,20.19,0,0,0-1.68-5h-4.13a20.19,20.19,0,0,0-1.68,5c0,.68-2.12,1.24-4.72,1.24h-4.75c-2.59,0-4.72-.84-4.72-1.86a22.11,22.11,0,0,0-1.93-6.16s-.12-.27-2.65-.27-2.65.27-2.65.27a22.11,22.11,0,0,0-1.93,6.16c0,1-2.12,1.86-4.72,1.86h-3.46c-2.59,0-4.72-.84-4.72-1.86a22.12,22.12,0,0,0-1.93-6.16s-.68-1.52-3.9-1.52-3.9,1.52-3.9,1.52a22.12,22.12,0,0,0-1.93,6.16c0,1-2.12,1.86-4.72,1.86h-4c-2.59,0-4.72-1.55-4.72-3.43a23.29,23.29,0,0,0-1.93-7.74,4,4,0,0,0-1.59-1.59l6.34-8a3.15,3.15,0,0,0,0-3.7L393.09,288a1.78,1.78,0,0,0-2.92,0L382,298.29a3.15,3.15,0,0,0,0,3.7l6.41,8.13a3.93,3.93,0,0,0-1.45,1.5,26.37,26.37,0,0,0-1.93,9v17c3.53,2.21,8.1,4.93,13.31,7.65V332.51a4.73,4.73,0,0,1,4.72-4.72h4a4.73,4.73,0,0,1,4.72,4.72v19.08a111.79,111.79,0,0,0,11.65,4.07V332.51a4.73,4.73,0,0,1,4.72-4.72h3.46a4.73,4.73,0,0,1,4.72,4.72v25.66c1.54.14,3.07.22,4.58.22s3.07-.09,4.58-.23V332.51a4.73,4.73,0,0,1,4.72-4.72H455a4.73,4.73,0,0,1,4.72,4.72V354.9a72.7,72.7,0,0,0,7.49-3.2V332.51a4.73,4.73,0,0,1,4.72-4.72h6.81a4.73,4.73,0,0,1,4.72,4.72v8.79c2.46-2,4.44-3.71,5.82-5V327.2A22.84,22.84,0,0,0,488,319.58Z"/></g></g></g></svg>