<svg xmlns="http://www.w3.org/2000/svg" viewBox="0 0 902.96 958.58"><defs><style>.cls-1,.cls-3{opacity:0.9;}.cls-2,.cls-3,.cls-4{fill:#fff;}.cls-4{font-size:15px;font-family:Arial-Black, Arial Black;letter-spacing:0.02em;}.cls-5{letter-spacing:-0.01em;}</style></defs><title>logos-meddium</title><g id="Layer_2" data-name="Layer 2"><g id="logo_part" data-name="logo part"><g class="cls-1"><path class="cls-2" d="M21.35,113.75l-.84-.25A3,3,0,0,1,19,112.42a2.89,2.89,0,0,1-.55-1.52,3.73,3.73,0,0,1,.19-1.38,2.78,2.78,0,0,1,.67-1.19,2.72,2.72,0,0,1,1.35-.85,3,3,0,0,1,1.89.13,1.93,1.93,0,0,0,1.37-.1,1.91,1.91,0,0,0,.83-2.4,1.79,1.79,0,0,0-1.06-.93,6.44,6.44,0,0,0-4.11-.15,6.6,6.6,0,0,0-3,2,5.91,5.91,0,0,0-1.32,2.34,6.21,6.21,0,0,0-.39,2.74A6.74,6.74,0,0,0,16,114.5a6.28,6.28,0,0,0,3.35,2.37l.83.31a2.94,2.94,0,0,1,1.55,1,3,3,0,0,1,.53,1.58,2.46,2.46,0,0,1-.18,1.31,3.94,3.94,0,0,1-.69,1.19,2.58,2.58,0,0,1-1.3.86,3.06,3.06,0,0,1-1.89-.1,1.65,1.65,0,0,0-1.4.08,1.94,1.94,0,0,0-.87,1,1.63,1.63,0,0,0,.08,1.4,1.94,1.94,0,0,0,1,.88,7.63,7.63,0,0,0,2.4.42,5.42,5.42,0,0,0,1.71-.27,6.81,6.81,0,0,0,3-2,8.42,8.42,0,0,0,1.36-2.41,8.3,8.3,0,0,0,.32-2.65,7,7,0,0,0-1.14-3.41A6.14,6.14,0,0,0,21.35,113.75Z"/><path class="cls-2" d="M41.62,103.87H29.24a1.78,1.78,0,1,0,0,3.55h4.39v17.73a1.78,1.78,0,1,0,3.55,0V107.42h4.44a1.78,1.78,0,1,0,0-3.55Z"/><path class="cls-2" d="M55.07,104.73a2.13,2.13,0,0,0-.76-.78l-.05,0a1.72,1.72,0,0,0-1.37-.1,1.77,1.77,0,0,0-1,.92l-9.19,19.7a1.7,1.7,0,0,0-.1,1.37,1.76,1.76,0,0,0,.91,1,1.65,1.65,0,0,0,1.39.07,1.88,1.88,0,0,0,1-.94l2.58-5.49H53a1.78,1.78,0,1,0,0-3.55H50.12l3.37-7.2L61.06,126a1.86,1.86,0,0,0,1,.93,1.67,1.67,0,0,0,.62.12,1.7,1.7,0,0,0,.77-.19,1.76,1.76,0,0,0,.91-1,1.7,1.7,0,0,0-.09-1.36Z"/><path class="cls-2" d="M81.5,103.87a1.76,1.76,0,0,0-1.78,1.78v13.41l-9-14.27a1.8,1.8,0,0,0-1.55-.92,1.76,1.76,0,0,0-1.78,1.78v19.51a1.78,1.78,0,1,0,3.55,0V111.79L80,126.12a1.85,1.85,0,0,0,1.52.82,1.63,1.63,0,0,0,.91-.28,1.65,1.65,0,0,0,.84-1.51V105.65a1.76,1.76,0,0,0-1.78-1.78Z"/><path class="cls-2" d="M117.81,104.73a2.13,2.13,0,0,0-.76-.78l0,0a1.72,1.72,0,0,0-1.37-.1,1.78,1.78,0,0,0-1,.92l-9.19,19.7a1.7,1.7,0,0,0-.1,1.37,1.76,1.76,0,0,0,.91,1,1.65,1.65,0,0,0,1.39.07,1.88,1.88,0,0,0,1-.94l2.58-5.49h4.42a1.78,1.78,0,1,0,0-3.55h-2.75l3.37-7.2L123.8,126a1.86,1.86,0,0,0,1,.93,1.67,1.67,0,0,0,.62.12,1.7,1.7,0,0,0,.77-.19,1.77,1.77,0,0,0,.91-1,1.7,1.7,0,0,0-.09-1.36Z"/><path class="cls-2" d="M145.22,115.43l-.19-.17,0,0a6.72,6.72,0,0,0,1.44-2.14,6.77,6.77,0,0,0,0-5.19,6.82,6.82,0,0,0-1.44-2.11,7.19,7.19,0,0,0-2.11-1.46,6.29,6.29,0,0,0-2.62-.55h-7.93a1.76,1.76,0,0,0-1.78,1.78v19.71a1.78,1.78,0,1,0,3.55,0V107.32h6.16a3,3,0,0,1,2.2.93,3,3,0,0,1,.93,2.25,3.16,3.16,0,0,1-3.13,3.13H138a1.77,1.77,0,0,0-1.53,1.78,1.71,1.71,0,0,0,1.53,1.78h2.89a2.56,2.56,0,0,1,1,.19,2.46,2.46,0,0,1,.81.53,2.5,2.5,0,0,1,.77,1.85v5.41a1.78,1.78,0,1,0,3.55,0v-5.41a5.89,5.89,0,0,0-.49-2.38A6.31,6.31,0,0,0,145.22,115.43Z"/><path class="cls-2" d="M101.48,107.24a12,12,0,0,0-3.68-2.5,11.12,11.12,0,0,0-4.48-.92H89.18a1.76,1.76,0,0,0-1.78,1.78,1.78,1.78,0,0,0,1.78,1.78h4.14a7.76,7.76,0,0,1,3.1.62A8.17,8.17,0,0,1,99,109.71a8.45,8.45,0,0,1,1.75,2.56,7.68,7.68,0,0,1,.64,3.12,7.94,7.94,0,0,1-.62,3.13A8.09,8.09,0,0,1,99,121.09a8.43,8.43,0,0,1-2.56,1.75,7.67,7.67,0,0,1-3.12.64H91V111.77a1.78,1.78,0,0,0-3.55-.11v13.6A1.76,1.76,0,0,0,89.18,127h4.14a11.32,11.32,0,0,0,8.16-3.42,12,12,0,0,0,2.5-3.68,11.23,11.23,0,0,0,.92-4.53,11.12,11.12,0,0,0-.92-4.48A12,12,0,0,0,101.48,107.24Z"/><path class="cls-2" d="M164.45,107.24a12,12,0,0,0-3.68-2.5,11.12,11.12,0,0,0-4.48-.92h-4.14a1.76,1.76,0,0,0-1.78,1.78,1.78,1.78,0,0,0,1.78,1.78h4.14a7.76,7.76,0,0,1,3.1.62,8.17,8.17,0,0,1,2.54,1.72,8.45,8.45,0,0,1,1.75,2.56,7.68,7.68,0,0,1,.64,3.12,7.94,7.94,0,0,1-.62,3.13,8.09,8.09,0,0,1-1.72,2.56,8.43,8.43,0,0,1-2.56,1.75,7.67,7.67,0,0,1-3.12.64h-2.37V111.77a1.78,1.78,0,0,0-3.55-.11v13.6a1.76,1.76,0,0,0,1.78,1.78h4.14a11.32,11.32,0,0,0,8.16-3.42,12,12,0,0,0,2.5-3.68,11.23,11.23,0,0,0,.92-4.53,11.12,11.12,0,0,0-.92-4.48A12,12,0,0,0,164.45,107.24Z"/><path class="cls-2" d="M112.84,0H62A17.59,17.59,0,0,0,44.42,17.54V68.42A17.59,17.59,0,0,0,62,86h50.88a17.59,17.59,0,0,0,17.54-17.54V17.54A17.59,17.59,0,0,0,112.84,0Zm-28,36.78H83a2,2,0,0,0-1.79,1.82V54a4.82,4.82,0,0,1-9.63,0V38.39a2,2,0,0,0-1.76-1.62H67.16a2,2,0,0,0-1.8,1.86V49.17a9.63,9.63,0,0,1-9.63,9.63v-22a9.63,9.63,0,0,1,9.63-9.63h24.4a9.63,9.63,0,0,0-4.95,8.42Zm2.19,22h0v-22a9.63,9.63,0,0,1,9.63-9.63h0v22A9.63,9.63,0,0,1,87,58.81Zm24.28-.09H95a9.62,9.62,0,0,0,4-7.3h12.22a2.39,2.39,0,1,0,0-4.79,9.7,9.7,0,1,1,8.94-13.45c.07.17.13.34.2.51l.08.25V34a3.66,3.66,0,0,1-3.18,4.37h-.8a3.66,3.66,0,0,1-3-2.19L113.5,36a2.39,2.39,0,1,0-2.21,3.31,9.69,9.69,0,1,1,0,19.39Z"/></g><g class="cls-1"><rect class="cls-2" x="474.24" y="7.61" width="19.38" height="67.37"/><path class="cls-2" d="M384.92,92.06H370.29a2.1,2.1,0,1,0,0,4.2h5.19v21a2.1,2.1,0,1,0,4.2,0v-21h5.25a2.1,2.1,0,1,0,0-4.2Z"/><path class="cls-2" d="M432,92.06a2.08,2.08,0,0,0-2.1,2.1V110L419.3,93.14a2.12,2.12,0,0,0-1.83-1.09,2.08,2.08,0,0,0-2.1,2.1v23a2.1,2.1,0,1,0,4.2,0V101.41l10.7,16.93a2.18,2.18,0,0,0,1.8,1,1.93,1.93,0,0,0,1.08-.33,2,2,0,0,0,1-1.78v-23a2.07,2.07,0,0,0-2.1-2.1Z"/><path class="cls-2" d="M474.94,93.07a2.51,2.51,0,0,0-.9-.93l-.06,0a2,2,0,0,0-1.62-.12,2.1,2.1,0,0,0-1.21,1.09l-10.86,23.27a2,2,0,0,0-.12,1.62,2.08,2.08,0,0,0,1.08,1.2,2,2,0,0,0,1.64.08,2.22,2.22,0,0,0,1.19-1.11l3-6.49h5.22a2.1,2.1,0,1,0,0-4.2h-3.25l4-8.5,8.95,19.2a2.2,2.2,0,0,0,1.18,1.1,2,2,0,0,0,.73.15,2,2,0,0,0,.91-.22,2.09,2.09,0,0,0,1.08-1.2,2,2,0,0,0-.11-1.6Z"/><path class="cls-2" d="M530,96a14.12,14.12,0,0,0-4.35-3A13.14,13.14,0,0,0,520.41,92h-4.9a2.08,2.08,0,0,0-2.1,2.1,2.1,2.1,0,0,0,2.1,2.1h4.9a9.16,9.16,0,0,1,3.66.73,9.65,9.65,0,0,1,3,2,10,10,0,0,1,2.07,3,9.07,9.07,0,0,1,.76,3.69,9.39,9.39,0,0,1-.73,3.7,9.55,9.55,0,0,1-2,3,10,10,0,0,1-3,2.07,9.06,9.06,0,0,1-3.69.76h-2.8V101.39a2.1,2.1,0,0,0-4.19-.13v16.07a2.08,2.08,0,0,0,2.1,2.1h4.9a13.37,13.37,0,0,0,9.64-4,14.12,14.12,0,0,0,3-4.35,13.27,13.27,0,0,0,1.09-5.35,13.14,13.14,0,0,0-1.09-5.29A14.13,14.13,0,0,0,530,96Z"/><polygon class="cls-2" points="391.18 7.61 356.76 74.98 376.15 74.98 410.56 7.61 391.18 7.61"/><polygon class="cls-2" points="425.59 7.61 391.18 74.98 410.56 74.98 444.98 7.61 425.59 7.61"/><polygon class="cls-2" points="444.97 37.03 425.59 74.98 444.82 74.98 444.97 74.98 464.2 74.98 444.97 56.16 444.97 37.03"/><path class="cls-2" d="M361,103.72l-1-.29a3.53,3.53,0,0,1-1.81-1.27,3.41,3.41,0,0,1-.66-1.8,4.4,4.4,0,0,1,.22-1.62,3.28,3.28,0,0,1,.79-1.41,3.21,3.21,0,0,1,1.6-1,3.59,3.59,0,0,1,2.23.15,2.28,2.28,0,0,0,1.61-.12,2.26,2.26,0,0,0,1-2.84,2.12,2.12,0,0,0-1.26-1.1,7.61,7.61,0,0,0-4.86-.18,7.8,7.8,0,0,0-3.54,2.37,7,7,0,0,0-1.56,2.76,7.33,7.33,0,0,0-.46,3.24,8,8,0,0,0,1.39,4,7.42,7.42,0,0,0,4,2.8l1,.37a3.47,3.47,0,0,1,1.83,1.23,3.52,3.52,0,0,1,.63,1.86,2.91,2.91,0,0,1-.21,1.55,4.65,4.65,0,0,1-.82,1.41,3,3,0,0,1-1.54,1,3.62,3.62,0,0,1-2.24-.11,2,2,0,0,0-1.66.1,2.29,2.29,0,0,0-1,1.19,1.93,1.93,0,0,0,.1,1.66,2.29,2.29,0,0,0,1.21,1,9,9,0,0,0,2.83.5,6.4,6.4,0,0,0,2-.32,8,8,0,0,0,3.56-2.34,10,10,0,0,0,1.61-2.85,9.81,9.81,0,0,0,.38-3.14,8.31,8.31,0,0,0-1.35-4A7.26,7.26,0,0,0,361,103.72Z"/><path class="cls-2" d="M400.81,93.07a2.52,2.52,0,0,0-.9-.93l-.06,0a2,2,0,0,0-1.62-.12A2.09,2.09,0,0,0,397,93.09l-10.86,23.27A2,2,0,0,0,386,118a2.08,2.08,0,0,0,1.08,1.2,1.94,1.94,0,0,0,1.64.08,2.22,2.22,0,0,0,1.19-1.11l3-6.49h5.37a2.1,2.1,0,1,0,0-4.2H395l4-8.5,8.95,19.2a2.2,2.2,0,0,0,1.18,1.1,2,2,0,0,0,.73.15,2,2,0,0,0,.91-.22,2.08,2.08,0,0,0,1.08-1.2,2,2,0,0,0-.11-1.6Z"/><path class="cls-2" d="M507.33,105.71l-.22-.2,0,0a7.94,7.94,0,0,0,1.7-2.53,8,8,0,0,0,0-6.13,8.06,8.06,0,0,0-1.7-2.5,8.5,8.5,0,0,0-2.49-1.72,7.43,7.43,0,0,0-3.09-.65h-9.37a2.07,2.07,0,0,0-2.1,2.1v23.29a2.1,2.1,0,1,0,4.2,0V96.13h7.28a3.52,3.52,0,0,1,2.6,1.09,3.59,3.59,0,0,1,1.09,2.66,3.74,3.74,0,0,1-3.69,3.69h-2.76a2.09,2.09,0,0,0-1.81,2.1,2,2,0,0,0,1.81,2.1h3.42a3,3,0,0,1,1.17.23,2.9,2.9,0,0,1,1,.63,3,3,0,0,1,.91,2.18v6.39a2.1,2.1,0,1,0,4.2,0v-6.39a7,7,0,0,0-.58-2.82A7.46,7.46,0,0,0,507.33,105.71Z"/><path class="cls-2" d="M455.65,96a14.12,14.12,0,0,0-4.35-3A13.14,13.14,0,0,0,446,92h-4.9a2.08,2.08,0,0,0-2.1,2.1,2.1,2.1,0,0,0,2.1,2.1H446a9.16,9.16,0,0,1,3.66.73,9.65,9.65,0,0,1,3,2,10,10,0,0,1,2.07,3,9.07,9.07,0,0,1,.76,3.69,9.39,9.39,0,0,1-.73,3.7,9.56,9.56,0,0,1-2,3,10,10,0,0,1-3,2.07,9.06,9.06,0,0,1-3.69.76h-2.8V101.39a2.1,2.1,0,0,0-4.19-.13v16.07a2.07,2.07,0,0,0,2.1,2.1H446a13.37,13.37,0,0,0,9.64-4,14.12,14.12,0,0,0,3-4.35,13.27,13.27,0,0,0,1.09-5.35,13.14,13.14,0,0,0-1.09-5.29A14.14,14.14,0,0,0,455.65,96Z"/><polygon class="cls-2" points="509.71 45.56 529.09 7.61 509.71 7.61 509.71 45.56"/><polygon class="cls-2" points="529.09 74.98 529.09 37.03 509.71 74.98 529.09 74.98"/></g><g class="cls-1"><polygon class="cls-2" points="871.49 39.9 865.77 45.62 865.77 53.72 871.49 59.44 879.59 59.44 885.31 53.72 885.31 45.62 879.59 39.9 871.49 39.9"/><path class="cls-2" d="M893.07,17.41H786.89A9.92,9.92,0,0,0,777,27.3V71.05a9.92,9.92,0,0,0,9.89,9.89H893.07A9.92,9.92,0,0,0,903,71.05V27.3A9.92,9.92,0,0,0,893.07,17.41ZM821,49.23a2.7,2.7,0,0,1-2.7,2.7h-13.5a2.7,2.7,0,0,1,0-5.4h10.8v-.9l-5.72-5.72h-8.09L796,45.62v8.09l5.72,5.72h8.09l4.59-4.6a2.7,2.7,0,1,1,3.82,3.82L812.9,64a2.7,2.7,0,0,1-1.91.79H800.65a2.7,2.7,0,0,1-1.91-.79l-7.31-7.31a2.7,2.7,0,0,1-.79-1.91V44.5a2.7,2.7,0,0,1,.79-1.91l7.31-7.31a2.7,2.7,0,0,1,1.91-.79H811a2.7,2.7,0,0,1,1.91.79l7.31,7.31A2.7,2.7,0,0,1,821,44.5Zm32.59-9.33h-6.81l-8.13,11.51V62.93a1.92,1.92,0,0,1-1.91,1.91h-1.57a1.92,1.92,0,0,1-1.91-1.91V36.41a1.92,1.92,0,0,1,1.91-1.91h1.57a1.92,1.92,0,0,1,1.91,1.91V42l4.52-6.4a2.7,2.7,0,0,1,2.21-1.14h8.21a2.7,2.7,0,1,1,0,5.4Zm37.14,14.94a2.7,2.7,0,0,1-.79,1.91L882.62,64a2.7,2.7,0,0,1-1.91.79H870.38a2.7,2.7,0,0,1-1.91-.79l-7.31-7.31a2.7,2.7,0,0,1-.79-1.91V44.5a2.7,2.7,0,0,1,.79-1.91l7.31-7.31a2.7,2.7,0,0,1,1.91-.79h10.33a2.7,2.7,0,0,1,1.91.79l7.31,7.31a2.7,2.7,0,0,1,.79,1.91Z"/><path class="cls-2" d="M762.11,21.93a3,3,0,0,0-1.73-.72,16.21,16.21,0,0,0-3.09.39l-12.12,3a17.82,17.82,0,0,0-2.35.74,11.76,11.76,0,0,0-2.29,2.37l-26.9,37a8.86,8.86,0,0,1-2.28,2.05L695.59,75.9c-.75.43-.65.79.21.79H708a6.89,6.89,0,0,0,2.92-.79l5-2.9c.75-.43,1.55-.93,1.79-1.1a17.58,17.58,0,0,0,1.67-2l26.55-36.53a5,5,0,0,1,2.44-1.64l6-1.47a1.17,1.17,0,0,1,1.52,1.19V49.32a1.57,1.57,0,0,1-1.57,1.57H740a1.57,1.57,0,0,0-1.57,1.57v2.26A1.57,1.57,0,0,0,740,56.28h14.34a1.57,1.57,0,0,1,1.57,1.57V75.12a1.57,1.57,0,0,0,1.57,1.57H762a1.57,1.57,0,0,0,1.57-1.57V26.53a16.22,16.22,0,0,0-.36-3.09A3,3,0,0,0,762.11,21.93Z"/><path class="cls-2" d="M702.18,90.94c.21-.69.49-1.31,1.31-1.31s1.16.64,1.34,1.31l5,17.4c.18.62-.51,1.29-1.23,1.29a1.53,1.53,0,0,1-1.39-1.29l-1-3.08h-5.47l-1,3.08a1.53,1.53,0,0,1-1.39,1.29c-.72,0-1.41-.67-1.23-1.29Zm1.34,4.78h-.05l-2,7h4Z"/><path class="cls-2" d="M728,107.8c0,.57.1,1.82-1.21,1.82-1.05,0-1.23-.87-1.23-1.72v-.41l-2,1.31a4.06,4.06,0,0,1-2.13.82h-1.82a3.44,3.44,0,0,1-2.29-.9c-1.11-1-1.08-2-1.13-3.34L716,97.62c0-.9.1-1.85,1.23-1.85s1.18.9,1.21,1.7l.26,7.58a4.14,4.14,0,0,0,.26,1.59c.21.36.85.51,1.44.51h.82a1.36,1.36,0,0,0,.77-.23l3.62-2.29V97.46c0-.85.18-1.7,1.23-1.7s1.23.85,1.23,1.7Z"/><path class="cls-2" d="M738.67,98.23c-.51,0-1.39-.1-1.39.69,0,.41.31.57.67.72l6.17,2.8a3.51,3.51,0,0,1,2.42,3.5c0,2.49-1.7,3.68-4.06,3.68h-3.8a4.43,4.43,0,0,1-3.08-.77c-.46-.36-1.13-.82-1.13-1.44a1.26,1.26,0,0,1,1.29-1.23,1.19,1.19,0,0,1,1,.44,2.6,2.6,0,0,0,2,.54H742c.87,0,2.06.08,2.06-1.36,0-.59-.72-1-1.29-1.23L737,101.91a3,3,0,0,1-2.16-3,3.15,3.15,0,0,1,3.39-3.14h4.22a3.57,3.57,0,0,1,2.85.85c.46.39,1,.69,1,1.39A1.26,1.26,0,0,1,745,99.24a1.31,1.31,0,0,1-1.05-.51,1.8,1.8,0,0,0-1.52-.49Z"/><path class="cls-2" d="M757.92,105c0,1.39-.05,2.18,1.64,2.18h1.26c1,0,1.47-.08,1.72-1.08a1.26,1.26,0,0,1,1.23-1,1.24,1.24,0,0,1,1.26,1.23,3.68,3.68,0,0,1-.85,2.06,4,4,0,0,1-3.39,1.26h-1.26a4,4,0,0,1-3.19-1.23c-1-1.05-.9-2.11-.9-3.44V98.23h-.8c-.72,0-1.7-.15-1.7-1.23s.87-1.23,1.7-1.23h.8V93.25c0-.85.18-1.7,1.23-1.7s1.23.85,1.23,1.7v2.52h4.14c.82,0,1.7.18,1.7,1.23s-1,1.23-1.7,1.23h-4.14Z"/><path class="cls-2" d="M771.47,97.59c0-.9.1-1.82,1.23-1.82,1,0,1.23.82,1.23,1.64v1l1.93-1.59A3.71,3.71,0,0,1,778,95.77h2a3.26,3.26,0,0,1,2.42,1,3.61,3.61,0,0,1,1.11,2.8c0,.85-.15,1.72-1.21,1.72-.9,0-1.26-.72-1.26-1.52a1.62,1.62,0,0,0-.26-1.08c-.31-.44-.9-.44-1.49-.44h-.72a1.91,1.91,0,0,0-1.23.59l-3.44,2.85v6.25c0,.85-.18,1.7-1.23,1.7s-1.23-.85-1.23-1.7Z"/><path class="cls-2" d="M794.11,98.23c-.72,0-1.7-.15-1.7-1.23s.87-1.23,1.7-1.23h3.39a3.9,3.9,0,0,1,3.19,1.11,3.56,3.56,0,0,1,1.11,2.93l.26,8.38c0,.72-.33,1.44-1.16,1.44a1.26,1.26,0,0,1-1.26-1.23l-1.7.87a2.23,2.23,0,0,1-1.52.36h-2.36a3.86,3.86,0,0,1-2.8-.87,3.45,3.45,0,0,1-1.29-3v-1.08a3.22,3.22,0,0,1,1.21-2.75,4.05,4.05,0,0,1,2.88-.93h5.29v-.57c0-1.85-.41-2.16-2.18-2.16Zm0,5.19c-.67,0-1.64.18-1.64,1.08v1.64c0,.82,1,1,1.59,1h2.72l2.72-1.41v-.54c0-1.36-.39-1.77-1.75-1.77Z"/><path class="cls-2" d="M815.8,107.15h1.85c.82,0,1.7.18,1.7,1.23s-1,1.23-1.7,1.23h-6.27c-.72,0-1.7-.15-1.7-1.23s.87-1.23,1.7-1.23h2v-14h-2c-.72,0-1.7-.15-1.7-1.23s.87-1.23,1.7-1.23H814c1.41,0,1.82.26,1.82,1.72Z"/><path class="cls-2" d="M831.12,98.23c-.72,0-1.7-.15-1.7-1.23s.87-1.23,1.7-1.23h3.39a3.9,3.9,0,0,1,3.19,1.11,3.56,3.56,0,0,1,1.11,2.93l.26,8.38c0,.72-.33,1.44-1.16,1.44a1.26,1.26,0,0,1-1.26-1.23l-1.7.87a2.23,2.23,0,0,1-1.52.36h-2.36a3.86,3.86,0,0,1-2.8-.87,3.45,3.45,0,0,1-1.29-3v-1.08a3.22,3.22,0,0,1,1.21-2.75,4.05,4.05,0,0,1,2.88-.93h5.29v-.57c0-1.85-.41-2.16-2.18-2.16Zm0,5.19c-.67,0-1.64.18-1.64,1.08v1.64c0,.82,1,1,1.59,1h2.72l2.72-1.41v-.54c0-1.36-.39-1.77-1.75-1.77Z"/><path class="cls-2" d="M849.7,98.23c-.51,0-1.39-.1-1.39.69,0,.41.31.57.67.72l6.17,2.8a3.51,3.51,0,0,1,2.42,3.5c0,2.49-1.7,3.68-4.06,3.68h-3.8a4.43,4.43,0,0,1-3.08-.77c-.46-.36-1.13-.82-1.13-1.44a1.26,1.26,0,0,1,1.29-1.23,1.19,1.19,0,0,1,1,.44,2.6,2.6,0,0,0,2,.54H853c.87,0,2.06.08,2.06-1.36,0-.59-.72-1-1.29-1.23L848,101.91a3,3,0,0,1-2.16-3,3.15,3.15,0,0,1,3.39-3.14h4.22a3.57,3.57,0,0,1,2.85.85c.46.39,1,.69,1,1.39A1.26,1.26,0,0,1,856,99.24a1.31,1.31,0,0,1-1.05-.51,1.8,1.8,0,0,0-1.52-.49Z"/><path class="cls-2" d="M871.32,107.15h1.85c.82,0,1.7.18,1.7,1.23s-1,1.23-1.7,1.23H866.9c-.72,0-1.7-.15-1.7-1.23s.87-1.23,1.7-1.23h2V98.23h-2c-.72,0-1.7-.15-1.7-1.23s.87-1.23,1.7-1.23h2.6c1.41,0,1.82.26,1.82,1.72Zm-3.73-16.37a1,1,0,0,1,1.16-1.16h1.41a1,1,0,0,1,1.16,1.16V92a1,1,0,0,1-1.16,1.16h-1.41A1,1,0,0,1,867.59,92Z"/><path class="cls-2" d="M886.63,98.23c-.72,0-1.7-.15-1.7-1.23s.87-1.23,1.7-1.23H890a3.9,3.9,0,0,1,3.19,1.11,3.56,3.56,0,0,1,1.11,2.93l.26,8.38c0,.72-.33,1.44-1.16,1.44a1.26,1.26,0,0,1-1.26-1.23l-1.7.87a2.23,2.23,0,0,1-1.52.36h-2.36a3.86,3.86,0,0,1-2.8-.87,3.45,3.45,0,0,1-1.29-3v-1.08a3.22,3.22,0,0,1,1.21-2.75,4.05,4.05,0,0,1,2.88-.93h5.29v-.57c0-1.85-.41-2.16-2.18-2.16Zm0,5.19c-.67,0-1.64.18-1.64,1.08v1.64c0,.82,1,1,1.59,1h2.72l2.72-1.41v-.54c0-1.36-.39-1.77-1.75-1.77Z"/></g><g class="cls-1"><g class="cls-1"><path class="cls-2" d="M317.74,649.77l1.47-1.58.36.08a11.44,11.44,0,0,0,1.32.26,3,3,0,0,0,1.27-1.4,14.25,14.25,0,0,0,.6-3.18l1-8.72a6.92,6.92,0,0,0-3.85,1.3,3.45,3.45,0,0,0-1.44,2.83,3.85,3.85,0,0,0,.51,1.92l-1.87,1.64a6.85,6.85,0,0,1-.24-1.81,6.14,6.14,0,0,1,2.67-5.13,11.1,11.1,0,0,1,6.84-2q5.37,0,5.37,3.08,0,2.63-3.73,4.2,3.65,1.32,3.65,4.06a4,4,0,0,1-2.26,3.55,11.94,11.94,0,0,1-6.05,1.32A42.63,42.63,0,0,1,317.74,649.77Zm7.08-7.56-.17,1.55-.1,1a5.53,5.53,0,0,1-.69,2.43,5.83,5.83,0,0,1-2.09,1.51,28,28,0,0,0,4.54.38q3.63,0,3.63-2.88a3.64,3.64,0,0,0-1-2.39,5,5,0,0,0-2.42-1.57h-.3l-.56,0-.51,0Zm.78-7.06-.68,6.12q.69.06,1.18.06a13.11,13.11,0,0,0,1.33-.08q2.47-1.42,2.47-3.42Q329.92,635.14,325.61,635.14Z"/><path class="cls-2" d="M336.52,650.31a2.61,2.61,0,0,1-2.12-1,4.06,4.06,0,0,1-.83-2.63,5.82,5.82,0,0,1,1.58-4.06,4.9,4.9,0,0,1,3.73-1.73,2.66,2.66,0,0,1,2.16,1,4,4,0,0,1,.83,2.64,5.8,5.8,0,0,1-1.59,4.08A5,5,0,0,1,336.52,650.31Zm.87-.54a2.73,2.73,0,0,0,2.3-1.32,5.55,5.55,0,0,0,.92-3.27,4.76,4.76,0,0,0-.72-2.71,2.13,2.13,0,0,0-1.82-1.08,2.75,2.75,0,0,0-2.31,1.31,5.54,5.54,0,0,0-.93,3.28,4.74,4.74,0,0,0,.72,2.71A2.15,2.15,0,0,0,337.39,649.77Z"/><path class="cls-2" d="M344.24,644.9l-1.08,1a3.62,3.62,0,0,1-.15-1,3.36,3.36,0,0,1,1.27-2.74,5.2,5.2,0,0,1,3.38-1h1a12,12,0,0,0-1,2.75,13,13,0,0,0-.38,3q0,2.74,1.67,2.74a2.08,2.08,0,0,0,1.82-1.09,7.4,7.4,0,0,0,.9-3.19q.09-1,.12-1.25l.28-2.5,1.31-.68a19.48,19.48,0,0,0-.46,2.7l-.24,2.12q0,.11-.07.75l-.09.92q-.05.52-.05.9,0,.66.5.66a1.73,1.73,0,0,0,.89-.31l0,.08a.81.81,0,0,1,0,.13q0,.19-.37.36l-.39.19-2,.93.25-2.21q-1.42,2.21-3.05,2.21-2.24,0-2.24-3.42a12.85,12.85,0,0,1,1.11-5h-.56q-2.76,0-2.76,1.82A2.4,2.4,0,0,0,344.24,644.9Z"/><path class="cls-2" d="M355.84,644.9l-1.07,1a3.57,3.57,0,0,1,1.08-3.75,4.5,4.5,0,0,1,3.09-1.09l.48,0,.32,0h.07a3.18,3.18,0,0,0,0,.33,6.08,6.08,0,0,0,1.77,3.47l.5.58.44.52a11.14,11.14,0,0,1,1.1,1.52L364,644a9.14,9.14,0,0,1,1.53-4.62,3.67,3.67,0,0,1,2.82-1.51,3.23,3.23,0,0,1,1.14.21l-1,1a2.19,2.19,0,0,0-1.07-.35,1.7,1.7,0,0,0-1.56.94,9.76,9.76,0,0,0-.83,3.29l-.7,5.61-.84,1.72a8.24,8.24,0,0,0-.65-1.86,13.12,13.12,0,0,0-1.37-1.87l-.51-.62a11.27,11.27,0,0,1-1.66-2.54l-.33,3-.08.72a3.64,3.64,0,0,1-.34,1.3,3.43,3.43,0,0,1-.94.94l1.46.13-.79.77-2.88-.15.85-.82.74.07a2,2,0,0,0,.7-.79,5.13,5.13,0,0,0,.3-1.4l.06-.58.51-4.59h-.31q-2.75,0-2.75,1.82A2.4,2.4,0,0,0,355.84,644.9Z"/><path class="cls-2" d="M367.1,649.87l.92-1a5.21,5.21,0,0,0,.94.23,1.54,1.54,0,0,0,.67-.76,8.66,8.66,0,0,0,.33-1.81l.55-4.94q-3,.35-3,2.17a2.56,2.56,0,0,0,.29,1.14l-1.07,1a2.45,2.45,0,0,1-.15-1,3.45,3.45,0,0,1,1.55-3,7.93,7.93,0,0,1,4.46-1.05q4.81,0,4.81,3.35a5.78,5.78,0,0,1-1.35,3.69,6.6,6.6,0,0,1-5.47,2.23A25.27,25.27,0,0,1,367.1,649.87Zm4.49-8.42-.55,5-.07.62a2.9,2.9,0,0,1-.37,1.27,3.33,3.33,0,0,1-1.07.86,19.77,19.77,0,0,0,2.71.2,4,4,0,0,0,1.81-.33,3.57,3.57,0,0,0,1.25-1.24,5,5,0,0,0,.86-2.86q0-3.5-4.36-3.5Z"/><path class="cls-2" d="M379.67,644.92l-1,1a3.82,3.82,0,0,1-.27-1.37,3.1,3.1,0,0,1,1.42-2.65,7.31,7.31,0,0,1,4.08-.85l.86,0,1.05.07h.46a6.84,6.84,0,0,0-.52,3.27v.34l0,.76a12.24,12.24,0,0,0,.34,2.81,2.12,2.12,0,0,0,.26.71.53.53,0,0,0,.44.16,1.74,1.74,0,0,0,.77-.22.51.51,0,0,1,0,.19q0,.17-.26.28l-.31.15-1.63.71a14.16,14.16,0,0,1-.66-3.51l-.5.35H382a4.38,4.38,0,0,1-1.67,2.21l1.37.07-.72.76-2.64-.09.88-.8.66,0a2.69,2.69,0,0,0,.77-.93,21.9,21.9,0,0,0,.95-2.32l.2-.55a10.48,10.48,0,0,1,1.16-2.42,4.18,4.18,0,0,1,1.5-1.25,12.06,12.06,0,0,0-2.19-.19q-2.94,0-2.94,2A2.63,2.63,0,0,0,379.67,644.92Zm5.07,1.51q-.09-1.15-.09-1.87,0-.36,0-.6l.05-.77a8.57,8.57,0,0,1,.15-1.2,5.86,5.86,0,0,0-2.13,3.24l-.28.81-.15.38Z"/><path class="cls-2" d="M394.89,645.57l.19.38a29.78,29.78,0,0,0,1.5,2.68q.44.64.82.66.6,0,.93-.91.22.13.22.27a1.75,1.75,0,0,1-.56,1q-.56.62-.94.62-.55,0-1.43-1.21a17.22,17.22,0,0,1-1.75-3.15l-.62,0-.64,0,0,.44-.09.76a3.09,3.09,0,0,1-.4,1.36,2.88,2.88,0,0,1-1.13.81l1.56.1-.8.77-2.87-.15.85-.82.72.08a2.72,2.72,0,0,0,1-2.09l.07-.64.56-5q-3,.57-3,2.27a2.52,2.52,0,0,0,.28,1.21l-1.07.94a3.91,3.91,0,0,1-.14-1,3.51,3.51,0,0,1,1.53-2.94,6.43,6.43,0,0,1,3.94-1.14q3.27,0,3.27,2.08Q396.84,644.47,394.89,645.57Zm-1.79-4.07-.43,3.85a6.11,6.11,0,0,0,1,.09,5.16,5.16,0,0,0,.9-.09,2.48,2.48,0,0,0,1.19-2.06Q395.74,641.5,393.1,641.5Z"/><path class="cls-2" d="M399.2,650l.93-.82.81.07a1.86,1.86,0,0,0,.73-.78,4.41,4.41,0,0,0,.33-1.4V647a5.28,5.28,0,0,0,0-.55,7.73,7.73,0,0,0-.68-3.17q-.68-1.53-1.41-1.53-.55,0-.91.83a.26.26,0,0,1-.21-.26,1.39,1.39,0,0,1,.54-.91,1.52,1.52,0,0,1,1-.51q.89,0,1.67,1.36a9.06,9.06,0,0,1,1,3.37,9,9,0,0,1,1.66-3.35,3,3,0,0,1,2.18-1.37,1.42,1.42,0,0,1,.81.27l-.75,1a1.14,1.14,0,0,0-.62-.18q-1,0-2,1.61a8.25,8.25,0,0,0-1.26,3.51v.14a2.64,2.64,0,0,1-.38,1.22,3.68,3.68,0,0,1-1.14.87l2.05.09-.78.77Z"/><path class="cls-2" d="M427.78,646a.4.4,0,0,1,.27.37q0,.77-1.4,2a7.89,7.89,0,0,1-5.4,2.12,4.79,4.79,0,0,1-3.9-1.77,7.24,7.24,0,0,1-1.46-4.75,10,10,0,0,1,2.73-7.13,8.94,8.94,0,0,1,6.76-2.88,12.77,12.77,0,0,1,4.26.78l-.78,1.7-.22.5q-.28.59-.68.59l-.24,0a1.51,1.51,0,0,0,.16-.59q0-.77-1-1.35a4.9,4.9,0,0,0-2.42-.58,5.6,5.6,0,0,0-4.6,2.24,9.09,9.09,0,0,0-1.77,5.82,7.15,7.15,0,0,0,1.24,4.41,4,4,0,0,0,3.32,1.65,5.75,5.75,0,0,0,3-.9A5.82,5.82,0,0,0,427.78,646Z"/><path class="cls-2" d="M432.94,650.31a2.61,2.61,0,0,1-2.12-1,4.06,4.06,0,0,1-.83-2.63,5.82,5.82,0,0,1,1.58-4.06,4.9,4.9,0,0,1,3.73-1.73,2.66,2.66,0,0,1,2.16,1,4,4,0,0,1,.83,2.64,5.8,5.8,0,0,1-1.59,4.08A5,5,0,0,1,432.94,650.31Zm.87-.54a2.73,2.73,0,0,0,2.3-1.32,5.55,5.55,0,0,0,.92-3.27,4.76,4.76,0,0,0-.72-2.71,2.13,2.13,0,0,0-1.82-1.08,2.75,2.75,0,0,0-2.31,1.31,5.54,5.54,0,0,0-.93,3.28,4.74,4.74,0,0,0,.72,2.71A2.15,2.15,0,0,0,433.81,649.77Z"/><path class="cls-2" d="M440.66,644.9l-1.08,1a3.62,3.62,0,0,1-.15-1,3.36,3.36,0,0,1,1.27-2.74,5.2,5.2,0,0,1,3.38-1h1a12,12,0,0,0-1,2.75,13,13,0,0,0-.38,3q0,2.74,1.67,2.74a2.08,2.08,0,0,0,1.82-1.09,7.4,7.4,0,0,0,.9-3.19q.09-1,.12-1.25l.28-2.5,1.31-.68a19.48,19.48,0,0,0-.46,2.7l-.24,2.12q0,.11-.07.75l-.09.92q-.05.52-.05.9,0,.66.5.66a1.73,1.73,0,0,0,.89-.31l0,.08a.81.81,0,0,1,0,.13q0,.19-.37.36l-.39.19-2,.93.25-2.21q-1.42,2.21-3.05,2.21-2.24,0-2.24-3.42a12.85,12.85,0,0,1,1.11-5h-.56q-2.76,0-2.76,1.82A2.4,2.4,0,0,0,440.66,644.9Z"/><path class="cls-2" d="M457.82,645.57l.19.38a29.78,29.78,0,0,0,1.5,2.68q.44.64.82.66.6,0,.93-.91.22.13.22.27a1.75,1.75,0,0,1-.56,1q-.56.62-.94.62-.55,0-1.43-1.21a17.22,17.22,0,0,1-1.75-3.15l-.62,0-.64,0,0,.44-.09.76a3.09,3.09,0,0,1-.4,1.36,2.88,2.88,0,0,1-1.13.81l1.56.1-.8.77-2.87-.15.85-.82.72.08a2.72,2.72,0,0,0,1-2.09l.07-.64.56-5q-3,.57-3,2.27a2.52,2.52,0,0,0,.28,1.21l-1.07.94a3.91,3.91,0,0,1-.14-1,3.51,3.51,0,0,1,1.53-2.94,6.43,6.43,0,0,1,3.94-1.14q3.27,0,3.27,2.08Q459.77,644.47,457.82,645.57ZM456,641.5l-.43,3.85a6.11,6.11,0,0,0,1,.09,5.16,5.16,0,0,0,.9-.09,2.48,2.48,0,0,0,1.19-2.06Q458.67,641.5,456,641.5Z"/><path class="cls-2" d="M462.94,644.9l-1.08,1a3.57,3.57,0,0,1-.15-1,3.51,3.51,0,0,1,1.52-2.95,5.14,5.14,0,0,1,3.12-.84h4q2.46,0,2.46-1.52a1.53,1.53,0,0,0-.36-1l.83-.8a1.68,1.68,0,0,1,.29,1,2.65,2.65,0,0,1-1.18,2.19,4.7,4.7,0,0,1-2.91.88H467.6l-.5,4.48-.08.74a3.07,3.07,0,0,1-.41,1.36,2.89,2.89,0,0,1-1.13.82l1.93.1-.79.77-3.23-.15.85-.82.72.08a2.72,2.72,0,0,0,1-2.09l.07-.64.51-4.64H465.4q-2.77,0-2.77,1.84A2.37,2.37,0,0,0,462.94,644.9Z"/><path class="cls-2" d="M482.34,641l-1.89,1.81a6.37,6.37,0,0,1-.27-1.81,6.07,6.07,0,0,1,2.17-4.77,8,8,0,0,1,5.46-1.9,8.79,8.79,0,0,1,1,0l.37,0h.15q0,.34,0,.49a18.28,18.28,0,0,0,1.56,5.75l.52,1.32.34.92.43,1.21q.35,1,.61,1.89l.6-1q1-1.66,1.79-3l1.14-2,.88-1.62,1.07-1.95.59-1.09,2.25-1.4a43.19,43.19,0,0,0-.74,6.95l-.15,3.79,0,1.43a7.41,7.41,0,0,0,.24,2.37,1,1,0,0,0,1,.56,4.36,4.36,0,0,0,1.47-.23.43.43,0,0,1,.1.24q0,.38-.79.57l-.62.15-3.3.67q-.06-1.09-.06-2a93.42,93.42,0,0,1,.53-10.51q-1.6,2.27-2.41,3.69l-.7,1.19a33.65,33.65,0,0,0-2.31,4.74l-1.66,1.74a22.9,22.9,0,0,0-1.73-6.16l-.45-1.17q-.09-.21-.42-1a18.57,18.57,0,0,1-1-3.06l-.94,5.74a14.73,14.73,0,0,1-.86,3.52,3.46,3.46,0,0,1-1.59,1.54l2.9.21-1.47,1.37-4.95-.26,1.5-1.44,1.31.11a3.16,3.16,0,0,0,1.09-1.39,20.34,20.34,0,0,0,.75-3.33l1.39-8.15h-.55q-4.82,0-4.82,3.19A4.19,4.19,0,0,0,482.34,641Z"/><path class="cls-2" d="M506.26,650.31a2.61,2.61,0,0,1-2.12-1,4.06,4.06,0,0,1-.83-2.63,5.82,5.82,0,0,1,1.58-4.06,4.9,4.9,0,0,1,3.73-1.73,2.66,2.66,0,0,1,2.16,1,4,4,0,0,1,.83,2.64,5.8,5.8,0,0,1-1.59,4.08A5,5,0,0,1,506.26,650.31Zm.87-.54a2.73,2.73,0,0,0,2.3-1.32,5.55,5.55,0,0,0,.92-3.27,4.76,4.76,0,0,0-.72-2.71,2.13,2.13,0,0,0-1.82-1.08,2.75,2.75,0,0,0-2.31,1.31,5.54,5.54,0,0,0-.93,3.28,4.74,4.74,0,0,0,.72,2.71A2.15,2.15,0,0,0,507.13,649.77Z"/><path class="cls-2" d="M514,644.9l-1.08,1a3.57,3.57,0,0,1-.15-1,3.51,3.51,0,0,1,1.52-2.95,5.14,5.14,0,0,1,3.12-.84h4q2.46,0,2.46-1.52a1.53,1.53,0,0,0-.36-1l.83-.8a1.68,1.68,0,0,1,.29,1,2.65,2.65,0,0,1-1.18,2.19,4.7,4.7,0,0,1-2.91.88h-1.84l-.5,4.48-.08.74a3.07,3.07,0,0,1-.41,1.36,2.89,2.89,0,0,1-1.13.82l1.93.1-.79.77-3.23-.15.85-.82.72.08a2.72,2.72,0,0,0,1-2.09l.07-.64.51-4.64h-1.13q-2.77,0-2.77,1.84A2.37,2.37,0,0,0,514,644.9Z"/><path class="cls-2" d="M526.07,650.31a2.61,2.61,0,0,1-2.12-1,4.06,4.06,0,0,1-.83-2.63,5.82,5.82,0,0,1,1.58-4.06,4.9,4.9,0,0,1,3.73-1.73,2.66,2.66,0,0,1,2.16,1,4,4,0,0,1,.83,2.64,5.8,5.8,0,0,1-1.59,4.08A5,5,0,0,1,526.07,650.31Zm.87-.54a2.73,2.73,0,0,0,2.3-1.32,5.55,5.55,0,0,0,.92-3.27,4.76,4.76,0,0,0-.72-2.71,2.13,2.13,0,0,0-1.82-1.08,2.75,2.75,0,0,0-2.31,1.31,5.54,5.54,0,0,0-.93,3.28,4.74,4.74,0,0,0,.72,2.71A2.15,2.15,0,0,0,526.94,649.77Z"/><path class="cls-2" d="M539.36,645.57l.19.38a29.78,29.78,0,0,0,1.5,2.68q.44.64.82.66.6,0,.93-.91.22.13.22.27a1.75,1.75,0,0,1-.56,1q-.56.62-.94.62-.55,0-1.43-1.21a17.22,17.22,0,0,1-1.75-3.15l-.62,0-.64,0,0,.44-.09.76a3.09,3.09,0,0,1-.4,1.36,2.88,2.88,0,0,1-1.13.81l1.56.1-.8.77L533.3,650l.85-.82.72.08a2.72,2.72,0,0,0,1-2.09l.07-.64.56-5q-3,.57-3,2.27a2.52,2.52,0,0,0,.28,1.21l-1.07.94a3.91,3.91,0,0,1-.14-1,3.51,3.51,0,0,1,1.53-2.94,6.43,6.43,0,0,1,3.94-1.14q3.27,0,3.27,2.08Q541.31,644.47,539.36,645.57Zm-1.79-4.07-.43,3.85a6.11,6.11,0,0,0,1,.09,5.16,5.16,0,0,0,.9-.09,2.48,2.48,0,0,0,1.19-2.06Q540.2,641.5,537.57,641.5Z"/><path class="cls-2" d="M553.54,641l-1.89,1.81a6.33,6.33,0,0,1-.27-1.8,5.88,5.88,0,0,1,2.23-4.8,9.09,9.09,0,0,1,5.91-1.81h.92q-.52,2.66-.63,3.57l-.63,5.67L559,645a5.36,5.36,0,0,1-.71,2.38,5.05,5.05,0,0,1-2,1.43l3.36.17-1.39,1.35-5.65-.26,1.48-1.44,1.26.14q1.41-.89,1.74-3.65l.13-1.12.9-8.12h-.36q-4.83,0-4.83,3.19A4.19,4.19,0,0,0,553.54,641Z"/><path class="cls-2" d="M562.86,644.9l-1.07,1a3.57,3.57,0,0,1,1.08-3.75,4.5,4.5,0,0,1,3.09-1.09l.48,0,.32,0h.07a3.18,3.18,0,0,0,0,.33,6.08,6.08,0,0,0,1.77,3.47l.5.58.44.52a11.14,11.14,0,0,1,1.1,1.52L571,644a9.14,9.14,0,0,1,1.53-4.62,3.67,3.67,0,0,1,2.82-1.51,3.23,3.23,0,0,1,1.14.21l-1,1a2.19,2.19,0,0,0-1.07-.35,1.7,1.7,0,0,0-1.56.94,9.76,9.76,0,0,0-.83,3.29l-.7,5.61-.84,1.72a8.24,8.24,0,0,0-.65-1.86,13.12,13.12,0,0,0-1.37-1.87l-.51-.62a11.27,11.27,0,0,1-1.66-2.54l-.33,3-.08.72a3.64,3.64,0,0,1-.34,1.3,3.43,3.43,0,0,1-.94.94l1.46.13-.79.77-2.88-.15.85-.82.74.07a2,2,0,0,0,.7-.79,5.13,5.13,0,0,0,.3-1.4l.06-.58.51-4.59h-.31q-2.75,0-2.75,1.82A2.4,2.4,0,0,0,562.86,644.9Z"/><path class="cls-2" d="M574.83,644.9l-1.07,1a3.57,3.57,0,0,1,1.08-3.75,4.5,4.5,0,0,1,3.09-1.09l.48,0,.32,0h.07a3.18,3.18,0,0,0,0,.33,6.08,6.08,0,0,0,1.77,3.47l.5.58.44.52a11.14,11.14,0,0,1,1.1,1.52L583,644a9.14,9.14,0,0,1,1.53-4.62,3.67,3.67,0,0,1,2.82-1.51,3.23,3.23,0,0,1,1.14.21l-1,1a2.19,2.19,0,0,0-1.07-.35,1.7,1.7,0,0,0-1.56.94,9.76,9.76,0,0,0-.83,3.29l-.7,5.61-.84,1.72a8.24,8.24,0,0,0-.65-1.86,13.12,13.12,0,0,0-1.37-1.87l-.51-.62a11.27,11.27,0,0,1-1.66-2.54l-.33,3-.08.72a3.64,3.64,0,0,1-.34,1.3,3.43,3.43,0,0,1-.94.94l1.46.13-.79.77-2.88-.15.85-.82.74.07a2,2,0,0,0,.7-.79,5.13,5.13,0,0,0,.3-1.4l.06-.58.51-4.59h-.31q-2.75,0-2.75,1.82A2.4,2.4,0,0,0,574.83,644.9Z"/></g><g class="cls-1"><path class="cls-2" d="M366.63,665.75v-6.13h1.43V662h4.45v-2.38h1.44v6.13h-1.44v-2.64h-4.45v2.64Z"/><path class="cls-2" d="M375.87,665.75l3-5H380l3,5h-1.37l-.63-1.1h-3.32l-.63,1.1Zm2.38-2h2.3l-1.17-2.09Z"/><path class="cls-2" d="M384.3,665.75v-5h1l2.46,3,2.45-3h1v5H390v-3.46l-2.24,2.85h-.24l-2.27-2.77v3.37Z"/><path class="cls-2" d="M393.41,665.75v-5h1.22v5Z"/><path class="cls-2" d="M396.87,665.75v-5h1.24v4.08H402v.94Z"/><path class="cls-2" d="M405.11,661.63v4.12h-1.22v-4.12h-2.42v-.9h6.08v.9Z"/><path class="cls-2" d="M409,661.91a1.26,1.26,0,0,1,.27-.93,1.57,1.57,0,0,1,1-.25h3.88a1.56,1.56,0,0,1,1,.25,1.27,1.27,0,0,1,.26.93v2.65a1.27,1.27,0,0,1-.27.94,1.57,1.57,0,0,1-1,.25H410.3a1.57,1.57,0,0,1-1-.25,1.27,1.27,0,0,1-.27-.94Zm1.22,2.88h4v-3.14h-4Z"/><path class="cls-2" d="M417.61,665.75v-5h.84l4.26,3.33v-3.33h1.11v5H423l-4.25-3.39v3.39Z"/><path class="cls-2" d="M430.11,663.2V662h2.77v1.22Z"/><path class="cls-2" d="M438.46,665.75l3.47-6.13h1.37l3.51,6.13h-1.6l-.74-1.34h-3.88l-.71,1.34Zm2.74-2.45h2.68l-1.32-2.49Z"/><path class="cls-2" d="M452.42,661.65h-3.3v3.14h3.3v-1.07l1.24.25v.59a1.26,1.26,0,0,1-.27.94,1.58,1.58,0,0,1-1,.25H449.2a1.57,1.57,0,0,1-1-.25,1.26,1.26,0,0,1-.27-.94v-2.65a1.26,1.26,0,0,1,.27-.93,1.57,1.57,0,0,1,1-.25h3.14a1.59,1.59,0,0,1,1,.25,1.25,1.25,0,0,1,.27.93v.49l-1.24.18Z"/><path class="cls-2" d="M460.07,661.65h-3.3v3.14h3.3v-1.07l1.23.25v.59a1.26,1.26,0,0,1-.27.94,1.58,1.58,0,0,1-1,.25h-3.14a1.57,1.57,0,0,1-1-.25,1.26,1.26,0,0,1-.27-.94v-2.65a1.26,1.26,0,0,1,.27-.93,1.57,1.57,0,0,1,1-.25H460a1.59,1.59,0,0,1,1,.25,1.25,1.25,0,0,1,.27.93v.49l-1.23.18Z"/><path class="cls-2" d="M463.19,661.91a1.26,1.26,0,0,1,.27-.93,1.56,1.56,0,0,1,1-.25h3.89a1.56,1.56,0,0,1,1,.25,1.27,1.27,0,0,1,.26.93v2.65a1.27,1.27,0,0,1-.27.94,1.57,1.57,0,0,1-1,.25H464.5a1.56,1.56,0,0,1-1-.25,1.27,1.27,0,0,1-.27-.94Zm1.22,2.88h4v-3.14h-4Z"/><path class="cls-2" d="M471.8,665.75v-5h1l2.46,3,2.45-3h1v5h-1.14v-3.46l-2.24,2.85h-.24l-2.27-2.77v3.37Z"/><path class="cls-2" d="M480.91,665.75v-5h1l2.46,3,2.45-3h1v5h-1.14v-3.46l-2.24,2.85h-.24l-2.27-2.77v3.37Z"/><path class="cls-2" d="M489.9,661.91a1.26,1.26,0,0,1,.27-.93,1.56,1.56,0,0,1,1-.25h3.89a1.56,1.56,0,0,1,1,.25,1.27,1.27,0,0,1,.26.93v2.65a1.27,1.27,0,0,1-.27.94,1.57,1.57,0,0,1-1,.25H491.2a1.56,1.56,0,0,1-1-.25,1.27,1.27,0,0,1-.27-.94Zm1.22,2.88h4v-3.14h-4Z"/><path class="cls-2" d="M498.51,665.75v-5h3.38a3.42,3.42,0,0,1,2.24.65,2.26,2.26,0,0,1,.78,1.85,2.24,2.24,0,0,1-.83,1.9,4.08,4.08,0,0,1-2.5.63Zm1.24-.94h1.58a3.2,3.2,0,0,0,1.81-.38,1.8,1.8,0,0,0,.09-2.43,1.94,1.94,0,0,0-1.32-.38h-2.16Z"/><path class="cls-2" d="M505.78,665.75l3-5h1.18l3,5h-1.37l-.63-1.1h-3.32l-.63,1.1Zm2.38-2h2.3l-1.17-2.09Z"/><path class="cls-2" d="M516.56,661.63v4.12h-1.22v-4.12h-2.42v-.9H519v.9Z"/><path class="cls-2" d="M520.57,665.75v-5h1.22v5Z"/><path class="cls-2" d="M523.9,661.91a1.26,1.26,0,0,1,.27-.93,1.56,1.56,0,0,1,1-.25h3.89a1.56,1.56,0,0,1,1,.25,1.27,1.27,0,0,1,.26.93v2.65a1.27,1.27,0,0,1-.27.94,1.57,1.57,0,0,1-1,.25h-3.89a1.56,1.56,0,0,1-1-.25,1.27,1.27,0,0,1-.27-.94Zm1.22,2.88h4v-3.14h-4Z"/><path class="cls-2" d="M532.51,665.75v-5h.84l4.26,3.33v-3.33h1.11v5h-.85l-4.25-3.39v3.39Z"/></g><g class="cls-1"><path class="cls-2" d="M479,606.41H450.33a15.77,15.77,0,0,0,4.28-3.59,8.38,8.38,0,0,0,1.74-5.12V541.5l-3.46-2.07a7.37,7.37,0,0,1-2.3-2.33H479a26.5,26.5,0,0,0-4.48,4,4.8,4.8,0,0,0-.9,1.44,7.1,7.1,0,0,0-.77,3.23v56.11l3.07,2A17.06,17.06,0,0,1,479,606.41Z"/></g><path class="cls-3" d="M420.4,572.93,405,554.34v-1.67a8.09,8.09,0,0,1,.51-2.87,4.65,4.65,0,0,1,.59-1.27,20.65,20.65,0,0,1,3-3.58H390.24a6.07,6.07,0,0,0,1.53,2.07l2.29,1.83v49.84a9.18,9.18,0,0,1-1.15,4.54,11.9,11.9,0,0,1-2.83,3.19h19a12.78,12.78,0,0,0-2-2.23l-2-1.75V565l17.39,21h0l30-24.81V546.46Z"/><rect class="cls-3" x="373.77" y="614.71" width="153.12" height="3.44"/><rect class="cls-3" x="373.77" y="611.89" width="153.12" height="1.72"/><path class="cls-3" d="M478.82,556.22,480,555l.28.07a9.08,9.08,0,0,0,1,.2,2.36,2.36,0,0,0,1-1.11,11.3,11.3,0,0,0,.47-2.52l.77-6.91a5.48,5.48,0,0,0-3,1,2.73,2.73,0,0,0-1.14,2.24,3,3,0,0,0,.4,1.52l-1.48,1.3a5.42,5.42,0,0,1-.19-1.43,4.87,4.87,0,0,1,2.12-4.06,8.79,8.79,0,0,1,5.41-1.58q4.25,0,4.25,2.44,0,2.08-3,3.33,2.89,1,2.89,3.22a3.16,3.16,0,0,1-1.79,2.81,9.46,9.46,0,0,1-4.79,1A33.76,33.76,0,0,1,478.82,556.22Zm5.61-6-.14,1.23-.08.77a4.38,4.38,0,0,1-.55,1.92,4.61,4.61,0,0,1-1.66,1.2,22.19,22.19,0,0,0,3.59.3q2.87,0,2.87-2.28a2.88,2.88,0,0,0-.79-1.9,4,4,0,0,0-1.92-1.24h-.24l-.44,0-.41,0Zm.62-5.59-.54,4.85q.54,0,.94,0a10.38,10.38,0,0,0,1.06-.06,3.21,3.21,0,0,0,2-2.71Q488.47,544.64,485.05,544.64Z"/><path class="cls-3" d="M488.44,569.53a.32.32,0,0,1,.21.29q0,.61-1.11,1.6a6.25,6.25,0,0,1-4.28,1.68,3.8,3.8,0,0,1-3.09-1.4,5.74,5.74,0,0,1-1.15-3.76,7.89,7.89,0,0,1,2.16-5.65,7.08,7.08,0,0,1,5.35-2.28,10.12,10.12,0,0,1,3.37.62l-.62,1.35-.17.39q-.22.47-.54.47l-.19,0a1.19,1.19,0,0,0,.13-.47q0-.61-.82-1.07a3.88,3.88,0,0,0-1.92-.46,4.43,4.43,0,0,0-3.65,1.77,7.2,7.2,0,0,0-1.4,4.61,5.66,5.66,0,0,0,1,3.5,3.13,3.13,0,0,0,2.63,1.3,4.55,4.55,0,0,0,2.37-.71A4.61,4.61,0,0,0,488.44,569.53Z"/></g><g class="cls-1"><path class="cls-3" d="M803.15,283.15a29.53,29.53,0,0,0-10-1.72h-.05a5,5,0,0,0-5,5v2.12a15,15,0,0,0,4.4,10.63c.21.21.43.42.66.62a15,15,0,0,0,2.58,1.84,5.77,5.77,0,0,0,.87.46h0c.29.14.58.27.88.39a9.71,9.71,0,1,1-14.05,8.69h0c0-.34,0-.67-.06-1h.06v-7.47a15,15,0,0,0-15-15,5,5,0,0,0-5,5v18.56h0A29.79,29.79,0,0,0,793.18,341h26.75a3,3,0,0,0,3-3V311.19A29.81,29.81,0,0,0,803.15,283.15Zm-34.72,8.14a11.41,11.41,0,0,1,11.3,10.07,15,15,0,0,0-11.3-5.14h0a5,5,0,0,0-1.41.23V292.7A1.41,1.41,0,0,1,768.43,291.29Zm50.91,46.06h-12a30,30,0,0,0,12-12Z"/><g class="cls-1"><path class="cls-2" d="M722.21,386h-8.8l-4-9v-7.21h.67c1.74,0,2.63-.75,2.63-2.29,0-1.29-1-2-3.06-2h-1.47V386h-8.32V358h10.66a11.22,11.22,0,0,1,7.75,2.56,8.76,8.76,0,0,1,2.83,6.78,8.66,8.66,0,0,1-3.7,7.11Z"/><path class="cls-2" d="M733.12,360.77a3.7,3.7,0,1,1-7.4,0,3.46,3.46,0,0,1,1.09-2.58,3.72,3.72,0,0,1,5.22,0A3.46,3.46,0,0,1,733.12,360.77Z"/><rect class="cls-2" x="725.52" y="366.18" width="7.7" height="19.83"/><path class="cls-2" d="M757,375.23V386h-7.63V374.46c0-1.17-.5-1.74-1.49-1.74s-1.42.57-1.42,1.74V386h-7.7V374.63a9.4,9.4,0,0,1,2.66-6.73,8.56,8.56,0,0,1,6.46-2.78,8.65,8.65,0,0,1,6.66,2.66Q757,370.42,757,375.23Z"/><path class="cls-2" d="M782.76,376.47v6.71a13.1,13.1,0,0,1-3,8.85,9.74,9.74,0,0,1-7.7,3.45,13.59,13.59,0,0,1-4.32-.72v-7a7.15,7.15,0,0,0,3.16.84,3.81,3.81,0,0,0,3.08-1.39,6.11,6.11,0,0,0,1.14-3.93v-7.7c0-2.14-.87-3.23-2.61-3.23a2.58,2.58,0,0,0-1.94.84,2.72,2.72,0,0,0-.82,2,2.6,2.6,0,0,0,.77,2,2.72,2.72,0,0,0,1.94.77,3.51,3.51,0,0,0,1.54-.37v7a10,10,0,0,1-3.23.57,8.25,8.25,0,0,1-6.29-2.76,9.78,9.78,0,0,1-2.56-6.91,9.91,9.91,0,0,1,3.11-7.38,10.46,10.46,0,0,1,7.58-3c3.25,0,5.74,1,7.5,2.93S782.76,372.82,782.76,376.47Z"/><path class="cls-2" d="M822.84,386H814l-4-9v-7.21h.7c1.74,0,2.63-.75,2.63-2.29,0-1.29-1-2-3.06-2H808.8V386h-8.32V358h10.66a11.22,11.22,0,0,1,7.75,2.56,8.76,8.76,0,0,1,2.83,6.78,8.66,8.66,0,0,1-3.7,7.11Z"/><path class="cls-2" d="M843.58,368.32a10.5,10.5,0,0,0-15.11,0,10.48,10.48,0,0,0-3.18,7.63,10.73,10.73,0,0,0,21.47,0A10.48,10.48,0,0,0,843.58,368.32Zm-5.34,9.81A3,3,0,0,1,836,379a3.06,3.06,0,0,1-2.21-.89,2.93,2.93,0,0,1-.92-2.19,3.13,3.13,0,1,1,6.26,0A2.93,2.93,0,0,1,838.24,378.14Z"/><path class="cls-2" d="M871.86,376v10h-7.7v-9.49a3.77,3.77,0,0,0-.82-2.56,2.61,2.61,0,0,0-2.09-1,2.86,2.86,0,0,0-2.09.89,2.93,2.93,0,0,0-.89,2.14,2.71,2.71,0,0,0,.77,2,2.83,2.83,0,0,0,2.14.82,3.76,3.76,0,0,0,1.81-.5v7.9a8.48,8.48,0,0,1-1.74.2,10.47,10.47,0,0,1-7.7-3.08,10.16,10.16,0,0,1-3.11-7.58,10.69,10.69,0,0,1,10.68-10.68A10.58,10.58,0,0,1,869,368,10.93,10.93,0,0,1,871.86,376Z"/><path class="cls-2" d="M898.2,358v17.32a11.45,11.45,0,0,1-3,8.22,10,10,0,0,1-7.55,3.18,10.51,10.51,0,0,1-7.73-3.13,10.68,10.68,0,0,1,0-15.08,10.07,10.07,0,0,1,7.4-3.13c.47,0,1.17,0,2.06.12V374a3.69,3.69,0,0,0-2.11-.7,2.48,2.48,0,0,0-1.89.8,2.93,2.93,0,0,0-.8,2.11,2.84,2.84,0,0,0,.87,2.06,2.87,2.87,0,0,0,2.14.87c2,0,2.93-1.37,2.93-4.1V358Z"/></g></g><g class="cls-1"><path class="cls-3" d="M784,887.46l-13.37,6.69a2.44,2.44,0,0,1-3.54-2.19V824.73a2.44,2.44,0,0,1,1.35-2.19l13.37-6.69a2.44,2.44,0,0,1,3.54,2.19v67.23A2.44,2.44,0,0,1,784,887.46Z"/><path class="cls-3" d="M808.25,816.24v68.52a.54.54,0,0,0-.06.11,2.43,2.43,0,0,1-2.51,2c-4.41,0-8.81,0-13.22,0a2.86,2.86,0,0,1-1.32-.35,2.46,2.46,0,0,1-1.2-2.37q0-33.64,0-67.27c0-.14,0-.29,0-.43a2.41,2.41,0,0,1,1.85-2.23l.27-.08h14a2.51,2.51,0,0,1,1.66,1A8.4,8.4,0,0,1,808.25,816.24Z"/><path class="cls-3" d="M827.51,894.18,814,887.45a2.4,2.4,0,0,1-1.33-2.15V818a2.4,2.4,0,0,1,3.48-2.15l13.46,6.73A2.4,2.4,0,0,1,831,824.7V892A2.4,2.4,0,0,1,827.51,894.18Z"/><path class="cls-3" d="M799,923.67h0a1.93,1.93,0,0,1-1.44-.73c-.14-.17-24.14-15.25-24.14-15.25a4.68,4.68,0,0,1-1.65-4.74c.33-1.28,11.64-5.75,11.64-5.75a45.45,45.45,0,0,1,31.32,0c5,1.85,11.18,4.44,11.51,5.72a4.68,4.68,0,0,1-1.65,4.74s-24,15.08-24.14,15.25A1.93,1.93,0,0,1,799,923.67Z"/><g class="cls-1"><path class="cls-2" d="M829.16,928.2H768.89a2.34,2.34,0,0,1,0-4.57h60.27a2.34,2.34,0,0,1,0,4.57Z"/></g><path class="cls-3" d="M771.18,937.51c-1.4-.54-1.82-.93-1.82-1.66,0-.55.42-1.2,1.59-1.2a3.72,3.72,0,0,1,1.79.45l.36.19.59-1.73-.25-.14a4.94,4.94,0,0,0-2.44-.55c-2.16,0-3.66,1.29-3.66,3.13,0,1.47,1,2.53,2.93,3.23,1.44.55,1.72,1,1.72,1.72,0,.88-.68,1.41-1.81,1.41a4.37,4.37,0,0,1-2.2-.62l-.38-.23-.54,1.78.21.14a5.62,5.62,0,0,0,2.81.71c2.72,0,3.93-1.66,3.93-3.3S773.17,938.27,771.18,937.51Z"/><path class="cls-3" d="M777.36,933.71l-2,.53v1.69h-1.14v1.7h1.14v3.68a3,3,0,0,0,.6,2.14,2.18,2.18,0,0,0,1.7.68,3.61,3.61,0,0,0,1.32-.21l.22-.09-.1-1.66-.4.11a2.68,2.68,0,0,1-.69.08c-.34,0-.66-.08-.66-1.09v-3.63h1.92v-1.7h-1.92Z"/><path class="cls-3" d="M786,941.88v-2.76c0-2.16-1.12-3.36-3.14-3.36a4.9,4.9,0,0,0-2.61.71l-.22.14.53,1.54.36-.24a3.32,3.32,0,0,1,1.73-.49c.85,0,1.27.38,1.33,1.18a5.26,5.26,0,0,0-3.66,1.17,2.59,2.59,0,0,0-.76,1.91,2.44,2.44,0,0,0,2.59,2.46,3.19,3.19,0,0,0,2-.71l.06.54h1.93l-.07-.4A9.93,9.93,0,0,1,786,941.88Zm-2-1.66v.94a1.09,1.09,0,0,1-.06.32,1.51,1.51,0,0,1-1.46,1,.85.85,0,0,1-.92-.94,1,1,0,0,1,.29-.75A3.23,3.23,0,0,1,784,940.22Z"/><path class="cls-3" d="M789.26,936.61l0-.68h-1.87l0,.36c0,.63.06,1.33.06,2.28V944h2v-4.27a3.42,3.42,0,0,1,.06-.56,1.54,1.54,0,0,1,1.46-1.44,1.68,1.68,0,0,1,.38,0l.41.09v-2l-.26-.06A2.33,2.33,0,0,0,789.26,936.61Z"/><path class="cls-3" d="M795.57,933.71l-2,.53v1.69h-1.14v1.7h1.14v3.68a3,3,0,0,0,.6,2.14,2.18,2.18,0,0,0,1.7.68,3.61,3.61,0,0,0,1.32-.21l.22-.09-.1-1.66-.4.11a2.68,2.68,0,0,1-.69.08c-.34,0-.66-.08-.66-1.09v-3.63h1.92v-1.7h-1.92Z"/><path class="cls-3" d="M801.64,933a15.88,15.88,0,0,0-2.6.2l-.28,0V944h2v-4.05a7,7,0,0,0,.73,0,4.56,4.56,0,0,0,3.38-1.23,3.36,3.36,0,0,0,.89-2.43,3.1,3.1,0,0,0-1-2.4A4.53,4.53,0,0,0,801.64,933Zm2.11,3.4c0,1.61-1.4,1.85-2.23,1.85a5.36,5.36,0,0,1-.76,0v-3.43C801.49,934.65,803.75,934.41,803.75,936.36Z"/><path class="cls-3" d="M809.9,935.76a4,4,0,0,0-4,4.25,3.84,3.84,0,0,0,3.87,4.13,4,4,0,0,0,4-4.25A3.84,3.84,0,0,0,809.9,935.76Zm1.84,4.18c0,1.46-.8,2.52-1.9,2.52s-1.9-1-1.9-2.49c0-1.26.6-2.52,1.93-2.52S811.74,939.08,811.74,939.94Z"/><rect class="cls-3" x="814.81" y="935.93" width="2.02" height="8.05"/><path class="cls-3" d="M815.82,933a1.17,1.17,0,0,0,0,2.34,1.21,1.21,0,0,0,.89-.35,1.11,1.11,0,0,0,.31-.82A1.13,1.13,0,0,0,815.82,933Z"/><path class="cls-3" d="M822.38,935.76a3.11,3.11,0,0,0-2.18.84l0-.67h-1.88l0,.37c0,.56.06,1.15.06,2V944h2v-4.77a1.61,1.61,0,0,1,.08-.52,1.58,1.58,0,0,1,1.47-1.13c.91,0,1.37.62,1.37,1.84V944h2v-4.74C825.33,936.67,823.74,935.76,822.38,935.76Z"/><path class="cls-3" d="M831,937.63v-1.7h-1.92v-2.22l-2,.53v1.69h-1.14v1.7h1.14v3.68a3,3,0,0,0,.6,2.14,2.18,2.18,0,0,0,1.7.68,3.61,3.61,0,0,0,1.32-.21l.22-.09-.1-1.66-.4.11a2.68,2.68,0,0,1-.69.08c-.34,0-.66-.08-.66-1.09v-3.63Z"/></g><g class="cls-1"><g class="cls-1"><path class="cls-2" d="M89,807.1a4.91,4.91,0,0,1,2,0Z"/><path class="cls-2" d="M60.19,857.79a5.53,5.53,0,0,1-2,0Z"/><path class="cls-2" d="M59.68,811.18v-1.42A2.64,2.64,0,0,1,59.68,811.18Z"/><path class="cls-2" d="M85.64,817.4h1.2A2,2,0,0,1,85.64,817.4Z"/><path class="cls-2" d="M132.87,828.08a3.71,3.71,0,0,1,.07-1.25A3.84,3.84,0,0,1,132.87,828.08Z"/><path class="cls-2" d="M88.54,847.85c-.39,0-.79.11-1.17-.07A3.85,3.85,0,0,1,88.54,847.85Z"/><path class="cls-2" d="M75.34,852.66h-.9A1.13,1.13,0,0,1,75.34,852.66Z"/><path class="cls-2" d="M116.32,906.12a1,1,0,0,1,0,.85Z"/><path class="cls-2" d="M104,883.33a1.48,1.48,0,0,1,.07.75C103.87,883.85,104,883.58,104,883.33Z"/><path class="cls-2" d="M104,882.09c0,.25.07.51-.07.75C104,882.59,103.87,882.33,104,882.09Z"/><path class="cls-2" d="M60.69,831.19a1.48,1.48,0,0,1-.75.07C60.18,831.1,60.44,831.21,60.69,831.19Z"/><path class="cls-2" d="M63.89,817.76c.2-.14.43-.06.65-.07C64.33,817.85,64.1,817.75,63.89,817.76Z"/><path class="cls-2" d="M135.52,844.28a1.11,1.11,0,0,1-.06.65C135.47,844.71,135.38,844.49,135.52,844.28Z"/><path class="cls-2" d="M116.39,902c0,.22.08.45-.06.66C116.34,902.45,116.25,902.22,116.39,902Z"/><path class="cls-2" d="M132.77,830.68c0-.22-.06-.44.07-.65C132.82,830.24,132.92,830.47,132.77,830.68Z"/><path class="cls-2" d="M61.34,817.7c.22,0,.44-.07.65.07C61.77,817.75,61.54,817.85,61.34,817.7Z"/><path class="cls-2" d="M135.46,847.33c.13.21.06.43.07.65C135.38,847.78,135.47,847.55,135.46,847.33Z"/><path class="cls-2" d="M73.54,858.16c-.18,0-.38.06-.55-.07C73.17,858.1,73.37,858,73.54,858.16Z"/><path class="cls-2" d="M108.43,906.9a.92.92,0,0,1-.56.07C108,906.83,108.25,906.91,108.43,906.9Z"/><path class="cls-2" d="M32.09,849.93l-.11.29c-.09,0-.14,0-.1-.1s0-.25.1-.34Z"/><path class="cls-2" d="M76.39,858.09c-.17.13-.36.06-.55.07C76,858,76.2,858.1,76.39,858.09Z"/><path class="cls-2" d="M84.63,807.3a.92.92,0,0,1,.56-.07C85,807.37,84.82,807.29,84.63,807.3Z"/><path class="cls-2" d="M128.55,817.87c-.08,0-.19-.11-.17-.14s.26-.06.38,0Z"/><path class="cls-2" d="M92.57,906.39a.92.92,0,0,1-.56.07C92.18,906.32,92.38,906.4,92.57,906.39Z"/><path class="cls-2" d="M159.39,859.51a13.26,13.26,0,0,0-1.87-4.3,29.23,29.23,0,0,0-3.15-4.12,36.25,36.25,0,0,0-3.43-3.47c-.52-.44-1.2-.84-1.44-1.41-.65-1.5-1.21-3-1.9-4.51,0-.06-.08-.12,0-.18s.12,0,.2,0a17.67,17.67,0,0,0,2.2.83,9.63,9.63,0,0,0,3.92.18c.25,0,.43-.12.28-.49-.54-1.37-1.09-2.73-1.73-4.06a26.09,26.09,0,0,0-7.68-9.94,13.63,13.63,0,0,0-6.9-2.84,3.28,3.28,0,0,1-2.31-1.12,58,58,0,0,0-7-6.23c0-.24.12-.13.22-.11a4.09,4.09,0,0,1,.5,0l8.69,1.73a22.55,22.55,0,0,0,4.63.63.8.8,0,0,0,.76-.36c.16-.28,0-.54-.18-.77a35.6,35.6,0,0,0-6.92-7.14,29.25,29.25,0,0,0-8.17-4.45,28.16,28.16,0,0,0-8.12-1.5,13.11,13.11,0,0,0-1.8,0,34.72,34.72,0,0,0-9.4,1.69,1.19,1.19,0,0,1-.73,0,52.35,52.35,0,0,0-6.14-1.39c-.18,0-.36-.08-.53-.12s-.51.05-.7-.19l.16-.14a22.49,22.49,0,0,1,7.59-3.2c.11,0,.27,0,.3-.12s-.17-.17-.26-.23a16.18,16.18,0,0,0-7.69-2.47c-.21-.07-.44,0-.65-.07a4.09,4.09,0,0,1-1.2,0c-.21.09-.44,0-.65.07-1,.09-2,.2-3.06.39a33.88,33.88,0,0,0-6.67,2,48.89,48.89,0,0,0-6.39,3.2,5.48,5.48,0,0,1-1.89,1,47.67,47.67,0,0,0-4.88,1.07,8.69,8.69,0,0,1-1.85.43,36.38,36.38,0,0,1,2-3.59,4.45,4.45,0,0,1,2.22-1.94c0-.13-.05-.14-.13-.14a14.35,14.35,0,0,0-1.54,0,13.47,13.47,0,0,0-7.85,3.63,18.15,18.15,0,0,0-4,5.42c-.06.13-.12.31-.22.36-1.31.63-2.6,1.31-3.9,2l.19-1.53a7.24,7.24,0,0,0,0-1.4c0-.24-.07-.49-.13-.73-.12-.52-.47-.66-1-.43a2.42,2.42,0,0,0-.91,1c-1.19,1.9-2.19,3.91-3.31,5.85a2.75,2.75,0,0,1-.61.92c-1.16.8-2.27,1.66-3.35,2.56-1.35,1.14-2.68,2.31-3.94,3.55s-2.37,2.31-3.48,3.55c-.84.94-1.72,1.84-2.51,2.83-1.07,1.34-2.15,2.67-3.11,4.1a54.06,54.06,0,0,0-6.4,12.69,55.36,55.36,0,0,0-1.64,5.83c-.37,1.61-.61,3.24-.85,4.87-.18,1.21-.17,2.45-.25,3.67-.05.83-.06,10.4.14,13.55a48.2,48.2,0,0,0,1.28,7.72,60.66,60.66,0,0,0,2,7c.69,1.89,1.43,3.75,2.28,5.57a62.72,62.72,0,0,0,5.67,9.71,59.85,59.85,0,0,0,4.67,5.83A43.52,43.52,0,0,0,48,913.48c1.36,1.21,2.7,2.45,4.12,3.59,1.23,1,2.51,1.9,3.79,2.81a49,49,0,0,0,5.51,3.36,62.27,62.27,0,0,0,8.09,3.63c2,.72,4,1.33,6.11,1.86,1.77.45,5.74,1.08,5.92,1.16,1,.08,5,.32,5.75.33q2.15.07,4.3,0c.75,0,8-.5,9.73-.72,2.06-.27,4.11-.61,6.15-1.05a62,62,0,0,0,7.79-2.25,53.86,53.86,0,0,0,9.75-4.6,48,48,0,0,0,10.76-8.85c.79-.87,1.54-1.77,2.27-2.7a40.21,40.21,0,0,0,5.16-8.75,39.15,39.15,0,0,0,3.42-13.81,12.92,12.92,0,0,0,0-1.9c0-.46-.09-.92-.12-1.39a16.61,16.61,0,0,0-1.66-6.18,25.42,25.42,0,0,0-7.17-8.94,19.73,19.73,0,0,0-21.16-2.19,32.69,32.69,0,0,0-4.47,2.58,19.22,19.22,0,0,0-2.78,2.22c-.56.58-1.15,1.13-1.68,1.75a15.14,15.14,0,0,0-2.26,3.55,17.75,17.75,0,0,0-1.25,5.1,18,18,0,0,0,0,3,23.54,23.54,0,0,0,1.09,4.43,10.64,10.64,0,0,0,2.41,3.9,5,5,0,0,0,3.84,1.59,3.78,3.78,0,0,0,3.56-2.23c.11-.24.24-.34.47-.1a9.28,9.28,0,0,1,.88,1.16.22.22,0,0,1,0,.27,2.05,2.05,0,0,0,.18,1.87,6,6,0,0,0,.7,1.21c.07.1.28.31,0,.45a2.25,2.25,0,0,0-1,1.65,11,11,0,0,0-.25,2.08c-.06.21,0,.44-.06.65a33.46,33.46,0,0,1,0,3.4,1.58,1.58,0,0,1,0,.83l-.78.34a7.46,7.46,0,0,0-2.4,1.35c-.29.28-.48.31-.79,0a8.44,8.44,0,0,0-2.29-1.5c-.48-.19-1-.14-1.49-.3-.18.08-.37,0-.55.07a10,10,0,0,0-2.53.69c-.91.4-1.81.92-2.73,0a20.58,20.58,0,0,0-6.85-1.29c-1,0-2,0-2.94,0-.18.08-.37,0-.55.07l-.94.12a23.21,23.21,0,0,0-6.61,1.58.79.79,0,0,1-.77,0A11.94,11.94,0,0,0,78.82,906a19.72,19.72,0,0,0-8.23.91.86.86,0,0,1-.69,0,9.5,9.5,0,0,0-4-.88,17.57,17.57,0,0,0-4.32.53c-.14,0-.33.16-.42,0-.31-.53-.77-1-.73-1.68.09-1.6.38-3.18.61-4.76.34-2.29.8-4.56,1.34-6.81a64.75,64.75,0,0,1,3.79-11.91A17.21,17.21,0,0,1,69,876.76,7.07,7.07,0,0,1,72,875a31.33,31.33,0,0,0,6.53-3.38,47.64,47.64,0,0,0,5.08-3.86A26.31,26.31,0,0,0,88,863.17a.38.38,0,0,1,.31-.2l6.48-.69c1.35-.15,2.7-.27,4-.43l7.14-.87c1.65-.2,3.3-.39,4.95-.63,2.37-.34,4.73-.71,7.09-1.07,2.2-.34,4.39-.72,6.55-1.26a15.75,15.75,0,0,1,2.31-.63c1.78-.16,3.56-.28,5.43-.42-.21-.08-.33-.14-.45-.18-5.34-1.47-10.67-3-16.06-4.25-3.34-.79-6.69-1.56-10.05-2.26-2-.41-4-.77-6-1.12s-3.84-.62-5.77-.87-3.6-.38-5.4-.44c-.39-.08-.79.06-1.17-.08-.08-.1-.17-.2-.24-.31a49,49,0,0,0-7.55-8.62,32.92,32.92,0,0,0-8-5.36,23.46,23.46,0,0,0-9.19-2.31,12.4,12.4,0,0,1-1.69,0c-.24.09-.5,0-.75.07a36.14,36.14,0,0,0-6.71,1,17.91,17.91,0,0,0-5.11,2,1,1,0,0,0-.39.35c-.08.16,0,.34.14.59a24.43,24.43,0,0,0,4.73,5.45c1.08.92,2.18,1.8,3.33,2.63a54.17,54.17,0,0,0,6.14,3.75c1.18.64,2.4,1.2,3.6,1.77a3.41,3.41,0,0,0,2.18.52,18.8,18.8,0,0,1,6.5-.08A20.88,20.88,0,0,1,80.16,851a21.43,21.43,0,0,1,4.17,2.59c.45.35,1.13.64,1.05,1.44,0,.15,0,.25-.16.32-1.15.53-2.23,1.21-3.44,1.63a17.32,17.32,0,0,1-5.39,1.08c-.18.08-.37,0-.55.07a20.59,20.59,0,0,1-2.3,0c-.18-.06-.37,0-.55-.07a26.43,26.43,0,0,1-6.1-1,1.42,1.42,0,0,0-.77-.11,14.12,14.12,0,0,1-2,.44,18.59,18.59,0,0,1-3.9.35,10,10,0,0,1-2,0,20.44,20.44,0,0,1-3.12-.2,34.91,34.91,0,0,1-5.35-1,51.87,51.87,0,0,1-15.13-6.86,1.15,1.15,0,0,0-.78-.27c-.16,0-.41-.35-.38-.44a66.81,66.81,0,0,1,2.72-7.94A50.7,50.7,0,0,1,41,832.78a45.44,45.44,0,0,1,4-5A66.33,66.33,0,0,1,52,821.21c1.73-1.34,3.47-2.66,5.32-3.83a.47.47,0,0,1,.36-.11,23.1,23.1,0,0,0,3.61.43c.21.07.44,0,.65.07a10.73,10.73,0,0,1,1.9,0c.21-.08.44,0,.65-.07a15.27,15.27,0,0,0,8.37-2.82c-4.43.72-7.53-.53-8.43-1.37q2.16-1,4.38-1.81a.72.72,0,0,1,.79.11,12.19,12.19,0,0,0,1.52.95,42,42,0,0,0,7.13,3,28.53,28.53,0,0,0,7.35,1.64,6,6,0,0,0,1.2,0A4.07,4.07,0,0,0,90,816c-.18-.11-.36-.22-.54-.34a21.89,21.89,0,0,1-3.8-3.37c-1-1.14-2-2.32-2.93-3.55-.16-.21-.23-.28.14-.32.63-.08,2.27-.18,2.45-.24.35,0,3.07-.21,3.75-.13a8.54,8.54,0,0,1,1.93,0c.49.81,1,1.61,1.49,2.42a80.2,80.2,0,0,0,5.76,8.24c1,1.22,2,2.38,3,3.53a36,36,0,0,0,3.7,3.5,28.8,28.8,0,0,0,3.42,2.46,16.4,16.4,0,0,0,7.67,2.63,13.87,13.87,0,0,0,2.47,0,2.31,2.31,0,0,0-.17-.21,8.28,8.28,0,0,1-2.67-5.09,20,20,0,0,0-.66-3.28,33.4,33.4,0,0,0-4.26-8.23c-.69-1-1.43-2-2.21-3.08.72.17,1.32.44,1.93.64a57.94,57.94,0,0,1,7.6,3.19,3,3,0,0,1,1.45,1.23,31,31,0,0,1,2.08,4.78c.69,2,1.37,4,1.92,6.07.6,2.24,1.31,4.45,1.92,6.69s1.19,4.22,1.87,6.3a42.19,42.19,0,0,0,2,5.28c0,.09,0,.26.18.26s.19-.17.26-.26A47.79,47.79,0,0,0,132,838a71.78,71.78,0,0,0,.73-7.32c.07-.21,0-.44.07-.65q0-1,0-2c.07-.41,0-.84.07-1.25a7.42,7.42,0,0,1,0-1.43c.18,0,.24.15.33.24.84.84,1.7,1.67,2.48,2.57s1.42,1.57,2.1,2.39c.49.59.48.62.22,1.32-.59,1.62-1,3.28-1.44,5-.37,1.42-.58,2.87-.85,4.31a29.57,29.57,0,0,0-.25,3.12c-.06.21.18,5.73.35,6.74a20.11,20.11,0,0,0,2.89,7.64,6.1,6.1,0,0,0,1.09,1.43.82.82,0,0,0,.09-.46c.07-1,.1-2,.22-2.93.25-2.09.5-4.19.88-6.27a39.26,39.26,0,0,1,2.11-7.89,7.1,7.1,0,0,1,1.23-2.18,58.09,58.09,0,0,1,2.93,6.22c.53,1.3,1,2.64,1.47,4a1,1,0,0,1,0,.8,44,44,0,0,0-1.69,5.33q-.54,2-.9,4.06a30.73,30.73,0,0,0-.5,3.85,6.45,6.45,0,0,0,1.84-.89,10.59,10.59,0,0,0,3.07-3.69c.09-.16.14-.36.37-.38l.44,5.23c.06.76.13,1.52.19,2.28.07.93.07.93-.74,1.33-.43.21-.87.4-1.29.62a4.58,4.58,0,0,0-1.58,1.27,2.61,2.61,0,0,0-.11,2.47,23.77,23.77,0,0,0,1.16,2.74,3,3,0,0,1,.29,1.57c-.12.8-.28,1.6-.44,2.39a5.68,5.68,0,0,0-.07,2.77c0,.12.11.35.32.09a4.28,4.28,0,0,1,.33-.37,26.25,26.25,0,0,0,2.65-3.78,10.29,10.29,0,0,0,2.28-7.55c-.11-.78,0-1.69-.64-2.22s-.52-1.42-.64-2.15c0-.25,0-.5-.05-.75-.12-1.5-.24-3-.35-4.51s-.26-3.14-.47-4.7a8,8,0,0,1-.23-1.58c.6.42,1.12.85,1.64,1.27a35.76,35.76,0,0,0,5.48,3.68c.1.05.2.2.33.1S159.42,859.63,159.39,859.51Zm-46.65-1.24c-2.55.33-5.11.67-7.67,1s-4.89.56-7.34.83c-2.61.29-5.23.54-7.84.85-.46.05-.62-.08-.74-.46a31.2,31.2,0,0,1-.82-3.69c-.15-.75-.13-.74.66-.8a71.22,71.22,0,0,1,10.47,0c3.25.26,6.48.59,9.7,1.15,2,.35,4.12.52,6.21.75C114.51,858,113.63,858.16,112.75,858.27ZM88,850.32a.53.53,0,0,1,.61-.37,68.61,68.61,0,0,1,7.34.76c3.7.53,7.37,1.22,11,2q7,1.42,13.92,3.16a47,47,0,0,1-7.41-.31c-4.62-.55-9.22-1.25-13.89-1.38-3.78-.11-7.55-.26-11.33-.28-.26,0-.46,0-.51-.33A5.72,5.72,0,0,1,88,850.32ZM70.63,918c-1.4-1.63-2.82-3.24-4.23-4.86l-.24-.28c2.52-.07,4.93-.11,7.34,0a31.66,31.66,0,0,1,6.36.83,9.18,9.18,0,0,1,2.47,1,2.61,2.61,0,0,0,3.42-.79,3.48,3.48,0,0,0,.62-1c.22-.63.7-.73,1.25-.76a13.88,13.88,0,0,1,4.78.85,52.16,52.16,0,0,1,6.19,2.43,1,1,0,0,0,.85,0,7.86,7.86,0,0,0,2.35-1.17,4.83,4.83,0,0,1,4.06-.81c3,.47,6,1.25,9,2a.87.87,0,0,0,.83-.14,5.41,5.41,0,0,1,3.63-1.12c.87,0,1.75,0,2.76,0a34.2,34.2,0,0,1-3.51,2,74.84,74.84,0,0,1-8.8,3.66.87.87,0,0,1-.75-.09,31.13,31.13,0,0,0-6.53-2.61,7.5,7.5,0,0,0-5.49.35A7.88,7.88,0,0,0,95.06,919a.42.42,0,0,1-.62.07,18.17,18.17,0,0,0-5.22-2.15,6,6,0,0,0-5.5,1.27c-.16.14-.3.27-.56.17a15.16,15.16,0,0,0-5.51-.69,41.76,41.76,0,0,0-6.2.57A.78.78,0,0,1,70.63,918Zm46.62-34.13a5.22,5.22,0,0,0-3.41,3.44,12.44,12.44,0,0,0-.76,4,1.52,1.52,0,0,1-1.65,1.57,3.07,3.07,0,0,1-2.29-.93,8,8,0,0,1-2-3.38,14.79,14.79,0,0,1-.57-8.72,13.05,13.05,0,0,1,3.77-6.22,24.49,24.49,0,0,1,11.12-6.24A16.66,16.66,0,0,1,135.29,870a21.53,21.53,0,0,1,8.38,11,17.55,17.55,0,0,1,.71,7.4,38.68,38.68,0,0,1-7.42,19.47,44.54,44.54,0,0,1-15.61,13.33,57.93,57.93,0,0,1-16.22,5.52A87.85,87.85,0,0,1,94.63,928c-.35,0-.68,0-.83-.38s.15-.57.36-.8a2.74,2.74,0,0,1,1.49-.62,124.75,124.75,0,0,0,21.09-6.7,35.73,35.73,0,0,0,9.08-5.3,23,23,0,0,0,8-12.77c.18-.83.27-1.67.4-2.55a5.23,5.23,0,0,0-1.27.28c-.58.14-.69.06-.64-.53A8.3,8.3,0,0,1,133,896a1,1,0,0,1,.75-.59,1.18,1.18,0,0,0,1-1.07,1.25,1.25,0,0,0-.67-1.24,4,4,0,0,1-2-3.13,4,4,0,0,1,.18-1.47.5.5,0,0,0-.17-.61,2.41,2.41,0,0,1-.67-2.81.87.87,0,0,0,0-.53,4.77,4.77,0,0,0-1.09-2.2,1.69,1.69,0,0,0-1.88-.54,1.1,1.1,0,0,1-.94-.21,1.35,1.35,0,0,0-2,.16,1.13,1.13,0,0,1-1.24.33,1.91,1.91,0,0,0-1.08-.13l.58,1.43c.25.63.16.93-.45,1.27a3.65,3.65,0,0,1-3.57,0,2.89,2.89,0,0,1-.92-.58A1.33,1.33,0,0,0,117.26,883.85Zm-52.07,23.6a7.9,7.9,0,0,1,4.69,1.06c.23.15.41.05.61,0a18.62,18.62,0,0,1,6.74-1.15,13.09,13.09,0,0,1,5.13,1,3.82,3.82,0,0,1,1.18.74.48.48,0,0,0,.65.09,22.7,22.7,0,0,1,8.36-2,25.16,25.16,0,0,1,7.72.61,8.14,8.14,0,0,1,1.9.71,1.36,1.36,0,0,1,.56.39c.33.59.7.44,1.17.2a24.46,24.46,0,0,1,2.75-1.13,3.62,3.62,0,0,1,3.93.75c2.2,2,4.88,2.43,7.71,2.3a25.85,25.85,0,0,0,9.72-2.68l.36-.16a16.46,16.46,0,0,1-3.13,3.66,5.5,5.5,0,0,1-2.36.84,15.06,15.06,0,0,1-3.88.18,6.45,6.45,0,0,0-3.73,1.05.73.73,0,0,1-.65.09c-2.6-.66-5.2-1.34-7.86-1.78a10.2,10.2,0,0,0-3.47-.16,4.42,4.42,0,0,0-1.73.71,12,12,0,0,1-2,1.16,1,1,0,0,1-.84,0,45.38,45.38,0,0,0-7.7-2.78,9.17,9.17,0,0,0-4.34-.26,2,2,0,0,0-1.52,1.3,2.64,2.64,0,0,1-.64.94,1.12,1.12,0,0,1-1.6.22,13.17,13.17,0,0,0-4.62-1.46,51.49,51.49,0,0,0-8.86-.54,38,38,0,0,0-4,.13.76.76,0,0,1-.75-.34c-.86-1.06-1.74-2.1-2.58-3.23A13,13,0,0,1,65.19,907.45Zm-17.44-20.8a17.42,17.42,0,0,1,13.51-10.17,19.41,19.41,0,0,1,4.52-.24c.41,0,.83,0,1.26,0-3.75,4.3-5.63,9.54-7.3,14.87a78.71,78.71,0,0,0-2.66,11.32,10.62,10.62,0,0,0-.26,3.36,6.91,6.91,0,0,0,1.12,2.58,51.73,51.73,0,0,0,5.46,6.93q3.15,3.52,6.55,6.79a.71.71,0,0,1,.11.95.92.92,0,0,1-1.16.27q-1-.48-2-1A51,51,0,0,1,54.21,913a29.23,29.23,0,0,1-6.92-10.25A20.18,20.18,0,0,1,47.75,886.65Z"/><path class="cls-2" d="M102.76,887.69a2.58,2.58,0,0,0-2-2.12h-.8a2.33,2.33,0,0,0-2,1.58,2.43,2.43,0,0,0,.49,2.6,2.3,2.3,0,0,0,2.45.68,2.45,2.45,0,0,0,1.86-2.15A1.37,1.37,0,0,0,102.76,887.69Zm-2.47,2.1A1.78,1.78,0,0,1,98.53,888a1.76,1.76,0,0,1,3.52.05A1.76,1.76,0,0,1,100.3,889.79Z"/><path class="cls-2" d="M113.38,895.65a2,2,0,0,0-2.13,2.07,2.07,2.07,0,0,0,2.08,2.16,2.11,2.11,0,1,0,0-4.23Zm0,3.51a1.42,1.42,0,0,1-1.38-1.44,1.39,1.39,0,0,1,2.78.06A1.41,1.41,0,0,1,113.43,899.16Z"/><path class="cls-2" d="M103.21,892.09a1.68,1.68,0,0,0,0,3.36,1.68,1.68,0,1,0,0-3.36Zm0,2.64a1,1,0,0,1-1-1,1,1,0,1,1,1.94,0A1,1,0,0,1,103.23,894.73Z"/><path class="cls-2" d="M97.75,895.64a1.23,1.23,0,0,0-1.6,1v.5a1.13,1.13,0,0,0,.78,1,1.41,1.41,0,0,0,1.75-.86A1.32,1.32,0,0,0,97.75,895.64Zm-.33,1.82c-.36,0-.56-.22-.54-.6a.52.52,0,0,1,.55-.54.57.57,0,1,1,0,1.13Z"/><path class="cls-2" d="M75.34,852.66a4,4,0,0,1,3,1.69c.4.55.34.72-.25,1a3,3,0,0,1-3.21-.06,13,13,0,0,0-3.47-1.52,6.13,6.13,0,0,1,3.08-1.14A3.08,3.08,0,0,1,75.34,852.66Z"/></g><g class="cls-1"><path class="cls-2" d="M16,850.67l-.42,2.91-5.51,1.91,4.73,3.39-.42,2.87L6.92,856.4l-6.16-.9.4-2.73,6.16.9Z"/><path class="cls-2" d="M14.39,863.72v7.85H11.7v-5.13H9.1v5.13H6.47v-5.13H2.69v5.13H0v-7.85Z"/><path class="cls-2" d="M14.62,873.9l.33,2.72L3.26,878l.48,4-2.59.32-.81-6.68Z"/><path class="cls-2" d="M15.83,882.45l.63,2.66L5,887.83l.92,3.88-2.54.6-1.55-6.55Z"/><path class="cls-2" d="M20.66,896.86a7.13,7.13,0,0,1,0,5.69,7.34,7.34,0,0,1-4.12,4.1,7.28,7.28,0,0,1-5.75.05,7.51,7.51,0,0,1-4-9.84,7.42,7.42,0,0,1,4.09-4,7.45,7.45,0,0,1,3.88-.54,7.53,7.53,0,0,1,6,4.56Zm-2.48,1a4.52,4.52,0,0,0-2.57-2.57,4.83,4.83,0,0,0-3.78.1,4.59,4.59,0,0,0-2.82,3,4.7,4.7,0,0,0,.17,3.24,4.47,4.47,0,0,0,2.58,2.52,4.79,4.79,0,0,0,3.73-.07,4.79,4.79,0,0,0,2.68-2.61A4.51,4.51,0,0,0,18.18,897.87Z"/><path class="cls-2" d="M23.66,904.94l1.56,2.2-6.28,7,9-3.22,1.32,1.85-6,7.44,8.68-3.64,1.56,2.2-13.6,5.69-1.52-2.14,6-7.54L15.33,918l-1.5-2.12Z"/><path class="cls-2" d="M29.58,925.48,33.1,929l-1.75,1.76-3.52-3.51Z"/><path class="cls-2" d="M41,925.57l6.18,4.84-1.65,2.11-4-3.17-1.6,2,4,3.17-1.62,2.07-4-3.17-2.33,3,4,3.17-1.66,2.12-6.18-4.85Z"/><path class="cls-2" d="M48.13,931.2l2.55,1.46-.25,5.82,4.89-3.15,2.52,1.45-7.71,5L47,947.15l-2.39-1.37,3.1-5.4Z"/><path class="cls-2" d="M59.73,937.52l7.3,2.88-1,2.49L61.28,941l-1,2.42,4.77,1.88-1,2.45-4.77-1.89L58,949.4l4.77,1.88-1,2.5-7.3-2.88Z"/><path class="cls-2" d="M69.17,941.15l3.17.71a10.65,10.65,0,0,1,4.38,1.77,6.07,6.07,0,0,1,1.9,3,8.85,8.85,0,0,1-1.13,7.06,6.3,6.3,0,0,1-2,1.92,5.37,5.37,0,0,1-2.33.78,15.12,15.12,0,0,1-3.91-.51L66,955.18Zm2.08,3.17-2,8.85,1.24.28a6.37,6.37,0,0,0,2.75.17,3.28,3.28,0,0,0,1.67-1.11A5.28,5.28,0,0,0,76,950.18a4.76,4.76,0,0,0-.47-3.75,5.12,5.12,0,0,0-3.37-1.92Z"/><path class="cls-2" d="M88.1,944.2l2.9,0a9.61,9.61,0,0,1,3.4.39,3.45,3.45,0,0,1,1.66,1.39,4.35,4.35,0,0,1,.63,2.32,3.92,3.92,0,0,1-.76,2.51,4.07,4.07,0,0,1-2.12,1.42,12.42,12.42,0,0,1-2.88.26l.08,6.09-2.74,0Zm2.81,5.59h.87a4.76,4.76,0,0,0,1.43-.16,1.27,1.27,0,0,0,.62-.49,1.44,1.44,0,0,0,.22-.82,1.3,1.3,0,0,0-.66-1.21,3.65,3.65,0,0,0-1.74-.26h-.77Z"/><path class="cls-2" d="M99.06,943.83l7.76-1.17.4,2.65-5.08.76.38,2.57,5.08-.76.39,2.6-5.08.76.56,3.74,5.08-.76.4,2.66-7.76,1.17Z"/><path class="cls-2" d="M109.08,942.26l2.5-.8,8.74,7.15-2.87-9,2.61-.83,4.37,13.7-2.51.8-8.72-7.12,2.86,9-2.61.83Z"/><path class="cls-2" d="M135.53,933.25l-.75,2.61a5.69,5.69,0,0,0-4.67.39,4.87,4.87,0,0,0-2.42,3,4.62,4.62,0,0,0,.42,3.69,4.74,4.74,0,0,0,3,2.36,5.07,5.07,0,0,0,3.91-.53,4.53,4.53,0,0,0,1.8-1.69,4.21,4.21,0,0,0,.46-2.4l-3.63,2-1.25-2.24,6.31-3.53.31.52a7,7,0,0,1,.9,3.6,6.84,6.84,0,0,1-1,3.49,7.24,7.24,0,0,1-2.75,2.56,8.12,8.12,0,0,1-4,1.1,7.11,7.11,0,0,1-3.78-1.06,7.73,7.73,0,0,1-2.79-2.89,7.22,7.22,0,0,1-.78-5.25,7.45,7.45,0,0,1,3.86-5,8.87,8.87,0,0,1,3.4-1.11A8,8,0,0,1,135.53,933.25Z"/><path class="cls-2" d="M136.87,929.3l2.1-1.77,6,7.11a4.83,4.83,0,0,0,1.26,1.17,1.69,1.69,0,0,0,1,.16,2.2,2.2,0,0,0,1.09-.53,2.28,2.28,0,0,0,.74-1.06,1.75,1.75,0,0,0,0-1.11,6.26,6.26,0,0,0-1.11-1.63l-5.77-6.85,2.11-1.77,5.52,6.56a12.44,12.44,0,0,1,1.75,2.46,4.28,4.28,0,0,1,.33,1.84,4.35,4.35,0,0,1-.47,1.91,5.42,5.42,0,0,1-1.36,1.63,5.06,5.06,0,0,1-2.55,1.2,4.19,4.19,0,0,1-2.43-.31,9.51,9.51,0,0,1-2.73-2.47Z"/><path class="cls-2" d="M146.21,921l1.86-2,10.49,9.84-1.86,2Z"/><path class="cls-2" d="M150,917l1.57-2.11,11.26.71-7.59-5.65,1.63-2.2,11.54,8.58-1.57,2.11-11.24-.7,7.57,5.63-1.63,2.2Z"/><path class="cls-2" d="M160.16,901.36l3.15-7.3,2.48,1.07-1,2.41,10.73,4.63-1.1,2.55-10.73-4.63-1,2.34Z"/><path class="cls-2" d="M163.93,892.34l.8-2.79a9.61,9.61,0,0,1,1.34-3.14,3.46,3.46,0,0,1,1.8-1.17,4.31,4.31,0,0,1,2.42.05,4,4,0,0,1,2.09,1.31,4.11,4.11,0,0,1,.82,2.37l7.08-1.51-.82,2.88-6.75,1.43-.07.24,5.86,1.68-.75,2.63Zm6.16-1.08.24-.82a3.36,3.36,0,0,0,.17-1.82,1.29,1.29,0,0,0-1-.79,1.39,1.39,0,0,0-.85,0,1.35,1.35,0,0,0-.66.49,5,5,0,0,0-.56,1.4l-.21.72Z"/><path class="cls-2" d="M166.8,881.69l.34-2.73,9.23,1.14a4.79,4.79,0,0,0,1.71,0,1.69,1.69,0,0,0,.88-.59,2.2,2.2,0,0,0,.44-1.12,2.29,2.29,0,0,0-.18-1.28,1.75,1.75,0,0,0-.75-.82,6.3,6.3,0,0,0-1.92-.44l-8.89-1.1L168,872l8.51,1.05a12.41,12.41,0,0,1,3,.61,4.61,4.61,0,0,1,2.45,2.85,5.38,5.38,0,0,1,.12,2.12,5.07,5.07,0,0,1-1,2.61,4.19,4.19,0,0,1-2,1.42,9.52,9.52,0,0,1-3.69,0Z"/><path class="cls-2" d="M169.82,861.52l1.84,2a2.88,2.88,0,0,0-1.43,2.21,1.34,1.34,0,0,0,.31.87.85.85,0,0,0,.66.33,1.12,1.12,0,0,0,.68-.26,18.79,18.79,0,0,0,1.8-2q1.27-1.6,1.6-1.94a5.74,5.74,0,0,1,1.58-1.22,4,4,0,0,1,1.67-.39,3.85,3.85,0,0,1,3,1.15,4.45,4.45,0,0,1,1.23,3.16,4.76,4.76,0,0,1-.68,2.7,6,6,0,0,1-2.32,2l-1.44-2.27q1.88-1.08,1.85-2.43a1.76,1.76,0,0,0-.44-1.18,1.23,1.23,0,0,0-1-.46,1.64,1.64,0,0,0-1,.39,10.6,10.6,0,0,0-1.46,1.63,16,16,0,0,1-2.88,3.11,3.74,3.74,0,0,1-2.06.74,3.4,3.4,0,0,1-2.59-1.08,4,4,0,0,1-1.14-2.79,4.43,4.43,0,0,1,.45-2.06A7.48,7.48,0,0,1,169.82,861.52Z"/><path class="cls-2" d="M167.75,860.31l-1.14-7.86,2.67-.39.38,2.59L181.22,853l.4,2.75-11.56,1.67.37,2.53Z"/></g></g><g class="cls-1"><path class="cls-3" d="M820.26,536.43a42,42,0,0,0-39,26.07h0v0c-.43,1.06-.83,2.15-1.17,3.25-2.59,5.1-5.81,0-5.81,0v0a21,21,0,1,0,0,24.44v0s3.55-4.38,5.88.15c.28.89.6,1.77.94,2.63v0h0a41.91,41.91,0,1,0,39.14-56.65Zm0,62.35a20.79,20.79,0,1,1,21-20.78A20.89,20.89,0,0,1,820.26,598.78Z"/><g class="cls-1"><path class="cls-2" d="M806.37,650.52q.53-3.3,1.06-6.61a.8.8,0,0,1,.2-.41c1.08-1.18,2.18-2.35,3.25-3.52.19-.21.38-.23.75-.14,1.28.32,2.45.73,2.71,1.52a3.16,3.16,0,0,1,0,1.47c-.28,1.82-.58,3.64-.89,5.46-.17,1-.36,2.05-.55,3.08a.39.39,0,0,1-.22.25c-.73.34-1.5.67-2.23,1a.52.52,0,0,1-.54,0c-1.11-.57-2.25-1.12-3.36-1.7-.16-.09-.17-.26-.25-.39Z"/><path class="cls-2" d="M837.76,652.75l-3-1.49-.1-.05c-.77-.22-.75-.59-.67-1,.21-1.07.38-2.15.55-3.23s.33-2.12.51-3.18a.79.79,0,0,1,.22-.35q1.63-1.77,3.29-3.54a.59.59,0,0,1,.35-.12c1.47.28,2.72.73,3,1.6a2.65,2.65,0,0,1,0,1.33c-.22,1.44-.47,2.87-.71,4.3s-.49,2.92-.74,4.38a.24.24,0,0,1-.13.18Z"/><path class="cls-2" d="M810.21,653.22c.66.37,1.3.73,1.92,1.1a.3.3,0,0,1,.16.27q-.39,2.57-.81,5.13c-.26,1.59-.58,3.17-.76,4.76-.09.78-.79,1.22-2.07,1.48-.51.1-1,.18-1.57.27-.23,0-.34,0-.42-.12-.71-1.16-1.47-2.3-2.12-3.47-.16-.3,0-.65,0-1,.24-1.59.49-3.19.75-4.78.08-.52.16-1,.27-1.55a.38.38,0,0,1,.22-.26Z"/><path class="cls-2" d="M837.77,653.23l2.06,1.15a.16.16,0,0,1,.08.16q-.49,3.13-1,6.26c-.22,1.33-.46,2.65-.67,4-.06.4-.39.71-1,.88-.81.22-1.68.37-2.52.55-.24.05-.36,0-.44-.13-.69-1.12-1.45-2.24-2.07-3.38a1.77,1.77,0,0,1,0-1.12c.21-1.39.44-2.77.66-4.16.11-.71.22-1.42.34-2.13a.37.37,0,0,1,.22-.23Z"/><path class="cls-2" d="M809.94,639.78l-2.05,2.29c-.3.33-.61.66-.89,1a.63.63,0,0,1-.56.2l-9.21-.06a3.16,3.16,0,0,1-.59-.08l-6.19-1.24c-.32-.06-.42-.14-.37-.33.29-1.06,1.71-1.7,3.86-1.71l4.35,0,6.09,0Z"/><path class="cls-2" d="M837.6,639.73,836.42,641l-1.83,2a.62.62,0,0,1-.54.18c-3.07,0-6.14,0-9.21-.06a6.38,6.38,0,0,1-1.16-.19l-5.61-1.12c-.33-.07-.42-.15-.38-.33.19-.9,1.46-1.59,3.21-1.67,1.09-.05,2.2,0,3.3-.06l7.22-.05,5.57,0Z"/><path class="cls-2" d="M813.82,664.61c1.77-.38,3.4-.69,5-1.07a21.39,21.39,0,0,1,5.66-.58c2.22,0,4.44,0,6.66,0a.89.89,0,0,1,.48.12c.66,1.07,1.3,2.14,2,3.23l-1.54,0-7.65,0-5.66,0c-.52,0-1,0-1.56,0a3.5,3.5,0,0,1-1.9-.59C814.72,665.44,814.32,665,813.82,664.61Z"/><path class="cls-2" d="M786.33,664.58l3-.64,4.21-.9a3.49,3.49,0,0,1,.68-.08l9.25,0c.36,0,.52.06.63.24.57,1,1.16,2,1.74,2.92a1.52,1.52,0,0,1,.08.19l-1.51,0-7.27,0-6,0c-.52,0-1,0-1.55,0a3.86,3.86,0,0,1-.81-.12A4,4,0,0,1,786.33,664.58Z"/><path class="cls-2" d="M809.35,653l-3.82,1.65a1.5,1.5,0,0,1-.52.08l-9.26,0a1.55,1.55,0,0,1-.49-.05l-3.87-1.53,2.81-1.1.27-.1a6.29,6.29,0,0,1,3.38-.6l7.55-.09a1.7,1.7,0,0,1,.66.13C807.15,651.93,808.23,652.46,809.35,653Z"/><path class="cls-2" d="M773.33,650.52q.53-3.3,1.06-6.61a.8.8,0,0,1,.2-.41c1.08-1.18,2.18-2.35,3.25-3.52.19-.21.38-.23.75-.14,1.28.32,2.45.73,2.71,1.52a3.16,3.16,0,0,1,0,1.47c-.28,1.82-.58,3.64-.89,5.46-.17,1-.36,2.05-.55,3.08a.39.39,0,0,1-.22.25c-.73.34-1.5.67-2.23,1a.52.52,0,0,1-.54,0c-1.11-.57-2.25-1.12-3.36-1.7-.16-.09-.17-.26-.25-.39Z"/><path class="cls-2" d="M783.46,639.55q.35-2.19.71-4.38a.53.53,0,0,1,.13-.27c.71-.78,1.45-1.56,2.15-2.34.13-.14.25-.16.5-.09.85.21,1.62.49,1.8,1a2.1,2.1,0,0,1,0,1c-.18,1.21-.39,2.41-.59,3.62-.11.68-.24,1.36-.37,2a.26.26,0,0,1-.15.17l-1.48.67a.35.35,0,0,1-.36,0c-.74-.38-1.5-.74-2.23-1.13-.11-.06-.11-.17-.16-.26Z"/><path class="cls-2" d="M845.39,639.55q.35-2.19.71-4.38a.53.53,0,0,1,.13-.27c.71-.78,1.45-1.56,2.15-2.34.13-.14.25-.16.5-.09.85.21,1.62.49,1.8,1a2.1,2.1,0,0,1,0,1c-.18,1.21-.39,2.41-.59,3.62-.11.68-.24,1.36-.37,2a.26.26,0,0,1-.15.17l-1.48.67a.35.35,0,0,1-.36,0c-.74-.38-1.5-.74-2.23-1.13-.11-.06-.11-.17-.16-.26Z"/><path class="cls-2" d="M852.2,639.55q.35-2.19.71-4.38a.53.53,0,0,1,.13-.27c.71-.78,1.45-1.56,2.15-2.34.13-.14.25-.16.5-.09.85.21,1.62.49,1.8,1a2.1,2.1,0,0,1,0,1c-.18,1.21-.39,2.41-.59,3.62-.11.68-.24,1.36-.37,2a.26.26,0,0,1-.15.17l-1.48.67a.35.35,0,0,1-.36,0c-.74-.38-1.5-.74-2.23-1.13-.11-.06-.11-.17-.16-.26Z"/><path class="cls-2" d="M777.17,653.22c.66.37,1.3.73,1.92,1.1a.3.3,0,0,1,.16.27q-.39,2.57-.81,5.13c-.26,1.59-.58,3.17-.76,4.76-.09.78-.79,1.22-2.07,1.48-.51.1-1,.18-1.57.27-.23,0-.34,0-.42-.12-.71-1.16-1.47-2.3-2.12-3.47-.16-.3,0-.65,0-1,.24-1.59.49-3.19.75-4.78.08-.52.16-1,.27-1.55a.38.38,0,0,1,.22-.26Z"/><path class="cls-2" d="M776.91,639.78l-2.05,2.29c-.3.33-.61.66-.89,1a.63.63,0,0,1-.56.2l-9.21-.06a3.16,3.16,0,0,1-.59-.08l-6.19-1.24c-.32-.06-.42-.14-.37-.33.29-1.06,1.71-1.7,3.86-1.71l4.35,0,6.09,0Z"/><path class="cls-2" d="M753.3,664.58l3-.64,4.21-.9a3.49,3.49,0,0,1,.68-.08l9.25,0c.36,0,.52.06.63.24.57,1,1.16,2,1.74,2.92a1.52,1.52,0,0,1,.08.19l-1.51,0-7.27,0-6,0c-.52,0-1,0-1.55,0a3.86,3.86,0,0,1-.81-.12A4,4,0,0,1,753.3,664.58Z"/><path class="cls-2" d="M776.32,653l-3.82,1.65a1.5,1.5,0,0,1-.52.08l-9.26,0a1.55,1.55,0,0,1-.49-.05l-3.87-1.53,2.81-1.1.27-.1a6.29,6.29,0,0,1,3.38-.6l7.55-.09a1.7,1.7,0,0,1,.66.13C774.12,651.93,775.19,652.46,776.32,653Z"/><path class="cls-2" d="M837,653l-3.85,1.67a1.25,1.25,0,0,1-.43.07l-9.35,0a1.49,1.49,0,0,1-.48-.06L819,653.18l1.31-.51,3-1.16a1.72,1.72,0,0,1,.55-.11l6.65-.07,2.5,0a1.53,1.53,0,0,1,.56.08C834.68,651.9,835.79,652.44,837,653Z"/></g></g><g class="cls-1"><g class="cls-1"><path class="cls-2" d="M25.17,375.24a3,3,0,0,0,.75-.72,3.45,3.45,0,0,0,.47-.95,3.55,3.55,0,0,0,.17-1.1,3.32,3.32,0,0,0-.23-1.2,3.47,3.47,0,0,0-.64-1.06,3.34,3.34,0,0,0-1-.76,2.8,2.8,0,0,0-1.28-.3H19.08v10.17h1.58v-3.52H23l2.24,3.52H27l-2.42-3.81A2.62,2.62,0,0,0,25.17,375.24Zm-.63-1.45a1.49,1.49,0,0,1-.48.4,1.28,1.28,0,0,1-.61.14H20.66v-3.71h2.71a1.36,1.36,0,0,1,.6.14,1.67,1.67,0,0,1,.52.39,2,2,0,0,1,.49,1.3,2.19,2.19,0,0,1-.12.72A2.08,2.08,0,0,1,24.54,373.79Z"/><path class="cls-2" d="M34.82,372.77a3.85,3.85,0,0,0-1.2-.86,3.74,3.74,0,0,0-3,0,3.87,3.87,0,0,0-1.19.86A4,4,0,0,0,28.6,374a4.08,4.08,0,0,0-.28,1.51,4.13,4.13,0,0,0,.28,1.5,3.91,3.91,0,0,0,.78,1.26,3.77,3.77,0,0,0,1.2.86,3.64,3.64,0,0,0,1.53.32,3.68,3.68,0,0,0,1.53-.32,3.75,3.75,0,0,0,1.2-.86,3.89,3.89,0,0,0,.78-1.26,4.12,4.12,0,0,0,.28-1.5,4.07,4.07,0,0,0-.28-1.51A4,4,0,0,0,34.82,372.77Zm-.49,2.75a2.64,2.64,0,0,1-.18,1,2.55,2.55,0,0,1-.49.8,2.3,2.3,0,0,1-.71.53,2,2,0,0,1-1.7,0,2.13,2.13,0,0,1-.7-.52,2.66,2.66,0,0,1-.48-.79,2.62,2.62,0,0,1-.18-1,2.73,2.73,0,0,1,.18-1,2.61,2.61,0,0,1,.49-.81,2.26,2.26,0,0,1,.71-.54,1.88,1.88,0,0,1,.84-.19,1.93,1.93,0,0,1,.85.19,2.29,2.29,0,0,1,.71.53,2.52,2.52,0,0,1,.49.8A2.65,2.65,0,0,1,34.33,375.52Z"/><path class="cls-2" d="M44.11,377.91a.22.22,0,0,1,0-.08v-3.15a3,3,0,0,0-.85-2.27,3.14,3.14,0,0,0-2.29-.83,5,5,0,0,0-2.81,1l-.24.16.63,1.18.3-.21a5,5,0,0,1,1.07-.58,2.78,2.78,0,0,1,1-.19,1.6,1.6,0,0,1,1.22.45,1.72,1.72,0,0,1,.43,1.25v.18a5.72,5.72,0,0,0-.61-.14,5.57,5.57,0,0,0-2.41.07,3.27,3.27,0,0,0-1,.48,2.37,2.37,0,0,0-.7.77,2,2,0,0,0-.25,1,2.4,2.4,0,0,0,.77,1.78,2.64,2.64,0,0,0,.84.53,2.8,2.8,0,0,0,1,.19,4.07,4.07,0,0,0,1.71-.36,3.54,3.54,0,0,0,.81-.51.93.93,0,0,0,.29.53,1.09,1.09,0,0,0,.76.26,2.55,2.55,0,0,0,.4,0l.26,0v-1.37Zm-1.56-1a.36.36,0,0,1,0,.13.75.75,0,0,1-.15.21,1.85,1.85,0,0,1-.78.6,2.85,2.85,0,0,1-1.18.24,1.48,1.48,0,0,1-.54-.1,1.35,1.35,0,0,1-.43-.26,1.23,1.23,0,0,1-.28-.39,1.11,1.11,0,0,1-.1-.47.9.9,0,0,1,.46-.79,2.49,2.49,0,0,1,1.39-.35,5,5,0,0,1,.94.09,5.32,5.32,0,0,1,.69.18Z"/><path class="cls-2" d="M53.7,377.83v-8.94H52.15v3.67a4.1,4.1,0,0,0-.57-.47,3.06,3.06,0,0,0-1.75-.52,3.19,3.19,0,0,0-1.42.32,3.47,3.47,0,0,0-1.11.86,4.09,4.09,0,0,0-.72,1.26,4.42,4.42,0,0,0-.26,1.51,4.11,4.11,0,0,0,.27,1.48,4,4,0,0,0,.75,1.25,3.74,3.74,0,0,0,1.16.87,3.35,3.35,0,0,0,1.48.33,3.29,3.29,0,0,0,1.63-.44,3.48,3.48,0,0,0,.67-.49,1,1,0,0,0,.33.56,1.16,1.16,0,0,0,.77.29,2.08,2.08,0,0,0,.38,0l.26-.05v-1.36h-.32A.23.23,0,0,1,53.7,377.83Zm-2.27-.25a2.62,2.62,0,0,1-.64.33,1.84,1.84,0,0,1-1.5-.08,2.33,2.33,0,0,1-.73-.54,2.51,2.51,0,0,1-.49-.79,2.59,2.59,0,0,1-.18-1,2.9,2.9,0,0,1,.16-.94,2.52,2.52,0,0,1,.45-.8,2.24,2.24,0,0,1,.69-.56,1.85,1.85,0,0,1,.87-.2,1.88,1.88,0,0,1,.63.12,2.45,2.45,0,0,1,.62.33,2.85,2.85,0,0,1,.52.5,2.09,2.09,0,0,1,.32.54v2.05a1.16,1.16,0,0,1-.23.53A2.17,2.17,0,0,1,51.43,377.57Z"/><polygon class="cls-2" points="63.06 377.24 62.08 374.88 63.4 371.71 61.93 371.71 61.23 373.45 60.54 371.71 59.07 371.71 60.4 374.88 59.42 377.24 57.08 371.7 55.5 371.7 58.78 379.33 59.95 379.33 61.23 376.27 62.52 379.33 63.7 379.33 66.98 371.7 65.38 371.7 63.06 377.24"/><path class="cls-2" d="M74.54,377.91a.22.22,0,0,1,0-.08v-3.15a3,3,0,0,0-.85-2.27,3.14,3.14,0,0,0-2.29-.83,5.06,5.06,0,0,0-2.81,1l-.24.16.63,1.18.3-.21a5.05,5.05,0,0,1,1.07-.58,2.78,2.78,0,0,1,1-.19,1.6,1.6,0,0,1,1.22.45,1.71,1.71,0,0,1,.44,1.25v.18a5.82,5.82,0,0,0-.61-.14,5.57,5.57,0,0,0-2.41.07,3.29,3.29,0,0,0-1,.48,2.38,2.38,0,0,0-.7.78,2.05,2.05,0,0,0-.25,1,2.41,2.41,0,0,0,.77,1.78,2.65,2.65,0,0,0,.84.53,2.8,2.8,0,0,0,1,.19,4.07,4.07,0,0,0,1.71-.36,3.55,3.55,0,0,0,.81-.51.92.92,0,0,0,.29.53,1.09,1.09,0,0,0,.76.26,2.53,2.53,0,0,0,.4,0l.26,0v-1.37Zm-1.56-1a.38.38,0,0,1,0,.14.72.72,0,0,1-.15.2,1.83,1.83,0,0,1-.77.6,2.85,2.85,0,0,1-1.18.24,1.48,1.48,0,0,1-.54-.1,1.31,1.31,0,0,1-.43-.27,1.19,1.19,0,0,1-.28-.39,1.11,1.11,0,0,1-.1-.47.91.91,0,0,1,.46-.79,2.49,2.49,0,0,1,1.39-.35,5,5,0,0,1,.94.09A5.4,5.4,0,0,1,73,376Z"/><path class="cls-2" d="M80.07,377.32,77.7,371.7H76.06L79.24,379c-.18.43-.32.77-.43,1a4.55,4.55,0,0,1-.28.61c-.08.14-.13.17-.14.17a1.16,1.16,0,0,1-.42,0l-.19,0-.36,0v1.44l.27,0,.33,0h.27a1.72,1.72,0,0,0,1.14-.36,2,2,0,0,0,.58-.8l3.8-9.46H82.26Z"/><polygon class="cls-2" points="93.66 370.63 97.06 370.63 97.06 379.33 98.64 379.33 98.64 370.63 102.03 370.63 102.03 369.16 93.66 369.16 93.66 370.63"/><path class="cls-2" d="M106.13,371.66a2.75,2.75,0,0,0-1.59.51,3.25,3.25,0,0,0-.54.48v-1h-1.5v7.63H104v-4.62a2.23,2.23,0,0,1,.83-1.12,2.54,2.54,0,0,1,1.44-.45h.31v-1.4l-.26-.05Z"/><path class="cls-2" d="M114.44,377.91a.22.22,0,0,1,0-.08v-3.15a3,3,0,0,0-.85-2.27,3.14,3.14,0,0,0-2.29-.83,5,5,0,0,0-2.81,1l-.24.16.62,1.18.3-.21a5,5,0,0,1,1.07-.58,2.75,2.75,0,0,1,1-.19,1.6,1.6,0,0,1,1.22.45,1.71,1.71,0,0,1,.44,1.25v.18a5.75,5.75,0,0,0-.61-.14,5.58,5.58,0,0,0-2.41.07,3.27,3.27,0,0,0-1,.48,2.4,2.4,0,0,0-.7.78,2.05,2.05,0,0,0-.25,1,2.4,2.4,0,0,0,.2,1,2.43,2.43,0,0,0,.56.8,2.65,2.65,0,0,0,.84.53,2.81,2.81,0,0,0,1,.19,4.07,4.07,0,0,0,1.71-.36,3.54,3.54,0,0,0,.81-.51.92.92,0,0,0,.29.53,1.1,1.1,0,0,0,.76.26,2.52,2.52,0,0,0,.4,0l.26,0v-1.37Zm-1.56-1a.36.36,0,0,1,0,.14.73.73,0,0,1-.15.21,1.83,1.83,0,0,1-.77.6,2.84,2.84,0,0,1-1.18.24,1.48,1.48,0,0,1-.54-.1,1.32,1.32,0,0,1-.43-.26,1.21,1.21,0,0,1-.28-.39,1.11,1.11,0,0,1-.1-.47.9.9,0,0,1,.46-.79,2.49,2.49,0,0,1,1.39-.35,5,5,0,0,1,.94.09,5.43,5.43,0,0,1,.69.18Z"/><path class="cls-2" d="M123.12,372.55a2,2,0,0,0-.77-.72,2.39,2.39,0,0,0-1.13-.25,3.7,3.7,0,0,0-1.9.51,3.82,3.82,0,0,0-.75.57v-1h-1.47v7.63h1.55v-4.56a2.21,2.21,0,0,1,.33-.66,2.86,2.86,0,0,1,.55-.57,2.41,2.41,0,0,1,.66-.37,2,2,0,0,1,.7-.13.94.94,0,0,1,.87.42,3.14,3.14,0,0,1,.32,1.64v4.23h1.55v-4.41a7,7,0,0,0-.11-1.31A3.1,3.1,0,0,0,123.12,372.55Z"/><path class="cls-2" d="M131.12,375.5a4.08,4.08,0,0,0-.93-.41c-.34-.11-.75-.22-1.21-.33l-.78-.2a2.22,2.22,0,0,1-.47-.2.49.49,0,0,1-.19-.18.65.65,0,0,1-.06-.31.9.9,0,0,1,.1-.43.83.83,0,0,1,.27-.3,1.32,1.32,0,0,1,.44-.19,3,3,0,0,1,1.65.12,2.12,2.12,0,0,1,.83.53l.25.26.85-1-.19-.21a3.21,3.21,0,0,0-1.18-.77,4.39,4.39,0,0,0-2.68-.14,2.91,2.91,0,0,0-.94.45,2.23,2.23,0,0,0-.66.78A2.32,2.32,0,0,0,126,374a1.82,1.82,0,0,0,.18.84,1.53,1.53,0,0,0,.54.59,3.53,3.53,0,0,0,.81.37c.3.1.66.2,1.08.3l.9.23a2.81,2.81,0,0,1,.59.23.86.86,0,0,1,.29.24.54.54,0,0,1,.08.31.79.79,0,0,1-.36.71,2.07,2.07,0,0,1-1.17.29,3.21,3.21,0,0,1-1.19-.22,4.24,4.24,0,0,1-1.12-.67l-.27-.22-.77,1.14.2.19a4.16,4.16,0,0,0,1.45.84,5.2,5.2,0,0,0,1.7.29,3.52,3.52,0,0,0,2.18-.63,2.14,2.14,0,0,0,.86-1.78,1.83,1.83,0,0,0-.22-.91A1.8,1.8,0,0,0,131.12,375.5Z"/><path class="cls-2" d="M140.51,372.79a3.74,3.74,0,0,0-1.14-.88,3.33,3.33,0,0,0-3.13.12,3.8,3.8,0,0,0-.63.47v-.8h-1.46v10.49h1.55v-3.71a4,4,0,0,0,.6.48,3.08,3.08,0,0,0,1.74.5,3.18,3.18,0,0,0,1.42-.32,3.47,3.47,0,0,0,1.11-.86,3.9,3.9,0,0,0,.71-1.26,4.58,4.58,0,0,0,.25-1.5,4.15,4.15,0,0,0-.27-1.47A4.1,4.1,0,0,0,140.51,372.79Zm-4.81,1.69a1.17,1.17,0,0,1,.23-.52,2.26,2.26,0,0,1,.49-.48,2.7,2.7,0,0,1,.64-.34,1.85,1.85,0,0,1,1.51.08,2.32,2.32,0,0,1,.73.54,2.69,2.69,0,0,1,.49.8,2.6,2.6,0,0,1,.18,1,2.84,2.84,0,0,1-.16.94,2.57,2.57,0,0,1-.45.8,2.26,2.26,0,0,1-.69.56,1.9,1.9,0,0,1-1.52.09,2.35,2.35,0,0,1-.6-.32,2.56,2.56,0,0,1-.5-.5,2.9,2.9,0,0,1-.34-.57Z"/><path class="cls-2" d="M149.8,372.77a3.84,3.84,0,0,0-1.2-.86,3.74,3.74,0,0,0-3,0,3.87,3.87,0,0,0-1.19.86,4,4,0,0,0-.79,1.25,4.18,4.18,0,0,0,0,3,3.88,3.88,0,0,0,.78,1.26,3.76,3.76,0,0,0,1.19.86,3.64,3.64,0,0,0,1.53.32,3.68,3.68,0,0,0,2.74-1.17,3.89,3.89,0,0,0,.78-1.26,4.15,4.15,0,0,0,.28-1.5,4.09,4.09,0,0,0-.28-1.51A4,4,0,0,0,149.8,372.77Zm-.49,2.75a2.66,2.66,0,0,1-.18,1,2.6,2.6,0,0,1-.49.8,2.33,2.33,0,0,1-.71.53,2,2,0,0,1-1.7,0,2.15,2.15,0,0,1-.7-.52,2.62,2.62,0,0,1-.66-1.77,2.74,2.74,0,0,1,.18-1,2.64,2.64,0,0,1,.49-.81,2.28,2.28,0,0,1,.71-.54,1.88,1.88,0,0,1,.84-.19,2,2,0,0,1,.85.19,2.31,2.31,0,0,1,.71.53,2.57,2.57,0,0,1,.49.8A2.69,2.69,0,0,1,149.31,375.52Z"/><path class="cls-2" d="M156.74,371.66a2.76,2.76,0,0,0-1.59.51,3.27,3.27,0,0,0-.54.48v-1h-1.5v7.63h1.55v-4.62a2.23,2.23,0,0,1,.83-1.12,2.54,2.54,0,0,1,1.44-.45h.31v-1.41l-.26-.05Z"/><path class="cls-2" d="M162.76,377.44l-.35.23-.32.15a1,1,0,0,1-.94,0,.37.37,0,0,1-.14-.31v-4.43h1.61V371.7H161v-2.36h-1.55v2.36h-1v1.36h1v4.69a1.67,1.67,0,0,0,.15.73,1.53,1.53,0,0,0,.41.53,1.63,1.63,0,0,0,.58.31,2.29,2.29,0,0,0,.66.09,3,3,0,0,0,.6-.06,4.4,4.4,0,0,0,.49-.13l.38-.14L163,379l.25-.12Z"/></g><path class="cls-3" d="M71.09,295.68s-15.22,4.08-21.19,17.72c-2.37,5.42-7.94,13-12.28,13.55-8.42,1-9.4,14.19-8,16.76.93,1.72,12,.53,12,.53s3.36-12,16.35-12a16.67,16.67,0,0,1,15.31,8.94s7.56,2.24,7.56-10.8V312c0-7,3.53-17.46,15.76-17.46l56.58,0s10.39-1.22,10.39,10.54v12.74c0,3-1.35,12-8.78,12-10.39,0-18.31-.53-20.24.48-1.47.76,1,10.32-1.12,11.84-2.53,1.85-24.07-11.06-24.07-16.11s19.74-18.68,22.83-17.88.35,11.25,2.5,12.18c2.7,1.17,14.47.65,15.44.56s4.27.06,4.27-8.35c0-5.36.46-9.53-7.18-9.53H101.35s-8.87,0-8.87,12.43v27.86c0,5.9-2.48,9.12-12.48,9.12H72.32c-.85,0-4.21-1.62-5.44-6-1-3.39-5-6.07-8.18-6.07s-8,1.88-9.63,6.3a8.94,8.94,0,0,1-8.4,5.72H28.46s-7,0-7-5.93c-.14-13.31-.14-18.82,7.25-23.55,3.36-2,5-.6,9.41-4.73s6.6-10.59,10-13.85a36.31,36.31,0,0,1,15.66-8.82C68,294.59,71.39,294.15,71.09,295.68Z"/><path class="cls-3" d="M148.19,345.61c5.2,0,6.11-2.45,6.11-2.45s.77-8.86,4.74-8.86c4.53,0,4.58,4.5,4.58,7.82,0,10.43,0,10.43-9.78,10.43H96.92c-1.22,0,.68-4,8.63-5.26S146.74,345.61,148.19,345.61Z"/><path class="cls-3" d="M58.2,344.25a8.3,8.3,0,0,0-8.3,8.3H66.49A8.3,8.3,0,0,0,58.2,344.25Z"/></g><g class="cls-1"><path class="cls-3" d="M111.83,613.45a18.61,18.61,0,0,0,18.59-18.59,38.39,38.39,0,0,0-38.35-38.35A8.71,8.71,0,0,0,91,573.86c.33,0,.72.07,1.08.07a11,11,0,0,1,1.2,22A18.61,18.61,0,0,0,111.83,613.45Z"/><path class="cls-3" d="M111.83,615.78A21,21,0,0,1,90.9,594.85a18.59,18.59,0,0,0-37.18,0A38.35,38.35,0,0,0,128.09,608,20.89,20.89,0,0,1,111.83,615.78Z"/><path class="cls-3" d="M100.78,545.46a8.72,8.72,0,0,0-8.71-8.71,18.58,18.58,0,0,0-9,34.82,11,11,0,0,1,9-17.4A8.72,8.72,0,0,0,100.78,545.46Z"/><g class="cls-1"><path class="cls-2" d="M46.25,658A5.29,5.29,0,0,0,48,654a5.38,5.38,0,0,0-1.73-4,5.61,5.61,0,0,0-4-1.68H41v17.4h1.22v-5l4.76,5h1.66l-5.83-6.15A5.61,5.61,0,0,0,46.25,658Zm-4,.51v-9h0a4.47,4.47,0,0,1,3.16,7.64,4.15,4.15,0,0,1-3,1.32Z"/><path class="cls-2" d="M61.58,656.85a5.46,5.46,0,0,0-4.17-1.93,5.58,5.58,0,0,0-4.07,1.64,5.31,5.31,0,0,0-1.65,3.88,5.44,5.44,0,0,0,1.66,3.93,5.34,5.34,0,0,0,3.91,1.69h.2a5.31,5.31,0,0,0,4.06-1.84l.06-.07v-2.06l-.46.68a5.11,5.11,0,0,1-1.69,1.58,4.51,4.51,0,0,1-2.3.59A4.16,4.16,0,0,1,54.7,664l7-7Zm-4.37-.8A4.46,4.46,0,0,1,60,657l-6.17,6.13a4.38,4.38,0,0,1-1-2.79,4.49,4.49,0,0,1,4.31-4.32Z"/><path class="cls-2" d="M74.94,657a5.07,5.07,0,0,0-1.53-1.32,5.61,5.61,0,0,0-2.82-.78,5.57,5.57,0,1,0,0,11.13,5.53,5.53,0,0,0,2.76-.77,5.37,5.37,0,0,0,1.59-1.35v1.87h1.22v-17.4H74.94Zm-4.37-1a4.22,4.22,0,0,1,3.1,1.33A4.33,4.33,0,0,1,75,660.49a4.48,4.48,0,0,1-4.42,4.41,4.11,4.11,0,0,1-3.08-1.31,4.43,4.43,0,0,1,0-6.24A4.17,4.17,0,0,1,70.57,656Z"/><path class="cls-2" d="M98.57,657.27a12.75,12.75,0,0,0-1.56-1.2c-.56-.37-1.13-.72-1.7-1a15.9,15.9,0,0,1-1.5-1,3.05,3.05,0,0,1-1.48-2.39v-.11a2.13,2.13,0,0,1,.69-1.69,2.48,2.48,0,0,1,1.72-.62,3.54,3.54,0,0,1,1.86.5,3.66,3.66,0,0,1,1.32,1.39l.47.86v-2.21l-.05-.07a4.24,4.24,0,0,0-3.49-1.63,4.07,4.07,0,0,0-2.66.89,3.19,3.19,0,0,0-1.1,2.6v.16a3.5,3.5,0,0,0,.63,2,5.35,5.35,0,0,0,1.54,1.49l1.92,1.22q1,.65,1.91,1.25a4.88,4.88,0,0,1,1.39,1.46A3.57,3.57,0,0,1,99,661.1v.13a3.37,3.37,0,0,1-1.15,2.7,4.08,4.08,0,0,1-2.76,1,4.58,4.58,0,0,1-2.68-.75,4.85,4.85,0,0,1-1.64-2l-.48-1v2.44l0,.06a5.22,5.22,0,0,0,4.58,2.43,5.55,5.55,0,0,0,3.76-1.32,4.53,4.53,0,0,0,1.54-3.59V661a4.73,4.73,0,0,0-.46-2.09A5.2,5.2,0,0,0,98.57,657.27Z"/><path class="cls-2" d="M113.67,656.85a5.46,5.46,0,0,0-4.17-1.93,5.58,5.58,0,0,0-4.07,1.64,5.31,5.31,0,0,0-1.65,3.88,5.44,5.44,0,0,0,1.66,3.93,5.34,5.34,0,0,0,3.91,1.69h.2a5.31,5.31,0,0,0,4.06-1.84l.06-.07v-2.06l-.46.68a5.11,5.11,0,0,1-1.69,1.58,4.51,4.51,0,0,1-2.3.59,4.16,4.16,0,0,1-2.44-.95l7-7Zm-4.37-.8a4.46,4.46,0,0,1,2.82,1L106,663.16a4.38,4.38,0,0,1-1-2.79,4.49,4.49,0,0,1,4.31-4.32Z"/><path class="cls-2" d="M127.08,656.85a5.46,5.46,0,0,0-4.17-1.93,5.58,5.58,0,0,0-4.07,1.64,5.31,5.31,0,0,0-1.65,3.88,5.44,5.44,0,0,0,1.66,3.93,5.34,5.34,0,0,0,3.91,1.69h.2a5.31,5.31,0,0,0,4.06-1.84l.06-.07v-2.06l-.46.68a5.11,5.11,0,0,1-1.69,1.58,4.51,4.51,0,0,1-2.3.59,4.16,4.16,0,0,1-2.44-.95l7-7Zm-4.37-.8a4.46,4.46,0,0,1,2.82,1l-6.17,6.13a4.38,4.38,0,0,1-1-2.79,4.49,4.49,0,0,1,4.31-4.32Z"/><path class="cls-2" d="M140.43,648.39V657a5.07,5.07,0,0,0-1.53-1.32,5.61,5.61,0,0,0-2.82-.78,5.57,5.57,0,1,0,0,11.13,5.53,5.53,0,0,0,2.76-.77,5.37,5.37,0,0,0,1.59-1.35v1.87h1.22v-17.4ZM136.06,656a4.22,4.22,0,0,1,3.1,1.33,4.33,4.33,0,0,1,1.31,3.13,4.48,4.48,0,0,1-4.42,4.41,4.11,4.11,0,0,1-3.08-1.31,4.43,4.43,0,0,1,0-6.24A4.17,4.17,0,0,1,136.06,656Z"/></g></g><g class="cls-1"><path class="cls-2" d="M414.76,849.8a14.58,14.58,0,0,0,.31-2.12c0-6.52.08-13,0-19.56,0-2.37,1.83-4.26,4.81-4.19,1.91,0,3.81,0,5.72,0,2.84,0,4.65,1.61,4.66,4.08,0,1.27,0,2.54,0,3.82q0,21.15,0,42.3c0,2.75-1.75,4.29-4.89,4.28-2.21,0-4.43.09-6.62-.11a7,7,0,0,1-5.74-3.55q-5.85-10.22-11.68-20.45a8.27,8.27,0,0,0-1-1.42c-.44-.49-.81-.42-1,.17a3.54,3.54,0,0,0-.14,1.1q0,9.94,0,19.88c0,2.86-1.72,4.38-5,4.38-1.85,0-3.69,0-5.54,0-2.83,0-4.58-1.5-4.72-4,0-.16,0-.32,0-.48q0-22.82,0-45.64a4.11,4.11,0,0,1,.83-2.79,4.24,4.24,0,0,1,3.31-1.58c2.48,0,5-.11,7.43.09a6.88,6.88,0,0,1,5.67,3.5q5.93,10.35,11.85,20.72a17,17,0,0,0,1.19,1.61Z"/><path class="cls-2" d="M468.41,823.93h18.07c3.26,0,5,1.5,5,4.36a64.19,64.19,0,0,1-.19,6.43,10.14,10.14,0,0,1-2.89,5.81q-10,10.67-19.92,21.35c-.62.66-1.47,1.34-1,2.31s1.74.91,2.77.92c5.51,0,11,0,16.53,0,2.91,0,4.69,1.56,4.69,4.11q0,2.46,0,4.93c0,2.7-1.75,4.25-4.82,4.25H450.21c-3.2,0-4.94-1.52-4.91-4.33a63.27,63.27,0,0,1,.2-6.58,9.88,9.88,0,0,1,2.79-5.6q10.08-10.8,20.15-21.6c.59-.63,1.31-1.28.83-2.19s-1.51-.88-2.44-.88c-5.6,0-11.2,0-16.8,0-3,0-4.73-1.54-4.73-4.15q0-2.5,0-5c0-2.53,1.79-4.13,4.68-4.13Q459.19,823.92,468.41,823.93Z"/><path class="cls-2" d="M514.35,823.93h27.1c2.9,0,4.67,1.56,4.67,4.13q0,2.54,0,5.09c0,2.48-1.8,4.08-4.64,4.08-7.23,0-7.94,0-15.17,0a4.36,4.36,0,0,0-4.14,2.11c-1.37,2.42.72,5.21,3.9,5.22h15.54c2.23,0,3.85,1,4.4,2.8a3.23,3.23,0,0,1,.13.94q0,2.9,0,5.8c0,2-1.7,3.57-4,3.7-.39,0-.79,0-1.18,0H526.34c-2.75,0-4.56,1.57-4.56,4q0,6.24,0,12.48c0,2.59-1.79,4.14-4.76,4.14h-2.67Z"/><path class="cls-2" d="M509.92,878.25a3.82,3.82,0,0,1-3.41-3.41c0-.16,0-.32,0-.48q0-23.12,0-46.25a3.92,3.92,0,0,1,3-4,3.21,3.21,0,0,1,.4-.05Z"/><path class="cls-2" d="M361.35,847.59c1.66,0,3.32,0,5,0s2.52.73,2.53,2.25c0,1,0,1.91,0,2.86a2,2,0,0,1-2.12,2q-5.44.07-10.88,0a2,2,0,0,1-2.13-2q0-1.51,0-3c0-1.3.85-2.07,2.35-2.09C357.84,847.57,359.59,847.59,361.35,847.59Z"/><path class="cls-2" d="M361.25,842.48c-1.72,0-3.44,0-5.17,0-1.52,0-2.34-.74-2.35-2.07,0-1,0-2,0-3a2,2,0,0,1,2.14-2q5.44-.06,10.88,0a1.94,1.94,0,0,1,2.11,2q0,1.59,0,3.17c0,1.22-.85,2-2.26,2C364.81,842.49,363,842.48,361.25,842.48Z"/><path class="cls-2" d="M361.28,831.07h-5.17c-1.52,0-2.37-.73-2.38-2q0-1.51,0-3a1.94,1.94,0,0,1,2.11-2q5.48-.08,11,0a1.91,1.91,0,0,1,2.05,2q0,1.55,0,3.1c0,1.27-.85,2-2.32,2Z"/><path class="cls-2" d="M361.26,866.39c-1.69,0-3.38,0-5.08,0s-2.45-.72-2.45-2.14q0-1.43,0-2.86c0-1.37.8-2.09,2.39-2.14,1.06,0,2.12,0,3.17,0h6.89c1.92,0,2.67.68,2.67,2.37,0,1,0,1.91,0,2.86a2,2,0,0,1-2.15,1.91c-1.81,0-3.63,0-5.44,0Z"/><path class="cls-2" d="M361,878.47h-5c-1.41,0-2.25-.74-2.27-2,0-1,0-2,0-2.94a1.91,1.91,0,0,1,2.11-1.85q5.12,0,10.24,0a1.91,1.91,0,0,1,2.13,1.76,24.86,24.86,0,0,1,0,3.25c-.07,1.09-1,1.73-2.25,1.74Z"/><text class="cls-4" transform="translate(347.91 910.42)">(In)visible New Zealand<tspan x="22.68" y="18">Film </tspan><tspan class="cls-5" x="64.18" y="18">F</tspan><tspan x="73.97" y="18">estival 2017</tspan></text></g><g class="cls-1"><path class="cls-3" d="M386.59,396.44a3.54,3.54,0,0,1-.4,2,3.22,3.22,0,0,1-3.08,1.56h-1.22a3.31,3.31,0,0,1-3-1.22,3.12,3.12,0,0,1-.65-2.13v-3.06a1.05,1.05,0,0,1,2.11,0v2.74c0,1.22.25,1.56,1.5,1.56h1.16c.89,0,1.43-.13,1.43-1.14v-12.1a1.05,1.05,0,0,1,2.11,0Z"/><path class="cls-3" d="M396.06,390.68c-.59,0-1.39-.13-1.39-1s.72-1,1.39-1h2.78a3.19,3.19,0,0,1,2.61.91,2.92,2.92,0,0,1,.91,2.4l.21,6.87c0,.59-.27,1.18-.95,1.18a1,1,0,0,1-1-1l-1.39.72a1.83,1.83,0,0,1-1.24.3H396a3.16,3.16,0,0,1-2.3-.72,2.83,2.83,0,0,1-1.05-2.49v-.89a2.64,2.64,0,0,1,1-2.25,3.32,3.32,0,0,1,2.36-.76h4.34v-.46c0-1.52-.34-1.77-1.79-1.77Zm0,4.26c-.55,0-1.35.15-1.35.89v1.35c0,.67.82.82,1.31.82h2.23l2.23-1.16v-.44c0-1.12-.32-1.45-1.43-1.45Z"/><path class="cls-3" d="M414.5,389.48c.36-.32.86-.82,1.35-.82a1,1,0,0,1,1,1c0,.48-.32.72-.67,1L412.26,394l4.76,4c.38.32.72.55.72,1.07a1,1,0,0,1-1,1,1.53,1.53,0,0,1-.95-.48l-5.08-4.24-.84.76v2.57c0,.7-.15,1.39-1,1.39s-1-.7-1-1.39V385.88c0-.7.15-1.39,1-1.39s1,.7,1,1.39v7.5Z"/><path class="cls-3" d="M430.77,383.63h9.36a1.05,1.05,0,0,1,0,2.11h-7.25V389h5.18a1.05,1.05,0,1,1,0,2.11h-5.18V399a1.05,1.05,0,0,1-2.11,0Z"/><path class="cls-3" d="M449.91,400a2.15,2.15,0,0,1-1.81-.55l-.86-.76a2.52,2.52,0,0,1-1-2.28v-3.9a2.67,2.67,0,0,1,1-2.42l.72-.61a2.72,2.72,0,0,1,2.23-.84H452a2.89,2.89,0,0,1,2.23.74l.82.65a2.87,2.87,0,0,1,1.05,2.63v1.62c0,1.16-.19,1.5-1.39,1.5h-6.49v.67a1,1,0,0,0,.3.59l.51.55a1.7,1.7,0,0,0,1.35.38h4.34c.67,0,1.39.15,1.39,1s-.8,1-1.39,1Zm-1.69-6.24h5.86v-1.22c0-.38,0-.7-.25-.95l-.78-.67a1.44,1.44,0,0,0-1-.25h-1.71a1.63,1.63,0,0,0-1,.23l-.7.51a.92.92,0,0,0-.42.93Z"/><path class="cls-3" d="M463.4,392.75v5.88c0,.7-.15,1.39-1,1.39s-1-.7-1-1.39v-8.47c0-.74.08-1.5,1-1.5s1,.76,1,1.48v.27l1.64-1.07a3.32,3.32,0,0,1,1.75-.67h1.5a2.56,2.56,0,0,1,1.88.74c.91.78.86,1.64.91,2.74l.21,6.36c0,.72-.08,1.52-1,1.52s-1-.7-1-1.37l-.21-6.24c0-1.24-.15-1.73-1.37-1.73H467a1.22,1.22,0,0,0-.63.19Z"/><path class="cls-3" d="M476.55,393.36a2.86,2.86,0,0,1,1.2-2.66l1.5-1.24a3.22,3.22,0,0,1,2.61-.8h3.2c.67,0,1.39.15,1.39,1s-.8,1-1.39,1H481.5a1.91,1.91,0,0,0-1.16.51l-1.22,1c-.32.25-.55.46-.55.86v2.51c0,.4.23.61.55.86l1.22,1a1.91,1.91,0,0,0,1.16.51h3.56c.59,0,1.39.13,1.39,1s-.72,1-1.39,1h-3.2a3.21,3.21,0,0,1-2.61-.8l-1.5-1.24a2.86,2.86,0,0,1-1.2-2.66Z"/><path class="cls-3" d="M495.43,400a2.15,2.15,0,0,1-1.81-.55l-.86-.76a2.52,2.52,0,0,1-1-2.28v-3.9a2.67,2.67,0,0,1,1-2.42l.72-.61a2.72,2.72,0,0,1,2.23-.84h1.85a2.89,2.89,0,0,1,2.23.74l.82.65a2.87,2.87,0,0,1,1.05,2.63v1.62c0,1.16-.19,1.5-1.39,1.5h-6.49v.67a1,1,0,0,0,.3.59l.51.55a1.7,1.7,0,0,0,1.35.38h4.34c.67,0,1.39.15,1.39,1s-.8,1-1.39,1Zm-1.69-6.24h5.86v-1.22c0-.38,0-.7-.25-.95l-.78-.67a1.44,1.44,0,0,0-1-.25H495.9a1.63,1.63,0,0,0-1,.23l-.7.51a.92.92,0,0,0-.42.93Z"/><path class="cls-3" d="M421.22,403.73H375.39a.95.95,0,1,0,0,1.89h44.86Z"/><path class="cls-3" d="M502.64,403.73H425.39l-.94,1.89h78.19a.94.94,0,1,0,0-1.89Z"/><path class="cls-2" d="M497.76,360.89A4.73,4.73,0,0,1,493,365.6h-6.81a4.73,4.73,0,0,1-4.72-4.72V343.06a56,56,0,0,1-7.49,3v14.84a4.73,4.73,0,0,1-4.72,4.72h-4.75c-2.59,0-4.72,0-4.71,0s0-2.16,0-4.76v-12c-2.08.18-4.23.29-6.49.29-.9,0-1.78,0-2.66-.05v11.77c0,2.59,0,4.73,0,4.74s-2.12,0-4.71,0h-3.58c-2.59,0-4.69-.17-4.66-.38s.06-2.9.06-5.5V347.48a71.9,71.9,0,0,1-11.65-3.55v15.79c0,2.59,0,4.89,0,5.11s-2,.77-4.62.77h-4.41c-2.59,0-4.66-.27-4.58-.61s.13-3.37.13-6V336.88a80.76,80.76,0,0,1-13.31-11v28.07a6,6,0,0,1-6,5.61h-4c-3.3,0-8-.7-8-4v-5c0-3.3-.47-9-3.5-9a5.78,5.78,0,0,0-5.5,6v11c0,5,7,12,10,12H406.5c1.07,0,2.69.06,4.27.06H496a35.17,35.17,0,0,0,5.67-.31c.52-.17,1.48-1.44,1.65-1.75a37.34,37.34,0,0,0,.31-5.94V322.73a50.7,50.7,0,0,1-5.82,8Z"/><path class="cls-2" d="M502.28,303.64h-3.22c-.72,1.6-1.3,3-1.3,3.07a35.85,35.85,0,0,1-4.72.16h-6.81c-2.59,0-4.72-.56-4.72-1.24a20.19,20.19,0,0,0-1.68-5h-4.13a20.19,20.19,0,0,0-1.68,5c0,.68-2.12,1.24-4.72,1.24h-4.75c-2.59,0-4.72-.84-4.72-1.86a22.11,22.11,0,0,0-1.93-6.16s-.12-.27-2.65-.27-2.65.27-2.65.27A22.11,22.11,0,0,0,450.7,305c0,1-2.12,1.86-4.72,1.86h-3.46c-2.59,0-4.72-.84-4.72-1.86a22.12,22.12,0,0,0-1.93-6.16s-.68-1.52-3.9-1.52-3.9,1.52-3.9,1.52a22.12,22.12,0,0,0-1.93,6.16c0,1-2.12,1.86-4.72,1.86h-4c-2.59,0-4.72-1.55-4.72-3.43a23.29,23.29,0,0,0-1.93-7.74,4,4,0,0,0-1.59-1.59l6.34-8a3.15,3.15,0,0,0,0-3.7l-8.12-10.3a1.78,1.78,0,0,0-2.92,0l-8.12,10.3a3.15,3.15,0,0,0,0,3.7l6.41,8.13a3.93,3.93,0,0,0-1.45,1.5,26.37,26.37,0,0,0-1.93,9v17c3.53,2.21,8.1,4.93,13.31,7.65V316.57a4.73,4.73,0,0,1,4.72-4.72h4a4.73,4.73,0,0,1,4.72,4.72v19.08a111.79,111.79,0,0,0,11.65,4.07V316.57a4.73,4.73,0,0,1,4.72-4.72H446a4.73,4.73,0,0,1,4.72,4.72v25.66c1.54.14,3.07.22,4.58.22s3.07-.09,4.58-.23V316.57a4.73,4.73,0,0,1,4.72-4.72h4.75a4.73,4.73,0,0,1,4.72,4.72V339a72.7,72.7,0,0,0,7.49-3.2V316.57a4.73,4.73,0,0,1,4.72-4.72H493a4.73,4.73,0,0,1,4.72,4.72v8.79c2.46-2,4.44-3.71,5.82-5v-9.09A22.84,22.84,0,0,0,502.28,303.64Z"/></g></g></g></svg>