<svg xmlns="http://www.w3.org/2000/svg" viewBox="0 0 267.65 650.12"><defs><style>.cls-1,.cls-3{opacity:0.9;}.cls-2,.cls-3,.cls-4{fill:#fff;}.cls-4{font-size:6.54px;font-family:Arial-Black, Arial Black;letter-spacing:0.02em;}.cls-5{letter-spacing:-0.01em;}</style></defs><title>logos-small</title><g id="Layer_2" data-name="Layer 2"><g id="logo_part" data-name="logo part"><g class="cls-1"><path class="cls-2" d="M14.79,49.58l-.37-.11a1.3,1.3,0,0,1-.67-.47,1.26,1.26,0,0,1-.24-.66,1.62,1.62,0,0,1,.08-.6,1.21,1.21,0,0,1,.29-.52,1.18,1.18,0,0,1,.59-.37,1.33,1.33,0,0,1,.82.06.84.84,0,0,0,.6,0,.83.83,0,0,0,.36-1,.78.78,0,0,0-.46-.41A2.81,2.81,0,0,0,14,45.35a2.88,2.88,0,0,0-1.3.87,2.58,2.58,0,0,0-.57,1,2.71,2.71,0,0,0-.17,1.2,2.94,2.94,0,0,0,.51,1.48,2.74,2.74,0,0,0,1.46,1l.36.14a1.28,1.28,0,0,1,.67.46,1.3,1.3,0,0,1,.23.69,1.07,1.07,0,0,1-.08.57,1.72,1.72,0,0,1-.3.52,1.12,1.12,0,0,1-.57.38,1.34,1.34,0,0,1-.82,0,.72.72,0,0,0-.61,0,.85.85,0,0,0-.38.44.71.71,0,0,0,0,.61.84.84,0,0,0,.45.38,3.33,3.33,0,0,0,1,.18,2.36,2.36,0,0,0,.75-.12A3,3,0,0,0,16,54.32a3.67,3.67,0,0,0,.59-1,3.62,3.62,0,0,0,.14-1.16,3.07,3.07,0,0,0-.5-1.48A2.68,2.68,0,0,0,14.79,49.58Z"/><path class="cls-2" d="M23.63,45.28h-5.4a.77.77,0,1,0,0,1.55h1.91v7.73a.77.77,0,1,0,1.55,0V46.83h1.94a.77.77,0,1,0,0-1.55Z"/><path class="cls-2" d="M29.49,45.65a.93.93,0,0,0-.33-.34h0a.75.75,0,0,0-.6,0,.77.77,0,0,0-.45.4l-4,8.59a.74.74,0,0,0,0,.6.77.77,0,0,0,.4.44.72.72,0,0,0,.61,0,.82.82,0,0,0,.44-.41l1.12-2.39h2a.77.77,0,1,0,0-1.55H27.33l1.47-3.14,3.3,7.08a.81.81,0,0,0,.44.41.73.73,0,0,0,.27.05.74.74,0,0,0,.33-.08.77.77,0,0,0,.4-.44.74.74,0,0,0,0-.59Z"/><path class="cls-2" d="M41,45.28a.77.77,0,0,0-.77.77V51.9l-3.93-6.22a.78.78,0,0,0-.68-.4.77.77,0,0,0-.77.77v8.5a.77.77,0,1,0,1.55,0V48.73L40.36,55a.78.78,0,0,0,.48.34l.18,0a.71.71,0,0,0,.4-.12.72.72,0,0,0,.36-.66v-8.5a.77.77,0,0,0-.77-.77Z"/><path class="cls-2" d="M56.84,45.65a.93.93,0,0,0-.33-.34h0a.75.75,0,0,0-.6,0,.77.77,0,0,0-.45.4l-4,8.59a.74.74,0,0,0,0,.6.77.77,0,0,0,.4.44.72.72,0,0,0,.61,0,.82.82,0,0,0,.44-.41L54,52.51h1.93a.77.77,0,1,0,0-1.55h-1.2l1.47-3.14,3.3,7.08a.81.81,0,0,0,.44.41.73.73,0,0,0,.27.05.74.74,0,0,0,.33-.08.77.77,0,0,0,.4-.44.74.74,0,0,0,0-.59Z"/><path class="cls-2" d="M68.79,50.32l-.08-.07h0a2.93,2.93,0,0,0,.63-.93,3,3,0,0,0,0-2.26,3,3,0,0,0-.63-.92,3.13,3.13,0,0,0-.92-.64,2.74,2.74,0,0,0-1.14-.24H63.2a.77.77,0,0,0-.77.77V54.6a.77.77,0,1,0,1.55,0V46.78h2.68a1.3,1.3,0,0,1,1,.4,1.33,1.33,0,0,1,.4,1,1.38,1.38,0,0,1-1.36,1.36h-1a.77.77,0,0,0-.67.77.75.75,0,0,0,.67.77H66.9a1.12,1.12,0,0,1,.43.08,1.07,1.07,0,0,1,.35.23,1.09,1.09,0,0,1,.34.8v2.36a.77.77,0,1,0,1.55,0V52.2a2.57,2.57,0,0,0-.22-1A2.75,2.75,0,0,0,68.79,50.32Z"/><path class="cls-2" d="M49.72,46.75a5.21,5.21,0,0,0-1.6-1.09,4.85,4.85,0,0,0-2-.4H44.36a.77.77,0,0,0-.77.77.78.78,0,0,0,.77.77h1.81a3.38,3.38,0,0,1,1.35.27,3.56,3.56,0,0,1,1.11.75,3.68,3.68,0,0,1,.76,1.12,3.35,3.35,0,0,1,.28,1.36,3.46,3.46,0,0,1-.27,1.36,3.53,3.53,0,0,1-.75,1.12,3.68,3.68,0,0,1-1.12.76,3.34,3.34,0,0,1-1.36.28h-1V48.72a.77.77,0,0,0-1.55,0V54.6a.77.77,0,0,0,.77.77h1.81a4.93,4.93,0,0,0,3.56-1.49,5.21,5.21,0,0,0,1.09-1.6,4.9,4.9,0,0,0,.4-2,4.85,4.85,0,0,0-.4-2A5.21,5.21,0,0,0,49.72,46.75Z"/><path class="cls-2" d="M77.17,46.75a5.21,5.21,0,0,0-1.6-1.09,4.85,4.85,0,0,0-2-.4H71.81A.77.77,0,0,0,71,46a.78.78,0,0,0,.77.77h1.81a3.38,3.38,0,0,1,1.35.27,3.56,3.56,0,0,1,1.11.75,3.68,3.68,0,0,1,.76,1.12,3.35,3.35,0,0,1,.28,1.36,3.46,3.46,0,0,1-.27,1.36,3.53,3.53,0,0,1-.75,1.12,3.68,3.68,0,0,1-1.12.76,3.34,3.34,0,0,1-1.36.28h-1V48.72a.77.77,0,0,0-1.55,0V54.6a.77.77,0,0,0,.77.77h1.81a4.93,4.93,0,0,0,3.56-1.49,5.21,5.21,0,0,0,1.09-1.6,4.9,4.9,0,0,0,.4-2,4.85,4.85,0,0,0-.4-2A5.21,5.21,0,0,0,77.17,46.75Z"/><path class="cls-2" d="M54.67,0H32.5a7.67,7.67,0,0,0-7.65,7.65V29.82a7.67,7.67,0,0,0,7.65,7.65H54.67a7.67,7.67,0,0,0,7.65-7.65V7.65A7.67,7.67,0,0,0,54.67,0ZM42.46,16h-.8a.87.87,0,0,0-.78.8v6.71a2.1,2.1,0,0,1-4.2,0v-6.8a.87.87,0,0,0-.77-.7H34.76a.87.87,0,0,0-.78.81v4.59a4.2,4.2,0,0,1-4.2,4.2V16a4.2,4.2,0,0,1,4.2-4.2H44.61a4.2,4.2,0,0,0-2.16,3.67Zm1,9.6h0V16a4.2,4.2,0,0,1,4.2-4.2h0v9.6A4.2,4.2,0,0,1,43.41,25.63ZM54,25.6H46.91a4.19,4.19,0,0,0,1.75-3.18H54a1,1,0,1,0,0-2.09,4.23,4.23,0,1,1,3.9-5.86l.09.22,0,.11v0a1.59,1.59,0,0,1-1.39,1.91h-.35a1.59,1.59,0,0,1-1.29-1l0-.08a1,1,0,1,0-1,1.44,4.23,4.23,0,1,1,0,8.45Z"/></g><g class="cls-1"><rect class="cls-2" x="218.65" y="3.32" width="8.45" height="29.37"/><path class="cls-2" d="M179.72,40.13h-6.38a.91.91,0,1,0,0,1.83h2.26v9.13a.91.91,0,1,0,1.83,0V42h2.29a.91.91,0,1,0,0-1.83Z"/><path class="cls-2" d="M200.25,40.13a.9.9,0,0,0-.91.91V48L194.7,40.6a.92.92,0,0,0-.8-.47A.9.9,0,0,0,193,41v10a.91.91,0,1,0,1.83,0V44.21l4.67,7.38a.92.92,0,0,0,.57.4l.21,0a.84.84,0,0,0,.47-.14.85.85,0,0,0,.43-.78V41a.9.9,0,0,0-.91-.91Z"/><path class="cls-2" d="M219,40.57a1.1,1.1,0,0,0-.39-.4h0a.89.89,0,0,0-.71-.05.91.91,0,0,0-.53.48l-4.73,10.15a.87.87,0,0,0-.05.71A.91.91,0,0,0,213,52a.85.85,0,0,0,.72,0,1,1,0,0,0,.52-.48l1.33-2.83h2.28a.91.91,0,1,0,0-1.83H216.4l1.74-3.71,3.9,8.37a1,1,0,0,0,.51.48.86.86,0,0,0,.32.06.88.88,0,0,0,.4-.1.91.91,0,0,0,.47-.52.88.88,0,0,0,0-.7Z"/><path class="cls-2" d="M243,41.86a6.16,6.16,0,0,0-1.89-1.29,5.73,5.73,0,0,0-2.31-.48h-2.13a.9.9,0,0,0-.91.91.92.92,0,0,0,.91.91h2.13a4,4,0,0,1,1.6.32,4.21,4.21,0,0,1,1.31.89,4.35,4.35,0,0,1,.9,1.32,4,4,0,0,1,.33,1.61,4.09,4.09,0,0,1-.32,1.61A4.17,4.17,0,0,1,241.7,49a4.34,4.34,0,0,1-1.32.9,4,4,0,0,1-1.61.33h-1.22v-6a.91.91,0,0,0-1.83-.06v7a.9.9,0,0,0,.91.91h2.13a5.83,5.83,0,0,0,4.2-1.76,6.16,6.16,0,0,0,1.29-1.89,5.79,5.79,0,0,0,.48-2.33,5.73,5.73,0,0,0-.48-2.31A6.16,6.16,0,0,0,243,41.86Z"/><polygon class="cls-2" points="182.44 3.32 167.44 32.69 175.89 32.69 190.89 3.32 182.44 3.32"/><polygon class="cls-2" points="197.44 3.32 182.44 32.69 190.89 32.69 205.89 3.32 197.44 3.32"/><polygon class="cls-2" points="205.89 16.14 197.44 32.69 205.82 32.69 205.89 32.69 214.27 32.69 205.89 24.48 205.89 16.14"/><path class="cls-2" d="M169.27,45.21l-.43-.13a1.54,1.54,0,0,1-.79-.55,1.49,1.49,0,0,1-.29-.79,1.92,1.92,0,0,1,.1-.71,1.43,1.43,0,0,1,.34-.61,1.4,1.4,0,0,1,.7-.44,1.57,1.57,0,0,1,1,.07,1,1,0,0,0,.7-.05,1,1,0,0,0,.43-1.24.92.92,0,0,0-.55-.48,3.32,3.32,0,0,0-2.12-.08,3.4,3.4,0,0,0-1.54,1,3,3,0,0,0-.68,1.2,3.2,3.2,0,0,0-.2,1.41,3.47,3.47,0,0,0,.6,1.75,3.24,3.24,0,0,0,1.73,1.22l.43.16a1.51,1.51,0,0,1,.8.54,1.53,1.53,0,0,1,.27.81,1.27,1.27,0,0,1-.09.68,2,2,0,0,1-.36.61,1.33,1.33,0,0,1-.67.44,1.58,1.58,0,0,1-1,0,.85.85,0,0,0-.72,0,1,1,0,0,0-.45.52.84.84,0,0,0,0,.72,1,1,0,0,0,.53.45,3.93,3.93,0,0,0,1.24.22,2.79,2.79,0,0,0,.88-.14,3.51,3.51,0,0,0,1.55-1,4.34,4.34,0,0,0,.7-1.24,4.27,4.27,0,0,0,.17-1.37,3.62,3.62,0,0,0-.59-1.75A3.16,3.16,0,0,0,169.27,45.21Z"/><path class="cls-2" d="M186.64,40.57a1.1,1.1,0,0,0-.39-.4l0,0a.89.89,0,0,0-.71-.05.91.91,0,0,0-.53.48l-4.73,10.15a.87.87,0,0,0-.05.71.91.91,0,0,0,.47.52.85.85,0,0,0,.72,0,1,1,0,0,0,.52-.48l1.33-2.83h2.34a.91.91,0,1,0,0-1.83h-1.48l1.74-3.71,3.9,8.37a1,1,0,0,0,.51.48.86.86,0,0,0,.32.06.88.88,0,0,0,.4-.1.91.91,0,0,0,.47-.52.87.87,0,0,0,0-.7Z"/><path class="cls-2" d="M233.07,46.08,233,46l0,0a3.46,3.46,0,0,0,.74-1.1,3.49,3.49,0,0,0,0-2.67,3.51,3.51,0,0,0-.74-1.09,3.7,3.7,0,0,0-1.09-.75,3.24,3.24,0,0,0-1.35-.28h-4.09a.9.9,0,0,0-.91.91V51.14a.91.91,0,1,0,1.83,0V41.9h3.17a1.54,1.54,0,0,1,1.13.48,1.57,1.57,0,0,1,.48,1.16,1.63,1.63,0,0,1-1.61,1.61h-1.2a.91.91,0,0,0-.79.91.88.88,0,0,0,.79.91h1.49a1.32,1.32,0,0,1,.51.1,1.26,1.26,0,0,1,.42.27,1.29,1.29,0,0,1,.4,1v2.79a.91.91,0,1,0,1.83,0V48.3a3,3,0,0,0-.25-1.23A3.25,3.25,0,0,0,233.07,46.08Z"/><path class="cls-2" d="M210.54,41.86a6.16,6.16,0,0,0-1.89-1.29,5.73,5.73,0,0,0-2.31-.48h-2.13a.9.9,0,0,0-.91.91.92.92,0,0,0,.91.91h2.13a4,4,0,0,1,1.6.32,4.21,4.21,0,0,1,1.31.89,4.35,4.35,0,0,1,.9,1.32,4,4,0,0,1,.33,1.61,4.09,4.09,0,0,1-.32,1.61,4.17,4.17,0,0,1-.89,1.32,4.34,4.34,0,0,1-1.32.9,4,4,0,0,1-1.61.33h-1.22v-6a.91.91,0,0,0-1.83-.06v7a.9.9,0,0,0,.91.91h2.13a5.83,5.83,0,0,0,4.2-1.76,6.16,6.16,0,0,0,1.29-1.89,5.79,5.79,0,0,0,.48-2.33,5.73,5.73,0,0,0-.48-2.31A6.16,6.16,0,0,0,210.54,41.86Z"/><polygon class="cls-2" points="234.11 19.86 242.56 3.32 234.11 3.32 234.11 19.86"/><polygon class="cls-2" points="242.56 32.69 242.56 16.14 234.11 32.69 242.56 32.69"/></g><g class="cls-1"><polygon class="cls-2" points="76.89 490.37 74.4 492.87 74.4 496.39 76.89 498.89 80.42 498.89 82.92 496.39 82.92 492.87 80.42 490.37 76.89 490.37"/><path class="cls-2" d="M86.3,480.57H40a4.32,4.32,0,0,0-4.31,4.31V504A4.32,4.32,0,0,0,40,508.27H86.3A4.32,4.32,0,0,0,90.61,504V484.88A4.32,4.32,0,0,0,86.3,480.57ZM54.88,494.44a1.18,1.18,0,0,1-1.18,1.18H47.82a1.18,1.18,0,0,1,0-2.35h4.71v-.39L50,490.37H46.5L44,492.87v3.53l2.49,2.49H50l2-2a1.18,1.18,0,1,1,1.66,1.66l-2.35,2.35a1.18,1.18,0,0,1-.83.34H46a1.18,1.18,0,0,1-.83-.34L42,497.71a1.18,1.18,0,0,1-.34-.83v-4.5a1.18,1.18,0,0,1,.34-.83l3.18-3.18A1.18,1.18,0,0,1,46,488h4.5a1.18,1.18,0,0,1,.83.34l3.18,3.18a1.18,1.18,0,0,1,.34.83Zm14.2-4.07h-3l-3.54,5v5a.84.84,0,0,1-.83.83h-.69a.84.84,0,0,1-.83-.83V488.85a.84.84,0,0,1,.83-.83h.69a.84.84,0,0,1,.83.83v2.45l2-2.79a1.18,1.18,0,0,1,1-.5h3.58a1.18,1.18,0,0,1,0,2.35Zm16.19,6.51a1.18,1.18,0,0,1-.34.83l-3.18,3.18a1.18,1.18,0,0,1-.83.34h-4.5a1.18,1.18,0,0,1-.83-.34l-3.18-3.18a1.18,1.18,0,0,1-.34-.83v-4.5a1.18,1.18,0,0,1,.34-.83l3.18-3.18a1.18,1.18,0,0,1,.83-.34h4.5a1.18,1.18,0,0,1,.83.34l3.18,3.18a1.18,1.18,0,0,1,.34.83Z"/><path class="cls-2" d="M29.21,482.54a1.32,1.32,0,0,0-.75-.32,7.07,7.07,0,0,0-1.35.17l-5.28,1.29a7.77,7.77,0,0,0-1,.32,5.13,5.13,0,0,0-1,1L8.08,501.18a3.86,3.86,0,0,1-1,.9l-6.87,4c-.32.19-.28.34.09.34H5.63a3,3,0,0,0,1.27-.34l2.18-1.26c.32-.19.68-.4.78-.48a7.66,7.66,0,0,0,.73-.88l11.57-15.92a2.17,2.17,0,0,1,1.06-.72l2.61-.64a.51.51,0,0,1,.66.52v7.79a.68.68,0,0,1-.68.68H19.56a.68.68,0,0,0-.68.68v1a.68.68,0,0,0,.68.68h6.25a.68.68,0,0,1,.68.68v7.53a.68.68,0,0,0,.68.68h2a.68.68,0,0,0,.68-.68V484.55a7.07,7.07,0,0,0-.16-1.35A1.32,1.32,0,0,0,29.21,482.54Z"/><path class="cls-2" d="M3.09,512.62c.09-.3.21-.57.57-.57s.5.28.58.57l2.16,7.58c.08.27-.22.56-.54.56a.67.67,0,0,1-.6-.56l-.41-1.34H2.46L2,520.2a.67.67,0,0,1-.61.56c-.31,0-.62-.29-.54-.56Zm.58,2.08h0l-.87,3H4.54Z"/><path class="cls-2" d="M14.36,520c0,.25,0,.8-.53.8s-.54-.38-.54-.75v-.18l-.87.57a1.77,1.77,0,0,1-.93.36h-.8a1.5,1.5,0,0,1-1-.39,1.7,1.7,0,0,1-.49-1.46l-.11-3.38c0-.39,0-.81.54-.81s.52.39.53.74l.11,3.31a1.81,1.81,0,0,0,.11.69c.09.16.37.22.63.22h.36a.59.59,0,0,0,.34-.1l1.58-1v-3.13c0-.37.08-.74.54-.74s.54.37.54.74Z"/><path class="cls-2" d="M19,515.8c-.22,0-.6,0-.6.3,0,.18.13.25.29.31l2.69,1.22a1.53,1.53,0,0,1,1.05,1.52,1.55,1.55,0,0,1-1.77,1.6H19a1.93,1.93,0,0,1-1.34-.34c-.2-.16-.49-.36-.49-.63a.55.55,0,0,1,.56-.54.52.52,0,0,1,.41.19,1.13,1.13,0,0,0,.86.24h1.46c.38,0,.9,0,.9-.59,0-.26-.31-.43-.56-.54l-2.53-1.15a1.32,1.32,0,0,1-.94-1.31,1.37,1.37,0,0,1,1.48-1.37h1.84a1.56,1.56,0,0,1,1.24.37c.2.17.43.3.43.61a.55.55,0,0,1-.55.54.57.57,0,0,1-.46-.22.78.78,0,0,0-.66-.21Z"/><path class="cls-2" d="M27.39,518.74c0,.61,0,1,.72,1h.55c.44,0,.64,0,.75-.47a.55.55,0,0,1,.54-.44.54.54,0,0,1,.55.54,1.6,1.6,0,0,1-.37.9,1.74,1.74,0,0,1-1.48.55H28.1a1.75,1.75,0,0,1-1.39-.54,1.94,1.94,0,0,1-.39-1.5V515.8H26c-.31,0-.74-.07-.74-.54s.38-.54.74-.54h.35v-1.1c0-.37.08-.74.54-.74s.54.37.54.74v1.1h1.8c.36,0,.74.08.74.54s-.43.54-.74.54h-1.8Z"/><path class="cls-2" d="M33.29,515.52c0-.39,0-.8.54-.8s.54.36.54.72v.44l.84-.69a1.62,1.62,0,0,1,1-.46H37a1.42,1.42,0,0,1,1.05.43,1.57,1.57,0,0,1,.48,1.22c0,.37-.07.75-.53.75s-.55-.31-.55-.66a.7.7,0,0,0-.11-.47c-.13-.19-.39-.19-.65-.19h-.31a.83.83,0,0,0-.54.26l-1.5,1.24V520c0,.37-.08.74-.54.74s-.54-.37-.54-.74Z"/><path class="cls-2" d="M43.16,515.8c-.31,0-.74-.07-.74-.54s.38-.54.74-.54h1.48a1.7,1.7,0,0,1,1.39.48,1.55,1.55,0,0,1,.48,1.28l.11,3.65c0,.31-.15.63-.5.63a.55.55,0,0,1-.55-.54l-.74.38a1,1,0,0,1-.66.16h-1a1.68,1.68,0,0,1-1.22-.38,1.5,1.5,0,0,1-.56-1.32v-.47a1.4,1.4,0,0,1,.53-1.2,1.77,1.77,0,0,1,1.25-.4h2.31v-.25c0-.81-.18-.94-1-.94Zm0,2.26c-.29,0-.72.08-.72.47v.72c0,.36.44.44.69.44h1.19l1.19-.62v-.24c0-.59-.17-.77-.76-.77Z"/><path class="cls-2" d="M52.62,519.69h.81c.36,0,.74.08.74.54s-.43.54-.74.54H50.69c-.31,0-.74-.07-.74-.54s.38-.54.74-.54h.85v-6.11h-.85c-.31,0-.74-.07-.74-.54s.38-.54.74-.54h1.13c.62,0,.8.11.8.75Z"/><path class="cls-2" d="M59.3,515.8c-.31,0-.74-.07-.74-.54s.38-.54.74-.54h1.48a1.7,1.7,0,0,1,1.39.48,1.55,1.55,0,0,1,.48,1.28l.11,3.65c0,.31-.15.63-.5.63a.55.55,0,0,1-.55-.54l-.74.38a1,1,0,0,1-.66.16h-1a1.68,1.68,0,0,1-1.22-.38,1.5,1.5,0,0,1-.56-1.32v-.47a1.4,1.4,0,0,1,.53-1.2,1.77,1.77,0,0,1,1.25-.4h2.31v-.25c0-.81-.18-.94-1-.94Zm0,2.26c-.29,0-.72.08-.72.47v.72c0,.36.44.44.69.44h1.19l1.19-.62v-.24c0-.59-.17-.77-.76-.77Z"/><path class="cls-2" d="M67.4,515.8c-.22,0-.61,0-.61.3,0,.18.13.25.29.31l2.69,1.22a1.53,1.53,0,0,1,1.05,1.52c0,1.09-.74,1.6-1.77,1.6H67.4a1.93,1.93,0,0,1-1.34-.34c-.2-.16-.49-.36-.49-.63a.55.55,0,0,1,.56-.54.52.52,0,0,1,.41.19,1.13,1.13,0,0,0,.86.24h1.46c.38,0,.9,0,.9-.59,0-.26-.31-.43-.56-.54l-2.53-1.15a1.32,1.32,0,0,1-.94-1.31,1.37,1.37,0,0,1,1.48-1.37H69a1.56,1.56,0,0,1,1.24.37c.2.17.43.3.43.61a.55.55,0,0,1-.55.54.57.57,0,0,1-.46-.22.78.78,0,0,0-.66-.21Z"/><path class="cls-2" d="M76.82,519.69h.81c.36,0,.74.08.74.54s-.43.54-.74.54H74.89c-.31,0-.74-.07-.74-.54s.38-.54.74-.54h.85V515.8h-.85c-.31,0-.74-.07-.74-.54s.38-.54.74-.54H76c.62,0,.8.11.8.75Zm-1.62-7.14a.44.44,0,0,1,.5-.5h.62a.44.44,0,0,1,.5.5v.52a.44.44,0,0,1-.5.5H75.7a.44.44,0,0,1-.5-.5Z"/><path class="cls-2" d="M83.5,515.8c-.31,0-.74-.07-.74-.54s.38-.54.74-.54H85a1.7,1.7,0,0,1,1.39.48,1.55,1.55,0,0,1,.48,1.28l.11,3.65c0,.31-.15.63-.5.63a.55.55,0,0,1-.55-.54l-.74.38a1,1,0,0,1-.66.16h-1a1.68,1.68,0,0,1-1.22-.38,1.5,1.5,0,0,1-.56-1.32v-.47a1.4,1.4,0,0,1,.53-1.2,1.77,1.77,0,0,1,1.25-.4h2.31v-.25c0-.81-.18-.94-1-.94Zm0,2.26c-.29,0-.72.08-.72.47v.72c0,.36.44.44.69.44h1.19l1.19-.62v-.24c0-.59-.17-.77-.76-.77Z"/></g><g class="cls-1"><g class="cls-1"><path class="cls-2" d="M146.51,283.24l.64-.69.16,0a5,5,0,0,0,.58.11,1.3,1.3,0,0,0,.55-.61,6.21,6.21,0,0,0,.26-1.39l.42-3.8a3,3,0,0,0-1.68.57,1.5,1.5,0,0,0-.63,1.23,1.68,1.68,0,0,0,.22.84l-.81.72a3,3,0,0,1-.11-.79,2.68,2.68,0,0,1,1.17-2.24,4.84,4.84,0,0,1,3-.87q2.34,0,2.34,1.34,0,1.15-1.62,1.83,1.59.58,1.59,1.77a1.74,1.74,0,0,1-1,1.55,5.21,5.21,0,0,1-2.64.58A18.58,18.58,0,0,1,146.51,283.24Zm3.09-3.3-.07.68,0,.42a2.41,2.41,0,0,1-.3,1.06,2.54,2.54,0,0,1-.91.66,12.22,12.22,0,0,0,2,.16q1.58,0,1.58-1.25a1.59,1.59,0,0,0-.43-1,2.17,2.17,0,0,0-1.06-.68h-.73Zm.34-3.08-.3,2.67.52,0,.58,0a1.77,1.77,0,0,0,1.08-1.49Q151.82,276.86,149.94,276.86Z"/><path class="cls-2" d="M154.69,283.47a1.14,1.14,0,0,1-.93-.45,1.77,1.77,0,0,1-.36-1.15,2.54,2.54,0,0,1,.69-1.77,2.14,2.14,0,0,1,1.62-.75,1.16,1.16,0,0,1,.94.44,1.76,1.76,0,0,1,.36,1.15,2.53,2.53,0,0,1-.69,1.78A2.16,2.16,0,0,1,154.69,283.47Zm.38-.24a1.19,1.19,0,0,0,1-.57,2.42,2.42,0,0,0,.4-1.42,2.07,2.07,0,0,0-.31-1.18.93.93,0,0,0-.79-.47,1.2,1.2,0,0,0-1,.57,2.42,2.42,0,0,0-.4,1.43,2.06,2.06,0,0,0,.31,1.18A.94.94,0,0,0,155.07,283.24Z"/><path class="cls-2" d="M158.06,281.12l-.47.45a1.58,1.58,0,0,1-.07-.45,1.46,1.46,0,0,1,.55-1.2,2.27,2.27,0,0,1,1.47-.45H160a5.22,5.22,0,0,0-.42,1.2,5.66,5.66,0,0,0-.16,1.29q0,1.2.73,1.19a.91.91,0,0,0,.79-.47,3.23,3.23,0,0,0,.39-1.39q0-.42.05-.55l.12-1.09.57-.3a8.49,8.49,0,0,0-.2,1.18l-.1.92,0,.33,0,.4q0,.23,0,.39t.22.29a.75.75,0,0,0,.39-.14v0a.35.35,0,0,1,0,.05q0,.08-.16.16l-.17.08-.85.4.11-1q-.62,1-1.33,1-1,0-1-1.49a5.6,5.6,0,0,1,.49-2.16h-.24q-1.2,0-1.2.79A1,1,0,0,0,158.06,281.12Z"/><path class="cls-2" d="M163.12,281.12l-.47.45a1.56,1.56,0,0,1,.47-1.64,2,2,0,0,1,1.35-.48h.38a1.39,1.39,0,0,0,0,.14,2.65,2.65,0,0,0,.77,1.51l.22.25.19.23a4.86,4.86,0,0,1,.48.66l.19-1.57a4,4,0,0,1,.67-2,1.6,1.6,0,0,1,1.23-.66,1.41,1.41,0,0,1,.5.09l-.43.42a1,1,0,0,0-.47-.15.74.74,0,0,0-.68.41,4.26,4.26,0,0,0-.36,1.43l-.3,2.45-.37.75a3.59,3.59,0,0,0-.28-.81,5.72,5.72,0,0,0-.6-.81l-.22-.27a4.91,4.91,0,0,1-.73-1.11l-.14,1.3,0,.31a1.59,1.59,0,0,1-.15.57,1.49,1.49,0,0,1-.41.41l.64.06-.34.34-1.26-.06.37-.36.32,0a.89.89,0,0,0,.3-.34,2.24,2.24,0,0,0,.13-.61l0-.25.22-2h-.14q-1.2,0-1.2.79A1,1,0,0,0,163.12,281.12Z"/><path class="cls-2" d="M168,283.28l.4-.43a2.27,2.27,0,0,0,.41.1.67.67,0,0,0,.29-.33,3.77,3.77,0,0,0,.14-.79l.24-2.15q-1.31.15-1.31.95a1.12,1.12,0,0,0,.13.49l-.47.44a1.07,1.07,0,0,1-.06-.42,1.5,1.5,0,0,1,.67-1.32,3.46,3.46,0,0,1,1.95-.46q2.1,0,2.1,1.46a2.52,2.52,0,0,1-.59,1.61,2.88,2.88,0,0,1-2.39,1A11,11,0,0,1,168,283.28Zm2-3.67-.24,2.17,0,.27a1.26,1.26,0,0,1-.16.55,1.45,1.45,0,0,1-.47.38,8.62,8.62,0,0,0,1.18.09,1.76,1.76,0,0,0,.79-.14,1.56,1.56,0,0,0,.54-.54,2.18,2.18,0,0,0,.37-1.25q0-1.53-1.9-1.53Z"/><path class="cls-2" d="M173.5,281.12l-.45.44a1.67,1.67,0,0,1-.12-.6,1.35,1.35,0,0,1,.62-1.16,3.19,3.19,0,0,1,1.78-.37h.38l.46,0h.2a3,3,0,0,0-.23,1.43v.48a5.34,5.34,0,0,0,.15,1.22.92.92,0,0,0,.11.31.23.23,0,0,0,.19.07.76.76,0,0,0,.34-.1.22.22,0,0,1,0,.08s0,.09-.11.12l-.14.07-.71.31a6.17,6.17,0,0,1-.29-1.53l-.22.15h-1a1.91,1.91,0,0,1-.73,1l.6,0-.31.33-1.15,0,.38-.35.29,0a1.17,1.17,0,0,0,.34-.41,9.55,9.55,0,0,0,.41-1l.09-.24a4.57,4.57,0,0,1,.51-1.05,1.82,1.82,0,0,1,.65-.54,5.26,5.26,0,0,0-1-.08q-1.28,0-1.28.86A1.14,1.14,0,0,0,173.5,281.12Zm2.21.66q0-.5,0-.81,0-.16,0-.26l0-.33a3.74,3.74,0,0,1,.06-.53,2.55,2.55,0,0,0-.93,1.41l-.12.35-.07.16Z"/><path class="cls-2" d="M180.14,281.41l.08.16a13,13,0,0,0,.65,1.17q.19.28.36.29t.4-.4.1.12a.76.76,0,0,1-.24.45q-.24.27-.41.27t-.62-.53a7.51,7.51,0,0,1-.76-1.38h-.55l0,.19,0,.33a1.35,1.35,0,0,1-.18.59,1.26,1.26,0,0,1-.49.35l.68,0-.35.34-1.25-.06.37-.36.31,0a1.19,1.19,0,0,0,.43-.91l0-.28.24-2.19q-1.31.25-1.31,1a1.1,1.1,0,0,0,.12.53l-.47.41a1.71,1.71,0,0,1-.06-.45,1.53,1.53,0,0,1,.67-1.28,2.8,2.8,0,0,1,1.72-.5q1.43,0,1.43.91A1.36,1.36,0,0,1,180.14,281.41Zm-.78-1.77-.19,1.68a2.66,2.66,0,0,0,.42,0,2.25,2.25,0,0,0,.39,0,1.08,1.08,0,0,0,.52-.9Q180.51,279.63,179.36,279.63Z"/><path class="cls-2" d="M182,283.36l.4-.36.35,0a.81.81,0,0,0,.32-.34,1.92,1.92,0,0,0,.15-.61V282a2.3,2.3,0,0,0,0-.24,3.37,3.37,0,0,0-.3-1.38q-.3-.67-.61-.67t-.4.36a.11.11,0,0,1-.09-.11.6.6,0,0,1,.24-.4.66.66,0,0,1,.42-.22q.39,0,.73.59a4,4,0,0,1,.45,1.47,3.94,3.94,0,0,1,.72-1.46,1.31,1.31,0,0,1,1-.6.62.62,0,0,1,.35.12l-.33.45a.5.5,0,0,0-.27-.08q-.43,0-.88.7a3.6,3.6,0,0,0-.55,1.53v.06a1.15,1.15,0,0,1-.17.53,1.6,1.6,0,0,1-.5.38l.9,0-.34.34Z"/><path class="cls-2" d="M194.48,281.59a.17.17,0,0,1,.12.16q0,.33-.61.88a3.44,3.44,0,0,1-2.36.93,2.09,2.09,0,0,1-1.7-.77,3.16,3.16,0,0,1-.63-2.07,4.35,4.35,0,0,1,1.19-3.11,3.9,3.9,0,0,1,2.95-1.25,5.57,5.57,0,0,1,1.86.34l-.34.74-.1.22q-.12.26-.3.26l-.11,0a.66.66,0,0,0,.07-.26q0-.34-.45-.59a2.14,2.14,0,0,0-1.06-.25,2.44,2.44,0,0,0-2,1,4,4,0,0,0-.77,2.54,3.12,3.12,0,0,0,.54,1.92,1.72,1.72,0,0,0,1.45.72,2.51,2.51,0,0,0,1.3-.39A2.54,2.54,0,0,0,194.48,281.59Z"/><path class="cls-2" d="M196.72,283.47a1.14,1.14,0,0,1-.93-.45,1.77,1.77,0,0,1-.36-1.15,2.54,2.54,0,0,1,.69-1.77,2.14,2.14,0,0,1,1.62-.75,1.16,1.16,0,0,1,.94.44,1.76,1.76,0,0,1,.36,1.15,2.53,2.53,0,0,1-.69,1.78A2.16,2.16,0,0,1,196.72,283.47Zm.38-.24a1.19,1.19,0,0,0,1-.57,2.42,2.42,0,0,0,.4-1.42,2.07,2.07,0,0,0-.31-1.18.93.93,0,0,0-.79-.47,1.2,1.2,0,0,0-1,.57,2.42,2.42,0,0,0-.4,1.43,2.06,2.06,0,0,0,.31,1.18A.94.94,0,0,0,197.1,283.24Z"/><path class="cls-2" d="M200.09,281.12l-.47.45a1.58,1.58,0,0,1-.07-.45,1.46,1.46,0,0,1,.55-1.2,2.27,2.27,0,0,1,1.47-.45H202a5.22,5.22,0,0,0-.42,1.2,5.66,5.66,0,0,0-.16,1.29q0,1.2.73,1.19a.91.91,0,0,0,.79-.47,3.23,3.23,0,0,0,.39-1.39q0-.42.05-.55l.12-1.09.57-.3a8.49,8.49,0,0,0-.2,1.18l-.1.92,0,.33,0,.4q0,.23,0,.39t.22.29a.75.75,0,0,0,.39-.14v0a.35.35,0,0,1,0,.05q0,.08-.16.16l-.17.08-.85.4.11-1q-.62,1-1.33,1-1,0-1-1.49a5.6,5.6,0,0,1,.49-2.16h-.24q-1.2,0-1.2.79A1,1,0,0,0,200.09,281.12Z"/><path class="cls-2" d="M207.57,281.41l.08.16a13,13,0,0,0,.65,1.17q.19.28.36.29t.4-.4.1.12a.76.76,0,0,1-.24.45q-.24.27-.41.27t-.62-.53a7.51,7.51,0,0,1-.76-1.38h-.55l0,.19,0,.33a1.35,1.35,0,0,1-.18.59,1.26,1.26,0,0,1-.49.35l.68,0-.35.34-1.25-.06.37-.36.31,0a1.19,1.19,0,0,0,.43-.91l0-.28.24-2.19q-1.31.25-1.31,1a1.1,1.1,0,0,0,.12.53l-.47.41a1.71,1.71,0,0,1-.06-.45,1.53,1.53,0,0,1,.67-1.28,2.8,2.8,0,0,1,1.72-.5q1.43,0,1.43.91A1.36,1.36,0,0,1,207.57,281.41Zm-.78-1.77-.19,1.68a2.66,2.66,0,0,0,.42,0,2.25,2.25,0,0,0,.39,0,1.08,1.08,0,0,0,.52-.9Q207.94,279.63,206.79,279.63Z"/><path class="cls-2" d="M209.8,281.12l-.47.45a1.56,1.56,0,0,1-.07-.44,1.53,1.53,0,0,1,.66-1.29,2.24,2.24,0,0,1,1.36-.37H213q1.07,0,1.07-.66a.67.67,0,0,0-.16-.43l.36-.35a.73.73,0,0,1,.13.44,1.16,1.16,0,0,1-.51,1,2,2,0,0,1-1.27.39h-.8l-.22,2,0,.32a1.34,1.34,0,0,1-.18.59,1.26,1.26,0,0,1-.49.36l.84,0-.35.34-1.41-.06.37-.36.31,0a1.19,1.19,0,0,0,.43-.91l0-.28.22-2h-.49q-1.21,0-1.21.8A1,1,0,0,0,209.8,281.12Z"/><path class="cls-2" d="M218.26,279.43l-.82.79a2.78,2.78,0,0,1-.12-.79,2.65,2.65,0,0,1,.95-2.08,3.48,3.48,0,0,1,2.38-.83l.42,0h.23q0,.15,0,.21a8,8,0,0,0,.68,2.51l.23.58.15.4.19.53q.15.41.26.82l.26-.43.78-1.31.5-.85.38-.71.46-.85.26-.48,1-.61a18.82,18.82,0,0,0-.32,3L226,281l0,.62a3.23,3.23,0,0,0,.1,1,.43.43,0,0,0,.44.25,1.9,1.9,0,0,0,.64-.1.19.19,0,0,1,0,.11q0,.17-.34.25l-.27.07-1.44.29q0-.48,0-.87a40.72,40.72,0,0,1,.23-4.58q-.7,1-1.05,1.61l-.3.52a14.67,14.67,0,0,0-1,2.07l-.73.76a10,10,0,0,0-.76-2.68l-.2-.51-.18-.44a8.1,8.1,0,0,1-.43-1.33l-.41,2.5a6.42,6.42,0,0,1-.37,1.53,1.51,1.51,0,0,1-.69.67l1.27.09-.64.6-2.16-.11.65-.63.57,0a1.38,1.38,0,0,0,.48-.61,8.87,8.87,0,0,0,.33-1.45l.61-3.55h-.24q-2.1,0-2.1,1.39A1.83,1.83,0,0,0,218.26,279.43Z"/><path class="cls-2" d="M228.69,283.47a1.14,1.14,0,0,1-.93-.45,1.77,1.77,0,0,1-.36-1.15,2.54,2.54,0,0,1,.69-1.77,2.14,2.14,0,0,1,1.62-.75,1.16,1.16,0,0,1,.94.44,1.76,1.76,0,0,1,.36,1.15,2.53,2.53,0,0,1-.69,1.78A2.16,2.16,0,0,1,228.69,283.47Zm.38-.24a1.19,1.19,0,0,0,1-.57,2.42,2.42,0,0,0,.4-1.42,2.07,2.07,0,0,0-.31-1.18.93.93,0,0,0-.79-.47,1.2,1.2,0,0,0-1,.57,2.42,2.42,0,0,0-.4,1.43,2.06,2.06,0,0,0,.31,1.18A.94.94,0,0,0,229.06,283.24Z"/><path class="cls-2" d="M232.05,281.12l-.47.45a1.56,1.56,0,0,1-.07-.44,1.53,1.53,0,0,1,.66-1.29,2.24,2.24,0,0,1,1.36-.37h1.72q1.07,0,1.07-.66a.67.67,0,0,0-.16-.43l.36-.35a.73.73,0,0,1,.13.44,1.16,1.16,0,0,1-.51,1,2,2,0,0,1-1.27.39h-.8l-.22,2,0,.32a1.34,1.34,0,0,1-.18.59,1.26,1.26,0,0,1-.49.36l.84,0-.35.34-1.41-.06.37-.36.31,0a1.19,1.19,0,0,0,.43-.91l0-.28.22-2h-.49q-1.21,0-1.21.8A1,1,0,0,0,232.05,281.12Z"/><path class="cls-2" d="M237.32,283.47a1.14,1.14,0,0,1-.93-.45,1.77,1.77,0,0,1-.36-1.15,2.54,2.54,0,0,1,.69-1.77,2.14,2.14,0,0,1,1.62-.75,1.16,1.16,0,0,1,.94.44,1.76,1.76,0,0,1,.36,1.15,2.53,2.53,0,0,1-.69,1.78A2.16,2.16,0,0,1,237.32,283.47Zm.38-.24a1.19,1.19,0,0,0,1-.57,2.42,2.42,0,0,0,.4-1.42,2.07,2.07,0,0,0-.31-1.18.93.93,0,0,0-.79-.47,1.2,1.2,0,0,0-1,.57,2.42,2.42,0,0,0-.4,1.43,2.06,2.06,0,0,0,.31,1.18A.94.94,0,0,0,237.7,283.24Z"/><path class="cls-2" d="M243.11,281.41l.08.16a13,13,0,0,0,.65,1.17q.19.28.36.29t.4-.4.1.12a.76.76,0,0,1-.24.45q-.24.27-.41.27t-.62-.53a7.51,7.51,0,0,1-.76-1.38h-.55l0,.19,0,.33a1.35,1.35,0,0,1-.18.59,1.26,1.26,0,0,1-.49.35l.68,0-.35.34-1.25-.06.37-.36.31,0a1.19,1.19,0,0,0,.43-.91l0-.28.24-2.19q-1.31.25-1.31,1a1.1,1.1,0,0,0,.12.53l-.47.41a1.71,1.71,0,0,1-.06-.45,1.53,1.53,0,0,1,.67-1.28,2.8,2.8,0,0,1,1.72-.5q1.43,0,1.43.91A1.36,1.36,0,0,1,243.11,281.41Zm-.78-1.77-.19,1.68a2.66,2.66,0,0,0,.42,0,2.25,2.25,0,0,0,.39,0,1.08,1.08,0,0,0,.52-.9Q243.48,279.63,242.33,279.63Z"/><path class="cls-2" d="M249.29,279.43l-.82.79a2.76,2.76,0,0,1-.12-.78,2.56,2.56,0,0,1,1-2.09,4,4,0,0,1,2.58-.79h.4q-.23,1.16-.27,1.56l-.27,2.47-.07.56a2.34,2.34,0,0,1-.31,1,2.2,2.2,0,0,1-.86.62l1.46.08-.61.59-2.46-.11.65-.63.55.06a2.05,2.05,0,0,0,.76-1.59l.06-.49.39-3.54h-.16q-2.11,0-2.11,1.39A1.83,1.83,0,0,0,249.29,279.43Z"/><path class="cls-2" d="M253.36,281.12l-.47.45a1.56,1.56,0,0,1,.47-1.64,2,2,0,0,1,1.35-.48h.38a1.39,1.39,0,0,0,0,.14,2.65,2.65,0,0,0,.77,1.51l.22.25.19.23a4.86,4.86,0,0,1,.48.66l.19-1.57a4,4,0,0,1,.67-2,1.6,1.6,0,0,1,1.23-.66,1.41,1.41,0,0,1,.5.09l-.43.42a1,1,0,0,0-.47-.15.74.74,0,0,0-.68.41,4.26,4.26,0,0,0-.36,1.43l-.3,2.45-.37.75a3.59,3.59,0,0,0-.28-.81,5.72,5.72,0,0,0-.6-.81l-.22-.27a4.91,4.91,0,0,1-.73-1.11l-.14,1.3,0,.31a1.59,1.59,0,0,1-.15.57,1.49,1.49,0,0,1-.41.41l.64.06-.34.34-1.26-.06.37-.36.32,0a.89.89,0,0,0,.3-.34,2.24,2.24,0,0,0,.13-.61l0-.25.22-2h-.14q-1.2,0-1.2.79A1,1,0,0,0,253.36,281.12Z"/><path class="cls-2" d="M258.57,281.12l-.47.45a1.56,1.56,0,0,1,.47-1.64,2,2,0,0,1,1.35-.48h.38a1.39,1.39,0,0,0,0,.14,2.65,2.65,0,0,0,.77,1.51l.22.25.19.23a4.86,4.86,0,0,1,.48.66l.19-1.57a4,4,0,0,1,.67-2A1.6,1.6,0,0,1,264,278a1.41,1.41,0,0,1,.5.09l-.43.42a1,1,0,0,0-.47-.15.74.74,0,0,0-.68.41,4.26,4.26,0,0,0-.36,1.43l-.3,2.45-.37.75a3.59,3.59,0,0,0-.28-.81,5.72,5.72,0,0,0-.6-.81l-.22-.27a4.91,4.91,0,0,1-.73-1.11l-.14,1.3,0,.31a1.59,1.59,0,0,1-.15.57,1.49,1.49,0,0,1-.41.41l.64.06-.34.34-1.26-.06.37-.36.32,0a.89.89,0,0,0,.3-.34,2.24,2.24,0,0,0,.13-.61l0-.25.22-2h-.14q-1.2,0-1.2.79A1,1,0,0,0,258.57,281.12Z"/></g><g class="cls-1"><path class="cls-2" d="M167.82,290.2v-2.67h.62v1h1.94v-1H171v2.67h-.63v-1.15h-1.94v1.15Z"/><path class="cls-2" d="M171.84,290.2l1.3-2.19h.51L175,290.2h-.6l-.28-.48h-1.45l-.28.48Zm1-.88h1l-.51-.91Z"/><path class="cls-2" d="M175.52,290.2V288h.43l1.07,1.3,1.07-1.3h.43v2.19H178V288.7l-1,1.24h-.1l-1-1.21v1.47Z"/><path class="cls-2" d="M179.49,290.2V288H180v2.19Z"/><path class="cls-2" d="M181,290.2V288h.54v1.78h1.72v.41Z"/><path class="cls-2" d="M184.59,288.41v1.8h-.53v-1.8H183V288h2.65v.39Z"/><path class="cls-2" d="M186.29,288.53a.55.55,0,0,1,.12-.41.68.68,0,0,1,.45-.11h1.69a.68.68,0,0,1,.45.11.56.56,0,0,1,.12.41v1.16a.55.55,0,0,1-.12.41.68.68,0,0,1-.45.11h-1.69a.68.68,0,0,1-.45-.11.56.56,0,0,1-.12-.41Zm.53,1.25h1.76v-1.37h-1.76Z"/><path class="cls-2" d="M190,290.2V288h.37l1.86,1.45V288h.48v2.19h-.37l-1.85-1.48v1.48Z"/><path class="cls-2" d="M195.49,289.09v-.53h1.21v.53Z"/><path class="cls-2" d="M199.13,290.2l1.51-2.67h.6l1.53,2.67h-.7l-.32-.58h-1.69l-.31.58Zm1.2-1.07h1.17l-.58-1.09Z"/><path class="cls-2" d="M205.21,288.42h-1.44v1.37h1.44v-.47l.54.11v.26a.55.55,0,0,1-.12.41.69.69,0,0,1-.45.11h-1.37a.68.68,0,0,1-.45-.11.55.55,0,0,1-.12-.41v-1.16a.55.55,0,0,1,.12-.41.68.68,0,0,1,.45-.11h1.37a.69.69,0,0,1,.46.11.55.55,0,0,1,.12.41v.21l-.54.08Z"/><path class="cls-2" d="M208.55,288.42h-1.44v1.37h1.44v-.47l.54.11v.26a.55.55,0,0,1-.12.41.69.69,0,0,1-.45.11h-1.37a.68.68,0,0,1-.45-.11.55.55,0,0,1-.12-.41v-1.16a.55.55,0,0,1,.12-.41.68.68,0,0,1,.45-.11h1.37a.69.69,0,0,1,.46.11.55.55,0,0,1,.12.41v.21l-.54.08Z"/><path class="cls-2" d="M209.91,288.53a.55.55,0,0,1,.12-.41.68.68,0,0,1,.45-.11h1.69a.68.68,0,0,1,.45.11.55.55,0,0,1,.12.41v1.16a.55.55,0,0,1-.12.41.68.68,0,0,1-.45.11h-1.69a.68.68,0,0,1-.45-.11.56.56,0,0,1-.12-.41Zm.53,1.25h1.76v-1.37h-1.76Z"/><path class="cls-2" d="M213.66,290.2V288h.43l1.07,1.3,1.07-1.3h.43v2.19h-.5V288.7l-1,1.24h-.1l-1-1.21v1.47Z"/><path class="cls-2" d="M217.63,290.2V288h.43l1.07,1.3,1.07-1.3h.43v2.19h-.5V288.7l-1,1.24h-.1l-1-1.21v1.47Z"/><path class="cls-2" d="M221.55,288.53a.55.55,0,0,1,.12-.41.68.68,0,0,1,.45-.11h1.69a.68.68,0,0,1,.45.11.55.55,0,0,1,.12.41v1.16a.55.55,0,0,1-.12.41.68.68,0,0,1-.45.11h-1.69a.68.68,0,0,1-.45-.11.56.56,0,0,1-.12-.41Zm.53,1.25h1.76v-1.37h-1.76Z"/><path class="cls-2" d="M225.31,290.2V288h1.47a1.49,1.49,0,0,1,1,.28,1,1,0,0,1,.34.8,1,1,0,0,1-.36.83,1.78,1.78,0,0,1-1.09.28Zm.54-.41h.69a1.39,1.39,0,0,0,.79-.16.78.78,0,0,0,0-1.06.85.85,0,0,0-.57-.17h-.94Z"/><path class="cls-2" d="M228.47,290.2l1.3-2.19h.51l1.32,2.19H231l-.28-.48h-1.45l-.28.48Zm1-.88h1l-.51-.91Z"/><path class="cls-2" d="M233.17,288.41v1.8h-.53v-1.8h-1.06V288h2.65v.39Z"/><path class="cls-2" d="M234.92,290.2V288h.53v2.19Z"/><path class="cls-2" d="M236.37,288.53a.55.55,0,0,1,.12-.41.68.68,0,0,1,.45-.11h1.69a.68.68,0,0,1,.45.11.55.55,0,0,1,.12.41v1.16a.55.55,0,0,1-.12.41.68.68,0,0,1-.45.11h-1.69a.68.68,0,0,1-.45-.11.56.56,0,0,1-.12-.41Zm.53,1.25h1.76v-1.37h-1.76Z"/><path class="cls-2" d="M240.13,290.2V288h.37l1.86,1.45V288h.48v2.19h-.37l-1.85-1.48v1.48Z"/></g><g class="cls-1"><path class="cls-2" d="M216.81,264.34H204.3a6.87,6.87,0,0,0,1.87-1.57,3.65,3.65,0,0,0,.76-2.23V236l-1.51-.9a3.21,3.21,0,0,1-1-1h12.39a11.55,11.55,0,0,0-2,1.76,2.09,2.09,0,0,0-.39.63,3.1,3.1,0,0,0-.33,1.41v24.46l1.34.86A7.44,7.44,0,0,1,216.81,264.34Z"/></g><path class="cls-3" d="M191.25,249.74l-6.71-8.1v-.73a3.53,3.53,0,0,1,.22-1.25,2,2,0,0,1,.26-.55,9,9,0,0,1,1.29-1.56h-8.21a2.65,2.65,0,0,0,.67.9l1,.8V261a4,4,0,0,1-.5,2,5.19,5.19,0,0,1-1.24,1.39h8.28a5.57,5.57,0,0,0-.89-1l-.89-.76v-16.3l7.58,9.15h0l13.06-10.81V238.2Z"/><rect class="cls-3" x="170.93" y="267.96" width="66.75" height="1.5"/><rect class="cls-3" x="170.93" y="266.72" width="66.75" height="0.75"/><path class="cls-3" d="M216.72,242.46l.51-.54.12,0,.46.09a1,1,0,0,0,.44-.48,4.93,4.93,0,0,0,.21-1.1l.33-3a2.39,2.39,0,0,0-1.33.45,1.19,1.19,0,0,0-.5,1,1.33,1.33,0,0,0,.18.66l-.64.57a2.36,2.36,0,0,1-.08-.62,2.12,2.12,0,0,1,.92-1.77,3.83,3.83,0,0,1,2.36-.69q1.85,0,1.85,1.06,0,.91-1.29,1.45,1.26.46,1.26,1.4a1.38,1.38,0,0,1-.78,1.23,4.12,4.12,0,0,1-2.09.46A14.72,14.72,0,0,1,216.72,242.46Zm2.45-2.61-.06.54,0,.34a1.91,1.91,0,0,1-.24.84,2,2,0,0,1-.72.52,9.67,9.67,0,0,0,1.57.13q1.25,0,1.25-1a1.26,1.26,0,0,0-.34-.83,1.72,1.72,0,0,0-.84-.54h-.58Zm.27-2.44-.23,2.11.41,0,.46,0a1.4,1.4,0,0,0,.85-1.18Q220.93,237.41,219.44,237.41Z"/><path class="cls-3" d="M220.92,248.26a.14.14,0,0,1,.09.13q0,.26-.48.7a2.72,2.72,0,0,1-1.87.73,1.65,1.65,0,0,1-1.35-.61,2.5,2.5,0,0,1-.5-1.64,3.44,3.44,0,0,1,.94-2.46,3.09,3.09,0,0,1,2.33-1,4.41,4.41,0,0,1,1.47.27l-.27.59-.08.17q-.1.2-.24.2h-.08a.52.52,0,0,0,.06-.2q0-.27-.36-.47a1.69,1.69,0,0,0-.84-.2,1.93,1.93,0,0,0-1.59.77,3.14,3.14,0,0,0-.61,2,2.47,2.47,0,0,0,.43,1.52,1.36,1.36,0,0,0,1.15.57,2,2,0,0,0,1-.31A2,2,0,0,0,220.92,248.26Z"/></g><g class="cls-1"><path class="cls-3" d="M207.13,476.56a12.87,12.87,0,0,0-4.35-.75h0a2.18,2.18,0,0,0-2.18,2.18v.92a6.53,6.53,0,0,0,1.92,4.63l.29.27a6.54,6.54,0,0,0,1.12.8,2.51,2.51,0,0,0,.38.2h0l.38.17a4.23,4.23,0,1,1-6.12,3.79h0c0-.15,0-.29,0-.44h0v-3.25a6.55,6.55,0,0,0-6.55-6.55,2.18,2.18,0,0,0-2.18,2.18v8.09h0a13,13,0,0,0,13,12.94h11.66a1.31,1.31,0,0,0,1.31-1.31V488.78A13,13,0,0,0,207.13,476.56ZM192,480.11a5,5,0,0,1,4.92,4.39,6.53,6.53,0,0,0-4.92-2.24h0a2.16,2.16,0,0,0-.61.1v-1.64A.62.62,0,0,1,192,480.11Zm22.19,20.08H209a13.07,13.07,0,0,0,5.22-5.22Z"/><g class="cls-1"><path class="cls-2" d="M171.84,521.4H168l-1.75-3.94v-3.14h.29c.76,0,1.15-.32,1.15-1s-.44-.86-1.33-.86h-.64v8.94H162.1V509.17h4.65a4.89,4.89,0,0,1,3.38,1.12,3.82,3.82,0,0,1,1.23,3,3.78,3.78,0,0,1-1.61,3.1Z"/><path class="cls-2" d="M176.6,510.39a1.61,1.61,0,1,1-3.23,0,1.51,1.51,0,0,1,.48-1.13,1.62,1.62,0,0,1,2.27,0A1.51,1.51,0,0,1,176.6,510.39Z"/><rect class="cls-2" x="173.28" y="512.75" width="3.36" height="8.64"/><path class="cls-2" d="M187,516.7v4.7H183.7v-5c0-.51-.22-.76-.65-.76s-.62.25-.62.76v5h-3.36v-5a4.1,4.1,0,0,1,1.16-2.93,3.73,3.73,0,0,1,2.82-1.21,3.77,3.77,0,0,1,2.9,1.16A4.59,4.59,0,0,1,187,516.7Z"/><path class="cls-2" d="M198.24,517.24v2.92a5.71,5.71,0,0,1-1.3,3.86,4.24,4.24,0,0,1-3.36,1.51,5.93,5.93,0,0,1-1.88-.31v-3a3.12,3.12,0,0,0,1.38.37,1.66,1.66,0,0,0,1.34-.61,2.66,2.66,0,0,0,.5-1.71v-3.36c0-.93-.38-1.41-1.14-1.41a1.13,1.13,0,0,0-.84.37,1.19,1.19,0,0,0-.36.87,1.13,1.13,0,0,0,.34.86,1.19,1.19,0,0,0,.84.34,1.53,1.53,0,0,0,.67-.16v3.07A4.34,4.34,0,0,1,193,521a3.6,3.6,0,0,1-2.74-1.2,4.26,4.26,0,0,1-1.12-3,4.32,4.32,0,0,1,1.35-3.22,4.56,4.56,0,0,1,3.3-1.32,4.16,4.16,0,0,1,3.27,1.28A5.31,5.31,0,0,1,198.24,517.24Z"/><path class="cls-2" d="M215.71,521.4h-3.84l-1.75-3.94v-3.14h.3c.76,0,1.15-.32,1.15-1s-.44-.86-1.33-.86h-.64v8.94H206V509.17h4.65a4.89,4.89,0,0,1,3.38,1.12,3.82,3.82,0,0,1,1.23,3,3.78,3.78,0,0,1-1.61,3.1Z"/><path class="cls-2" d="M224.75,513.69a4.58,4.58,0,0,0-6.58,0,4.57,4.57,0,0,0-1.39,3.32,4.68,4.68,0,0,0,9.36,0A4.57,4.57,0,0,0,224.75,513.69ZM222.42,518a1.32,1.32,0,0,1-1,.39,1.33,1.33,0,0,1-1-.39,1.28,1.28,0,0,1-.4-1,1.36,1.36,0,1,1,2.73,0A1.28,1.28,0,0,1,222.42,518Z"/><path class="cls-2" d="M237.08,517v4.38h-3.36v-4.14a1.64,1.64,0,0,0-.36-1.12,1.14,1.14,0,0,0-.91-.42,1.25,1.25,0,0,0-.91.39,1.28,1.28,0,0,0-.39.93,1.18,1.18,0,0,0,.34.88,1.23,1.23,0,0,0,.93.36,1.64,1.64,0,0,0,.79-.22v3.44a3.7,3.7,0,0,1-.76.09,4.56,4.56,0,0,1-3.36-1.34,4.43,4.43,0,0,1-1.35-3.3,4.66,4.66,0,0,1,4.66-4.66,4.61,4.61,0,0,1,3.43,1.27A4.77,4.77,0,0,1,237.08,517Z"/><path class="cls-2" d="M248.56,509.17v7.55a5,5,0,0,1-1.31,3.58,4.37,4.37,0,0,1-3.29,1.39,4.58,4.58,0,0,1-3.37-1.36,4.65,4.65,0,0,1,0-6.57,4.39,4.39,0,0,1,3.23-1.36c.21,0,.51,0,.9.05v3.7a1.61,1.61,0,0,0-.92-.3,1.08,1.08,0,0,0-.82.35,1.28,1.28,0,0,0-.35.92,1.24,1.24,0,0,0,.38.9,1.25,1.25,0,0,0,.93.38c.86,0,1.28-.6,1.28-1.79v-7.43Z"/></g></g><g class="cls-1"><path class="cls-3" d="M38.75,625.41l-5.83,2.91a1.07,1.07,0,0,1-1.54-1V598.07a1.07,1.07,0,0,1,.59-1l5.83-2.91a1.07,1.07,0,0,1,1.54,1v29.31A1.07,1.07,0,0,1,38.75,625.41Z"/><path class="cls-3" d="M49.33,594.37v29.87l0,0a1.06,1.06,0,0,1-1.1.87H42.44a1.25,1.25,0,0,1-.57-.15,1.07,1.07,0,0,1-.52-1q0-14.66,0-29.32c0-.06,0-.12,0-.19a1.05,1.05,0,0,1,.8-1l.12,0h6.09a1.09,1.09,0,0,1,.72.42A3.66,3.66,0,0,1,49.33,594.37Z"/><path class="cls-3" d="M57.72,628.34l-5.87-2.93a1,1,0,0,1-.58-.94V595.12a1,1,0,0,1,1.52-.94l5.87,2.93a1,1,0,0,1,.58.94V627.4A1,1,0,0,1,57.72,628.34Z"/><path class="cls-3" d="M45.31,641.2h0a.84.84,0,0,1-.63-.32c-.06-.07-10.52-6.65-10.52-6.65a2,2,0,0,1-.72-2.07c.14-.56,5.07-2.5,5.07-2.5a19.81,19.81,0,0,1,13.65,0c2.19.8,4.88,1.93,5,2.49a2,2,0,0,1-.72,2.07S46,640.81,45.93,640.88A.84.84,0,0,1,45.31,641.2Z"/><g class="cls-1"><path class="cls-2" d="M58.44,643.17H32.17a1,1,0,0,1,0-2H58.44a1,1,0,0,1,0,2Z"/></g><path class="cls-3" d="M33.17,647.23c-.61-.24-.79-.4-.79-.72s.18-.52.69-.52a1.62,1.62,0,0,1,.78.19l.16.08.26-.76-.11-.06a2.16,2.16,0,0,0-1.06-.24,1.43,1.43,0,0,0-1.6,1.36c0,.64.42,1.1,1.28,1.41.63.24.75.46.75.75s-.29.62-.79.62a1.91,1.91,0,0,1-1-.27l-.16-.1-.23.77.09.06a2.45,2.45,0,0,0,1.22.31c1.18,0,1.72-.72,1.72-1.44S34,647.56,33.17,647.23Z"/><path class="cls-3" d="M35.86,645.57l-.87.23v.74h-.5v.74H35v1.6a1.31,1.31,0,0,0,.26.93,1,1,0,0,0,.74.3,1.57,1.57,0,0,0,.57-.09l.1,0,0-.73-.18,0a1.17,1.17,0,0,1-.3,0c-.15,0-.29,0-.29-.48v-1.58h.84v-.74h-.84Z"/><path class="cls-3" d="M39.61,649.13v-1.2a1.28,1.28,0,0,0-1.37-1.46,2.13,2.13,0,0,0-1.14.31l-.1.06.23.67.16-.1a1.45,1.45,0,0,1,.76-.22c.37,0,.56.16.58.51a2.29,2.29,0,0,0-1.6.51,1.13,1.13,0,0,0-.33.83,1.07,1.07,0,0,0,1.13,1.07,1.39,1.39,0,0,0,.89-.31l0,.24h.84l0-.18A4.33,4.33,0,0,1,39.61,649.13Zm-.86-.72v.41a.48.48,0,0,1,0,.14.66.66,0,0,1-.64.44.37.37,0,0,1-.4-.41.43.43,0,0,1,.13-.33A1.41,1.41,0,0,1,38.75,648.41Z"/><path class="cls-3" d="M41,646.84v-.3h-.81v.16c0,.27,0,.58,0,1v2.36h.87v-1.86a1.49,1.49,0,0,1,0-.25.67.67,0,0,1,.64-.63l.17,0,.18,0v-.85l-.11,0A1,1,0,0,0,41,646.84Z"/><path class="cls-3" d="M43.8,645.57l-.87.23v.74h-.5v.74h.5v1.6a1.3,1.3,0,0,0,.26.93,1,1,0,0,0,.74.3,1.57,1.57,0,0,0,.57-.09l.1,0,0-.73-.18,0a1.17,1.17,0,0,1-.3,0c-.15,0-.29,0-.29-.48v-1.58h.84v-.74H43.8Z"/><path class="cls-3" d="M46.45,645.25a6.92,6.92,0,0,0-1.13.09l-.12,0v4.7h.87v-1.77h.32a2,2,0,0,0,1.47-.54,1.46,1.46,0,0,0,.39-1.06,1.35,1.35,0,0,0-.44-1A2,2,0,0,0,46.45,645.25Zm.92,1.48c0,.7-.61.81-1,.81l-.33,0V646C46.38,646,47.37,645.88,47.37,646.73Z"/><path class="cls-3" d="M50,646.47a1.72,1.72,0,0,0-1.74,1.85,1.67,1.67,0,0,0,1.69,1.8,1.72,1.72,0,0,0,1.75-1.85A1.68,1.68,0,0,0,50,646.47Zm.8,1.82c0,.64-.35,1.1-.83,1.1s-.83-.46-.83-1.09.26-1.1.84-1.1S50.85,647.91,50.85,648.29Z"/><rect class="cls-3" x="52.18" y="646.54" width="0.88" height="3.51"/><path class="cls-3" d="M52.63,645.27a.51.51,0,0,0,0,1,.53.53,0,0,0,.39-.15.49.49,0,0,0,.13-.36A.49.49,0,0,0,52.63,645.27Z"/><path class="cls-3" d="M55.49,646.47a1.36,1.36,0,0,0-1,.37l0-.29H53.7v.16c0,.24,0,.5,0,.86v2.49h.88V648a.7.7,0,0,1,0-.23.69.69,0,0,1,.64-.49c.39,0,.6.27.6.8v2h.88V648C56.77,646.87,56.08,646.47,55.49,646.47Z"/><path class="cls-3" d="M59.24,647.28v-.74H58.4v-1l-.87.23v.74H57v.74h.5v1.6a1.3,1.3,0,0,0,.26.93,1,1,0,0,0,.74.3,1.57,1.57,0,0,0,.57-.09l.1,0,0-.73-.18,0a1.17,1.17,0,0,1-.3,0c-.15,0-.29,0-.29-.48v-1.58Z"/></g><g class="cls-1"><g class="cls-1"><path class="cls-2" d="M44.28,352.52a2.14,2.14,0,0,1,.86,0Z"/><path class="cls-2" d="M31.72,374.62a2.41,2.41,0,0,1-.87,0Z"/><path class="cls-2" d="M31.5,354.3v-.62A1.15,1.15,0,0,1,31.5,354.3Z"/><path class="cls-2" d="M42.82,357h.52A.87.87,0,0,1,42.82,357Z"/><path class="cls-2" d="M63.4,361.66a1.62,1.62,0,0,1,0-.55A1.67,1.67,0,0,1,63.4,361.66Z"/><path class="cls-2" d="M44.08,370.29c-.17,0-.35,0-.51,0A1.68,1.68,0,0,1,44.08,370.29Z"/><path class="cls-2" d="M38.32,372.38h-.39A.49.49,0,0,1,38.32,372.38Z"/><path class="cls-2" d="M56.19,395.68a.42.42,0,0,1,0,.37Z"/><path class="cls-2" d="M50.8,385.75a.65.65,0,0,1,0,.33C50.76,386,50.81,385.86,50.8,385.75Z"/><path class="cls-2" d="M50.83,385.21c0,.11,0,.22,0,.33C50.81,385.43,50.76,385.31,50.83,385.21Z"/><path class="cls-2" d="M31.94,363a.65.65,0,0,1-.33,0C31.72,363,31.83,363,31.94,363Z"/><path class="cls-2" d="M33.33,357.17c.09-.06.19,0,.28,0C33.53,357.2,33.43,357.16,33.33,357.17Z"/><path class="cls-2" d="M64.56,368.73a.49.49,0,0,1,0,.28C64.54,368.92,64.5,368.82,64.56,368.73Z"/><path class="cls-2" d="M56.22,393.89c0,.1,0,.2,0,.29C56.2,394.08,56.16,394,56.22,393.89Z"/><path class="cls-2" d="M63.36,362.8c0-.1,0-.19,0-.28C63.38,362.61,63.42,362.71,63.36,362.8Z"/><path class="cls-2" d="M32.22,357.14c.09,0,.19,0,.28,0C32.41,357.16,32.31,357.2,32.22,357.14Z"/><path class="cls-2" d="M64.53,370.06c.06.09,0,.19,0,.28C64.5,370.25,64.54,370.15,64.53,370.06Z"/><path class="cls-2" d="M37.54,374.78c-.08,0-.17,0-.24,0C37.38,374.75,37.47,374.72,37.54,374.78Z"/><path class="cls-2" d="M52.75,396a.4.4,0,0,1-.24,0C52.58,396,52.67,396,52.75,396Z"/><path class="cls-2" d="M19.47,371.19l0,.13s-.06,0,0,0,0-.11,0-.15Z"/><path class="cls-2" d="M38.78,374.75c-.07.06-.16,0-.24,0C38.62,374.72,38.7,374.75,38.78,374.75Z"/><path class="cls-2" d="M42.37,352.61a.4.4,0,0,1,.24,0C42.54,352.64,42.46,352.6,42.37,352.61Z"/><path class="cls-2" d="M61.52,357.22s-.08,0-.07-.06.11,0,.17,0Z"/><path class="cls-2" d="M45.84,395.8a.4.4,0,0,1-.24,0C45.67,395.77,45.75,395.81,45.84,395.8Z"/><path class="cls-2" d="M75,375.37a5.78,5.78,0,0,0-.81-1.88,12.74,12.74,0,0,0-1.37-1.79,15.8,15.8,0,0,0-1.49-1.51c-.23-.19-.52-.37-.63-.62-.28-.65-.53-1.32-.83-2,0,0,0-.05,0-.08s.05,0,.09,0a7.7,7.7,0,0,0,1,.36,4.2,4.2,0,0,0,1.71.08c.11,0,.19-.05.12-.21-.24-.6-.47-1.19-.75-1.77a11.37,11.37,0,0,0-3.35-4.33,5.94,5.94,0,0,0-3-1.24,1.43,1.43,0,0,1-1-.49,25.29,25.29,0,0,0-3.06-2.72c0-.1.05-.05.1,0l.22,0,3.79.76a9.83,9.83,0,0,0,2,.28.35.35,0,0,0,.33-.16c.07-.12,0-.23-.08-.33a15.52,15.52,0,0,0-3-3.11,12.75,12.75,0,0,0-3.56-1.94,12.28,12.28,0,0,0-3.54-.66,5.72,5.72,0,0,0-.78,0,15.13,15.13,0,0,0-4.1.74.52.52,0,0,1-.32,0,22.82,22.82,0,0,0-2.68-.61l-.23-.05c-.1,0-.22,0-.31-.08l.07-.06a9.8,9.8,0,0,1,3.31-1.4s.12,0,.13-.05-.07-.07-.11-.1a7.05,7.05,0,0,0-3.35-1.08c-.09,0-.19,0-.28,0a1.78,1.78,0,0,1-.52,0c-.09,0-.19,0-.28,0-.45,0-.89.09-1.33.17a14.77,14.77,0,0,0-2.91.87,21.31,21.31,0,0,0-2.78,1.39,2.39,2.39,0,0,1-.82.42,20.78,20.78,0,0,0-2.13.47,3.79,3.79,0,0,1-.81.19,15.86,15.86,0,0,1,.86-1.56,1.94,1.94,0,0,1,1-.85c0-.06,0-.06-.06-.06a6.25,6.25,0,0,0-.67,0,5.87,5.87,0,0,0-3.42,1.58,7.91,7.91,0,0,0-1.74,2.36c0,.06-.05.13-.1.16-.57.27-1.13.57-1.7.89l.08-.66a3.15,3.15,0,0,0,0-.61c0-.11,0-.21-.06-.32s-.21-.29-.42-.19a1.05,1.05,0,0,0-.4.45c-.52.83-1,1.7-1.44,2.55a1.2,1.2,0,0,1-.27.4c-.5.35-1,.72-1.46,1.12s-1.17,1-1.72,1.55-1,1-1.52,1.55-.75.8-1.1,1.23c-.47.58-.94,1.17-1.36,1.79a23.56,23.56,0,0,0-2.79,5.53,24.13,24.13,0,0,0-.71,2.54c-.16.7-.27,1.41-.37,2.12-.08.53-.07,1.07-.11,1.6,0,.36,0,4.54.06,5.91a21,21,0,0,0,.56,3.36,26.44,26.44,0,0,0,.88,3c.3.82.62,1.64,1,2.43A27.34,27.34,0,0,0,23,395a26.09,26.09,0,0,0,2,2.54,19,19,0,0,0,1.34,1.37c.59.53,1.18,1.07,1.8,1.57s1.09.83,1.65,1.23a21.35,21.35,0,0,0,2.4,1.47,27.15,27.15,0,0,0,3.53,1.58c.88.31,1.76.58,2.66.81s2.5.47,2.58.5c.44,0,2.19.14,2.51.14q.94,0,1.87,0c.33,0,3.5-.22,4.24-.31.9-.12,1.79-.27,2.68-.46a27,27,0,0,0,3.4-1,23.48,23.48,0,0,0,4.25-2,20.94,20.94,0,0,0,4.69-3.86c.34-.38.67-.77,1-1.18a17.53,17.53,0,0,0,2.25-3.82,17.07,17.07,0,0,0,1.49-6,5.63,5.63,0,0,0,0-.83c0-.2,0-.4-.05-.6a7.24,7.24,0,0,0-.72-2.7,11.08,11.08,0,0,0-3.12-3.9,8.6,8.6,0,0,0-9.22-1,14.25,14.25,0,0,0-1.95,1.12,8.38,8.38,0,0,0-1.21,1c-.25.25-.5.49-.73.76a6.6,6.6,0,0,0-1,1.55,7.74,7.74,0,0,0-.54,2.22,7.85,7.85,0,0,0,0,1.32,10.26,10.26,0,0,0,.48,1.93,4.64,4.64,0,0,0,1,1.7,2.2,2.2,0,0,0,1.68.69,1.65,1.65,0,0,0,1.55-1c0-.11.1-.15.2,0a4,4,0,0,1,.38.51.1.1,0,0,1,0,.12.89.89,0,0,0,.08.81,2.6,2.6,0,0,0,.3.53s.12.13,0,.2a1,1,0,0,0-.42.72,4.8,4.8,0,0,0-.11.91c0,.09,0,.19,0,.28a14.58,14.58,0,0,1,0,1.48.69.69,0,0,1,0,.36l-.34.15a3.25,3.25,0,0,0-1,.59c-.13.12-.21.14-.34,0a3.68,3.68,0,0,0-1-.65c-.21-.08-.44-.06-.65-.13s-.16,0-.24,0a4.37,4.37,0,0,0-1.1.3c-.4.17-.79.4-1.19,0a9,9,0,0,0-3-.56c-.43,0-.85,0-1.28,0-.08,0-.16,0-.24,0l-.41.05a10.12,10.12,0,0,0-2.88.69.35.35,0,0,1-.34,0,5.2,5.2,0,0,0-2.14-.65,8.6,8.6,0,0,0-3.59.4.37.37,0,0,1-.3,0,4.14,4.14,0,0,0-1.75-.38,7.66,7.66,0,0,0-1.89.23c-.06,0-.14.07-.18,0-.13-.23-.34-.43-.32-.73,0-.7.16-1.39.27-2.08.15-1,.35-2,.58-3a28.23,28.23,0,0,1,1.65-5.19,7.5,7.5,0,0,1,1.26-2,3.08,3.08,0,0,1,1.29-.76,13.66,13.66,0,0,0,2.85-1.47A20.77,20.77,0,0,0,41.93,379a11.47,11.47,0,0,0,1.9-2,.17.17,0,0,1,.13-.09l2.82-.3,1.77-.19,3.11-.38c.72-.09,1.44-.17,2.16-.27l3.09-.47c1-.15,1.91-.32,2.86-.55a6.86,6.86,0,0,1,1-.28l2.37-.18-.2-.08c-2.33-.64-4.65-1.3-7-1.85-1.46-.34-2.92-.68-4.38-1-.87-.18-1.74-.33-2.62-.49s-1.67-.27-2.52-.38-1.57-.16-2.36-.19c-.17,0-.34,0-.51,0l-.11-.14a21.38,21.38,0,0,0-3.29-3.76A14.35,14.35,0,0,0,36.68,364a10.22,10.22,0,0,0-4-1,5.4,5.4,0,0,1-.74,0c-.11,0-.22,0-.33,0a15.75,15.75,0,0,0-2.92.45,7.81,7.81,0,0,0-2.23.87.43.43,0,0,0-.17.15c0,.07,0,.15.06.26a10.65,10.65,0,0,0,2.06,2.38c.47.4,1,.78,1.45,1.14a23.61,23.61,0,0,0,2.68,1.63c.52.28,1,.52,1.57.77a1.49,1.49,0,0,0,1,.23,8.19,8.19,0,0,1,2.84,0,9.1,9.1,0,0,1,2.52.77,9.34,9.34,0,0,1,1.82,1.13c.2.15.49.28.46.63,0,.07,0,.11-.07.14-.5.23-1,.53-1.5.71a7.55,7.55,0,0,1-2.35.47c-.08,0-.16,0-.24,0a9,9,0,0,1-1,0c-.08,0-.16,0-.24,0a11.52,11.52,0,0,1-2.66-.43.62.62,0,0,0-.34,0,6.15,6.15,0,0,1-.88.19,8.1,8.1,0,0,1-1.7.15,4.37,4.37,0,0,1-.87,0,8.91,8.91,0,0,1-1.36-.09,15.22,15.22,0,0,1-2.33-.45,22.61,22.61,0,0,1-6.59-3,.5.5,0,0,0-.34-.12c-.07,0-.18-.15-.17-.19a29.12,29.12,0,0,1,1.19-3.46,22.1,22.1,0,0,1,2.11-3.61,19.81,19.81,0,0,1,1.74-2.17,28.91,28.91,0,0,1,3.08-2.87c.75-.58,1.51-1.16,2.32-1.67a.21.21,0,0,1,.16,0,10.07,10.07,0,0,0,1.58.19c.09,0,.19,0,.28,0a4.68,4.68,0,0,1,.83,0c.09,0,.19,0,.28,0a6.66,6.66,0,0,0,3.65-1.23,4.84,4.84,0,0,1-3.68-.6q.94-.42,1.91-.79a.32.32,0,0,1,.35,0,5.32,5.32,0,0,0,.66.41,18.32,18.32,0,0,0,3.11,1.31,12.43,12.43,0,0,0,3.2.71,2.63,2.63,0,0,0,.52,0,1.77,1.77,0,0,0,1.39-.6l-.23-.15a9.54,9.54,0,0,1-1.66-1.47c-.45-.5-.88-1-1.28-1.55-.07-.09-.1-.12.06-.14s1-.08,1.07-.1,1.34-.09,1.64-.06a3.72,3.72,0,0,1,.84,0l.65,1.06a35,35,0,0,0,2.51,3.59c.42.53.87,1,1.32,1.54a15.7,15.7,0,0,0,1.61,1.52,12.55,12.55,0,0,0,1.49,1.07,7.15,7.15,0,0,0,3.34,1.15,6,6,0,0,0,1.08,0l-.08-.09a3.61,3.61,0,0,1-1.16-2.22,8.73,8.73,0,0,0-.29-1.43,14.56,14.56,0,0,0-1.86-3.59c-.3-.44-.62-.87-1-1.34.32.07.57.19.84.28A25.26,25.26,0,0,1,57,355.86a1.29,1.29,0,0,1,.63.54,13.52,13.52,0,0,1,.91,2.08c.3.87.6,1.75.84,2.65s.57,1.94.84,2.92.52,1.84.81,2.75a18.39,18.39,0,0,0,.88,2.3s0,.11.08.11.08-.07.11-.12a20.83,20.83,0,0,0,1-3.1,31.29,31.29,0,0,0,.32-3.19c0-.09,0-.19,0-.28q0-.43,0-.85c0-.18,0-.37,0-.55a3.23,3.23,0,0,1,0-.62c.08,0,.11.07.14.1.37.37.74.73,1.08,1.12s.62.69.92,1,.21.27.1.57c-.26.71-.44,1.43-.63,2.16s-.25,1.25-.37,1.88a12.89,12.89,0,0,0-.11,1.36c0,.09.08,2.5.15,2.94A8.77,8.77,0,0,0,66,375a2.66,2.66,0,0,0,.47.62.36.36,0,0,0,0-.2c0-.43,0-.85.09-1.28.11-.91.22-1.83.39-2.73a17.11,17.11,0,0,1,.92-3.44,3.09,3.09,0,0,1,.54-1,25.32,25.32,0,0,1,1.28,2.71c.23.57.42,1.15.64,1.72a.44.44,0,0,1,0,.35,19.17,19.17,0,0,0-.74,2.33q-.24.87-.39,1.77a13.4,13.4,0,0,0-.22,1.68,2.81,2.81,0,0,0,.8-.39,4.62,4.62,0,0,0,1.34-1.61c0-.07.06-.16.16-.16l.19,2.28c0,.33.06.66.08,1s0,.41-.32.58l-.56.27a2,2,0,0,0-.69.56,1.14,1.14,0,0,0,0,1.08,10.36,10.36,0,0,0,.51,1.19,1.28,1.28,0,0,1,.12.69c-.05.35-.12.7-.19,1a2.48,2.48,0,0,0,0,1.21c0,.05,0,.15.14,0l.14-.16a11.44,11.44,0,0,0,1.15-1.65,4.48,4.48,0,0,0,1-3.29c0-.34,0-.74-.28-1s-.23-.62-.28-.94c0-.11,0-.22,0-.33-.05-.66-.1-1.31-.15-2s-.12-1.37-.21-2a3.47,3.47,0,0,1-.1-.69c.26.18.49.37.72.55a15.59,15.59,0,0,0,2.39,1.6s.09.09.14,0S75,375.42,75,375.37Zm-20.33-.54-3.34.43-3.2.36c-1.14.12-2.28.23-3.42.37-.2,0-.27,0-.32-.2a13.6,13.6,0,0,1-.36-1.61c-.06-.33-.06-.32.29-.35a31,31,0,0,1,4.57,0c1.42.11,2.83.26,4.23.5.89.15,1.8.23,2.71.33Zm-10.77-3.47a.23.23,0,0,1,.26-.16,29.91,29.91,0,0,1,3.2.33c1.61.23,3.21.53,4.81.85q3,.62,6.07,1.38a20.49,20.49,0,0,1-3.23-.13c-2-.24-4-.54-6.05-.6-1.65,0-3.29-.11-4.94-.12-.11,0-.2,0-.22-.14A2.5,2.5,0,0,1,43.86,371.36Zm-7.59,29.49c-.61-.71-1.23-1.41-1.85-2.12l-.1-.12c1.1,0,2.15,0,3.2,0a13.8,13.8,0,0,1,2.77.36,4,4,0,0,1,1.08.44,1.14,1.14,0,0,0,1.49-.34,1.52,1.52,0,0,0,.27-.42c.1-.27.3-.32.54-.33a6.05,6.05,0,0,1,2.08.37,22.74,22.74,0,0,1,2.7,1.06.45.45,0,0,0,.37,0,3.42,3.42,0,0,0,1-.51,2.1,2.1,0,0,1,1.77-.35c1.32.21,2.62.55,3.91.88a.38.38,0,0,0,.36-.06,2.36,2.36,0,0,1,1.58-.49c.38,0,.76,0,1.2,0a14.91,14.91,0,0,1-1.53.87,32.62,32.62,0,0,1-3.83,1.6.38.38,0,0,1-.33,0,13.57,13.57,0,0,0-2.85-1.14,3.27,3.27,0,0,0-2.39.15,3.44,3.44,0,0,0-.83.62.19.19,0,0,1-.27,0,7.92,7.92,0,0,0-2.27-.94A2.61,2.61,0,0,0,42,401c-.07.06-.13.12-.25.08a6.61,6.61,0,0,0-2.4-.3,18.2,18.2,0,0,0-2.7.25A.34.34,0,0,1,36.27,400.85ZM56.6,386a2.28,2.28,0,0,0-1.49,1.5,5.42,5.42,0,0,0-.33,1.76.66.66,0,0,1-.72.68,1.34,1.34,0,0,1-1-.41,3.47,3.47,0,0,1-.89-1.47,6.45,6.45,0,0,1-.25-3.8,5.69,5.69,0,0,1,1.64-2.71,10.67,10.67,0,0,1,4.85-2.72,7.26,7.26,0,0,1,6,1.14,9.39,9.39,0,0,1,3.65,4.79,7.65,7.65,0,0,1,.31,3.22,16.86,16.86,0,0,1-3.23,8.49,19.41,19.41,0,0,1-6.81,5.81,25.25,25.25,0,0,1-7.07,2.4,38.3,38.3,0,0,1-4.57.55c-.15,0-.29,0-.36-.17s.06-.25.16-.35a1.19,1.19,0,0,1,.65-.27,54.38,54.38,0,0,0,9.19-2.92,15.57,15.57,0,0,0,4-2.31,10,10,0,0,0,3.48-5.57c.08-.36.12-.73.17-1.11a2.28,2.28,0,0,0-.55.12c-.25.06-.3,0-.28-.23a3.62,3.62,0,0,1,.31-1.12.44.44,0,0,1,.33-.26.51.51,0,0,0,.42-.47.55.55,0,0,0-.29-.54,1.73,1.73,0,0,1-.89-1.36,1.76,1.76,0,0,1,.08-.64.22.22,0,0,0-.07-.27,1.05,1.05,0,0,1-.29-1.22.38.38,0,0,0,0-.23,2.08,2.08,0,0,0-.48-1,.74.74,0,0,0-.82-.23A.48.48,0,0,1,61,385a.59.59,0,0,0-.86.07.49.49,0,0,1-.54.15.83.83,0,0,0-.47-.06l.25.62c.11.28.07.41-.2.55a1.59,1.59,0,0,1-1.56,0,1.26,1.26,0,0,1-.4-.25A.58.58,0,0,0,56.6,386ZM33.9,396.26a3.44,3.44,0,0,1,2,.46c.1.06.18,0,.26,0a8.12,8.12,0,0,1,2.94-.5,5.7,5.7,0,0,1,2.24.45,1.66,1.66,0,0,1,.51.32.21.21,0,0,0,.28,0,9.89,9.89,0,0,1,3.65-.89,11,11,0,0,1,3.37.26,3.55,3.55,0,0,1,.83.31.59.59,0,0,1,.25.17c.14.26.31.19.51.09a10.66,10.66,0,0,1,1.2-.49,1.58,1.58,0,0,1,1.71.33,4.42,4.42,0,0,0,3.36,1,11.27,11.27,0,0,0,4.24-1.17l.16-.07a7.18,7.18,0,0,1-1.36,1.6,2.4,2.4,0,0,1-1,.37,6.57,6.57,0,0,1-1.69.08,2.81,2.81,0,0,0-1.62.46.32.32,0,0,1-.28,0c-1.14-.29-2.27-.58-3.43-.77a4.45,4.45,0,0,0-1.51-.07,1.93,1.93,0,0,0-.75.31,5.23,5.23,0,0,1-.88.5.42.42,0,0,1-.37,0,19.78,19.78,0,0,0-3.36-1.21,4,4,0,0,0-1.89-.11.87.87,0,0,0-.66.57,1.15,1.15,0,0,1-.28.41.49.49,0,0,1-.7.09,5.74,5.74,0,0,0-2-.64,22.45,22.45,0,0,0-3.86-.24A16.56,16.56,0,0,0,34,398a.33.33,0,0,1-.33-.15c-.37-.46-.76-.92-1.12-1.41A5.65,5.65,0,0,1,33.9,396.26Zm-7.6-9.07a7.59,7.59,0,0,1,5.89-4.44,8.46,8.46,0,0,1,2-.11c.18,0,.36,0,.55,0a17.39,17.39,0,0,0-3.18,6.48,34.31,34.31,0,0,0-1.16,4.93,4.63,4.63,0,0,0-.11,1.47,3,3,0,0,0,.49,1.12,22.55,22.55,0,0,0,2.38,3q1.37,1.53,2.86,3a.31.31,0,0,1,0,.41.4.4,0,0,1-.5.12l-.87-.44a22.23,22.23,0,0,1-5.53-4.06,12.74,12.74,0,0,1-3-4.47A8.8,8.8,0,0,1,26.3,387.2Z"/><path class="cls-2" d="M50.28,387.65a1.12,1.12,0,0,0-.88-.92h-.35a1,1,0,0,0-.86.69,1.06,1.06,0,0,0,.21,1.13,1,1,0,0,0,1.07.3,1.07,1.07,0,0,0,.81-.94A.6.6,0,0,0,50.28,387.65Zm-1.07.91a.78.78,0,0,1-.77-.78.77.77,0,0,1,1.53,0A.77.77,0,0,1,49.2,388.56Z"/><path class="cls-2" d="M54.91,391.12a.89.89,0,0,0-.93.9.9.9,0,0,0,.91.94.92.92,0,1,0,0-1.84Zm0,1.53a.62.62,0,0,1-.6-.63.61.61,0,0,1,1.21,0A.61.61,0,0,1,54.93,392.65Z"/><path class="cls-2" d="M50.48,389.57a.73.73,0,0,0,0,1.46.73.73,0,1,0,0-1.46Zm0,1.15a.43.43,0,0,1-.43-.43.42.42,0,1,1,.84,0A.43.43,0,0,1,50.48,390.72Z"/><path class="cls-2" d="M48.1,391.11a.53.53,0,0,0-.7.43v.22a.49.49,0,0,0,.34.44.61.61,0,0,0,.76-.37A.58.58,0,0,0,48.1,391.11Zm-.14.79c-.16,0-.25-.1-.24-.26a.23.23,0,0,1,.24-.23.25.25,0,1,1,0,.49Z"/><path class="cls-2" d="M38.32,372.38a1.75,1.75,0,0,1,1.29.74c.17.24.15.32-.11.45a1.31,1.31,0,0,1-1.4,0,5.67,5.67,0,0,0-1.51-.66,2.67,2.67,0,0,1,1.34-.5A1.34,1.34,0,0,1,38.32,372.38Z"/></g><g class="cls-1"><path class="cls-2" d="M12.46,371.51l-.18,1.27-2.4.83,2.06,1.48-.18,1.25L8.5,374l-2.69-.39L6,372.43l2.69.39Z"/><path class="cls-2" d="M11.76,377.2v3.42H10.59v-2.24H9.45v2.24H8.31v-2.24H6.66v2.24H5.48V377.2Z"/><path class="cls-2" d="M11.86,381.64l.14,1.18-5.09.62.21,1.73L6,385.31l-.36-2.91Z"/><path class="cls-2" d="M12.39,385.37l.28,1.16-5,1.19.4,1.69L7,389.67l-.68-2.85Z"/><path class="cls-2" d="M14.49,391.65a3.11,3.11,0,0,1,0,2.48,3.34,3.34,0,0,1-4.31,1.81,3.27,3.27,0,0,1-1.76-4.29,3.3,3.3,0,0,1,5-1.35A3.22,3.22,0,0,1,14.49,391.65Zm-1.08.44A2,2,0,0,0,12.29,391a2.11,2.11,0,0,0-1.65,0,2,2,0,0,0-1.23,1.32,2,2,0,0,0,.08,1.41,2,2,0,0,0,1.12,1.1,2.21,2.21,0,0,0,2.79-1.17A2,2,0,0,0,13.41,392.09Z"/><path class="cls-2" d="M15.8,395.17l.68,1-2.74,3.06,3.91-1.4.57.81-2.6,3.24,3.78-1.59.68,1-5.93,2.48-.66-.93,2.64-3.29-4,1.42-.66-.92Z"/><path class="cls-2" d="M18.38,404.12l1.53,1.53-.76.77-1.53-1.53Z"/><path class="cls-2" d="M23.34,404.16,26,406.27l-.72.92-1.76-1.38-.7.89,1.76,1.38-.71.9-1.76-1.38-1,1.3,1.76,1.38-.72.92-2.69-2.11Z"/><path class="cls-2" d="M26.47,406.61l1.11.64-.11,2.54,2.13-1.38,1.1.63-3.36,2.17L26,413.57l-1-.6,1.35-2.35Z"/><path class="cls-2" d="M31.52,409.37l3.18,1.26-.43,1.09-2.08-.82-.42,1.05,2.08.82-.42,1.07L31.36,413l-.61,1.53,2.08.82-.43,1.09-3.18-1.26Z"/><path class="cls-2" d="M35.64,411l1.38.31a4.64,4.64,0,0,1,1.91.77,2.65,2.65,0,0,1,.83,1.31,3.86,3.86,0,0,1-.49,3.08,2.75,2.75,0,0,1-.87.84,2.34,2.34,0,0,1-1,.34,6.59,6.59,0,0,1-1.7-.22l-1.4-.31Zm.91,1.38-.86,3.86.54.12a2.78,2.78,0,0,0,1.2.08,1.43,1.43,0,0,0,.73-.49,2.3,2.3,0,0,0,.47-1,2.08,2.08,0,0,0-.21-1.63,2.23,2.23,0,0,0-1.47-.83Z"/><path class="cls-2" d="M43.89,412.28l1.27,0a4.19,4.19,0,0,1,1.48.17,1.5,1.5,0,0,1,.72.61,1.9,1.9,0,0,1,.27,1,1.71,1.71,0,0,1-.33,1.09,1.78,1.78,0,0,1-.92.62,5.41,5.41,0,0,1-1.26.11l0,2.66H44Zm1.22,2.44h.38a2.07,2.07,0,0,0,.62-.07.55.55,0,0,0,.27-.21.63.63,0,0,0,.1-.36.57.57,0,0,0-.29-.53,1.59,1.59,0,0,0-.76-.11h-.34Z"/><path class="cls-2" d="M48.67,412.12l3.38-.51.17,1.15L50,413.1l.17,1.12,2.21-.33.17,1.13-2.21.33.24,1.63,2.21-.33.17,1.16-3.38.51Z"/><path class="cls-2" d="M53,411.44l1.09-.35,3.81,3.12-1.25-3.93,1.14-.36,1.9,6-1.09.35-3.8-3.1L56.08,417l-1.14.36Z"/><path class="cls-2" d="M64.56,407.51l-.33,1.14a2.48,2.48,0,0,0-2,.17,2.12,2.12,0,0,0-1.05,1.29,2,2,0,0,0,.18,1.61,2.07,2.07,0,0,0,1.32,1,2.21,2.21,0,0,0,1.7-.23,2,2,0,0,0,.78-.74,1.84,1.84,0,0,0,.2-1l-1.58.89-.55-1L66,409.1l.14.23a3.06,3.06,0,0,1,.39,1.57,3,3,0,0,1-.41,1.52,3.16,3.16,0,0,1-1.2,1.11,3.54,3.54,0,0,1-1.73.48,3.1,3.1,0,0,1-1.65-.46,3.37,3.37,0,0,1-1.21-1.26,3.15,3.15,0,0,1-.34-2.29,3.25,3.25,0,0,1,1.68-2.2,3.87,3.87,0,0,1,1.48-.48A3.5,3.5,0,0,1,64.56,407.51Z"/><path class="cls-2" d="M65.15,405.79l.92-.77,2.61,3.1a2.1,2.1,0,0,0,.55.51.74.74,0,0,0,.46.07,1,1,0,0,0,.47-.23,1,1,0,0,0,.32-.46.76.76,0,0,0,0-.48,2.73,2.73,0,0,0-.48-.71l-2.51-3,.92-.77,2.41,2.86a5.42,5.42,0,0,1,.76,1.07,1.87,1.87,0,0,1,.14.8,1.89,1.89,0,0,1-.2.83,2.36,2.36,0,0,1-.59.71,2.21,2.21,0,0,1-1.11.52,1.83,1.83,0,0,1-1.06-.13,4.15,4.15,0,0,1-1.19-1.08Z"/><path class="cls-2" d="M69.22,402.15l.81-.86,4.57,4.29-.81.86Z"/><path class="cls-2" d="M70.86,400.41l.68-.92,4.91.31-3.31-2.46.71-1,5,3.74-.68.92-4.9-.3,3.3,2.45-.71,1Z"/><path class="cls-2" d="M75.3,393.61l1.37-3.18,1.08.47-.45,1L82,394l-.48,1.11-4.68-2-.44,1Z"/><path class="cls-2" d="M76.94,389.68l.35-1.22a4.19,4.19,0,0,1,.59-1.37,1.51,1.51,0,0,1,.79-.51,1.88,1.88,0,0,1,1.05,0,1.73,1.73,0,0,1,.91.57,1.79,1.79,0,0,1,.36,1l3.09-.66-.36,1.25-2.94.62,0,.1,2.55.73L83,391.4Zm2.68-.47.1-.36a1.47,1.47,0,0,0,.07-.79.56.56,0,0,0-.42-.34.61.61,0,0,0-.37,0,.59.59,0,0,0-.29.21,2.17,2.17,0,0,0-.24.61l-.09.31Z"/><path class="cls-2" d="M78.19,385l.15-1.19,4,.5a2.09,2.09,0,0,0,.75,0,.74.74,0,0,0,.38-.26,1,1,0,0,0,.19-.49,1,1,0,0,0-.08-.56.76.76,0,0,0-.33-.36,2.75,2.75,0,0,0-.84-.19L78.57,382l.15-1.19,3.71.46a5.41,5.41,0,0,1,1.29.27,2,2,0,0,1,1.07,1.24,2.35,2.35,0,0,1,.05.92,2.21,2.21,0,0,1-.46,1.14,1.83,1.83,0,0,1-.87.62,4.15,4.15,0,0,1-1.61,0Z"/><path class="cls-2" d="M79.51,376.24l.8.86a1.25,1.25,0,0,0-.63,1,.58.58,0,0,0,.13.38.37.37,0,0,0,.29.14.49.49,0,0,0,.3-.11,8.19,8.19,0,0,0,.78-.89q.55-.7.7-.85a2.5,2.5,0,0,1,.69-.53,1.74,1.74,0,0,1,.73-.17,1.68,1.68,0,0,1,1.29.5,1.94,1.94,0,0,1,.54,1.38,2.08,2.08,0,0,1-.3,1.17,2.6,2.6,0,0,1-1,.88l-.63-1q.82-.47.81-1.06a.77.77,0,0,0-.19-.51.53.53,0,0,0-.42-.2.71.71,0,0,0-.42.17,4.62,4.62,0,0,0-.64.71,7,7,0,0,1-1.26,1.35,1.63,1.63,0,0,1-.9.32,1.48,1.48,0,0,1-1.13-.47,1.72,1.72,0,0,1-.5-1.21,1.93,1.93,0,0,1,.2-.9A3.26,3.26,0,0,1,79.51,376.24Z"/><path class="cls-2" d="M78.61,375.71l-.5-3.43,1.16-.17.16,1.13,5-.73.17,1.2-5,.73.16,1.1Z"/></g></g><g class="cls-1"><path class="cls-3" d="M214.59,593.45a18.31,18.31,0,0,0-17,11.37h0v0c-.19.46-.36.94-.51,1.42-1.13,2.22-2.53,0-2.53,0h0a9.16,9.16,0,1,0,0,10.65h0s1.55-1.91,2.57.06c.12.39.26.77.41,1.15v0h0a18.27,18.27,0,1,0,17.06-24.69Zm0,27.18a9.06,9.06,0,1,1,9.15-9.06A9.11,9.11,0,0,1,214.59,620.63Z"/><g class="cls-1"><path class="cls-2" d="M208.53,643.18q.23-1.44.46-2.88a.35.35,0,0,1,.09-.18l1.41-1.54c.08-.09.17-.1.33-.06.56.14,1.07.32,1.18.66a1.38,1.38,0,0,1,0,.64c-.12.79-.25,1.59-.39,2.38-.07.45-.16.89-.24,1.34a.17.17,0,0,1-.1.11l-1,.44a.23.23,0,0,1-.24,0l-1.46-.74c-.07,0-.07-.11-.11-.17Z"/><path class="cls-2" d="M222.21,644.15l-1.3-.65,0,0c-.34-.1-.33-.26-.29-.43.09-.47.16-.94.24-1.41s.14-.92.22-1.39a.34.34,0,0,1,.1-.15l1.43-1.54a.26.26,0,0,1,.15-.05c.64.12,1.18.32,1.33.7a1.15,1.15,0,0,1,0,.58c-.09.63-.2,1.25-.31,1.88s-.21,1.27-.32,1.91a.11.11,0,0,1-.06.08Z"/><path class="cls-2" d="M210.2,644.36l.84.48a.13.13,0,0,1,.07.12q-.17,1.12-.35,2.24c-.11.69-.25,1.38-.33,2.07,0,.34-.35.53-.9.64l-.68.12c-.1,0-.15,0-.18-.05-.31-.5-.64-1-.92-1.51-.07-.13,0-.28,0-.42.11-.7.22-1.39.32-2.08,0-.23.07-.45.12-.68a.17.17,0,0,1,.1-.11Z"/><path class="cls-2" d="M222.22,644.36l.9.5a.07.07,0,0,1,0,.07q-.21,1.36-.43,2.73c-.09.58-.2,1.16-.29,1.74,0,.17-.17.31-.44.38s-.73.16-1.1.24c-.11,0-.16,0-.19-.06-.3-.49-.63-1-.9-1.47a.77.77,0,0,1,0-.49c.09-.6.19-1.21.29-1.81,0-.31.09-.62.15-.93a.16.16,0,0,1,.1-.1Z"/><path class="cls-2" d="M210.09,638.5l-.9,1-.39.44a.27.27,0,0,1-.25.09l-4,0a1.38,1.38,0,0,1-.26,0l-2.7-.54c-.14,0-.18-.06-.16-.14.13-.46.75-.74,1.68-.75H205l2.66,0Z"/><path class="cls-2" d="M222.14,638.48l-.51.57-.8.89a.27.27,0,0,1-.23.08l-4,0a2.78,2.78,0,0,1-.51-.08l-2.45-.49c-.14,0-.18-.07-.17-.15.08-.39.64-.69,1.4-.73.48,0,1,0,1.44,0l3.15,0,2.43,0Z"/><path class="cls-2" d="M211.78,649.32c.77-.16,1.48-.3,2.16-.47a9.32,9.32,0,0,1,2.47-.25c1,0,1.93,0,2.9,0a.39.39,0,0,1,.21.05c.29.46.56.93.85,1.41l-.67,0-3.33,0-2.47,0h-.68a1.53,1.53,0,0,1-.83-.26C212.17,649.69,212,649.51,211.78,649.32Z"/><path class="cls-2" d="M199.79,649.31l1.3-.28,1.83-.39a1.52,1.52,0,0,1,.3,0l4,0c.16,0,.23,0,.27.1l.76,1.28a.66.66,0,0,1,0,.08l-.66,0-3.17,0-2.63,0h-.68a1.68,1.68,0,0,1-.35-.05A1.74,1.74,0,0,1,199.79,649.31Z"/><path class="cls-2" d="M209.83,644.26l-1.67.72a.65.65,0,0,1-.23,0h-4a.68.68,0,0,1-.21,0l-1.69-.67,1.22-.48.12,0a2.74,2.74,0,0,1,1.47-.26l3.29,0a.74.74,0,0,1,.29.06Z"/><path class="cls-2" d="M194.13,643.18q.23-1.44.46-2.88a.35.35,0,0,1,.09-.18l1.41-1.54c.08-.09.17-.1.33-.06.56.14,1.07.32,1.18.66a1.38,1.38,0,0,1,0,.64c-.12.79-.25,1.59-.39,2.38-.07.45-.16.89-.24,1.34a.17.17,0,0,1-.1.11l-1,.44a.23.23,0,0,1-.24,0l-1.46-.74c-.07,0-.07-.11-.11-.17Z"/><path class="cls-2" d="M198.54,638.4q.15-1,.31-1.91a.23.23,0,0,1,.06-.12l.94-1c.06-.06.11-.07.22,0,.37.09.71.21.78.44a.91.91,0,0,1,0,.43c-.08.53-.17,1.05-.26,1.58,0,.3-.1.59-.16.89a.11.11,0,0,1-.06.07l-.64.29a.15.15,0,0,1-.16,0l-1-.49s0-.08-.07-.11Z"/><path class="cls-2" d="M225.54,638.4q.15-1,.31-1.91a.23.23,0,0,1,.06-.12l.94-1c.06-.06.11-.07.22,0,.37.09.71.21.78.44a.91.91,0,0,1,0,.43c-.08.53-.17,1.05-.26,1.58,0,.3-.1.59-.16.89a.11.11,0,0,1-.06.07l-.64.29a.15.15,0,0,1-.16,0l-1-.49s0-.08-.07-.11Z"/><path class="cls-2" d="M228.51,638.4q.15-1,.31-1.91a.23.23,0,0,1,.06-.12l.94-1c.06-.06.11-.07.22,0,.37.09.71.21.78.44a.91.91,0,0,1,0,.43c-.08.53-.17,1.05-.26,1.58,0,.3-.1.59-.16.89a.11.11,0,0,1-.06.07l-.64.29a.15.15,0,0,1-.16,0l-1-.49s0-.08-.07-.11Z"/><path class="cls-2" d="M195.8,644.36l.84.48a.13.13,0,0,1,.07.12q-.17,1.12-.35,2.24c-.11.69-.25,1.38-.33,2.07,0,.34-.35.53-.9.64l-.68.12c-.1,0-.15,0-.18-.05-.31-.5-.64-1-.92-1.51-.07-.13,0-.28,0-.42.11-.7.22-1.39.32-2.08,0-.23.07-.45.12-.68a.17.17,0,0,1,.1-.11Z"/><path class="cls-2" d="M195.69,638.5l-.9,1-.39.44a.27.27,0,0,1-.25.09l-4,0a1.38,1.38,0,0,1-.26,0l-2.7-.54c-.14,0-.18-.06-.16-.14.13-.46.75-.74,1.68-.75h1.9l2.66,0Z"/><path class="cls-2" d="M185.39,649.31l1.3-.28,1.83-.39a1.52,1.52,0,0,1,.3,0l4,0c.16,0,.23,0,.27.1l.76,1.28a.66.66,0,0,1,0,.08l-.66,0-3.17,0-2.63,0h-.68a1.68,1.68,0,0,1-.35-.05A1.74,1.74,0,0,1,185.39,649.31Z"/><path class="cls-2" d="M195.43,644.26l-1.67.72a.65.65,0,0,1-.23,0h-4a.68.68,0,0,1-.21,0l-1.69-.67,1.22-.48.12,0a2.74,2.74,0,0,1,1.47-.26l3.29,0a.74.74,0,0,1,.29.06Z"/><path class="cls-2" d="M221.86,644.26l-1.68.73a.55.55,0,0,1-.19,0h-4.08a.65.65,0,0,1-.21,0l-1.67-.66.57-.22,1.3-.5a.75.75,0,0,1,.24,0l2.9,0,1.09,0a.66.66,0,0,1,.24,0Z"/></g></g><g class="cls-1"><g class="cls-1"><path class="cls-2" d="M16.46,163.57a1.28,1.28,0,0,0,.32-.32,1.5,1.5,0,0,0,.21-.41,1.55,1.55,0,0,0,.07-.48,1.45,1.45,0,0,0-.1-.52,1.51,1.51,0,0,0-.28-.46,1.46,1.46,0,0,0-.43-.33,1.22,1.22,0,0,0-.56-.13H13.8v4.43h.69v-1.53h1l1,1.53h.79l-1.05-1.66A1.14,1.14,0,0,0,16.46,163.57Zm-.28-.63a.65.65,0,0,1-.21.18.56.56,0,0,1-.27.06H14.49v-1.62h1.18a.59.59,0,0,1,.26.06.73.73,0,0,1,.23.17.87.87,0,0,1,.21.57,1,1,0,0,1-.05.31A.91.91,0,0,1,16.18,162.94Z"/><path class="cls-2" d="M20.66,162.49a1.68,1.68,0,0,0-.52-.38,1.63,1.63,0,0,0-1.33,0,1.68,1.68,0,0,0-.52.38A1.74,1.74,0,0,0,18,163a1.78,1.78,0,0,0-.12.66,1.8,1.8,0,0,0,.12.65,1.7,1.7,0,0,0,.34.55,1.64,1.64,0,0,0,.52.37,1.59,1.59,0,0,0,.67.14,1.6,1.6,0,0,0,.67-.14,1.64,1.64,0,0,0,.52-.37,1.69,1.69,0,0,0,.34-.55,1.8,1.8,0,0,0,.12-.65A1.78,1.78,0,0,0,21,163,1.74,1.74,0,0,0,20.66,162.49Zm-.21,1.2a1.15,1.15,0,0,1-.08.43,1.11,1.11,0,0,1-.21.35,1,1,0,0,1-.31.23.87.87,0,0,1-.74,0,.93.93,0,0,1-.31-.23,1.16,1.16,0,0,1-.21-.34,1.14,1.14,0,0,1-.08-.43,1.19,1.19,0,0,1,.08-.43,1.14,1.14,0,0,1,.21-.35,1,1,0,0,1,.31-.23.82.82,0,0,1,.37-.08.84.84,0,0,1,.37.08,1,1,0,0,1,.31.23,1.1,1.1,0,0,1,.21.35A1.16,1.16,0,0,1,20.45,163.69Z"/><path class="cls-2" d="M24.71,164.73a.1.1,0,0,1,0,0v-1.37a1.33,1.33,0,0,0-.37-1,1.37,1.37,0,0,0-1-.36,2.2,2.2,0,0,0-1.22.42l-.1.07.27.51.13-.09a2.2,2.2,0,0,1,.47-.25,1.21,1.21,0,0,1,.43-.08.7.7,0,0,1,.53.19.75.75,0,0,1,.19.54v.08l-.26-.06a2.43,2.43,0,0,0-1.05,0,1.42,1.42,0,0,0-.45.21,1,1,0,0,0-.3.34.89.89,0,0,0-.11.44,1,1,0,0,0,.33.77,1.15,1.15,0,0,0,.37.23,1.22,1.22,0,0,0,.45.08,1.77,1.77,0,0,0,.74-.16,1.54,1.54,0,0,0,.35-.22.41.41,0,0,0,.13.23.48.48,0,0,0,.33.11l.18,0,.12,0v-.6Zm-.68-.42a.16.16,0,0,1,0,.06.33.33,0,0,1-.07.09.8.8,0,0,1-.34.26,1.24,1.24,0,0,1-.51.1.64.64,0,0,1-.24,0,.59.59,0,0,1-.19-.11.54.54,0,0,1-.12-.17.49.49,0,0,1,0-.21.39.39,0,0,1,.2-.35,1.09,1.09,0,0,1,.61-.15,2.17,2.17,0,0,1,.41,0l.3.08Z"/><path class="cls-2" d="M28.89,164.7v-3.9h-.68v1.6a1.79,1.79,0,0,0-.25-.2,1.34,1.34,0,0,0-.76-.23,1.39,1.39,0,0,0-.62.14,1.51,1.51,0,0,0-.48.38,1.78,1.78,0,0,0-.31.55,1.93,1.93,0,0,0-.11.66,1.79,1.79,0,0,0,.12.64,1.74,1.74,0,0,0,.33.54,1.63,1.63,0,0,0,.5.38,1.46,1.46,0,0,0,.65.15,1.43,1.43,0,0,0,.71-.19,1.52,1.52,0,0,0,.29-.21.43.43,0,0,0,.15.24.5.5,0,0,0,.34.12l.17,0,.11,0v-.59H28.9A.1.1,0,0,1,28.89,164.7Zm-1-.11a1.14,1.14,0,0,1-.28.14.8.8,0,0,1-.65,0,1,1,0,0,1-.32-.23,1.09,1.09,0,0,1-.21-.35,1.13,1.13,0,0,1-.08-.42,1.26,1.26,0,0,1,.07-.41,1.1,1.1,0,0,1,.19-.35,1,1,0,0,1,.3-.24.8.8,0,0,1,.38-.09.82.82,0,0,1,.27.05,1.07,1.07,0,0,1,.27.14,1.24,1.24,0,0,1,.23.22.91.91,0,0,1,.14.23v.9a.51.51,0,0,1-.1.23A1,1,0,0,1,27.9,164.59Z"/><polygon class="cls-2" points="32.97 164.44 32.54 163.41 33.12 162.03 32.48 162.03 32.18 162.79 31.87 162.03 31.23 162.03 31.82 163.41 31.39 164.44 30.37 162.03 29.68 162.03 31.11 165.35 31.62 165.35 32.18 164.02 32.74 165.35 33.25 165.35 34.68 162.03 33.98 162.03 32.97 164.44"/><path class="cls-2" d="M38,164.73a.1.1,0,0,1,0,0v-1.37a1.33,1.33,0,0,0-.37-1,1.37,1.37,0,0,0-1-.36,2.2,2.2,0,0,0-1.22.42l-.1.07.27.51.13-.09a2.2,2.2,0,0,1,.47-.25,1.21,1.21,0,0,1,.43-.08.7.7,0,0,1,.53.19.75.75,0,0,1,.19.54v.08l-.26-.06a2.43,2.43,0,0,0-1.05,0,1.44,1.44,0,0,0-.45.21,1,1,0,0,0-.3.34.89.89,0,0,0-.11.44,1,1,0,0,0,.33.77,1.15,1.15,0,0,0,.37.23,1.22,1.22,0,0,0,.45.08,1.77,1.77,0,0,0,.75-.16,1.55,1.55,0,0,0,.35-.22.4.4,0,0,0,.13.23.48.48,0,0,0,.33.11l.18,0,.12,0v-.6Zm-.68-.42a.16.16,0,0,1,0,.06.31.31,0,0,1-.07.09.8.8,0,0,1-.34.26,1.24,1.24,0,0,1-.51.1.65.65,0,0,1-.24,0,.57.57,0,0,1-.19-.12.52.52,0,0,1-.12-.17.49.49,0,0,1,0-.21.39.39,0,0,1,.2-.35,1.08,1.08,0,0,1,.61-.15,2.17,2.17,0,0,1,.41,0l.3.08Z"/><path class="cls-2" d="M40.39,164.47l-1-2.45h-.71L40,165.21l-.19.45a2,2,0,0,1-.12.27c0,.06-.06.07-.06.07a.51.51,0,0,1-.18,0H39.4l-.16,0v.63l.12,0,.14,0h.12a.75.75,0,0,0,.5-.16.86.86,0,0,0,.25-.35L42,162h-.68Z"/><polygon class="cls-2" points="46.31 161.56 47.79 161.56 47.79 165.35 48.48 165.35 48.48 161.56 49.96 161.56 49.96 160.92 46.31 160.92 46.31 161.56"/><path class="cls-2" d="M51.75,162a1.2,1.2,0,0,0-.69.22,1.42,1.42,0,0,0-.24.21V162h-.65v3.33h.68v-2a1,1,0,0,1,.36-.49,1.11,1.11,0,0,1,.63-.2H52V162l-.11,0Z"/><path class="cls-2" d="M55.37,164.73a.1.1,0,0,1,0,0v-1.37a1.33,1.33,0,0,0-.37-1,1.37,1.37,0,0,0-1-.36,2.2,2.2,0,0,0-1.22.42l-.1.07.27.51.13-.09a2.2,2.2,0,0,1,.47-.25,1.2,1.2,0,0,1,.43-.08.7.7,0,0,1,.53.19.75.75,0,0,1,.19.54v.08l-.26-.06a2.43,2.43,0,0,0-1.05,0,1.43,1.43,0,0,0-.45.21,1,1,0,0,0-.3.34.9.9,0,0,0-.11.44,1,1,0,0,0,.09.43,1.06,1.06,0,0,0,.25.35,1.15,1.15,0,0,0,.37.23,1.22,1.22,0,0,0,.45.08,1.77,1.77,0,0,0,.74-.16,1.54,1.54,0,0,0,.35-.22.4.4,0,0,0,.13.23.48.48,0,0,0,.33.11l.18,0,.12,0v-.6Zm-.68-.42a.16.16,0,0,1,0,.06.32.32,0,0,1-.07.09.8.8,0,0,1-.34.26,1.24,1.24,0,0,1-.51.1.64.64,0,0,1-.24,0,.58.58,0,0,1-.19-.11.53.53,0,0,1-.12-.17.49.49,0,0,1,0-.21.39.39,0,0,1,.2-.35,1.08,1.08,0,0,1,.61-.15,2.16,2.16,0,0,1,.41,0l.3.08Z"/><path class="cls-2" d="M59.15,162.4a.87.87,0,0,0-.33-.31,1,1,0,0,0-.49-.11,1.61,1.61,0,0,0-.83.22,1.67,1.67,0,0,0-.33.25V162h-.64v3.33h.68v-2a1,1,0,0,1,.14-.29,1.25,1.25,0,0,1,.24-.25,1,1,0,0,1,.29-.16.88.88,0,0,1,.3-.06.41.41,0,0,1,.38.18,1.37,1.37,0,0,1,.14.71v1.84h.68v-1.92a3.05,3.05,0,0,0,0-.57A1.35,1.35,0,0,0,59.15,162.4Z"/><path class="cls-2" d="M62.64,163.68a1.78,1.78,0,0,0-.4-.18l-.53-.14-.34-.09-.21-.09a.21.21,0,0,1-.08-.08.28.28,0,0,1,0-.13.39.39,0,0,1,0-.19.36.36,0,0,1,.12-.13.57.57,0,0,1,.19-.08,1.33,1.33,0,0,1,.72.05.92.92,0,0,1,.36.23l.11.11.37-.45-.08-.09a1.4,1.4,0,0,0-.51-.34A1.92,1.92,0,0,0,61.2,162a1.27,1.27,0,0,0-.41.19,1,1,0,0,0-.29.34,1,1,0,0,0-.11.47.79.79,0,0,0,.08.36.67.67,0,0,0,.24.26,1.54,1.54,0,0,0,.35.16l.47.13.39.1a1.22,1.22,0,0,1,.26.1.38.38,0,0,1,.13.11.24.24,0,0,1,0,.13.34.34,0,0,1-.16.31.9.9,0,0,1-.51.13,1.4,1.4,0,0,1-.52-.1,1.85,1.85,0,0,1-.49-.29l-.12-.1-.33.5.09.08a1.81,1.81,0,0,0,.63.37,2.27,2.27,0,0,0,.74.12,1.53,1.53,0,0,0,1-.27.93.93,0,0,0,.38-.78.8.8,0,0,0-.09-.4A.79.79,0,0,0,62.64,163.68Z"/><path class="cls-2" d="M66.73,162.5a1.63,1.63,0,0,0-.5-.38,1.45,1.45,0,0,0-1.36.05,1.65,1.65,0,0,0-.27.21V162H64v4.57h.68V165a1.74,1.74,0,0,0,.26.21,1.34,1.34,0,0,0,.76.22,1.39,1.39,0,0,0,.62-.14,1.51,1.51,0,0,0,.48-.38,1.7,1.7,0,0,0,.31-.55,2,2,0,0,0,.11-.65,1.81,1.81,0,0,0-.12-.64A1.79,1.79,0,0,0,66.73,162.5Zm-2.1.74a.51.51,0,0,1,.1-.23,1,1,0,0,1,.21-.21,1.18,1.18,0,0,1,.28-.15.81.81,0,0,1,.66,0,1,1,0,0,1,.32.24,1.17,1.17,0,0,1,.21.35,1.13,1.13,0,0,1,.08.42,1.24,1.24,0,0,1-.07.41,1.12,1.12,0,0,1-.19.35,1,1,0,0,1-.3.24.83.83,0,0,1-.66,0,1,1,0,0,1-.26-.14,1.12,1.12,0,0,1-.22-.22,1.26,1.26,0,0,1-.15-.25Z"/><path class="cls-2" d="M70.78,162.49a1.68,1.68,0,0,0-.52-.38,1.63,1.63,0,0,0-1.33,0,1.69,1.69,0,0,0-.52.38,1.75,1.75,0,0,0-.34.55,1.82,1.82,0,0,0,0,1.31,1.69,1.69,0,0,0,.34.55,1.64,1.64,0,0,0,.52.37,1.59,1.59,0,0,0,.67.14,1.61,1.61,0,0,0,1.19-.51,1.7,1.7,0,0,0,.34-.55,1.81,1.81,0,0,0,.12-.65,1.78,1.78,0,0,0-.12-.66A1.74,1.74,0,0,0,70.78,162.49Zm-.21,1.2a1.16,1.16,0,0,1-.08.43,1.13,1.13,0,0,1-.21.35,1,1,0,0,1-.31.23.89.89,0,0,1-.74,0,.94.94,0,0,1-.31-.23,1.14,1.14,0,0,1-.29-.77,1.19,1.19,0,0,1,.08-.43,1.15,1.15,0,0,1,.21-.35,1,1,0,0,1,.31-.23.82.82,0,0,1,.37-.08.85.85,0,0,1,.37.08,1,1,0,0,1,.31.23,1.12,1.12,0,0,1,.21.35A1.17,1.17,0,0,1,70.57,163.69Z"/><path class="cls-2" d="M73.81,162a1.2,1.2,0,0,0-.69.22,1.42,1.42,0,0,0-.24.21V162h-.65v3.33h.68v-2a1,1,0,0,1,.36-.49,1.11,1.11,0,0,1,.63-.2H74V162l-.11,0Z"/><path class="cls-2" d="M76.43,164.53l-.15.1-.14.07a.44.44,0,0,1-.41,0,.16.16,0,0,1-.06-.14v-1.93h.7V162h-.7v-1H75v1h-.42v.59H75v2a.73.73,0,0,0,.07.32.67.67,0,0,0,.18.23.71.71,0,0,0,.25.13,1,1,0,0,0,.29,0l.26,0,.21-.06.17-.06.11,0,.11-.05Z"/></g><path class="cls-3" d="M36.47,128.89s-6.63,1.78-9.24,7.73c-1,2.36-3.46,5.69-5.35,5.91-3.67.43-4.1,6.18-3.49,7.3.41.75,5.23.23,5.23.23a7.44,7.44,0,0,1,7.13-5.24,7.27,7.27,0,0,1,6.67,3.9s3.3,1,3.3-4.71v-8c0-3,1.54-7.61,6.87-7.61l24.66,0s4.53-.53,4.53,4.6v5.56c0,1.33-.59,5.24-3.83,5.24-4.53,0-8-.23-8.82.21-.64.33.42,4.5-.49,5.16-1.1.81-10.49-4.82-10.49-7s8.6-8.14,10-7.79.15,4.9,1.09,5.31c1.18.51,6.31.28,6.73.24s1.86,0,1.86-3.64c0-2.34.2-4.15-3.13-4.15h-20s-3.87,0-3.87,5.42V149.7c0,2.57-1.08,4-5.44,4H37a3.46,3.46,0,0,1-2.37-2.61,4.06,4.06,0,0,0-3.56-2.65,4.59,4.59,0,0,0-4.2,2.75,3.9,3.9,0,0,1-3.66,2.49H17.89s-3,0-3.06-2.58c-.06-5.8-.06-8.2,3.16-10.26,1.47-.87,2.17-.26,4.1-2.06s2.88-4.62,4.36-6a15.83,15.83,0,0,1,6.83-3.84C35.15,128.41,36.61,128.22,36.47,128.89Z"/><path class="cls-3" d="M70.08,150.65c2.26,0,2.66-1.07,2.66-1.07s.33-3.86,2.07-3.86c2,0,2,2,2,3.41,0,4.55,0,4.55-4.26,4.55H47.73c-.53,0,.3-1.76,3.76-2.29S69.45,150.65,70.08,150.65Z"/><path class="cls-3" d="M30.85,150.06a3.62,3.62,0,0,0-3.62,3.62h7.23A3.62,3.62,0,0,0,30.85,150.06Z"/></g><g class="cls-1"><path class="cls-3" d="M54.23,267.4a8.11,8.11,0,0,0,8.1-8.1,16.73,16.73,0,0,0-16.72-16.72,3.8,3.8,0,0,0-.47,7.56c.14,0,.32,0,.47,0a4.82,4.82,0,0,1,.52,9.6A8.11,8.11,0,0,0,54.23,267.4Z"/><path class="cls-3" d="M54.23,268.42a9.13,9.13,0,0,1-9.12-9.12,8.1,8.1,0,0,0-16.21,0A16.72,16.72,0,0,0,61.32,265,9.1,9.1,0,0,1,54.23,268.42Z"/><path class="cls-3" d="M49.42,237.77a3.8,3.8,0,0,0-3.8-3.8,8.1,8.1,0,0,0-3.94,15.18,4.82,4.82,0,0,1,3.94-7.59A3.8,3.8,0,0,0,49.42,237.77Z"/><g class="cls-1"><path class="cls-2" d="M25.64,286.82a2.31,2.31,0,0,0,.77-1.72,2.34,2.34,0,0,0-.75-1.73,2.44,2.44,0,0,0-1.75-.73h-.53v7.58h.53V288L26,290.22h.72l-2.54-2.68A2.44,2.44,0,0,0,25.64,286.82Zm-1.73.22v-3.91h0a1.95,1.95,0,0,1,1.38,3.33A1.81,1.81,0,0,1,24,287Z"/><path class="cls-2" d="M32.33,286.33a2.38,2.38,0,0,0-1.82-.84,2.43,2.43,0,0,0-1.78.71,2.32,2.32,0,0,0-.72,1.69,2.37,2.37,0,0,0,.72,1.71,2.33,2.33,0,0,0,1.7.73h.09a2.32,2.32,0,0,0,1.77-.8l0,0v-.9l-.2.3a2.23,2.23,0,0,1-.74.69,2,2,0,0,1-1,.26,1.81,1.81,0,0,1-1.06-.41l3.07-3Zm-1.9-.35a1.94,1.94,0,0,1,1.23.43L29,289.08a1.91,1.91,0,0,1-.42-1.21A2,2,0,0,1,30.43,286Z"/><path class="cls-2" d="M38.15,286.39a2.21,2.21,0,0,0-.67-.58,2.45,2.45,0,0,0-1.23-.34,2.43,2.43,0,1,0,0,4.85,2.41,2.41,0,0,0,1.2-.33,2.34,2.34,0,0,0,.69-.59v.82h.53v-7.58h-.53Zm-1.9-.42a1.84,1.84,0,0,1,1.35.58,1.89,1.89,0,0,1,.57,1.36,2,2,0,0,1-1.93,1.92,1.79,1.79,0,0,1-1.34-.57,1.93,1.93,0,0,1,0-2.72A1.82,1.82,0,0,1,36.25,286Z"/><path class="cls-2" d="M48.45,286.51a5.56,5.56,0,0,0-.68-.52l-.74-.46a6.93,6.93,0,0,1-.65-.42,1.33,1.33,0,0,1-.64-1v0a.93.93,0,0,1,.3-.74,1.08,1.08,0,0,1,.75-.27,1.54,1.54,0,0,1,.81.22,1.59,1.59,0,0,1,.57.61l.2.37v-1l0,0a1.85,1.85,0,0,0-1.52-.71,1.77,1.77,0,0,0-1.16.39,1.39,1.39,0,0,0-.48,1.14v.07a1.53,1.53,0,0,0,.27.88,2.33,2.33,0,0,0,.67.65l.84.53.83.54a2.13,2.13,0,0,1,.61.64,1.56,1.56,0,0,1,.24.84v.06a1.47,1.47,0,0,1-.5,1.17,1.78,1.78,0,0,1-1.2.44,2,2,0,0,1-1.17-.33,2.11,2.11,0,0,1-.71-.86l-.21-.46v1.07l0,0a2.28,2.28,0,0,0,2,1.06,2.42,2.42,0,0,0,1.64-.58,2,2,0,0,0,.67-1.57v-.1a2.06,2.06,0,0,0-.2-.91A2.27,2.27,0,0,0,48.45,286.51Z"/><path class="cls-2" d="M55,286.33a2.38,2.38,0,0,0-1.82-.84,2.43,2.43,0,0,0-1.78.71,2.32,2.32,0,0,0-.72,1.69,2.37,2.37,0,0,0,.72,1.71,2.33,2.33,0,0,0,1.7.73h.09a2.32,2.32,0,0,0,1.77-.8l0,0v-.9l-.2.3a2.23,2.23,0,0,1-.74.69,2,2,0,0,1-1,.26,1.81,1.81,0,0,1-1.06-.41l3.07-3Zm-1.9-.35a1.94,1.94,0,0,1,1.23.43l-2.69,2.67a1.91,1.91,0,0,1-.42-1.21A2,2,0,0,1,53.13,286Z"/><path class="cls-2" d="M60.88,286.33a2.38,2.38,0,0,0-1.82-.84,2.43,2.43,0,0,0-1.78.71,2.32,2.32,0,0,0-.72,1.69,2.37,2.37,0,0,0,.72,1.71,2.33,2.33,0,0,0,1.7.73h.09a2.32,2.32,0,0,0,1.77-.8l0,0v-.9l-.2.3a2.23,2.23,0,0,1-.74.69,2,2,0,0,1-1,.26,1.81,1.81,0,0,1-1.06-.41l3.07-3ZM59,286a1.94,1.94,0,0,1,1.23.43l-2.69,2.67a1.91,1.91,0,0,1-.42-1.21A2,2,0,0,1,59,286Z"/><path class="cls-2" d="M66.7,282.64v3.75a2.21,2.21,0,0,0-.67-.58,2.45,2.45,0,0,0-1.23-.34,2.43,2.43,0,1,0,0,4.85A2.41,2.41,0,0,0,66,290a2.34,2.34,0,0,0,.69-.59v.82h.53v-7.58ZM64.8,286a1.84,1.84,0,0,1,1.35.58,1.89,1.89,0,0,1,.57,1.36,2,2,0,0,1-1.93,1.92,1.79,1.79,0,0,1-1.34-.57,1.93,1.93,0,0,1,0-2.72A1.82,1.82,0,0,1,64.8,286Z"/></g></g><g class="cls-1"><path class="cls-2" d="M190.89,371.13a6.35,6.35,0,0,0,.14-.92c0-2.84,0-5.68,0-8.53a1.85,1.85,0,0,1,2.09-1.83c.83,0,1.66,0,2.49,0a1.8,1.8,0,0,1,2,1.78c0,.55,0,1.11,0,1.66q0,9.22,0,18.44c0,1.2-.76,1.87-2.13,1.86-1,0-1.93,0-2.89,0a3,3,0,0,1-2.5-1.55L185,373.1a3.61,3.61,0,0,0-.43-.62c-.19-.22-.35-.19-.44.07a1.54,1.54,0,0,0-.06.48q0,4.33,0,8.67c0,1.25-.75,1.91-2.17,1.91h-2.41a1.82,1.82,0,0,1-2.06-1.73c0-.07,0-.14,0-.21q0-9.95,0-19.9a1.79,1.79,0,0,1,.36-1.22,1.85,1.85,0,0,1,1.44-.69c1.08,0,2.17,0,3.24,0a3,3,0,0,1,2.47,1.53l5.16,9a7.39,7.39,0,0,0,.52.7Z"/><path class="cls-2" d="M214.27,359.86h7.88c1.42,0,2.17.65,2.16,1.9a28,28,0,0,1-.08,2.8,4.42,4.42,0,0,1-1.26,2.53l-8.68,9.31c-.27.29-.64.58-.43,1s.76.4,1.21.4h7.2c1.27,0,2,.68,2,1.79q0,1.07,0,2.15c0,1.18-.76,1.85-2.1,1.85H206.34c-1.39,0-2.15-.66-2.14-1.89a27.58,27.58,0,0,1,.09-2.87,4.31,4.31,0,0,1,1.21-2.44l8.78-9.42c.26-.27.57-.56.36-1s-.66-.38-1.06-.38h-7.32c-1.3,0-2.06-.67-2.06-1.81q0-1.09,0-2.18a1.8,1.8,0,0,1,2-1.8Z"/><path class="cls-2" d="M234.3,359.86h11.81c1.27,0,2,.68,2,1.8q0,1.11,0,2.22a1.79,1.79,0,0,1-2,1.78h-6.61a1.9,1.9,0,0,0-1.8.92c-.6,1.05.32,2.27,1.7,2.27h6.77a1.84,1.84,0,0,1,1.92,1.22,1.41,1.41,0,0,1,.06.41q0,1.26,0,2.53a1.71,1.71,0,0,1-1.74,1.61h-6.89a1.76,1.76,0,0,0-2,1.73q0,2.72,0,5.44c0,1.13-.78,1.8-2.07,1.81H234.3Z"/><path class="cls-2" d="M232.37,383.53a1.67,1.67,0,0,1-1.49-1.49c0-.07,0-.14,0-.21q0-10.08,0-20.16a1.71,1.71,0,0,1,1.31-1.74l.17,0Z"/><path class="cls-2" d="M167.6,370.17h2.17c.76,0,1.1.32,1.1,1,0,.42,0,.83,0,1.25a.85.85,0,0,1-.92.89q-2.37,0-4.74,0a.85.85,0,0,1-.93-.88q0-.66,0-1.31c0-.57.37-.9,1-.91S166.84,370.17,167.6,370.17Z"/><path class="cls-2" d="M167.56,367.94h-2.25c-.66,0-1-.32-1-.9s0-.88,0-1.31a.86.86,0,0,1,.93-.88q2.37,0,4.74,0a.84.84,0,0,1,.92.85q0,.69,0,1.38c0,.53-.37.86-1,.86Z"/><path class="cls-2" d="M167.58,363h-2.25c-.66,0-1-.32-1-.89s0-.88,0-1.31a.84.84,0,0,1,.92-.89q2.39,0,4.78,0a.83.83,0,0,1,.89.87q0,.67,0,1.35c0,.55-.37.87-1,.87Z"/><path class="cls-2" d="M167.57,378.36h-2.21c-.72,0-1.07-.31-1.07-.93q0-.62,0-1.25c0-.6.35-.91,1-.93.46,0,.92,0,1.38,0h3c.84,0,1.16.3,1.16,1,0,.42,0,.83,0,1.25a.85.85,0,0,1-.94.83c-.79,0-1.58,0-2.37,0Z"/><path class="cls-2" d="M167.45,383.63h-2.17c-.61,0-1-.32-1-.86s0-.85,0-1.28a.83.83,0,0,1,.92-.8h4.47a.83.83,0,0,1,.93.77,10.83,10.83,0,0,1,0,1.42c0,.47-.42.76-1,.76Z"/><text class="cls-4" transform="translate(161.75 397.56)">(In)visible New Zealand<tspan x="9.89" y="7.85">Film </tspan><tspan class="cls-5" x="27.98" y="7.85">F</tspan><tspan x="32.24" y="7.85">estival 2017</tspan></text></g><g class="cls-1"><path class="cls-3" d="M182.92,172.81a1.54,1.54,0,0,1-.17.88,1.4,1.4,0,0,1-1.34.68h-.53a1.44,1.44,0,0,1-1.29-.53,1.36,1.36,0,0,1-.28-.93v-1.33a.46.46,0,0,1,.92,0v1.19c0,.53.11.68.65.68h.51c.39,0,.62-.06.62-.5v-5.27a.46.46,0,0,1,.92,0Z"/><path class="cls-3" d="M187,170.3c-.26,0-.61-.06-.61-.44s.31-.44.61-.44h1.21a1.39,1.39,0,0,1,1.14.4,1.27,1.27,0,0,1,.4,1l.09,3c0,.26-.12.51-.41.51a.45.45,0,0,1-.45-.44l-.61.31a.8.8,0,0,1-.54.13H187a1.38,1.38,0,0,1-1-.31,1.23,1.23,0,0,1-.46-1.08v-.39a1.15,1.15,0,0,1,.43-1,1.45,1.45,0,0,1,1-.33h1.89v-.2c0-.66-.15-.77-.78-.77Zm0,1.86c-.24,0-.59.06-.59.39v.59c0,.29.36.36.57.36h1l1-.51v-.19c0-.49-.14-.63-.62-.63Z"/><path class="cls-3" d="M195.08,169.78c.16-.14.38-.36.59-.36a.44.44,0,0,1,.44.45c0,.21-.14.31-.29.44l-1.71,1.41,2.08,1.73c.17.14.31.24.31.47a.44.44,0,0,1-.44.45.67.67,0,0,1-.41-.21l-2.21-1.85-.37.33v1.12c0,.3-.06.61-.44.61s-.44-.3-.44-.61v-5.56c0-.3.06-.61.44-.61s.44.3.44.61v3.27Z"/><path class="cls-3" d="M202.17,167.22h4.08a.46.46,0,0,1,0,.92h-3.16v1.41h2.26a.46.46,0,0,1,0,.92h-2.26v3.44a.46.46,0,1,1-.92,0Z"/><path class="cls-3" d="M210.52,174.37a.94.94,0,0,1-.79-.24l-.38-.33a1.1,1.1,0,0,1-.45-1v-1.7a1.16,1.16,0,0,1,.43-1.06l.31-.27a1.19,1.19,0,0,1,1-.37h.81a1.26,1.26,0,0,1,1,.32l.36.28a1.25,1.25,0,0,1,.46,1.15v.71c0,.51-.08.65-.61.65h-2.83v.29a.43.43,0,0,0,.13.26l.22.24a.74.74,0,0,0,.59.17h1.89c.29,0,.61.06.61.44s-.35.44-.61.44Zm-.73-2.72h2.55v-.53c0-.17,0-.3-.11-.41l-.34-.29a.63.63,0,0,0-.42-.11h-.74a.71.71,0,0,0-.45.1l-.3.22a.4.4,0,0,0-.18.4Z"/><path class="cls-3" d="M216.4,171.2v2.56c0,.3-.06.61-.44.61s-.44-.3-.44-.61v-3.69c0-.32,0-.65.44-.65s.44.33.44.64v.12l.72-.47a1.45,1.45,0,0,1,.76-.29h.65a1.11,1.11,0,0,1,.82.32c.4.34.38.72.4,1.19l.09,2.77c0,.31,0,.66-.43.66s-.43-.3-.44-.6l-.09-2.72c0-.54-.06-.75-.6-.75H218a.53.53,0,0,0-.28.08Z"/><path class="cls-3" d="M222.13,171.47a1.25,1.25,0,0,1,.52-1.16l.65-.54a1.4,1.4,0,0,1,1.14-.35h1.4c.29,0,.61.06.61.44s-.35.44-.61.44h-1.55a.83.83,0,0,0-.51.22l-.53.45c-.14.11-.24.2-.24.38v1.09c0,.17.1.27.24.38l.53.45a.83.83,0,0,0,.51.22h1.55c.26,0,.61.06.61.44s-.31.44-.61.44h-1.4a1.4,1.4,0,0,1-1.14-.35l-.65-.54a1.25,1.25,0,0,1-.52-1.16Z"/><path class="cls-3" d="M230.36,174.37a.94.94,0,0,1-.79-.24l-.38-.33a1.1,1.1,0,0,1-.45-1v-1.7a1.16,1.16,0,0,1,.43-1.06l.31-.27a1.19,1.19,0,0,1,1-.37h.81a1.26,1.26,0,0,1,1,.32l.36.28a1.25,1.25,0,0,1,.46,1.15v.71c0,.51-.08.65-.61.65h-2.83v.29a.43.43,0,0,0,.13.26l.22.24a.74.74,0,0,0,.59.17h1.89c.29,0,.61.06.61.44s-.35.44-.61.44Zm-.73-2.72h2.55v-.53c0-.17,0-.3-.11-.41l-.34-.29a.63.63,0,0,0-.42-.11h-.74a.71.71,0,0,0-.45.1l-.3.22a.4.4,0,0,0-.18.4Z"/><path class="cls-3" d="M198,176H178a.41.41,0,1,0,0,.82h19.55Z"/><path class="cls-3" d="M233.5,176H199.83l-.41.82H233.5a.41.41,0,1,0,0-.82Z"/><path class="cls-2" d="M231.38,157.31a2.06,2.06,0,0,1-2.06,2.06h-3a2.06,2.06,0,0,1-2.06-2.06v-7.77a24.39,24.39,0,0,1-3.26,1.31v6.47a2.06,2.06,0,0,1-2.06,2.06h-4.13s0-.94,0-2.07v-5.23c-.91.08-1.85.12-2.83.12l-1.16,0v5.13c0,1.13,0,2.06,0,2.06l-2.05,0h-1.56a6.24,6.24,0,0,1-2-.17c0-.09,0-1.26,0-2.4v-5.34a31.34,31.34,0,0,1-5.08-1.55v6.88c0,1.13,0,2.13,0,2.23a4.23,4.23,0,0,1-2,.33h-1.92c-1.13,0-2-.12-2-.26s.06-1.47.06-2.6v-9.66a35.2,35.2,0,0,1-5.8-4.81v12.24a2.62,2.62,0,0,1-2.61,2.45h-1.74c-1.44,0-3.49-.31-3.49-1.74V152.8c0-1.44-.21-3.92-1.53-3.92a2.52,2.52,0,0,0-2.4,2.62v4.79c0,2.18,3.05,5.23,4.36,5.23h10.5c.47,0,1.17,0,1.86,0h37.14a15.33,15.33,0,0,0,2.47-.14c.23-.07.64-.63.72-.76a16.28,16.28,0,0,0,.14-2.59V140.68a22.1,22.1,0,0,1-2.54,3.49Z"/><path class="cls-2" d="M233.35,132.36h-1.4c-.31.7-.57,1.3-.57,1.34a15.63,15.63,0,0,1-2.06.07h-3c-1.13,0-2.06-.24-2.06-.54a8.8,8.8,0,0,0-.73-2.17h-1.8a8.8,8.8,0,0,0-.73,2.17c0,.3-.93.54-2.06.54h-2.07c-1.13,0-2.06-.36-2.06-.81a9.64,9.64,0,0,0-.84-2.69s-.05-.12-1.15-.12-1.15.12-1.15.12a9.64,9.64,0,0,0-.84,2.69c0,.45-.93.81-2.06.81H207.3c-1.13,0-2.06-.36-2.06-.81a9.64,9.64,0,0,0-.84-2.69s-.3-.66-1.7-.66-1.7.66-1.7.66a9.64,9.64,0,0,0-.84,2.69c0,.45-.93.81-2.06.81h-1.76c-1.13,0-2.06-.67-2.06-1.5a10.15,10.15,0,0,0-.84-3.37,1.73,1.73,0,0,0-.69-.69l2.76-3.51a1.37,1.37,0,0,0,0-1.61L192,118.59a.77.77,0,0,0-1.27,0l-3.54,4.49a1.37,1.37,0,0,0,0,1.61l2.79,3.54a1.71,1.71,0,0,0-.63.66,11.5,11.5,0,0,0-.84,3.93v7.4c1.54,1,3.53,2.15,5.8,3.34V138a2.06,2.06,0,0,1,2.06-2.06h1.76a2.06,2.06,0,0,1,2.06,2.06v8.32a48.73,48.73,0,0,0,5.08,1.78V138a2.06,2.06,0,0,1,2.06-2.06h1.51a2.06,2.06,0,0,1,2.06,2.06v11.19c.67.06,1.34.1,2,.1s1.34,0,2-.1V138a2.06,2.06,0,0,1,2.06-2.06H219A2.06,2.06,0,0,1,221,138v9.76a31.69,31.69,0,0,0,3.26-1.39V138a2.06,2.06,0,0,1,2.06-2.06h3a2.06,2.06,0,0,1,2.06,2.06v3.83c1.07-.85,1.93-1.62,2.54-2.18v-4A10,10,0,0,0,233.35,132.36Z"/></g></g></g></svg>