<svg xmlns="http://www.w3.org/2000/svg" viewBox="0 0 46.29 46.29"><defs><style>.cls-1{fill:#474747;}</style></defs><title>weChat</title><g id="Layer_2" data-name="Layer 2"><g id="_main_info" data-name=" main info"><path class="cls-1" d="M16.09,15.43a1.84,1.84,0,0,0-1.65.52,1.23,1.23,0,0,0-.06,1.71,1.78,1.78,0,0,0,1,.58,1.41,1.41,0,0,0,1.83-1.43A1.32,1.32,0,0,0,16.09,15.43Z"/><path class="cls-1" d="M23.48,18.23a1.38,1.38,0,0,0,1.81-1.4,1.32,1.32,0,0,0-1.17-1.41,1.82,1.82,0,0,0-1.59.5,1.22,1.22,0,0,0,0,1.87A2.31,2.31,0,0,0,23.48,18.23Z"/><path class="cls-1" d="M27.68,23.75a1.24,1.24,0,0,0-1.24,1.13A1.26,1.26,0,0,0,27.7,26a1.53,1.53,0,0,0,.95-.36,1,1,0,0,0,0-1.53A1.5,1.5,0,0,0,27.68,23.75Z"/><path class="cls-1" d="M34,23.75a1.15,1.15,0,1,0,0,2.3A1.56,1.56,0,0,0,35,25.61a1,1,0,0,0,0-1.42A1.51,1.51,0,0,0,34,23.75Z"/><path class="cls-1" d="M37.63,0h-29A8.69,8.69,0,0,0,0,8.66v29a8.69,8.69,0,0,0,8.66,8.66h29a8.69,8.69,0,0,0,8.66-8.66v-29A8.69,8.69,0,0,0,37.63,0ZM20.51,29.63l.09.4-.83,0a14.9,14.9,0,0,1-3.66-.46,1.5,1.5,0,0,0-1.11.13c-1.06.56-2.14,1.08-3.21,1.62l-.29.14L12,30c.19-.56.37-1.12.57-1.68a.25.25,0,0,0-.11-.35,11.93,11.93,0,0,1-2.79-2.7,8.24,8.24,0,0,1-1.59-4.09,1.16,1.16,0,0,0,0-.19v-1.3a.9.9,0,0,0,0-.16,8.58,8.58,0,0,1,2-4.82,11.68,11.68,0,0,1,7.4-4c.42-.07.84-.11,1.26-.16h1.55c.4.05.81.09,1.21.15a12.42,12.42,0,0,1,7.12,3.47,8.85,8.85,0,0,1,2.43,4.23c0,.06,0,.12,0,.18-.65,0-1.28,0-1.91,0a9.6,9.6,0,0,0-8.46,6.19A8.41,8.41,0,0,0,20.51,29.63Zm20-1.44a.49.49,0,0,0,0,.11,6.66,6.66,0,0,1-.92,2.54A11.08,11.08,0,0,1,36.7,34a.32.32,0,0,0-.13.41c.27.87.53,1.75.79,2.62h0l-.75-.44c-.71-.4-1.43-.79-2.15-1.17a.69.69,0,0,0-.44-.06,12.88,12.88,0,0,1-3.42.51A10.22,10.22,0,0,1,23,32.58a7.43,7.43,0,0,1,0-10.2,9.87,9.87,0,0,1,5.75-3.06,10.71,10.71,0,0,1,6.42.78,9,9,0,0,1,4.68,4.46,14.91,14.91,0,0,1,.59,1.92l.06.21Z"/></g></g></svg>