<?xml version="1.0" encoding="utf-8"?>
<!-- Generator: Adobe Illustrator 21.1.0, SVG Export Plug-In . SVG Version: 6.00 Build 0)  -->
<!DOCTYPE svg PUBLIC "-//W3C//DTD SVG 1.1//EN" "http://www.w3.org/Graphics/SVG/1.1/DTD/svg11.dtd">
<svg version="1.1" id="Layer_1" xmlns="http://www.w3.org/2000/svg" xmlns:xlink="http://www.w3.org/1999/xlink" x="0px" y="0px"
	 viewBox="0 0 46.3 46.3" style="enable-background:new 0 0 46.3 46.3;" xml:space="preserve">
<style type="text/css">
	.st0{fill:#777777;}
</style>
<title>weChat</title>
<g id="Layer_2">
	<g id="_main_info">
		<path class="st0" d="M16.1,15.4c-0.6-0.1-1.2,0.1-1.6,0.5c-0.5,0.5-0.5,1.2-0.1,1.7c0.3,0.3,0.6,0.5,1,0.6
			c0.7,0.2,1.5-0.2,1.8-0.9c0.1-0.2,0.1-0.3,0.1-0.5C17.2,16.1,16.8,15.5,16.1,15.4z"/>
		<path class="st0" d="M23.5,18.2c0.7,0.2,1.5-0.2,1.7-0.9c0.1-0.2,0.1-0.3,0.1-0.5c0.1-0.7-0.5-1.3-1.2-1.4
			c-0.6-0.1-1.2,0.1-1.6,0.5c-0.5,0.4-0.6,1.2-0.2,1.7c0,0.1,0.1,0.1,0.2,0.2C22.8,18,23.1,18.2,23.5,18.2z"/>
		<path class="st0" d="M27.7,23.8c-0.6,0-1.2,0.5-1.2,1.1c0.1,0.6,0.6,1.1,1.3,1.1c0.3,0,0.7-0.1,1-0.4c0.4-0.4,0.5-1,0.1-1.4
			c0,0-0.1-0.1-0.1-0.1C28.4,23.9,28,23.8,27.7,23.8z"/>
		<path class="st0" d="M34,23.8c-0.6,0-1.2,0.5-1.2,1.1c0,0.6,0.5,1.2,1.1,1.2c0,0,0,0,0,0c0.4,0,0.7-0.2,1-0.4c0.4-0.4,0.4-1,0-1.4
			c0,0,0,0,0,0C34.7,23.9,34.4,23.8,34,23.8z"/>
		<path class="st0" d="M37.6,0h-29C3.9,0,0,3.9,0,8.7v29c0,4.8,3.9,8.6,8.7,8.7h29c4.8,0,8.6-3.9,8.7-8.7v-29
			C46.3,3.9,42.4,0,37.6,0z M20.5,29.6l0.1,0.4h-0.8c-1.2,0-2.5-0.2-3.7-0.5c-0.4-0.1-0.8-0.1-1.1,0.1c-1.1,0.6-2.1,1.1-3.2,1.6
			l-0.3,0.1L12,30c0.2-0.6,0.4-1.1,0.6-1.7c0.1-0.1,0-0.3-0.1-0.3c0,0,0,0,0,0c-1.1-0.7-2-1.7-2.8-2.7c-0.9-1.2-1.4-2.6-1.6-4.1
			c0-0.1,0-0.1,0-0.2v-1.3c0-0.1,0-0.1,0-0.2c0.2-1.8,0.8-3.5,2-4.8c1.9-2.2,4.5-3.6,7.4-4c0.4-0.1,0.8-0.1,1.3-0.2h1.5
			c0.4,0.1,0.8,0.1,1.2,0.1c2.7,0.3,5.2,1.6,7.1,3.5c1.2,1.2,2,2.6,2.4,4.2c0,0.1,0,0.1,0,0.2c-0.6,0-1.3,0-1.9,0
			c-3.8,0.2-7.1,2.6-8.5,6.2C20.1,26.3,20.1,28,20.5,29.6z M40.5,28.2c0,0,0,0.1,0,0.1c-0.1,0.9-0.4,1.8-0.9,2.5
			c-0.7,1.2-1.7,2.3-2.9,3.2c-0.1,0.1-0.2,0.3-0.1,0.4c0.3,0.9,0.5,1.8,0.8,2.6l0,0l-0.8-0.4c-0.7-0.4-1.4-0.8-2.2-1.2
			c-0.1-0.1-0.3-0.1-0.4-0.1c-1.1,0.3-2.3,0.5-3.4,0.5c-2.9,0-5.6-1.2-7.6-3.3c-2.7-2.9-2.7-7.3,0-10.2c1.5-1.6,3.5-2.7,5.8-3.1
			c2.2-0.4,4.4-0.1,6.4,0.8c2.1,0.9,3.7,2.4,4.7,4.5c0.2,0.6,0.4,1.3,0.6,1.9l0.1,0.2L40.5,28.2z"/>
	</g>
</g>
</svg>
