<?xml version="1.0" encoding="utf-8"?>
<!-- Generator: Adobe Illustrator 22.0.1, SVG Export Plug-In . SVG Version: 6.00 Build 0)  -->
<svg xmlns="http://www.w3.org/2000/svg" width="92" height="32" viewBox="0 0 92 32">
  <defs>
    <linearGradient id="blutui-svg-a" x1="50%" x2="50%" y1="100%" y2="0%">
      <stop offset="0%" stop-color="#70BEF6"></stop>
      <stop offset="100%" stop-color="#7070F6"></stop>
    </linearGradient>
  </defs>
  <g fill="none" fill-rule="evenodd">
    <path fill="#FFF" d="M39.7225399,17.7110757 L35.3129142,17.7110757 L35.3129142,24.3859148 L39.8040142,24.3859148 C41.8176583,24.3859148 43.2596169,23.1342225 43.2596169,21.0483789 C43.2596169,18.6564162 41.8176583,17.7110757 39.7225399,17.7110757 Z M35.3129142,15.4579831 L39.7225399,15.4579831 C41.1374162,15.4579831 42.7427785,14.6794263 42.7427785,12.5382207 C42.7427785,10.4800581 41.5183882,9.61776049 39.6408381,9.61776049 L35.3129142,9.61776049 L35.3129142,15.4579831 Z M39.6952301,26.6662232 L33,26.6662232 L33,7.36513312 L39.6408381,7.36513312 C42.9876566,7.36513312 45.0556927,9.42329576 45.0556927,12.5659017 C45.0556927,14.0122913 44.3210586,15.625232 42.6881589,16.4870644 C44.7291128,17.2102592 45.5725311,19.0181299 45.5725311,21.0206979 C45.5725311,24.1909848 43.3142365,26.6662232 39.6952301,26.6662232 Z M48.3206046,26.6661766 L48.3206046,7.19667456 L50.6335188,7.19667456 L50.6335188,26.6661766 L48.3206046,26.6661766 Z M73.0830562,26.6662464 C69.8179395,27.0556411 67.5594174,25.0809867 67.5594174,21.4377969 L67.5594174,7.14487157 L69.8450218,7.14487157 L69.8450218,12.343314 L73.0286641,12.343314 L73.0286641,14.596174 L69.8450218,14.596174 L69.8450218,21.4377969 C69.8450218,23.9686298 71.3691374,24.6080838 73.0830562,24.4968946 L73.0830562,26.6662464 Z M89.5456892,26.6661766 L89.5456892,12.3432442 L91.8586034,12.3432442 L91.8586034,26.6661766 L89.5456892,26.6661766 Z M62.5654981,12.3432675 L64.8511025,12.3432675 L64.8511025,20.9650801 C64.8511025,24.4968481 62.892078,27 59.4637852,27 L58.83748,27 C55.4091871,27 53.4499351,24.4968481 53.4499351,20.9650801 L53.4499351,12.3432675 L55.7355395,12.3432675 L55.7355395,21.0760366 C55.7355395,23.3426208 56.9460473,24.8380918 59.1506326,24.8567009 C61.3552178,24.8380918 62.5654981,23.3426208 62.5654981,21.0760366 L62.5654981,12.3432675 Z M84.6064805,12.3432675 L86.8920849,12.3432675 L86.8920849,20.9650801 C86.8920849,24.4968481 84.9330605,27 81.5047676,27 L80.8784624,27 C77.4501696,27 75.49069,24.4968481 75.49069,20.9650801 L75.49069,12.3432675 L77.776522,12.3432675 L77.776522,21.0760366 C77.776522,23.3426208 78.9870298,24.8380918 81.191615,24.8567009 C83.3962003,24.8380918 84.6064805,23.3426208 84.6064805,21.0760366 L84.6064805,12.3432675 Z M92,8.36497495 C92,9.11887471 91.4019149,9.7299499 90.6645498,9.7299499 C89.926957,9.7299499 89.3290995,9.11887471 89.3290995,8.36497495 C89.3290995,7.61107519 89.926957,7 90.6645498,7 C91.4019149,7 92,7.61107519 92,8.36497495 Z"></path>
    <path fill="url(#blutui-svg-a)" d="M0.000230963551,0 L7.60424396,13.0921511 C8.29621075,14.286563 9.23068928,15.2699668 10.3291519,16.0001148 L10.3291519,16.0001148 C9.23068928,16.7298036 8.29621075,17.713437 7.60424396,18.9110634 L7.60424396,18.9110634 L0,32 L15.2057163,32 C18.3796175,32 21.2227788,30.3709433 22.8099603,27.6381692 L22.8099603,27.6381692 C24.3966799,24.9049358 24.3966799,21.6408527 22.8099603,18.9110634 L22.8099603,18.9110634 C22.114991,17.713437 21.1805125,16.7298036 20.0818188,16.0001148 L20.0818188,16.0001148 C21.1805125,15.2699668 22.114991,14.286563 22.8099603,13.0921511 L22.8099603,13.0921511 C24.3966799,10.3589177 24.3966799,7.09506418 22.8099603,4.36504531 L22.8099603,4.36504531 C21.2327102,1.64903242 18.4147239,0.0202053541 15.2646121,0 L15.2646121,0 L0.000230963551,0 Z M10.1381451,11.6380544 L5.06757127,2.90796375 L15.2057163,2.90796375 C17.3206496,2.90796375 19.2170913,3.99698642 20.2728257,5.81914199 L20.2728257,5.81914199 C21.3320245,7.64106796 21.3320245,9.8158988 20.2762901,11.6380544 L20.2762901,11.6380544 C19.2170913,13.4567659 17.3206496,14.5457885 15.2057163,14.5457885 L15.2057163,14.5457885 C13.0905521,14.5457885 11.1941104,13.4567659 10.1381451,11.6380544 L10.1381451,11.6380544 Z M10.1381451,20.3649305 C11.1941104,18.5430045 13.0905521,17.4539819 15.2057163,17.4539819 L15.2057163,17.4539819 C17.3206496,17.4539819 19.2170913,18.5430045 20.2762901,20.3649305 L20.2762901,20.3649305 C21.3320245,22.1870861 21.3320245,24.3619169 20.2728257,26.1838429 L20.2728257,26.1838429 C19.2170913,28.0030136 17.3206496,29.0918066 15.2057163,29.0918066 L15.2057163,29.0918066 L5.06757127,29.0918066 L10.1381451,20.3649305 Z"></path>
  </g>
</svg>
