<?xml version="1.0" encoding="utf-8"?>
<!-- Generator: Adobe Illustrator 21.1.0, SVG Export Plug-In . SVG Version: 6.00 Build 0)  -->
<!DOCTYPE svg PUBLIC "-//W3C//DTD SVG 1.1//EN" "http://www.w3.org/Graphics/SVG/1.1/DTD/svg11.dtd">
<svg version="1.1" id="Layer_1" xmlns="http://www.w3.org/2000/svg" xmlns:xlink="http://www.w3.org/1999/xlink" x="0px" y="0px"
	 viewBox="0 0 500 500" style="enable-background:new 0 0 500 500;" xml:space="preserve">
<style type="text/css">
	.st0{fill:#666666;}
</style>
<path class="st0" d="M414.1,167.3c0-12-10.5-21.3-23.9-21.3H110.9c-13.4,0-23.9,9.3-23.9,21.3c0,1.2,0.2,2.4,0.5,3.6
	c-0.3,1.2-0.5,2.3-0.5,3.6v156.6c0,12,10.5,21.9,23.9,21.9h279.4c13.4,0,23.8-9.9,23.8-21.9V174.5c0-1.3-0.1-2.5-0.5-3.6
	C413.9,169.7,414.1,168.6,414.1,167.3z M369.9,171.9l-119.4,77.6l-119.4-77.7L369.9,171.9z M113,326.4V191.3l130.4,84.8
	c2.2,1.4,4.7,2.1,7.1,2.1s5-0.7,7.1-2.1L388,191.3v135.1L113,326.4z"/>
</svg>
