<?xml version="1.0" encoding="utf-8"?>
<!-- Generator: Adobe Illustrator 21.1.0, SVG Export Plug-In . SVG Version: 6.00 Build 0)  -->
<!DOCTYPE svg PUBLIC "-//W3C//DTD SVG 1.1//EN" "http://www.w3.org/Graphics/SVG/1.1/DTD/svg11.dtd">
<svg version="1.1" id="Layer_1" xmlns="http://www.w3.org/2000/svg" xmlns:xlink="http://www.w3.org/1999/xlink" x="0px" y="0px"
	 viewBox="0 0 500 500" style="enable-background:new 0 0 500 500;" xml:space="preserve">
<style type="text/css">
	.st0{fill:#6D6E6E;}
</style>
<path class="st0" d="M-0.3,0v500.6h500.6V0H-0.3z M100.4,126.3c0-7.3,7.4-13.2,16.5-13.2h266.3c9.1,0,16.5,5.9,16.5,13.2v22.5
	c0,7.3-7.4,13.2-16.5,13.2H116.8c-9.1,0-16.5-5.9-16.5-13.2V126.3z M100.4,239.1c0-7.3,7.4-13.2,16.5-13.2h266.3
	c9.1,0,16.5,5.9,16.5,13.2v22.5c0,7.3-7.4,13.2-16.5,13.2H116.8c-9.1,0-16.5-5.9-16.5-13.2V239.1z M399.6,374.3
	c0,7.3-7.4,13.2-16.5,13.2H116.8c-9.1,0-16.5-5.9-16.5-13.2v-22.5c0-7.3,7.4-13.2,16.5-13.2h266.3c9.1,0,16.5,5.9,16.5,13.2V374.3z"
	/>
</svg>
