<?xml version="1.0" encoding="utf-8"?>
<!-- Generator: Adobe Illustrator 21.1.0, SVG Export Plug-In . SVG Version: 6.00 Build 0)  -->
<!DOCTYPE svg PUBLIC "-//W3C//DTD SVG 1.1//EN" "http://www.w3.org/Graphics/SVG/1.1/DTD/svg11.dtd">
<svg version="1.1" id="Layer_1" xmlns="http://www.w3.org/2000/svg" xmlns:xlink="http://www.w3.org/1999/xlink" x="0px" y="0px"
	 viewBox="0 0 500 500" style="enable-background:new 0 0 500 500;" xml:space="preserve">
<style type="text/css">
	.st0{fill:#BCBEC0;}
</style>
<path class="st0" d="M398.1,3H101.3C46.9,3,2.4,47.5,2.4,101.9v296.8c0,54.4,44.5,98.9,98.9,98.9h296.8c54.4,0,98.9-44.5,98.9-98.9
	V101.9C497,47.5,452.5,3,398.1,3z M234.9,360.1c0,7.5-8.9,13.6-19.8,13.6h-33.6c-10.9,0-19.8-6.1-19.8-13.6V140.5
	c0-7.5,8.9-13.6,19.8-13.6h33.6c10.9,0,19.8,6.1,19.8,13.6V360.1z M346.5,360.1c0,7.5-8.9,13.6-19.8,13.6h-33.6
	c-10.9,0-19.8-6.1-19.8-13.6V140.5c0-7.5,8.9-13.6,19.8-13.6h33.6c10.9,0,19.8,6.1,19.8,13.6V360.1z"/>
</svg>
