<?xml version="1.0" encoding="utf-8"?>
<!-- Generator: Adobe Illustrator 21.1.0, SVG Export Plug-In . SVG Version: 6.00 Build 0)  -->
<!DOCTYPE svg PUBLIC "-//W3C//DTD SVG 1.1//EN" "http://www.w3.org/Graphics/SVG/1.1/DTD/svg11.dtd">
<svg version="1.1" id="Layer_1" xmlns="http://www.w3.org/2000/svg" xmlns:xlink="http://www.w3.org/1999/xlink" x="0px" y="0px"
	 viewBox="0 0 500 500" style="enable-background:new 0 0 500 500;" xml:space="preserve">
<style type="text/css">
	.st0{fill:#BBBDBF;}
</style>
<path class="st0" d="M398.1,3.2H101.6C47.2,3.2,2.7,47.6,2.7,102v296.6c0,54.4,44.5,98.9,98.9,98.9h296.6
	c54.4,0,98.9-44.5,98.9-98.9V102C497,47.6,452.5,3.2,398.1,3.2z M382,258.1c0,7-3,10.5-10.1,11.3c-20.7,2.5-152.2,17.7-164.2,18.8
	c-4.7,0.5-6.5,2-5.7,7c0.7,4.4,0.1,8.9,0.1,14.4c2,0,98.7,0,144.5,0c10.9,0,17.1,6.7,13.4,15.3c-1.6,3.8-6.4,6.1-9.7,9.2
	c12.5,13,14.1,25.2,4,34.7c-9.3,8.8-22.6,8.7-30.9-0.2c-9.2-9.9-7.1-23.5,6.2-35.4c-43,0-85.1,0-128.7,0c9,6.1,14,13.6,12,23.5
	c-0.9,4.6-3.4,9.6-6.6,12.9c-8,8.3-22,7.7-30-0.6c-9.3-9.5-7.5-21.7,5.1-35.7c-12.1-6.2-15-10.8-7.8-21.5c8.9-13.2,3.8-25.4,1.2-38
	c-6.1-29.6-25.7-110.1-29.8-109.9c-8.3,0.3-16.6,0.1-24.8,0.1c-8.6-0.1-13.1-3.9-13.1-11.1c0-6.7,4.5-10.5,12.8-10.5
	c13.1,0,26.2,0,39.2,0c7.2,0,10.7,2.9,12.5,9.8c2.7,10.4,2.7,10.4,13.4,10.4c59.5,0,183.3-0.1,185.7,0.1c7.2,0.7,11.6,5.2,11.6,12.4
	C382.2,202.8,382.2,230.4,382,258.1z"/>
</svg>
