<?xml version="1.0" encoding="utf-8"?>
<!-- Generator: Adobe Illustrator 21.1.0, SVG Export Plug-In . SVG Version: 6.00 Build 0)  -->
<!DOCTYPE svg PUBLIC "-//W3C//DTD SVG 1.1//EN" "http://www.w3.org/Graphics/SVG/1.1/DTD/svg11.dtd">
<svg version="1.1" id="Layer_1" xmlns="http://www.w3.org/2000/svg" xmlns:xlink="http://www.w3.org/1999/xlink" x="0px" y="0px"
	 viewBox="0 0 500 500" style="enable-background:new 0 0 500 500;" xml:space="preserve">
<style type="text/css">
	.st0{fill:#808285;}
</style>
<path class="st0" d="M346.2,157.6c-33.5-38.5-107-12-95.5,50.5c-70.2-2-111-52-116-58c-22.5,41.8,10.5,70,17.8,75
	c-8-0.8-15.2-1.2-26.3-7.8c1.5,21.8,12.3,49.1,45.3,56.1c-4.8,1.7-20.8,2.8-24.8,0.8c7.6,27,34.3,39,52.1,39.5
	c-34.1,25.5-65.3,24.9-82.2,23.2c25.9,19.5,94,43.3,166.5,3.8c49.1-26.7,86.3-93.2,77.7-145.2c14.1-9.3,26.6-26.1,28.5-29.3
	c-13.4,5.1-23.4,7.8-32.2,8.5c9.9-4.4,21-18.4,24.8-30.8C366.5,153.1,348.5,156.9,346.2,157.6z"/>
</svg>
