<?xml version="1.0" encoding="utf-8"?>
<!-- Generator: Adobe Illustrator 22.0.1, SVG Export Plug-In . SVG Version: 6.00 Build 0)  -->
<svg version="1.1" id="Layer_1" xmlns="http://www.w3.org/2000/svg" xmlns:xlink="http://www.w3.org/1999/xlink" x="0px" y="0px"
	 viewBox="0 0 85 85" style="enable-background:new 0 0 85 85;" xml:space="preserve">
<style type="text/css">
	.st0{fill:#A6B0C3;}
</style>
<path class="st0" d="M79,0H6.1C2.7,0,0,2.7,0,6.1V79C0,82.3,2.7,85,6.1,85h34.4V46.5h-8.4V32.9h8.4c0,0,0-2,0-10.8
	c0-10.1,5.4-15.4,17.4-15.4c2,0,11.1,0,11.1,0v14c0,0-6.2,0-8.7,0c-3.1,0-3.7,1.3-3.7,4.4c0,2.6,0,7.7,0,7.7H69l-1.2,13.5H56.6V85
	H79c3.4,0,6.1-2.7,6.1-6.1V6.1C85,2.7,82.3,0,79,0z"/>
</svg>
