<?xml version="1.0" encoding="utf-8"?>
<!-- Generator: Adobe Illustrator 22.0.1, SVG Export Plug-In . SVG Version: 6.00 Build 0)  -->
<svg version="1.1" id="Layer_1" xmlns="http://www.w3.org/2000/svg" xmlns:xlink="http://www.w3.org/1999/xlink" x="0px" y="0px"
	 viewBox="0 0 85 85" style="enable-background:new 0 0 85 85;" xml:space="preserve">
<style type="text/css">
	.st0{fill:#A6B0C3;}
</style>
<g>
	<g>
		<rect x="2.4" y="28.7" class="st0" width="17.2" height="55.5"/>
		<path class="st0" d="M11,21.5c5.6,0,10.2-4.6,10.2-10.2C21.1,5.6,16.6,1,11,1C5.3,1,0.8,5.6,0.8,11.2C0.8,16.9,5.3,21.5,11,21.5z"
			/>
	</g>
	<path class="st0" d="M47.1,55.1c0-7.8,3.6-12.5,10.5-12.5c6.3,0,9.4,4.5,9.4,12.5c0,8,0,29.2,0,29.2h17.1c0,0,0-20.3,0-35.2
		c0-14.9-8.4-22.1-20.2-22.1c-11.8,0-16.7,9.2-16.7,9.2v-7.5H30.6v55.5h16.5C47.1,84.3,47.1,63.7,47.1,55.1z"/>
</g>
</svg>
