<?xml version="1.0" encoding="utf-8"?>
<!-- Generator: Adobe Illustrator 22.0.1, SVG Export Plug-In . SVG Version: 6.00 Build 0)  -->
<svg version="1.1" id="Layer_1" xmlns="http://www.w3.org/2000/svg" xmlns:xlink="http://www.w3.org/1999/xlink" x="0px" y="0px"
	 viewBox="0 0 85 85" style="enable-background:new 0 0 85 85;" xml:space="preserve">
<style type="text/css">
	.st0{fill:#A6B0C3;}
</style>
<path class="st0" d="M0.8,68.5c7.5,4.8,16.4,7.6,26,7.6c31.5,0,49.3-26.6,48.3-50.5c3.3-2.4,6.2-5.4,8.5-8.8c-3,1.4-6.3,2.3-9.7,2.7
	c3.5-2.1,6.2-5.4,7.5-9.4c-3.3,1.9-6.9,3.4-10.8,4.1C67.4,11,63,8.9,58.1,8.9c-11,0-19,10.2-16.5,20.8C27.5,29,15,22.3,6.6,12
	c-4.4,7.6-2.3,17.6,5.3,22.7c-2.8-0.1-5.4-0.9-7.7-2.1C4,40.4,9.6,47.8,17.8,49.4c-2.4,0.7-5,0.8-7.7,0.3
	c2.2,6.7,8.4,11.7,15.9,11.8C18.8,67.1,9.8,69.6,0.8,68.5z"/>
</svg>
