<?xml version="1.0" encoding="utf-8"?>
<!-- Generator: Adobe Illustrator 21.1.0, SVG Export Plug-In . SVG Version: 6.00 Build 0)  -->
<!DOCTYPE svg PUBLIC "-//W3C//DTD SVG 1.1//EN" "http://www.w3.org/Graphics/SVG/1.1/DTD/svg11.dtd">
<svg version="1.1" id="Layer_1" xmlns="http://www.w3.org/2000/svg" xmlns:xlink="http://www.w3.org/1999/xlink" x="0px" y="0px"
	 viewBox="0 0 74 70.9" style="enable-background:new 0 0 74 70.9;" xml:space="preserve">
<style type="text/css">
	.st0{fill:#CCCCCC;}
</style>
<g>
	<path class="st0" d="M21.4,58.2h-3.8l-0.9,2.4h-2.4l4.4-11.4h1.8l4.4,11.4h-2.5L21.4,58.2z M18.2,56.3h2.6L19.9,54l-0.4-1.8h-0.1
		L19.1,54L18.2,56.3z"/>
	<path class="st0" d="M26,49.3h2.3v3.6h0.2c0.3-0.3,0.6-0.5,1-0.7c0.4-0.2,0.8-0.3,1.3-0.3c1.1,0,1.9,0.4,2.5,1.1
		c0.6,0.7,0.9,1.8,0.9,3.1c0,0.7-0.1,1.4-0.3,2c-0.2,0.6-0.5,1.1-0.9,1.5s-0.9,0.7-1.4,0.9c-0.6,0.2-1.2,0.3-1.9,0.3
		c-0.8,0-1.5-0.1-2.2-0.2c-0.6-0.1-1.1-0.2-1.5-0.4V49.3z M28.3,58.7c0.2,0.1,0.4,0.2,0.7,0.2c0.2,0,0.5,0,0.8,0
		c1.4,0,2.1-0.9,2.1-2.7c0-0.8-0.1-1.4-0.4-1.8c-0.3-0.4-0.7-0.6-1.3-0.6c-0.5,0-0.9,0.1-1.2,0.3c-0.3,0.2-0.5,0.6-0.7,1V58.7z"/>
	<path class="st0" d="M35.6,56.4c0-1.4,0.4-2.5,1.1-3.3c0.7-0.8,1.8-1.2,3.2-1.2c0.7,0,1.4,0.1,1.9,0.3c0.5,0.2,1,0.5,1.3,0.9
		c0.4,0.4,0.6,0.9,0.8,1.4c0.2,0.5,0.3,1.1,0.3,1.8c0,0.7-0.1,1.3-0.3,1.9c-0.2,0.6-0.5,1-0.8,1.4c-0.4,0.4-0.8,0.7-1.3,0.9
		c-0.5,0.2-1.1,0.3-1.8,0.3c-0.7,0-1.4-0.1-1.9-0.3c-0.5-0.2-1-0.5-1.3-0.9c-0.4-0.4-0.6-0.9-0.8-1.4C35.7,57.6,35.6,57,35.6,56.4z
		 M37.9,56.4c0,0.4,0,0.7,0.1,1c0.1,0.3,0.2,0.6,0.3,0.8c0.2,0.2,0.4,0.4,0.6,0.6c0.2,0.1,0.5,0.2,0.9,0.2c1.3,0,2-0.9,2-2.6
		c0-0.4,0-0.7-0.1-1s-0.2-0.6-0.3-0.8c-0.2-0.2-0.4-0.4-0.6-0.5c-0.3-0.1-0.6-0.2-0.9-0.2c-0.6,0-1.1,0.2-1.4,0.6
		C38.1,54.8,37.9,55.5,37.9,56.4z"/>
	<path class="st0" d="M48.3,52.1v4.7c0,0.7,0.1,1.2,0.3,1.5c0.2,0.3,0.6,0.5,1.1,0.5c0.5,0,0.9-0.1,1.2-0.4c0.3-0.2,0.6-0.6,0.7-0.9
		v-5.4h2.3V58c0,0.5,0,0.9,0.1,1.4c0,0.5,0.1,0.9,0.2,1.2h-1.7L52,59.3h-0.2c-0.3,0.5-0.7,0.8-1.2,1.1c-0.5,0.3-1.1,0.4-1.8,0.4
		c-0.5,0-0.9-0.1-1.2-0.2c-0.4-0.1-0.7-0.3-0.9-0.6c-0.2-0.3-0.4-0.6-0.5-1.1c-0.1-0.5-0.2-1-0.2-1.7v-5.2H48.3z"/>
	<path class="st0" d="M55.3,52.1h1.3V51l2.3-0.6v1.8h2.3V54h-2.3V57c0,0.7,0.1,1.2,0.2,1.5c0.1,0.3,0.4,0.4,0.8,0.4
		c0.2,0,0.5,0,0.6-0.1c0.2,0,0.4-0.1,0.5-0.2l0.5,1.7c-0.3,0.2-0.7,0.3-1.2,0.4c-0.4,0.1-0.9,0.2-1.3,0.2c-0.8,0-1.5-0.2-1.8-0.6
		s-0.6-1.1-0.6-2V54h-1.3V52.1z"/>
</g>
<path class="st0" d="M49.6,43.9l-7.2-14.6c3.3-1.7,5.6-5.1,5.6-9c0-5.6-4.5-10.1-10.1-10.1c-5.6,0-10.1,4.5-10.1,10.1
	c0,4,2.3,7.4,5.6,9l-7.2,14.6H49.6z"/>
</svg>
