<?xml version="1.0" encoding="utf-8"?>
<!-- Generator: Adobe Illustrator 21.1.0, SVG Export Plug-In . SVG Version: 6.00 Build 0)  -->
<!DOCTYPE svg PUBLIC "-//W3C//DTD SVG 1.1//EN" "http://www.w3.org/Graphics/SVG/1.1/DTD/svg11.dtd">
<svg version="1.1" id="Layer_1" xmlns="http://www.w3.org/2000/svg" xmlns:xlink="http://www.w3.org/1999/xlink" x="0px" y="0px"
	 viewBox="0 0 59.8 59.8" enable-background="new 0 0 59.8 59.8" xml:space="preserve">
<g>
	<path fill="#CCCCCC" d="M54.9,3.6c0.7,0,1.3,0.6,1.3,1.3v50c0,0.7-0.6,1.3-1.3,1.3h-50c-0.7,0-1.3-0.6-1.3-1.3v-50
		c0-0.7,0.6-1.3,1.3-1.3L54.9,3.6 M54.9,0h-50C2.2,0,0,2.2,0,4.9v50c0,2.7,2.2,4.9,4.9,4.9h50c2.7,0,4.9-2.2,4.9-4.9v-50
		C59.8,2.2,57.6,0,54.9,0L54.9,0z"/>
</g>
<g>
	<path fill="#CCCCCC" d="M15.9,36.2l-2,7.3H7.2l8.7-28.6h8.5l8.9,28.6h-7l-2.2-7.3H15.9z M23.2,31.4l-1.8-6.1
		c-0.5-1.7-1-3.8-1.4-5.5h-0.1c-0.4,1.7-0.8,3.9-1.3,5.5l-1.7,6.1H23.2z"/>
	<path fill="#CCCCCC" d="M38.5,35.2c0.2,2.7,2.8,3.9,5.9,3.9c2.2,0,4-0.3,5.7-0.8l0.8,4.4c-2.1,0.8-4.7,1.3-7.5,1.3
		c-7,0-11.1-4.1-11.1-10.6c0-5.3,3.3-11.1,10.5-11.1c6.7,0,9.3,5.2,9.3,10.4c0,1.1-0.1,2.1-0.2,2.5H38.5z M46.1,30.8
		c0-1.6-0.7-4.2-3.7-4.2c-2.7,0-3.8,2.5-4,4.2H46.1z"/>
</g>
</svg>
