<?xml version="1.0" encoding="utf-8"?>
<!-- Generator: Adobe Illustrator 21.1.0, SVG Export Plug-In . SVG Version: 6.00 Build 0)  -->
<!DOCTYPE svg PUBLIC "-//W3C//DTD SVG 1.1//EN" "http://www.w3.org/Graphics/SVG/1.1/DTD/svg11.dtd">
<svg version="1.1" id="Layer_1" xmlns="http://www.w3.org/2000/svg" xmlns:xlink="http://www.w3.org/1999/xlink" x="0px" y="0px"
	 viewBox="0 0 59.8 59.8" style="enable-background:new 0 0 59.8 59.8;" xml:space="preserve">
<style type="text/css">
	.st0{fill:#EEEEEE;}
</style>
<g>
	<path class="st0" d="M54.9,3.6c0.7,0,1.3,0.6,1.3,1.3v50c0,0.7-0.6,1.3-1.3,1.3h-50c-0.7,0-1.3-0.6-1.3-1.3v-50
		c0-0.7,0.6-1.3,1.3-1.3L54.9,3.6 M54.9,0h-50C2.2,0,0,2.2,0,4.9v50c0,2.7,2.2,4.9,4.9,4.9h50c2.7,0,4.9-2.2,4.9-4.9v-50
		C59.8,2.2,57.6,0,54.9,0L54.9,0z"/>
</g>
<g>
	<path class="st0" d="M20,36.7l-2.2,7.8h-7.1L20,14.2h9l9.4,30.2H31l-2.3-7.8L20,36.7L20,36.7z M27.7,31.6l-1.9-6.4
		c-0.5-1.8-1.1-4-1.5-5.8h-0.1c-0.4,1.8-0.9,4.1-1.4,5.8L21,31.6H27.7z"/>
	<path class="st0" d="M47.3,16.4c0,1.9-1.4,3.4-3.7,3.4c-2.2,0-3.6-1.5-3.5-3.4c0-2,1.4-3.5,3.6-3.5S47.3,14.4,47.3,16.4z
		 M40.3,44.4V22.5h6.8v21.9H40.3z"/>
</g>
</svg>
