<?xml version="1.0" encoding="utf-8"?>
<!-- Generator: Adobe Illustrator 21.1.0, SVG Export Plug-In . SVG Version: 6.00 Build 0)  -->
<!DOCTYPE svg PUBLIC "-//W3C//DTD SVG 1.1//EN" "http://www.w3.org/Graphics/SVG/1.1/DTD/svg11.dtd">
<svg version="1.1" id="Layer_1" xmlns="http://www.w3.org/2000/svg" xmlns:xlink="http://www.w3.org/1999/xlink" x="0px" y="0px"
	 viewBox="0 0 59.8 59.8" enable-background="new 0 0 59.8 59.8" xml:space="preserve">
<g>
	<path fill="#CCCCCC" d="M54.9,3.6c0.7,0,1.3,0.6,1.3,1.3v50c0,0.7-0.6,1.3-1.3,1.3h-50c-0.7,0-1.3-0.6-1.3-1.3v-50
		c0-0.7,0.6-1.3,1.3-1.3L54.9,3.6 M54.9,0h-50C2.2,0,0,2.2,0,4.9v50c0,2.7,2.2,4.9,4.9,4.9h50c2.7,0,4.9-2.2,4.9-4.9v-50
		C59.8,2.2,57.6,0,54.9,0L54.9,0z"/>
</g>
<path fill="#CCCCCC" d="M52,33.8c0.8-4.3,0.5-8.3-1.1-11.8c-0.2-0.5-0.6-1.1-1-1.1c-0.5-0.1-1.1,0.5-1.4,0.7c-1.3,1.4-1.6,3.2-1.9,5
	v0.1c-0.7,4.3-1.5,8.9-3.6,13s-4.8,6.8-8.2,8.4c-0.1,0-0.2,0.1-0.5,0.1c-0.1,0-0.2,0.1-0.5,0.1L33,48.5l0.5-0.8
	c0.1-0.1,0.9-1.6,1.5-1.9c1.5-1,2.8-2.1,4-3.4c-6.2,1.3-11.3,0-15.7-3.8c-4.3-3.6-5.9-8.4-5.2-15.1c-2.2,2.2-5,5.8-5,5.9L12,30.5
	l0.2-1.4c0.3-2.2,1.4-4.1,3.1-6c3.2-3.6,7.5-6,13.8-7.6c1.4-0.3,2.8-0.7,4.2-0.9c1-0.2,2.1-0.5,3.1-0.7c0.5-0.1,0.9-0.2,1.3-0.6
	c1-0.6,1.7-1.3,1.6-2.4c-0.1-1-1.7-1.5-2.6-1.7c-0.3-0.1-3.3-0.9-6.5-0.9c-0.3,0-0.6,0-0.9,0c-2.3,0.1-4.9,1-6.7,1.8
	C15.3,13.3,11,18.8,9.7,26.3c-2.3,13,6.7,22.8,16.7,24.8c5.8,1.1,11.7,0,16.5-3.3C47.8,44.6,51,39.6,52,33.8z"/>
<path fill="#CCCCCC" d="M41.7,13.3c-0.5-0.3-0.6-0.3-1.1,0.1c-1.1,1.1-2.5,1.8-3.4,2.2c-1,0.5-2.2,0.7-3.3,0.9l0,0
	c-0.2,0-0.6,0.1-0.8,0.1c-4.1,0.8-8.1,1.7-11.5,4c-0.6,0.3-1,1.1-1.3,1.8c-0.2,0.7-0.3,1.5-0.3,2.4c0,0.5-0.1,0.9-0.1,1.4
	c0.1,0.3,0.1,0.8,0.2,1.3c0.2,1.1,0.3,2.4,0.8,3.5c2.3,6.7,9.2,10.8,16.3,9.5c2.7-0.5,4.2-1.7,4.8-3.9l0.3-1.3
	c0.7-2.4,1.4-5.2,1.9-7.9c0.1-0.6,0.2-1.1,0.3-1.7c0.3-2.3,0.8-4.6,2.7-6.3c0-0.1,0-0.3-0.1-0.5C45.8,16.7,44,14.8,41.7,13.3z"/>
</svg>
