<?xml version="1.0" encoding="utf-8"?>
<!-- Generator: Adobe Illustrator 21.1.0, SVG Export Plug-In . SVG Version: 6.00 Build 0)  -->
<!DOCTYPE svg PUBLIC "-//W3C//DTD SVG 1.1//EN" "http://www.w3.org/Graphics/SVG/1.1/DTD/svg11.dtd">
<svg version="1.1" id="Layer_1" xmlns="http://www.w3.org/2000/svg" xmlns:xlink="http://www.w3.org/1999/xlink" x="0px" y="0px"
	 viewBox="0 0 74 70.9" style="enable-background:new 0 0 74 70.9;" xml:space="preserve">
<style type="text/css">
	.st0{fill:#CCCCCC;}
</style>
<g>
	<path class="st0" d="M33.6,32.6l-4.1,2.1C29,35,28.4,34.6,28.4,34V13.2c0-0.3,0.2-0.5,0.4-0.7l4.1-2.1c0.5-0.3,1.1,0.1,1.1,0.7V32
		C34,32.2,33.8,32.5,33.6,32.6z"/>
	<path class="st0" d="M41.1,10.6c0,7.1,0,14.1,0,21.2l0,0c-0.1,0.4-0.4,0.6-0.8,0.6c-1.4,0-2.7,0-4.1,0c-0.1,0-0.3,0-0.4-0.1
		c-0.3-0.2-0.4-0.4-0.4-0.7c0-6.9,0-13.9,0-20.8v-0.1c0-0.3,0.2-0.6,0.6-0.7h0.1c1.4,0,2.9,0,4.3,0c0.2,0,0.4,0.1,0.5,0.3
		C41,10.3,41,10.5,41.1,10.6z"/>
	<path class="st0" d="M47,34.7l-4.2-2.1c-0.3-0.1-0.4-0.4-0.4-0.7V11.1c0-0.6,0.6-0.9,1.1-0.7l4.2,2.1c0.3,0.1,0.4,0.4,0.4,0.7V34
		C48.1,34.6,47.5,35,47,34.7z"/>
	<path class="st0" d="M38.2,43.9L38.2,43.9c-0.2,0-0.3-0.1-0.4-0.2c0-0.1-7.5-4.7-7.5-4.7c-0.4-0.4-0.6-0.9-0.5-1.5
		c0.1-0.4,3.6-1.8,3.6-1.8c3.1-1.1,6.6-1.1,9.7,0c1.6,0.6,3.5,1.4,3.6,1.8c0.1,0.5-0.1,1.1-0.5,1.5c0,0-7.4,4.7-7.5,4.7
		C38.5,43.8,38.4,43.9,38.2,43.9z"/>
	<g>
		<path class="st0" d="M47.5,45.3H28.9c-0.3,0-0.6-0.3-0.6-0.7s0.3-0.7,0.6-0.7h18.7c0.3,0,0.6,0.3,0.6,0.7
			C48.1,44.9,47.9,45.3,47.5,45.3z"/>
	</g>
</g>
<g>
	<path class="st0" d="M23,56.6h-4.5v4.7h-2.4V50h2.4v4.5H23V50h2.4v11.3H23V56.6z"/>
	<path class="st0" d="M27.1,57c0-1.4,0.4-2.5,1.1-3.3s1.8-1.2,3.2-1.2c0.7,0,1.4,0.1,1.9,0.3s1,0.5,1.3,0.9c0.4,0.4,0.6,0.9,0.8,1.4
		s0.3,1.1,0.3,1.8s-0.1,1.3-0.3,1.9c-0.2,0.6-0.5,1-0.8,1.4c-0.4,0.4-0.8,0.7-1.3,0.9s-1.1,0.3-1.8,0.3s-1.4-0.1-1.9-0.3
		s-1-0.5-1.3-0.9c-0.4-0.4-0.6-0.9-0.8-1.4C27.2,58.3,27.1,57.7,27.1,57z M29.5,57c0,0.4,0,0.7,0.1,1s0.2,0.6,0.3,0.8
		c0.2,0.2,0.4,0.4,0.6,0.6c0.2,0.1,0.5,0.2,0.9,0.2c1.3,0,2-0.9,2-2.6c0-0.4,0-0.7-0.1-1s-0.2-0.6-0.3-0.8c-0.2-0.2-0.4-0.4-0.6-0.5
		c-0.3-0.1-0.6-0.2-0.9-0.2c-0.6,0-1.1,0.2-1.4,0.6C29.6,55.4,29.5,56.1,29.5,57z"/>
	<path class="st0" d="M42.9,61.3v-4.4c0-0.8-0.1-1.4-0.3-1.8c-0.2-0.4-0.5-0.5-1.1-0.5c-0.5,0-0.8,0.1-1.1,0.3s-0.5,0.5-0.6,0.9v5.5
		h-2.3v-8.5h1.7l0.3,1.2h0.2c0.1-0.2,0.3-0.4,0.5-0.5c0.2-0.2,0.4-0.3,0.6-0.5c0.2-0.1,0.5-0.2,0.7-0.3c0.3-0.1,0.6-0.1,0.9-0.1
		c0.6,0,1,0.1,1.4,0.4c0.4,0.3,0.7,0.7,0.9,1.3c0.3-0.5,0.7-0.9,1.1-1.2s1-0.4,1.6-0.4c0.5,0,1,0.1,1.3,0.2c0.4,0.1,0.7,0.3,0.9,0.6
		s0.4,0.7,0.5,1.2s0.2,1.1,0.2,1.9v4.9H48V57c0-0.4,0-0.7,0-0.9s-0.1-0.5-0.2-0.7c-0.1-0.2-0.2-0.3-0.4-0.4
		c-0.2-0.1-0.4-0.1-0.7-0.1c-0.5,0-0.8,0.1-1.1,0.3s-0.5,0.6-0.6,1v5.4h-2.1V61.3z"/>
	<path class="st0" d="M60,60.5c-0.4,0.3-0.9,0.5-1.5,0.7s-1.3,0.3-2,0.3c-1.5,0-2.5-0.4-3.2-1.2s-1-1.9-1-3.3c0-1.5,0.4-2.6,1.1-3.4
		c0.8-0.8,1.8-1.1,3.2-1.1c0.5,0,0.9,0.1,1.3,0.2c0.4,0.1,0.8,0.3,1.2,0.6c0.3,0.3,0.6,0.6,0.8,1.1c0.2,0.4,0.3,1,0.3,1.7
		c0,0.2,0,0.5,0,0.7s-0.1,0.5-0.1,0.8h-5.7c0.1,0.7,0.3,1.3,0.6,1.6c0.4,0.4,1,0.5,1.8,0.5c0.5,0,1-0.1,1.4-0.2
		c0.4-0.1,0.7-0.3,0.9-0.4L60,60.5z M56.6,54.3c-0.7,0-1.2,0.2-1.5,0.5c-0.3,0.4-0.5,0.8-0.6,1.4h3.7c0-0.6-0.1-1.1-0.3-1.4
		C57.6,54.5,57.2,54.3,56.6,54.3z"/>
</g>
</svg>
