<?xml version="1.0" encoding="utf-8"?>
<!-- Generator: Adobe Illustrator 21.1.0, SVG Export Plug-In . SVG Version: 6.00 Build 0)  -->
<!DOCTYPE svg PUBLIC "-//W3C//DTD SVG 1.1//EN" "http://www.w3.org/Graphics/SVG/1.1/DTD/svg11.dtd">
<svg version="1.1" id="Layer_1" xmlns="http://www.w3.org/2000/svg" xmlns:xlink="http://www.w3.org/1999/xlink" x="0px" y="0px"
	 viewBox="0 0 59.8 59.8" style="enable-background:new 0 0 59.8 59.8;" xml:space="preserve">
<style type="text/css">
	.st0{fill:#EEEEEE;}
</style>
<g>
	<path class="st0" d="M54.9,3.7c0.7,0,1.3,0.6,1.3,1.3v50c0,0.7-0.6,1.3-1.3,1.3h-50c-0.7,0.1-1.3-0.5-1.3-1.3V5
		c0-0.7,0.6-1.3,1.3-1.3H54.9 M54.9,0.1h-50C2.2,0.1,0,2.3,0,5v50c0,2.7,2.2,4.9,4.9,4.9h50c2.7,0,4.9-2.2,4.9-4.9V5
		C59.8,2.3,57.6,0.1,54.9,0.1L54.9,0.1z"/>
</g>
<g>
	<path class="st0" d="M20.8,14.3v30.2h-6.9V14.3H20.8z"/>
	<path class="st0" d="M46,12.7V38c0,2.5,0.1,5.1,0.2,6.5h-6.1l-0.3-3.2h-0.1c-1.4,2.5-4,3.7-6.9,3.7c-5.2,0-9.4-4.4-9.4-11.3
		c0-7.4,4.6-11.7,9.8-11.7c2.7,0,4.8,0.9,5.8,2.5h0.1V12.7H46z M39.2,31.9c0-0.4,0-0.9-0.1-1.2c-0.4-1.8-1.9-3.4-4-3.4
		c-3.1,0-4.7,2.8-4.7,6.2c0,3.7,1.8,6.1,4.7,6.1c2,0,3.5-1.3,3.9-3.3c0.1-0.5,0.2-1,0.2-1.6C39.2,34.7,39.2,31.9,39.2,31.9z"/>
</g>
</svg>
