<?xml version="1.0" encoding="utf-8"?>
<!-- Generator: Adobe Illustrator 21.1.0, SVG Export Plug-In . SVG Version: 6.00 Build 0)  -->
<!DOCTYPE svg PUBLIC "-//W3C//DTD SVG 1.1//EN" "http://www.w3.org/Graphics/SVG/1.1/DTD/svg11.dtd">
<svg version="1.1" id="Layer_1" xmlns="http://www.w3.org/2000/svg" xmlns:xlink="http://www.w3.org/1999/xlink" x="0px" y="0px"
	 viewBox="0 0 141.3 237.6" enable-background="new 0 0 141.3 237.6" xml:space="preserve">
<path fill="#CCCCCB" d="M38.7,158.4l-28.5,14.2c-3.5,1.7-7.5-0.8-7.5-4.7V24.8c0-2,1.1-3.8,2.9-4.7L34,5.9c3.5-1.7,7.5,0.8,7.5,4.7
	v143.2C41.5,155.7,40.4,157.5,38.7,158.4z"/>
<path fill="#CCCCCB" d="M81.4,157H60c-4.8,0-8.8-3.9-8.8-8.8V10.9c0-4.8,3.9-8.8,8.8-8.8h21.4c4.8,0,8.8,3.9,8.8,8.8v137.3
	C90.1,153,86.2,157,81.4,157z"/>
<path fill="#CCCCCB" d="M131.3,172.7l-28.7-14.3c-1.7-0.9-2.8-2.6-2.8-4.6V10.4c0-3.8,4-6.3,7.4-4.6l28.7,14.3
	c1.7,0.9,2.8,2.6,2.8,4.6v143.4C138.7,171.9,134.7,174.4,131.3,172.7z"/>
<path fill="#CCCCCB" d="M70.7,235.5L70.7,235.5c-1.1,0-2.2-0.6-3.1-1.6c-0.3-0.4-51.4-32.5-51.4-32.5c-3-2.4-4.5-6.4-3.5-10.1
	c0.7-2.7,24.8-12.2,24.8-12.2c21.5-7.9,45.2-7.9,66.7,0c10.7,3.9,23.8,9.5,24.5,12.2c0.9,3.7-0.5,7.7-3.5,10.1
	c0,0-51.1,32.1-51.4,32.5C72.9,235,71.8,235.5,70.7,235.5z"/>
</svg>
