<?xml version="1.0" encoding="utf-8"?>
<!-- Generator: Adobe Illustrator 21.1.0, SVG Export Plug-In . SVG Version: 6.00 Build 0)  -->
<!DOCTYPE svg PUBLIC "-//W3C//DTD SVG 1.1//EN" "http://www.w3.org/Graphics/SVG/1.1/DTD/svg11.dtd">
<svg version="1.1" id="Layer_1" xmlns="http://www.w3.org/2000/svg" xmlns:xlink="http://www.w3.org/1999/xlink" x="0px" y="0px"
	 viewBox="0 0 83.6 16.6" style="enable-background:new 0 0 83.6 16.6;" xml:space="preserve">
<style type="text/css">
	.st0{fill:#C6DFE6;}
	.st1{fill:#9BC0CD;}
	.st2{fill:#7EA1B4;}
	.st3{fill:#C6E0E7;}
</style>
<path class="st0" d="M4.8,10.3L3,11.2c-0.2,0.1-0.5-0.1-0.5-0.3V1.5c0-0.1,0.1-0.2,0.2-0.3l1.9-0.9C4.8,0.1,5,0.3,5,0.6V10
	C5,10.1,5,10.2,4.8,10.3z"/>
<path class="st1" d="M8.3,0.3c0,3.2,0,6.4,0,9.6l0,0c0,0.2-0.2,0.3-0.4,0.3c-0.6,0-1.2,0-1.9,0c-0.1,0-0.1,0-0.2,0
	C5.7,10.1,5.7,10,5.7,9.8c0-3.2,0-6.3,0-9.5c0,0,0,0,0-0.1c0,0,0.1-0.2,0.2-0.2l0,0c0.7,0,1.3,0,2,0C8,0,8.1,0.1,8.2,0.1
	C8.2,0.2,8.2,0.2,8.3,0.3z"/>
<path class="st2" d="M11,11.2l-1.9-0.9C9,10.2,8.9,10.1,8.9,10V0.5c0-0.3,0.3-0.4,0.5-0.3l1.9,0.9c0.1,0.1,0.2,0.2,0.2,0.3v9.5
	C11.4,11.2,11.2,11.4,11,11.2z"/>
<path class="st1" d="M7,15.4L7,15.4c-0.1,0-0.1,0-0.2-0.1l-3.4-2.1c-0.2-0.2-0.3-0.4-0.2-0.7c0-0.2,1.6-0.8,1.6-0.8
	c1.4-0.5,3-0.5,4.4,0c0.7,0.3,1.6,0.6,1.6,0.8c0.1,0.2,0,0.5-0.2,0.7l-3.4,2.1C7.1,15.4,7,15.4,7,15.4z"/>
<g>
	<path class="st3" d="M83.3,16.6h-83C0.1,16.6,0,16.3,0,16s0.1-0.6,0.3-0.6h83c0.1,0,0.3,0.3,0.3,0.6C83.6,16.3,83.4,16.6,83.3,16.6
		z"/>
</g>
<g>
	<path class="st3" d="M19.9,6.6C18.4,6.1,18,5.7,18,5.1C18,4.6,18.4,4,19.6,4c0.8,0,1.4,0.2,1.8,0.4l0.4,0.2L22.4,3l-0.2-0.1
		c-0.4-0.2-1.2-0.5-2.5-0.5c-2.2,0-3.7,1.2-3.7,2.9c0,1.4,1,2.4,3,3c1.5,0.5,1.7,1,1.7,1.6c0,0.8-0.7,1.3-1.8,1.3
		c-0.8,0-1.6-0.2-2.2-0.6l-0.4-0.2L15.7,12l0.2,0.1c0.6,0.4,1.8,0.7,2.9,0.7c2.8,0,4-1.6,4-3.1C22.7,8.3,21.9,7.3,19.9,6.6z"/>
	<path class="st3" d="M26.1,3.1l-2,0.5v1.6H23v1.6h1.2v3.4c0,1,0.2,1.6,0.6,2s1,0.6,1.7,0.6c0.5,0,1-0.1,1.3-0.2l0.2-0.1L27.9,11
		l-0.4,0.1c-0.1,0-0.4,0.1-0.7,0.1c-0.3,0-0.7-0.1-0.7-1V6.7H28V5.1h-1.9C26.1,5.1,26.1,3.1,26.1,3.1z"/>
	<path class="st3" d="M34.9,10.7V8.1c0-2-1.1-3.1-3.2-3.1c-1,0-1.9,0.2-2.6,0.7l-0.2,0.1l0.5,1.4L29.7,7c0.5-0.3,1.1-0.5,1.8-0.5
		c0.9,0,1.3,0.4,1.3,1.1c-1.7,0-3,0.4-3.7,1.1c-0.5,0.5-0.8,1.1-0.8,1.8c0,1.1,0.9,2.3,2.6,2.3c0.8,0,1.5-0.2,2.1-0.7l0.1,0.5h2
		L35,12.3C34.9,11.9,34.9,11.4,34.9,10.7z M32.9,9.2V10c0,0.1,0,0.2-0.1,0.3c-0.2,0.4-0.6,0.9-1.5,0.9c-0.3,0-0.9-0.1-0.9-0.9
		c0-0.3,0.1-0.5,0.3-0.7C31.1,9.4,31.8,9.2,32.9,9.2z"/>
	<path class="st3" d="M38.2,5.8V5.2h-1.9v0.3c0,0.6,0.1,1.2,0.1,2.1v5.1h2v-4c0-0.2,0-0.4,0.1-0.5c0.2-0.8,0.7-1.4,1.5-1.4
		c0.2,0,0.3,0,0.4,0l0.4,0.1V5.1L40.5,5C39.7,4.8,38.8,5.2,38.2,5.8z"/>
	<path class="st3" d="M44.6,3.1l-2,0.5v1.6h-1.2v1.6h1.2v3.4c0,1,0.2,1.6,0.6,2c0.4,0.4,1,0.6,1.7,0.6c0.5,0,1-0.1,1.3-0.2l0.2-0.1
		l0-1.5L46,11.1c-0.1,0-0.4,0.1-0.7,0.1s-0.7-0.1-0.7-1V6.7h1.9V5.1h-1.9V3.1z"/>
	<path class="st3" d="M50.8,2.4c-0.9,0-1.8,0.1-2.6,0.2h-0.3v10.1h2V8.9c0.2,0,0.5,0,0.7,0c1.5,0,2.7-0.4,3.4-1.2
		c0.7-0.5,1-1.3,1-2.2s-0.4-1.7-1-2.2C53.2,2.7,52.2,2.4,50.8,2.4z M52.9,5.5c0,1.5-1.4,1.7-2.3,1.7c-0.3,0-0.6,0-0.8,0V4
		C50.6,3.9,52.9,3.7,52.9,5.5z"/>
	<path class="st3" d="M59.2,5c-2.4,0-4.1,1.6-4.1,4c0,2.3,1.6,3.9,3.9,3.9c2,0,4.1-1.2,4.1-4C63.1,6.6,61.5,5,59.2,5z M61,8.9
		c0,1.4-0.8,2.4-1.9,2.4s-1.9-1-1.9-2.3c0-1.2,0.6-2.4,2-2.4C60.6,6.6,61,8.1,61,8.9z"/>
	<rect x="64.2" y="5.1" class="st3" width="2.1" height="7.5"/>
	<path class="st3" d="M65.2,2.4c-0.7,0-1.2,0.5-1.2,1.1s0.5,1.1,1.2,1.1c0.4,0,0.7-0.1,0.9-0.3c0.2-0.2,0.3-0.5,0.3-0.8
		C66.4,2.9,65.9,2.4,65.2,2.4z"/>
	<path class="st3" d="M71.8,5c-1,0-1.7,0.3-2.2,0.8V5.2h-1.9v0.3c0,0.5,0.1,1.1,0.1,1.8v5.4h2.1V8.2c0-0.2,0-0.4,0.1-0.5
		c0.2-0.5,0.7-1.1,1.5-1.1c0.9,0,1.4,0.6,1.4,1.7v4.3H75V8.2C74.8,5.8,73.2,5,71.8,5z"/>
	<path class="st3" d="M80.6,6.7V5.1h-1.9v-2l-2,0.5v1.6h-1.2v1.6h1.2v3.4c0,1,0.2,1.6,0.6,2s1,0.6,1.7,0.6c0.5,0,1-0.1,1.3-0.2
		l0.2-0.1L80.4,11L80,11.1c-0.1,0-0.4,0.1-0.7,0.1c-0.3,0-0.7-0.1-0.7-1V6.7H80.6z"/>
</g>
</svg>
