<?xml version="1.0" encoding="utf-8"?>
<!-- Generator: Adobe Illustrator 21.1.0, SVG Export Plug-In . SVG Version: 6.00 Build 0)  -->
<!DOCTYPE svg PUBLIC "-//W3C//DTD SVG 1.1//EN" "http://www.w3.org/Graphics/SVG/1.1/DTD/svg11.dtd">
<svg version="1.1" id="Layer_1" xmlns="http://www.w3.org/2000/svg" xmlns:xlink="http://www.w3.org/1999/xlink" x="0px" y="0px"
	 viewBox="0 0 59.8 59.8" style="enable-background:new 0 0 59.8 59.8;" xml:space="preserve">
<style type="text/css">
	.st0{fill:#EEEEEE;}
</style>
<g>
	<path class="st0" d="M54.9,3.6c0.7,0,1.3,0.6,1.3,1.3v50c0,0.7-0.6,1.3-1.3,1.3h-50c-0.7,0-1.3-0.6-1.3-1.3v-50
		c0-0.7,0.6-1.3,1.3-1.3L54.9,3.6 M54.9,0h-50C2.2,0,0,2.2,0,4.9v50c0,2.7,2.2,4.9,4.9,4.9h50c2.7,0,4.9-2.2,4.9-4.9v-50
		C59.8,2.2,57.6,0,54.9,0L54.9,0z"/>
</g>
<g>
	<path class="st0" d="M12.3,14.6c2.1-0.4,5.1-0.6,9.2-0.6c4.2,0,7.2,0.8,9.2,2.4c1.9,1.5,3.2,4,3.2,7s-1,5.5-2.8,7.2
		c-2.3,2.2-5.8,3.2-9.8,3.2c-0.9,0-1.7,0-2.3-0.1v10.8h-6.8L12.3,14.6L12.3,14.6z M19.1,28.3c0.6,0.1,1.3,0.2,2.3,0.2
		c3.6,0,5.9-1.8,5.9-4.9c0-2.8-1.9-4.4-5.3-4.4c-1.4,0-2.3,0.1-2.8,0.3v8.8H19.1z"/>
	<path class="st0" d="M36.1,29.7c0-3.2-0.1-5.3-0.2-7.2h5.9l0.2,4h0.2c1.1-3.2,3.8-4.5,5.9-4.5c0.6,0,0.9,0,1.4,0.1v6.4
		c-0.5-0.1-1.1-0.2-1.8-0.2c-2.5,0-4.2,1.3-4.7,3.5c-0.1,0.4-0.1,1-0.1,1.5v11.1h-6.8C36.1,44.4,36.1,29.7,36.1,29.7z"/>
</g>
</svg>
