<?xml version="1.0" encoding="utf-8"?>
<!-- Generator: Adobe Illustrator 21.1.0, SVG Export Plug-In . SVG Version: 6.00 Build 0)  -->
<!DOCTYPE svg PUBLIC "-//W3C//DTD SVG 1.1//EN" "http://www.w3.org/Graphics/SVG/1.1/DTD/svg11.dtd">
<svg version="1.1" id="Layer_1" xmlns="http://www.w3.org/2000/svg" xmlns:xlink="http://www.w3.org/1999/xlink" x="0px" y="0px"
	 viewBox="0 0 74 70.9" style="enable-background:new 0 0 74 70.9;" xml:space="preserve">
<style type="text/css">
	.st0{fill:#FFFFFF;}
</style>
<g>
	<path class="st0" d="M3.5,49.6c0.5-0.1,1-0.2,1.6-0.2s1.2-0.1,1.8-0.1s1.2,0,1.8,0.1s1.2,0.3,1.7,0.6s0.9,0.7,1.2,1.1
		c0.3,0.5,0.5,1.1,0.5,1.9c0,0.7-0.1,1.3-0.4,1.8c-0.3,0.5-0.6,0.9-1.1,1.2c-0.4,0.3-1,0.5-1.5,0.7c-0.6,0.1-1.2,0.2-1.8,0.2
		c-0.1,0-0.1,0-0.3,0c-0.1,0-0.3,0-0.4,0s-0.3,0-0.4,0s-0.2,0-0.3,0v3.8H3.5V49.6z M7.1,51.4c-0.2,0-0.4,0-0.7,0
		c-0.2,0-0.4,0-0.5,0.1v3.4c0,0,0.1,0,0.2,0s0.2,0,0.3,0c0.1,0,0.2,0,0.3,0c0.1,0,0.2,0,0.2,0c0.3,0,0.6,0,0.9-0.1
		c0.3,0,0.6-0.1,0.8-0.3c0.4,0,0.5-0.2,0.7-0.5s0.2-0.6,0.2-1c0-0.3-0.1-0.6-0.2-0.8C9.2,52,9,51.9,8.8,51.7
		c-0.2-0.1-0.5-0.2-0.8-0.2S7.4,51.4,7.1,51.4z"/>
	<path class="st0" d="M18.1,54.4c-0.3-0.1-0.6-0.2-1-0.2c-0.5,0-0.9,0.1-1.2,0.3s-0.5,0.5-0.6,0.9v5.4H13v-8.5h1.8l0.2,1.2h0.2
		c0.2-0.4,0.5-0.8,0.9-1c0.4-0.2,0.8-0.4,1.2-0.4c0.3,0,0.6,0.1,1,0.2L18.1,54.4z"/>
	<path class="st0" d="M19.6,50.5c0-0.3,0.1-0.6,0.4-0.9c0.2-0.2,0.6-0.3,1.1-0.3s0.8,0.1,1.1,0.4s0.4,0.5,0.4,0.9
		c0,0.3-0.1,0.6-0.4,0.8s-0.6,0.3-1.1,0.3s-0.8-0.1-1.1-0.3C19.7,51.1,19.6,50.8,19.6,50.5z M20,52.3h2.3v8.5H20V52.3z"/>
	<path class="st0" d="M30.5,60.8v-4.7c0-0.7-0.1-1.3-0.3-1.6C30,54.2,29.6,54,29,54c-0.5,0-0.9,0.1-1.2,0.4c-0.3,0.3-0.6,0.6-0.7,1
		c0,0.9,0,1.8,0,2.7s0,1.8,0,2.7h-2.3v-8.5h1.8l0.2,1.2H27c0.3-0.4,0.7-0.7,1.1-1c0.5-0.3,1.1-0.4,1.8-0.4c0.5,0,0.9,0.1,1.2,0.2
		c0.4,0.1,0.6,0.3,0.9,0.6c0.2,0.3,0.4,0.6,0.5,1.1s0.2,1,0.2,1.7v5.1H30.5z"/>
	<path class="st0" d="M41.5,60.3c-0.4,0.2-0.8,0.4-1.3,0.6c-0.5,0.1-1,0.2-1.6,0.2c-0.7,0-1.3-0.1-1.8-0.3s-0.9-0.5-1.2-0.9
		s-0.5-0.9-0.7-1.4c-0.1-0.5-0.2-1.2-0.2-1.8c0-1.4,0.3-2.5,1-3.3s1.7-1.2,3-1.2c0.6,0,1.2,0.1,1.6,0.2c0.4,0.1,0.8,0.2,1.1,0.4
		l-0.6,1.8c-0.3-0.1-0.6-0.2-0.8-0.3c-0.3-0.1-0.6-0.1-1-0.1c-0.7,0-1.2,0.2-1.6,0.6c-0.4,0.4-0.5,1-0.5,1.9c0,0.3,0,0.7,0.1,1
		s0.2,0.6,0.4,0.8s0.4,0.4,0.7,0.5s0.6,0.2,1,0.2c0.5,0,0.8,0,1.1-0.1s0.5-0.2,0.8-0.3L41.5,60.3z"/>
	<path class="st0" d="M43.1,50.5c0-0.3,0.1-0.6,0.4-0.9c0.2-0.2,0.6-0.3,1.1-0.3s0.8,0.1,1.1,0.4s0.4,0.5,0.4,0.9
		c0,0.3-0.1,0.6-0.4,0.8c-0.3,0.2-0.6,0.3-1.1,0.3s-0.8-0.1-1.1-0.3C43.3,51.1,43.1,50.8,43.1,50.5z M43.5,52.3h2.3v8.5h-2.3V52.3z"
		/>
	<path class="st0" d="M48.3,52.3h1.6l0.3,1.1h0.2c0.3-0.4,0.7-0.8,1.2-1c0.4-0.2,1-0.3,1.6-0.3c1.1,0,2,0.3,2.6,1s0.9,1.8,0.9,3.3
		c0,0.7-0.1,1.4-0.3,1.9c-0.2,0.6-0.5,1.1-0.8,1.5c-0.4,0.4-0.8,0.7-1.3,1c-0.5,0.2-1.1,0.3-1.8,0.3c-0.4,0-0.7,0-1-0.1
		s-0.5-0.2-0.8-0.3V64h-2.3V52.3H48.3z M52.4,54c-0.5,0-0.9,0.1-1.2,0.3s-0.5,0.6-0.6,1.1v3.3c0.2,0.2,0.4,0.3,0.6,0.4
		c0.2,0.1,0.5,0.1,0.9,0.1c0.7,0,1.3-0.2,1.6-0.7c0.4-0.5,0.5-1.2,0.5-2.2c0-0.7-0.1-1.3-0.4-1.7C53.5,54.2,53.1,54,52.4,54z"/>
	<path class="st0" d="M60.7,57.8c0,0.8,0.3,1.2,0.8,1.2c0.2,0,0.3,0,0.4,0c0.1,0,0.3-0.1,0.5-0.1l0.3,1.8c-0.2,0.1-0.5,0.2-0.9,0.3
		s-0.8,0.1-1.2,0.1c-0.7,0-1.2-0.2-1.6-0.5c-0.4-0.3-0.5-0.8-0.5-1.5v-9.6h2.3L60.7,57.8L60.7,57.8z"/>
	<path class="st0" d="M71.1,60c-0.4,0.3-0.9,0.5-1.5,0.7s-1.3,0.3-2,0.3c-1.5,0-2.5-0.4-3.2-1.2c-0.7-0.8-1-1.9-1-3.3
		c0-1.5,0.4-2.6,1.1-3.4c0.8-0.8,1.8-1.1,3.2-1.1c0.5,0,0.9,0.1,1.3,0.2c0.4,0.1,0.8,0.3,1.2,0.6c0.3,0.3,0.6,0.6,0.8,1.1
		c0.2,0.4,0.3,1,0.3,1.7c0,0.2,0,0.5,0,0.7c0,0.3-0.1,0.6-0.1,0.8h-5.7c0.1,0.7,0.3,1.3,0.6,1.6c0.4,0.3,1,0.5,1.8,0.5
		c0.5,0,1-0.1,1.4-0.2c0.4-0.1,0.7-0.3,0.9-0.4L71.1,60z M67.7,53.9c-0.7,0-1.2,0.2-1.5,0.5c-0.3,0.4-0.5,0.8-0.6,1.4h3.7
		c0-0.6-0.1-1.1-0.3-1.4C68.7,54,68.3,53.9,67.7,53.9z"/>
</g>
<g>
	<path class="st0" d="M42.6,9.9c-0.8,0-1.5,0-2.2,0.1c-4.9,0.5-9.8,1.9-14.1,4.5c-2.2,1.3-4.2,3-5.9,4.9s-3.2,4.1-4.3,6.5
		c-2.2,4.5-3,9.4-3.2,14.2c0,0.2,0,0.3,0.1,0.4c0.1,0.1,0.4,0.1,0.4,0.1H19c0,0,0.2,0,0.3-0.1c0.1-0.1,0.1-0.2,0.1-0.4
		c0-4.1,0.5-8.2,2-11.9c1.5-3.8,4.2-7.1,7.6-9.4s7.6-3.8,11.8-4.5c0.6-0.1,1.2-0.2,1.7-0.2L42.6,9.9L42.6,9.9z"/>
	<path class="st0" d="M58.1,9.9H42.6l0,0c1.8,0,3.6,0.1,5.4,0.6c2.5,0.6,4.9,1.8,6.9,3.4c4.1,3.2,6.6,8,7.1,13
		c0.3,2.5,0,5.1-1.1,7.5s-3.3,4.3-5.6,5.2c-1.2,0.5-2.5,0.7-3.7,0.8s-2.5,0-3.8-0.4c-1.2-0.4-2.4-1.1-3.3-2.1
		c-0.9-1-1.4-2.2-1.6-3.5c-0.1-0.6-0.2-1.2-0.2-1.9s0.2-1.4,0.5-2c0.6-1.3,1.8-2.1,3.2-2.2c0.7-0.1,1.4,0,2.1,0.3
		c0.7,0.3,1.2,0.8,1.5,1.4c0.3,0.7,0.4,1.1,0.2,1.9c-0.3,0.7-0.8,1.1-1.5,1v-0.1c0.6-0.2,0.9-0.7,0.9-1.1s-0.2-0.9-0.5-1.2
		c-0.6-0.7-1.4-0.9-2.3-0.7c-0.9,0.2-1.6,0.8-2,1.6c-0.4,0.8-0.4,1.8-0.2,2.9c0.1,1,0.4,2,1.1,2.8c0.6,0.8,1.5,1.2,2.5,1.4
		c2,0.3,4.3-0.2,6.1-1c1.8-0.9,3.3-2.3,4.1-4.2c0.8-1.8,1-3.9,0.7-6c-0.6-4.2-3-8.1-6.4-10.4c-1.7-1.2-3.6-2-5.6-2.3
		c-1.5-0.3-3-0.3-4.5-0.2v26.4h15.5c2.2,0,3.9-1.8,3.9-3.9v-23C62.1,11.7,60.3,9.9,58.1,9.9z"/>
</g>
</svg>
