<?xml version="1.0" encoding="utf-8"?>
<!-- Generator: Adobe Illustrator 21.1.0, SVG Export Plug-In . SVG Version: 6.00 Build 0)  -->
<!DOCTYPE svg PUBLIC "-//W3C//DTD SVG 1.1//EN" "http://www.w3.org/Graphics/SVG/1.1/DTD/svg11.dtd">
<svg version="1.1" id="Layer_1" xmlns="http://www.w3.org/2000/svg" xmlns:xlink="http://www.w3.org/1999/xlink" x="0px" y="0px"
	 viewBox="0 0 539 91.9" enable-background="new 0 0 539 91.9" xml:space="preserve">
<g>
	<path fill="#707070" d="M423.4,29.8c-1.7,0.6-5.1,1.6-9.1,1.6c-4.5,0-8.1-1.1-11-3.9c-2.5-2.5-4.1-6.4-4.1-11
		c0-8.8,6.1-15.2,16-15.2c3.4,0,6.1,0.7,7.4,1.4l-0.9,3.1c-1.6-0.7-3.5-1.3-6.5-1.3c-7.2,0-11.9,4.5-11.9,11.9
		c0,7.5,4.5,11.9,11.4,11.9c2.5,0,4.2-0.4,5.1-0.8v-8.8h-6v-3.1h9.7v14.2H423.4z"/>
	<path fill="#707070" d="M429.1,16.5c0-2.5,0-4.6-0.2-6.6h3.4l0.1,4.2h0.2c1-2.8,3.3-4.6,5.9-4.6c0.4,0,0.7,0,1.1,0.1v3.6
		c-0.4-0.1-0.8-0.1-1.3-0.1c-2.7,0-4.6,2.1-5.2,4.9c-0.1,0.5-0.2,1.1-0.2,1.8v11.3h-3.8V16.5z"/>
	<path fill="#707070" d="M455,31.1l-0.3-2.7h-0.1c-1.2,1.7-3.5,3.2-6.5,3.2c-4.3,0-6.5-3-6.5-6.1c0-5.1,4.6-7.9,12.7-7.9v-0.4
		c0-1.8-0.5-4.9-4.8-4.9c-2,0-4,0.6-5.5,1.6l-0.9-2.5c1.8-1.1,4.3-1.9,7-1.9c6.5,0,8.1,4.4,8.1,8.7V26c0,1.8,0.1,3.6,0.4,5.1H455z
		 M454.4,20.3c-4.2-0.1-9,0.7-9,4.8c0,2.5,1.7,3.7,3.6,3.7c2.8,0,4.5-1.8,5.1-3.5c0.1-0.4,0.2-0.8,0.2-1.2L454.4,20.3L454.4,20.3z"
		/>
	<path fill="#707070" d="M464.3,16.8c0-2.7-0.1-4.9-0.2-6.9h3.5l0.2,3.6h0.1c1.6-2.6,4.1-4.1,7.5-4.1c5.1,0,9,4.3,9,10.8
		c0,7.6-4.6,11.4-9.6,11.4c-2.8,0-5.3-1.2-6.5-3.3h-0.1v11.5h-3.8v-23C464.4,16.8,464.3,16.8,464.3,16.8z M468.2,22.5
		c0,0.6,0.1,1.1,0.2,1.6c0.7,2.7,3,4.5,5.8,4.5c4.1,0,6.4-3.3,6.4-8.2c0-4.2-2.2-7.9-6.3-7.9c-2.6,0-5.1,1.9-5.8,4.8
		c-0.1,0.5-0.3,1.1-0.3,1.6L468.2,22.5L468.2,22.5z"/>
	<path fill="#707070" d="M489.3,0h3.9v13.2h0.1c0.6-1.1,1.6-2.1,2.8-2.7c1.1-0.7,2.5-1.1,3.9-1.1c2.8,0,7.4,1.8,7.4,9.1v12.6h-3.9
		V18.9c0-3.4-1.3-6.3-4.9-6.3c-2.5,0-4.5,1.8-5.2,3.9c-0.2,0.5-0.3,1.1-0.3,1.8v12.8h-3.9V0H489.3z"/>
	<path fill="#707070" d="M517.9,3.9c0,1.3-0.9,2.4-2.5,2.4c-1.4,0-2.3-1.1-2.3-2.4c0-1.4,1-2.4,2.4-2.4
		C516.9,1.5,517.9,2.6,517.9,3.9z M513.6,31.1V9.9h3.9v21.2H513.6z"/>
	<path fill="#707070" d="M538.9,30.3c-1,0.5-3.2,1.2-6.1,1.2c-6.4,0-10.6-4.3-10.6-10.8s4.5-11.3,11.4-11.3c2.3,0,4.3,0.6,5.3,1.1
		l-0.9,3c-0.9-0.5-2.4-1-4.5-1c-4.9,0-7.5,3.6-7.5,8c0,4.9,3.2,7.9,7.4,7.9c2.2,0,3.6-0.6,4.7-1.1L538.9,30.3z"/>
	<path fill="#707070" d="M401.3,38.9c2.6-0.4,5.6-0.7,9-0.7c6.1,0,10.4,1.4,13.3,4.1c2.9,2.7,4.6,6.5,4.6,11.8
		c0,5.4-1.7,9.7-4.7,12.7c-3.1,3.1-8.1,4.7-14.5,4.7c-3,0-5.5-0.1-7.7-0.4L401.3,38.9L401.3,38.9z M405.6,67.9
		c1.1,0.2,2.6,0.2,4.3,0.2c9.1,0,14-5.1,14-13.9c0-7.7-4.3-12.7-13.3-12.7c-2.2,0-3.8,0.2-5,0.4V67.9z"/>
	<path fill="#707070" d="M436.2,60.2c0.1,5.8,3.8,8.2,8.1,8.2c3.1,0,4.9-0.5,6.5-1.2l0.7,3.1c-1.5,0.7-4.1,1.5-7.8,1.5
		c-7.3,0-11.6-4.8-11.6-11.9s4.2-12.7,11-12.7c7.7,0,9.7,6.8,9.7,11.1c0,0.9-0.1,1.6-0.1,2h-16.5L436.2,60.2L436.2,60.2z
		 M448.7,57.2c0-2.7-1.1-7-5.9-7c-4.3,0-6.2,4-6.6,7H448.7z"/>
	<path fill="#707070" d="M457.6,66.9c1.3,0.8,3.5,1.7,5.6,1.7c3.1,0,4.6-1.6,4.6-3.5c0-2-1.2-3.2-4.4-4.3c-4.2-1.5-6.2-3.8-6.2-6.7
		c0-3.8,3.1-6.9,8.1-6.9c2.4,0,4.5,0.7,5.8,1.5l-1.1,3.1c-0.9-0.6-2.6-1.4-4.8-1.4c-2.5,0-3.9,1.5-3.9,3.2c0,1.9,1.4,2.8,4.5,4
		c4.1,1.6,6.2,3.6,6.2,7.1c0,4.1-3.2,7.1-8.8,7.1c-2.6,0-5-0.6-6.6-1.6L457.6,66.9z"/>
	<path fill="#707070" d="M482.2,41.1c0,1.5-1,2.6-2.7,2.6c-1.5,0-2.6-1.2-2.6-2.6c0-1.5,1.1-2.7,2.7-2.7
		C481.2,38.4,482.2,39.6,482.2,41.1z M477.4,71.2V47.7h4.3v23.6h-4.3V71.2z"/>
	<path fill="#707070" d="M509.1,47.7c-0.1,1.7-0.2,3.6-0.2,6.5v13.7c0,5.4-1.1,8.7-3.4,10.8c-2.3,2.1-5.6,2.8-8.6,2.8
		c-2.8,0-5.9-0.7-7.8-1.9l1.1-3.3c1.6,1,4,1.8,6.9,1.8c4.4,0,7.6-2.3,7.6-8.2v-2.6h-0.1c-1.3,2.2-3.8,3.9-7.5,3.9
		c-5.8,0-10-5-10-11.5c0-8,5.2-12.5,10.6-12.5c4.1,0,6.3,2.1,7.3,4.1h0.1l0.2-3.6L509.1,47.7L509.1,47.7z M504.7,57
		c0-0.7,0-1.4-0.2-1.9c-0.8-2.5-2.9-4.5-6-4.5c-4.1,0-7,3.5-7,8.9c0,4.6,2.3,8.5,7,8.5c2.6,0,5-1.7,5.9-4.4c0.2-0.7,0.3-1.6,0.3-2.3
		L504.7,57L504.7,57z"/>
	<path fill="#707070" d="M515.7,54.1c0-2.4,0-4.4-0.2-6.4h3.8l0.2,3.9h0.1c1.2-2.2,3.9-4.4,7.8-4.4c3.3,0,8.3,1.9,8.3,10v14.1h-4.3
		V57.7c0-3.8-1.4-7-5.4-7c-2.8,0-5,2-5.7,4.4c-0.2,0.5-0.3,1.3-0.3,2v14.2h-4.3L515.7,54.1L515.7,54.1z"/>
</g>
<g>
	<path fill="#707070" d="M0,4.5c4.3-0.7,9.8-1.3,16.9-1.3c8.7,0,15.1,2,19.1,5.7c3.7,3.2,6,8.2,6,14.3c0,6.2-1.8,11-5.3,14.6
		c-4.7,5-12.2,7.5-20.8,7.5c-2.6,0-5.1-0.1-7.1-0.6V72H0V4.5z M8.8,37.3c1.9,0.5,4.4,0.7,7.3,0.7c10.6,0,17.1-5.2,17.1-14.6
		c0-9-6.4-13.4-16.1-13.4c-3.8,0-6.8,0.3-8.3,0.7V37.3z"/>
	<path fill="#707070" d="M51.9,38.2c0-5.8-0.1-10.7-0.4-15.3h7.8l0.3,9.6H60c2.2-6.6,7.6-10.7,13.6-10.7c1,0,1.7,0.1,2.5,0.3v8.4
		c-0.9-0.2-1.8-0.3-3-0.3c-6.3,0-10.7,4.8-11.9,11.4c-0.2,1.2-0.4,2.6-0.4,4.1v26.1H52L51.9,38.2L51.9,38.2z"/>
	<path fill="#707070" d="M95.3,9.1c0.1,3-2.1,5.5-5.7,5.5c-3.1,0-5.4-2.4-5.4-5.5s2.3-5.6,5.6-5.6C93.2,3.5,95.3,6,95.3,9.1z
		 M85.4,71.9v-49h8.9v49H85.4z"/>
	<path fill="#707070" d="M109.1,36.1c0-5.1-0.1-9.2-0.4-13.3h7.9l0.5,8.1h0.2c2.4-4.7,8.1-9.2,16.2-9.2c6.8,0,17.3,4,17.3,20.8v29.2
		h-8.9V43.6c0-7.9-2.9-14.5-11.3-14.5c-5.9,0-10.4,4.1-11.9,9.1c-0.4,1.1-0.6,2.6-0.6,4.1v29.5h-8.9V36.1H109.1z"/>
	<path fill="#707070" d="M200.2,70c-2.3,1.2-7.5,2.8-14.1,2.8c-14.8,0-24.4-10-24.4-25c0-15.1,10.3-26,26.3-26
		c5.3,0,9.9,1.3,12.3,2.5l-2,6.9c-2.1-1.2-5.5-2.3-10.3-2.3c-11.2,0-17.3,8.3-17.3,18.5c0,11.3,7.3,18.3,17,18.3
		c5.1,0,8.4-1.3,10.9-2.4L200.2,70z"/>
	<path fill="#707070" d="M220.5,9.1c0.1,3-2.1,5.5-5.7,5.5c-3.1,0-5.4-2.4-5.4-5.5s2.3-5.6,5.6-5.6C218.4,3.5,220.5,6,220.5,9.1z
		 M210.6,71.9v-49h8.9v49H210.6z"/>
	<path fill="#707070" d="M234.3,38.9c0-6.3-0.2-11.3-0.4-16h8l0.4,8.4h0.2c3.6-6,9.4-9.5,17.4-9.5c11.8,0,20.7,10,20.7,24.9
		c0,17.6-10.7,26.3-22.3,26.3c-6.5,0-12.1-2.8-15.1-7.7H243v26.6h-8.8L234.3,38.9L234.3,38.9z M243.1,51.9c0,1.3,0.2,2.5,0.4,3.6
		c1.6,6.2,7,10.4,13.4,10.4c9.4,0,14.9-7.7,14.9-18.9c0-9.8-5.2-18.2-14.6-18.2c-6.1,0-11.7,4.4-13.5,11c-0.3,1.1-0.6,2.4-0.6,3.6
		L243.1,51.9L243.1,51.9z"/>
	<path fill="#707070" d="M291.9,0h8.9v71.9h-8.9V0z"/>
	<path fill="#707070" d="M320.7,49c0.2,12,7.9,17,16.8,17c6.4,0,10.2-1.1,13.6-2.5l1.5,6.4c-3.1,1.4-8.5,3-16.3,3
		c-15.1,0-24.1-9.9-24.1-24.7s8.7-26.4,23-26.4c16,0,20.2,14.1,20.2,23.1c0,1.8-0.2,3.2-0.3,4.1H320.7z M346.8,42.6
		c0.1-5.7-2.3-14.5-12.3-14.5c-9,0-13,8.3-13.7,14.5H346.8z"/>
</g>
<line fill="#707070" stroke="#58595B" stroke-width="4" stroke-miterlimit="10" x1="375.3" y1="3.5" x2="375.3" y2="72.9"/>
</svg>
