<?xml version="1.0" encoding="utf-8"?>
<!-- Generator: Adobe Illustrator 21.1.0, SVG Export Plug-In . SVG Version: 6.00 Build 0)  -->
<!DOCTYPE svg PUBLIC "-//W3C//DTD SVG 1.1//EN" "http://www.w3.org/Graphics/SVG/1.1/DTD/svg11.dtd">
<svg version="1.1" id="Layer_1" xmlns="http://www.w3.org/2000/svg" xmlns:xlink="http://www.w3.org/1999/xlink" x="0px" y="0px"
	 viewBox="0 0 74 70.9" style="enable-background:new 0 0 74 70.9;" xml:space="preserve">
<style type="text/css">
	.st0{fill:#CCCCCC;}
</style>
<g>
	<path class="st0" d="M10.6,50c0.5-0.1,1-0.2,1.6-0.2c0.6,0,1.2-0.1,1.8-0.1c0.6,0,1.2,0,1.8,0.1c0.6,0.1,1.2,0.3,1.7,0.6
		c0.5,0.3,0.9,0.7,1.2,1.1c0.3,0.5,0.5,1.1,0.5,1.9c0,0.7-0.1,1.3-0.4,1.8c-0.3,0.5-0.6,0.9-1.1,1.2c-0.4,0.3-1,0.5-1.5,0.7
		c-0.6,0.1-1.2,0.2-1.8,0.2c-0.1,0-0.1,0-0.3,0c-0.1,0-0.3,0-0.4,0c-0.1,0-0.3,0-0.4,0c-0.1,0-0.2,0-0.3,0v3.8h-2.4V50z M14.2,51.9
		c-0.2,0-0.4,0-0.7,0c-0.2,0-0.4,0-0.5,0.1v3.4c0,0,0.1,0,0.2,0c0.1,0,0.2,0,0.3,0c0.1,0,0.2,0,0.3,0c0.1,0,0.2,0,0.2,0
		c0.3,0,0.6,0,0.9-0.1c0.3,0,0.6-0.1,0.8-0.3c0.2-0.1,0.4-0.3,0.6-0.6c0.2-0.2,0.2-0.6,0.2-1c0-0.3-0.1-0.6-0.2-0.8
		c-0.1-0.2-0.3-0.4-0.6-0.5c-0.2-0.1-0.5-0.2-0.8-0.2C14.8,51.9,14.5,51.9,14.2,51.9z"/>
	<path class="st0" d="M25.3,54.8c-0.3-0.1-0.6-0.2-1-0.2c-0.5,0-0.9,0.1-1.2,0.3c-0.3,0.2-0.5,0.5-0.6,0.9v5.4h-2.3v-8.5H22l0.2,1.2
		h0.2c0.2-0.4,0.5-0.8,0.9-1c0.4-0.2,0.8-0.4,1.2-0.4c0.3,0,0.6,0.1,1,0.2L25.3,54.8z"/>
	<path class="st0" d="M26.3,57c0-1.4,0.4-2.5,1.1-3.3c0.7-0.8,1.8-1.2,3.2-1.2c0.7,0,1.4,0.1,1.9,0.3c0.5,0.2,1,0.5,1.3,0.9
		c0.4,0.4,0.6,0.9,0.8,1.4c0.2,0.5,0.3,1.1,0.3,1.8c0,0.7-0.1,1.3-0.3,1.9c-0.2,0.6-0.5,1-0.8,1.4c-0.4,0.4-0.8,0.7-1.3,0.9
		c-0.5,0.2-1.1,0.3-1.8,0.3c-0.7,0-1.4-0.1-1.9-0.3c-0.5-0.2-1-0.5-1.3-0.9c-0.4-0.4-0.6-0.9-0.8-1.4C26.4,58.2,26.3,57.6,26.3,57z
		 M28.7,57c0,0.4,0,0.7,0.1,1c0.1,0.3,0.2,0.6,0.3,0.8c0.2,0.2,0.4,0.4,0.6,0.6c0.2,0.1,0.5,0.2,0.9,0.2c1.3,0,2-0.9,2-2.6
		c0-0.4,0-0.7-0.1-1s-0.2-0.6-0.3-0.8c-0.2-0.2-0.4-0.4-0.6-0.5c-0.3-0.1-0.6-0.2-0.9-0.2c-0.6,0-1.1,0.2-1.4,0.6
		C28.8,55.4,28.7,56.1,28.7,57z"/>
	<path class="st0" d="M37.1,52.7h2.3v8.9c0,1-0.2,1.8-0.6,2.4c-0.4,0.6-1.1,0.8-2,0.8c-0.4,0-0.8,0-1.2-0.1v-1.9
		c0.3,0,0.6,0,0.8-0.1c0.2-0.1,0.4-0.2,0.5-0.4c0.1-0.2,0.2-0.4,0.2-0.6c0-0.2,0.1-0.5,0.1-0.8V52.7z M36.7,50.9
		c0-0.3,0.1-0.6,0.4-0.9c0.2-0.2,0.6-0.3,1-0.3c0.5,0,0.8,0.1,1.1,0.4c0.3,0.2,0.4,0.5,0.4,0.9c0,0.3-0.1,0.6-0.4,0.8
		c-0.3,0.2-0.6,0.3-1.1,0.3c-0.5,0-0.8-0.1-1-0.3C36.9,51.5,36.7,51.2,36.7,50.9z"/>
	<path class="st0" d="M49.2,60.5c-0.4,0.3-0.9,0.5-1.5,0.7c-0.6,0.2-1.3,0.3-2,0.3c-1.5,0-2.5-0.4-3.2-1.2c-0.7-0.8-1-1.9-1-3.3
		c0-1.5,0.4-2.6,1.1-3.4c0.8-0.8,1.8-1.1,3.2-1.1c0.5,0,0.9,0.1,1.3,0.2c0.4,0.1,0.8,0.3,1.2,0.6c0.3,0.3,0.6,0.6,0.8,1.1
		c0.2,0.4,0.3,1,0.3,1.7c0,0.2,0,0.5,0,0.7c0,0.3-0.1,0.6-0.1,0.8h-5.7c0.1,0.7,0.3,1.3,0.6,1.6c0.4,0.3,1,0.5,1.8,0.5
		c0.5,0,1-0.1,1.4-0.2c0.4-0.1,0.7-0.3,0.9-0.4L49.2,60.5z M45.8,54.3c-0.7,0-1.2,0.2-1.5,0.5c-0.3,0.4-0.5,0.8-0.6,1.4h3.7
		c0-0.6-0.1-1.1-0.3-1.4C46.8,54.5,46.4,54.3,45.8,54.3z"/>
	<path class="st0" d="M57.8,60.7c-0.4,0.2-0.8,0.4-1.3,0.6c-0.5,0.1-1,0.2-1.6,0.2c-0.7,0-1.3-0.1-1.9-0.3c-0.5-0.2-0.9-0.5-1.2-0.9
		c-0.3-0.4-0.5-0.9-0.7-1.4c-0.1-0.5-0.2-1.2-0.2-1.8c0-1.4,0.3-2.5,1-3.3c0.7-0.8,1.7-1.2,3-1.2c0.6,0,1.2,0.1,1.6,0.2
		c0.4,0.1,0.8,0.2,1.1,0.4l-0.5,1.8c-0.3-0.1-0.6-0.2-0.8-0.3c-0.3-0.1-0.6-0.1-1-0.1c-0.7,0-1.2,0.2-1.6,0.6
		c-0.4,0.4-0.5,1-0.5,1.9c0,0.3,0,0.7,0.1,1c0.1,0.3,0.2,0.6,0.4,0.8c0.2,0.2,0.4,0.4,0.7,0.5s0.6,0.2,1,0.2c0.5,0,0.8,0,1.1-0.1
		c0.3-0.1,0.5-0.2,0.8-0.3L57.8,60.7z"/>
	<path class="st0" d="M58.4,52.7h1.3v-1.2L62,51v1.8h2.3v1.9H62v2.9c0,0.7,0.1,1.2,0.2,1.5c0.1,0.3,0.4,0.4,0.8,0.4
		c0.2,0,0.5,0,0.6-0.1c0.2,0,0.4-0.1,0.5-0.2l0.5,1.7c-0.3,0.2-0.7,0.3-1.2,0.4c-0.4,0.1-0.9,0.2-1.3,0.2c-0.8,0-1.5-0.2-1.8-0.6
		s-0.6-1.1-0.6-2v-4.2h-1.3V52.7z"/>
</g>
<g>
	<path class="st0" d="M53,24.4h-1.1c-0.6-3.3-3.3-7.2-6.6-7.6v-0.1c0-4.2-3.4-6.3-7.6-6.3c-4.2,0-7.6,2.1-7.6,6.3v0.1
		c-3.3,0.4-6,4.3-6.6,7.6h-1.1c-2.3,0-4.2,1.9-4.2,4.2s1.9,4.2,4.2,4.2h3.3c0.5,6.3,5.7,11.2,12,11.2c6.4,0,11.6-4.9,12-11.2H53
		c2.3,0,4.2-1.9,4.2-4.2S55.3,24.4,53,24.4z M50,24.4h-4.8v-5.8C47.6,18.9,49.5,22.1,50,24.4z M31.8,16.7c0-3.2,2.6-4.5,5.8-4.5
		c3.2,0,5.8,1.3,5.8,4.5v0.1v7.6H31.8V16.7L31.8,16.7z M30,18.6v5.8h-4.8C25.8,22.1,27.7,18.9,30,18.6z M37.7,42.1
		c-5.4,0-9.8-4.1-10.3-9.4h20.5C47.5,38,43,42.1,37.7,42.1z M53,30.9h-3.2H25.6h-3.2c-1.3,0-2.4-1.1-2.4-2.4c0-1.3,1.1-2.4,2.4-2.4
		h0.9H30h1.8h11.7h1.8H52H53c1.3,0,2.4,1.1,2.4,2.4C55.4,29.9,54.3,30.9,53,30.9z"/>
	<circle class="st0" cx="41.5" cy="35.6" r="2"/>
	<circle class="st0" cx="34.6" cy="35.6" r="2"/>
</g>
</svg>
