<?xml version="1.0" encoding="utf-8"?>
<!-- Generator: Adobe Illustrator 21.1.0, SVG Export Plug-In . SVG Version: 6.00 Build 0)  -->
<!DOCTYPE svg PUBLIC "-//W3C//DTD SVG 1.1//EN" "http://www.w3.org/Graphics/SVG/1.1/DTD/svg11.dtd">
<svg version="1.1" id="Layer_1" xmlns="http://www.w3.org/2000/svg" xmlns:xlink="http://www.w3.org/1999/xlink" x="0px" y="0px"
	 viewBox="0 0 59.8 59.8" enable-background="new 0 0 59.8 59.8" xml:space="preserve">
<g>
	<path fill="#CCCCCC" d="M54.9,3.6c0.7,0,1.3,0.6,1.3,1.3v50c0,0.7-0.6,1.3-1.3,1.3h-50c-0.7,0-1.3-0.6-1.3-1.3v-50
		c0-0.7,0.6-1.3,1.3-1.3L54.9,3.6 M54.9,0h-50C2.2,0,0,2.2,0,4.9v50c0,2.7,2.2,4.9,4.9,4.9h50c2.7,0,4.9-2.2,4.9-4.9v-50
		C59.8,2.2,57.6,0,54.9,0L54.9,0z"/>
</g>
<g>
	<path fill="#CCCCCC" d="M11.4,14.6c2.1-0.4,5.1-0.6,9.2-0.6c4.2,0,7.2,0.8,9.2,2.4c1.9,1.5,3.2,4,3.2,7s-1,5.5-2.8,7.2
		c-2.3,2.2-5.8,3.2-9.8,3.2c-0.9,0-1.7,0-2.3-0.1v10.8h-6.8L11.4,14.6L11.4,14.6z M18.2,28.3c0.6,0.1,1.3,0.2,2.3,0.2
		c3.6,0,5.9-1.8,5.9-4.9c0-2.8-1.9-4.4-5.3-4.4c-1.4,0-2.3,0.1-2.8,0.3L18.2,28.3L18.2,28.3z"/>
	<path fill="#CCCCCC" d="M34.6,38.5c1.3,0.8,3.9,1.7,5.9,1.7c2.1,0,2.9-0.7,2.9-1.8s-0.7-1.7-3.2-2.5c-4.5-1.5-6.3-4-6.2-6.6
		c0-4.1,3.5-7.2,8.9-7.2c2.6,0,4.8,0.6,6.2,1.3L47.9,28c-1-0.5-2.9-1.3-4.8-1.3c-1.7,0-2.6,0.7-2.6,1.8c0,1,0.9,1.6,3.5,2.5
		c4.2,1.4,5.9,3.5,6,6.8c0,4.1-3.2,7.1-9.5,7.1c-2.9,0-5.4-0.6-7.1-1.5L34.6,38.5z"/>
</g>
</svg>
