<?xml version="1.0" encoding="utf-8"?>
<!-- Generator: Adobe Illustrator 21.1.0, SVG Export Plug-In . SVG Version: 6.00 Build 0)  -->
<!DOCTYPE svg PUBLIC "-//W3C//DTD SVG 1.1//EN" "http://www.w3.org/Graphics/SVG/1.1/DTD/svg11.dtd">
<svg version="1.1" id="Layer_1" xmlns="http://www.w3.org/2000/svg" xmlns:xlink="http://www.w3.org/1999/xlink" x="0px" y="0px"
	 viewBox="0 0 74 70.9" style="enable-background:new 0 0 74 70.9;" xml:space="preserve">
<style type="text/css">
	.st0{fill:#CCCCCC;}
</style>
<g>
	<path class="st0" d="M8.2,57.3c0-0.3-0.1-0.6-0.4-0.8c-0.3-0.2-0.6-0.4-1-0.5c-0.4-0.2-0.9-0.3-1.3-0.5c-0.5-0.2-0.9-0.4-1.3-0.6
		c-0.4-0.3-0.8-0.6-1-1c-0.3-0.4-0.4-0.9-0.4-1.6c0-0.6,0.1-1.1,0.3-1.5s0.5-0.8,0.8-1.1C4.1,49.4,4.5,49.2,5,49
		c0.5-0.1,1.1-0.2,1.7-0.2c0.7,0,1.4,0.1,2,0.2c0.6,0.1,1.2,0.3,1.6,0.5l-0.8,2c-0.1-0.1-0.3-0.2-0.5-0.2c-0.2-0.1-0.4-0.2-0.7-0.2
		C8.1,51,7.8,51,7.5,50.9c-0.3,0-0.6-0.1-0.9-0.1c-0.5,0-1,0.1-1.3,0.3c-0.3,0.2-0.4,0.5-0.4,0.8s0.1,0.6,0.4,0.8s0.6,0.4,1,0.5
		c0.4,0.2,0.9,0.3,1.3,0.5c0.5,0.2,0.9,0.4,1.3,0.6c0.4,0.3,0.8,0.6,1,1c0.3,0.4,0.4,0.9,0.4,1.5S10.2,58,10,58.4
		c0,0.6-0.3,1-0.7,1.3s-0.9,0.5-1.4,0.7c-0.6,0.1-1.2,0.2-1.8,0.2c-0.4,0-0.9,0-1.3-0.1c-0.4,0-0.8-0.1-1.1-0.2
		c-0.3-0.1-0.6-0.1-0.9-0.2c-0.3-0.1-0.5-0.2-0.6-0.2l0.8-2C3.1,58,3.3,58,3.5,58.1s0.4,0.1,0.7,0.2c0.3,0.1,0.5,0.1,0.8,0.2
		c0.3,0,0.6,0.1,0.9,0.1c0.7,0,1.3-0.1,1.6-0.3C8,58,8.2,57.7,8.2,57.3z"/>
	<path class="st0" d="M11.8,56.1c0-1.4,0.4-2.5,1.1-3.3c0.7-0.8,1.8-1.2,3.2-1.2c0.7,0,1.4,0.1,1.9,0.3s1,0.5,1.3,0.9
		c0.4,0.4,0.6,0.9,0.8,1.4c0.2,0.5,0.3,1.1,0.3,1.8s-0.1,1.3-0.3,1.9c-0.2,0.6-0.5,1-0.8,1.4c-0.4,0.4-0.8,0.7-1.3,0.9
		s-1.1,0.3-1.8,0.3c-0.7,0-1.4-0.1-1.9-0.3s-1-0.5-1.3-0.9c-0.4-0.4-0.6-0.9-0.8-1.4C11.9,57.3,11.8,56.8,11.8,56.1z M14.1,56.1
		c0,0.4,0,0.7,0.1,1s0.2,0.6,0.3,0.8c0.2,0.2,0.4,0.4,0.6,0.6c0.2,0.1,0.5,0.2,0.9,0.2c1.3,0,2-0.9,2-2.6c0-0.4,0-0.7-0.1-1
		s-0.2-0.6-0.3-0.8c-0.2-0.2-0.4-0.4-0.6-0.5c-0.3-0.1-0.6-0.2-0.9-0.2c-0.6,0-1.1,0.2-1.4,0.6C14.3,54.5,14.1,55.2,14.1,56.1z"/>
	<path class="st0" d="M21.1,51.9h1.3v-0.5c0-0.5,0.1-0.9,0.2-1.2c0.2-0.3,0.4-0.6,0.6-0.8c0.3-0.2,0.6-0.3,0.9-0.4
		c0.3-0.1,0.7-0.1,1.1-0.1c0.5,0,1,0,1.3,0.1c0.4,0,0.7,0.1,1.1,0.2L27.2,51c-0.3-0.1-0.5-0.1-0.7-0.2c-0.2,0-0.4-0.1-0.7-0.1
		c-0.5,0-0.8,0.1-0.9,0.3s-0.2,0.5-0.2,0.9h2.1v1.9h-2.1v6.6h-2.3v-6.6h-1.3V51.9z"/>
	<path class="st0" d="M26.8,51.9h1.3v-1.2l2.3-0.6v1.8h2.3v1.9h-2.3v2.9c0,0.7,0.1,1.2,0.2,1.5s0.4,0.4,0.8,0.4c0.2,0,0.5,0,0.6-0.1
		c0.2,0,0.4-0.1,0.6-0.2l0.5,1.7c-0.3,0.2-0.7,0.3-1.2,0.4c-0.4,0.1-0.9,0.2-1.3,0.2c-0.8,0-1.5-0.2-1.8-0.6c-0.4-0.4-0.6-1.1-0.6-2
		v-4.2h-1.3v-1.9H26.8z"/>
	<path class="st0" d="M40.6,51.9c0.3,0.7,0.6,1.4,0.9,2.1c0.3,0.7,0.6,1.4,0.9,2.1l0.3,1.4h0.2l0.2-1.4c0.2-0.7,0.4-1.4,0.6-2.1
		c0.2-0.7,0.4-1.4,0.6-2.1h2.1l-2.9,8.6h-1.6c-0.3-0.7-0.6-1.5-0.9-2.3c-0.3-0.8-0.6-1.6-0.9-2.3l-0.2-1.1h-0.3
		c0,0.2-0.1,0.4-0.1,0.6c0,0.2-0.1,0.4-0.1,0.6l-1.8,4.7h-1.7l-3-8.6h2.5l1.4,4.2l0.2,1.6h0.2l0.3-1.6l1.5-4.2h1.6V51.9z"/>
	<path class="st0" d="M70.7,59.6c-0.4,0.3-0.9,0.5-1.5,0.7s-1.3,0.3-2,0.3c-1.5,0-2.5-0.4-3.2-1.2c-0.7-0.8-1-1.9-1-3.3
		c0-1.5,0.4-2.6,1.1-3.4c0.8-0.8,1.8-1.1,3.2-1.1c0.5,0,0.9,0.1,1.3,0.2c0.4,0.1,0.8,0.3,1.2,0.6c0.3,0.3,0.6,0.6,0.8,1.1
		c0.2,0.4,0.3,1,0.3,1.7c0,0.2,0,0.5,0,0.7s-0.1,0.6-0.1,0.8h-5.6c0.1,0.7,0.3,1.3,0.6,1.6c0.4,0.3,1,0.5,1.8,0.5
		c0.5,0,1-0.1,1.4-0.2c0.4-0.1,0.7-0.3,0.9-0.4L70.7,59.6z M67.3,53.4c-0.7,0-1.2,0.2-1.5,0.5c-0.3,0.4-0.5,0.8-0.6,1.4h3.7
		c0-0.6-0.1-1.1-0.3-1.4C68.3,53.6,67.9,53.4,67.3,53.4z"/>
	<path class="st0" d="M47,52.5c0.5-0.2,1.1-0.4,1.8-0.5s1.4-0.2,2.2-0.2c0.6,0,1.1,0.1,1.5,0.2c0.4,0.1,0.7,0.3,1,0.6s0.4,0.6,0.5,1
		s0.2,0.8,0.2,1.2c0,0.5,0,1.1-0.1,1.6c0,0.5-0.1,1.1-0.1,1.7c0,0.4,0,0.8,0.1,1.2s0.1,0.8,0.3,1.1h-1.8l-0.4-1.3H52
		c-0.3,0.4-0.6,0.7-1.1,1s-1,0.4-1.7,0.4c-0.4,0-0.8-0.1-1.1-0.2c-0.3-0.1-0.6-0.3-0.9-0.5c-0.2-0.2-0.4-0.5-0.6-0.8
		c-0.1-0.3-0.2-0.6-0.2-1c0-1,0.3-1.7,1-2.2c0.6-0.5,1.6-0.7,2.9-0.7c0.3,0,0.6,0,0.9,0.1c0.3,0,0.5,0.1,0.6,0.1c0-0.2,0-0.4,0-0.6
		c0-0.4-0.1-0.7-0.3-0.9s-0.6-0.3-1.1-0.3s-1,0.1-1.5,0.2c-0.5,0.1-0.9,0.3-1.3,0.5L47,52.5z M50,58.7c0.5,0,0.9-0.1,1.2-0.4
		c0.3-0.2,0.5-0.5,0.7-0.7v-1c-0.1,0-0.1,0-0.3-0.1c-0.1,0-0.2,0-0.4-0.1c-0.1,0-0.3,0-0.4,0c-0.1,0-0.3,0-0.4,0
		c-0.6,0-1,0.1-1.3,0.3s-0.4,0.5-0.4,0.8c0,0.4,0.1,0.7,0.3,0.9C49.3,58.6,49.6,58.7,50,58.7z"/>
	<path class="st0" d="M61.5,53.9c-0.3-0.1-0.6-0.2-1-0.2c-0.5,0-0.9,0.1-1.2,0.3c-0.3,0.2-0.5,0.5-0.6,0.9v5.4h-2.3v-8.5h1.9
		l0.2,1.2h0.2c0.2-0.4,0.5-0.8,0.9-1s0.8-0.4,1.2-0.4c0.3,0,0.6,0.1,1,0.2L61.5,53.9z"/>
</g>
<g>
	<path class="st0" d="M30.8,22.4c1.4,0.8,2.8,1.5,4.2,2.3c-0.8,1.4-1.5,2.8-2.3,4.1c-1.8,3.3-3.6,6.6-5.5,9.8
		c-0.7,1.3-1.3,1.4-2.5,0.8c-2.5-1.4-2.5-1.5-1.2-4C26,31.1,28.3,26.9,30.8,22.4z"/>
	<path class="st0" d="M27.8,25.1H15.4v9.8h7C24.2,31.7,26,28.4,27.8,25.1z"/>
	<path class="st0" d="M35.9,11c0.1-0.2,0.3-0.7,0.4-0.6c0.3,0.1,0.7,0.3,0.9,0.5c2.5,4.2,5,8.4,7.3,12.7c1.3,2.3,2.3,4.7,3.4,7
		c0.4,0.8,0.2,1.2-0.6,1.6c-1.7,0.9-1.9,1-2.7-0.7c-2.3-4.9-4.5-9.8-6.7-14.7c-0.7-1.6-1.2-3.2-1.9-4.9C36,11.7,36,11.4,35.9,11z"/>
	<path class="st0" d="M40.4,25.1h-4.1c-0.5,0.9-1,1.7-1.4,2.6c-1.3,2.4-2.7,4.8-4,7.3H45C43.4,31.7,41.9,28.4,40.4,25.1z"/>
	<path class="st0" d="M46.2,25.1c0,0.1,0.1,0.1,0.1,0.2c1.7,3.1,3.2,6.4,4.7,9.6h7.4v-9.8C58.4,25.1,46.2,25.1,46.2,25.1z"/>
	<path class="st0" d="M47.6,37.3c1-0.5,1.8-0.9,2.8-1.4c1.2,1.4,2.2,3.1,2.6,5c0.2,0.9-0.4,1.3-1.1,1.7c-0.8,0.4-1.5,0.5-2.1-0.2
		C48.6,40.8,48,39.1,47.6,37.3z"/>
	<path class="st0" d="M31.2,22.1c0.4-0.8,0.7-1.6,1.2-2.4c0.1-0.2,0.8-0.3,1.2-0.2c1.1,0.5,2.1,1.1,3.2,1.7
		c-0.4,0.8-0.7,1.6-1.2,2.3c-0.1,0.2-0.8,0.4-1,0.2C33.4,23.3,32.4,22.7,31.2,22.1z"/>
	<path class="st0" d="M37,21c-1.4-0.8-2.7-1.5-4.1-2.2c0.2-1,0.8-1.6,1.7-1.7c1-0.1,2,0.2,2.6,1.1C37.9,19.1,37.8,20,37,21z"/>
	<path class="st0" d="M48.7,32.1c0.3,0.7,0.6,1.4,0.9,2c0.5,1,0.2,1.5-0.8,2c-1.5,0.7-1.6,0.7-2.4-0.7c-0.3-0.5-0.6-1.1-0.9-1.7
		C46.7,33.1,47.6,32.6,48.7,32.1z"/>
	<path class="st0" d="M22.3,38.7c1.2,0.7,2.3,1.3,3.5,2c-1.2,1.1-2.4,2.2-3.6,3.2c-0.1,0.1-0.7-0.3-0.7-0.4
		C21.8,41.8,22,40.2,22.3,38.7z"/>
</g>
</svg>
