<?xml version="1.0" encoding="utf-8"?>
<!-- Generator: Adobe Illustrator 18.0.0, SVG Export Plug-In . SVG Version: 6.00 Build 0)  -->
<!DOCTYPE svg PUBLIC "-//W3C//DTD SVG 1.1//EN" "http://www.w3.org/Graphics/SVG/1.1/DTD/svg11.dtd">
<svg version="1.1" id="Layer_1" xmlns="http://www.w3.org/2000/svg" xmlns:xlink="http://www.w3.org/1999/xlink" x="0px" y="0px"
	 viewBox="0 0 141.7 141.7" enable-background="new 0 0 141.7 141.7" xml:space="preserve">
<path fill="#FFFFFF" d="M136.4,68.5c1.9-3.3,3-7.1,3.2-11.2c0-0.4,0-0.7,0-1.1c0,0,0,0,0,0c0,0,0,0,0,0c0-14.1-11.7-25.5-26.1-25.5
	H71.3c0,0,0,0,0,0H29.1C14.7,30.7,3,42.1,3,56.2c0,0,0,0,0,0c0,0,0,0,0,0c0,0,0,0,0,0c0,14.1,11.7,25.5,26.1,25.5h58
	c0,9,0,21.4,0,24.7c0,5,5.2,5.4,8.7,2c3.3-3.3,27.7-25.9,35.8-33.9c0.3-0.3,0.5-0.5,0.8-0.8c0.1-0.1,0.1-0.1,0.2-0.2
	c0,0,0.1-0.1,0.1-0.1c0,0,0.1-0.1,0.1-0.1C134.3,71.9,135.5,70.2,136.4,68.5z M60.3,56.5c0-6.1,5-11.1,11.1-11.1
	c6.1,0,11.1,5,11.1,11.1c0,6.1-5,11.1-11.1,11.1C65.2,67.5,60.3,62.6,60.3,56.5z M93,56.5c0-6.1,5-11.1,11.1-11.1
	c6.1,0,11.1,5,11.1,11.1c0,6.1-5,11.1-11.1,11.1C98,67.5,93,62.6,93,56.5z M27.5,56.5c0-6.1,5-11.1,11.1-11.1
	c6.1,0,11.1,5,11.1,11.1c0,6.1-5,11.1-11.1,11.1C32.4,67.5,27.5,62.6,27.5,56.5z"/>
</svg>
