<?xml version="1.0" encoding="utf-8"?>
<!-- Generator: Adobe Illustrator 18.0.0, SVG Export Plug-In . SVG Version: 6.00 Build 0)  -->
<!DOCTYPE svg PUBLIC "-//W3C//DTD SVG 1.1//EN" "http://www.w3.org/Graphics/SVG/1.1/DTD/svg11.dtd">
<svg version="1.1" id="Layer_1" xmlns="http://www.w3.org/2000/svg" xmlns:xlink="http://www.w3.org/1999/xlink" x="0px" y="0px"
	 viewBox="0 0 141.7 141.7" enable-background="new 0 0 141.7 141.7" xml:space="preserve">
<ellipse transform="matrix(0.9871 0.1603 -0.1603 0.9871 6.6621 -14.133)" fill="#FFFFFF" cx="91" cy="34.2" rx="16.8" ry="22"/>
<ellipse transform="matrix(0.9955 -9.508654e-02 9.508654e-02 0.9955 -3.0203 5.0885)" fill="#FFFFFF" cx="51.9" cy="34.2" rx="16.8" ry="22"/>
<ellipse transform="matrix(0.9843 -0.1765 0.1765 0.9843 -11.3108 5.6894)" fill="#FFFFFF" cx="26.3" cy="66.4" rx="14.3" ry="18.8"/>
<ellipse transform="matrix(0.9733 0.2297 -0.2297 0.9733 18.3301 -24.6037)" fill="#FFFFFF" cx="114.8" cy="66.4" rx="14.3" ry="18.8"/>
<path fill="#FFFFFF" d="M49.3,85.9c0,0,8.6-19.5,20.8-19.5S91,86.6,91,86.6s20.7-5.6,20.7,19.6S91,125.9,91,125.9s-4.5-4.1-20.1-4.1
	s-23.4,4.6-23.4,4.6s-16.8-0.2-16.8-21.5S49.3,85.9,49.3,85.9z"/>
</svg>
